<?xml version="1.0" encoding="UTF-8" standalone="no"?>
<svg
   xmlns:dc="http://purl.org/dc/elements/1.1/"
   xmlns:cc="http://creativecommons.org/ns#"
   xmlns:rdf="http://www.w3.org/1999/02/22-rdf-syntax-ns#"
   xmlns:svg="http://www.w3.org/2000/svg"
   xmlns="http://www.w3.org/2000/svg"
   xmlns:xlink="http://www.w3.org/1999/xlink"
   xmlns:sodipodi="http://sodipodi.sourceforge.net/DTD/sodipodi-0.dtd"
   xmlns:inkscape="http://www.inkscape.org/namespaces/inkscape"
   version="1.0"
   viewBox="0 0 96 88"
   id="svg51"
   sodipodi:docname="format-line-color.svg"
   inkscape:version="0.92.3 (2405546, 2018-03-11)"
   width="96"
   height="88">
  <metadata
     id="metadata55">
    <rdf:RDF>
      <cc:Work
         rdf:about="">
        <dc:format>image/svg+xml</dc:format>
        <dc:type
           rdf:resource="http://purl.org/dc/dcmitype/StillImage" />
        <dc:title></dc:title>
      </cc:Work>
    </rdf:RDF>
  </metadata>
  <sodipodi:namedview
     pagecolor="#ffffff"
     bordercolor="#666666"
     borderopacity="1"
     objecttolerance="10"
     gridtolerance="10"
     guidetolerance="10"
     inkscape:pageopacity="0"
     inkscape:pageshadow="2"
     inkscape:window-width="1280"
     inkscape:window-height="956"
     id="namedview53"
     showgrid="false"
     showguides="false"
     inkscape:zoom="2.6074563"
     inkscape:cx="51.126067"
     inkscape:cy="68.98875"
     inkscape:window-x="0"
     inkscape:window-y="0"
     inkscape:window-maximized="1"
     inkscape:current-layer="svg51"
     fit-margin-top="0"
     fit-margin-left="0"
     fit-margin-right="0"
     fit-margin-bottom="0" />
  <defs
     id="defs21">
    <linearGradient
       id="XMLID_39_"
       x1="60.125"
       x2="60.125"
       y1="12"
       y2="20"
       gradientUnits="userSpaceOnUse">
      <stop
         stop-color="#A3C8FF"
         offset="0"
         id="stop2" />
      <stop
         stop-color="#BFD9FF"
         offset="1"
         id="stop4" />
    </linearGradient>
    <linearGradient
       id="XMLID_43_"
       x1="153"
       x2="153"
       y1="175.56"
       y2="172.44"
       gradientTransform="translate(-143,-64)"
       gradientUnits="userSpaceOnUse">
      <stop
         stop-color="#fff"
         offset="0"
         id="stop7" />
      <stop
         stop-color="#ddd"
         offset="1"
         id="stop9" />
    </linearGradient>
    <linearGradient
       id="linearGradient4437"
       x1="25.308001"
       x2="5.5848999"
       y1="64"
       y2="64"
       gradientTransform="matrix(0.75,0,0,0.78571,-2,-6.286)"
       gradientUnits="userSpaceOnUse"
       xlink:href="#XMLID_43_" />
    <linearGradient
       id="linearGradient4441"
       x1="25.308001"
       x2="5.5848999"
       y1="64"
       y2="64"
       gradientTransform="matrix(0.75,0,0,0.67857,-2,-97.43)"
       gradientUnits="userSpaceOnUse"
       xlink:href="#XMLID_43_" />
    <linearGradient
       id="linearGradient4483"
       x1="14"
       x2="14"
       y1="52"
       y2="32"
       gradientTransform="matrix(0.8,0,0,0.8,12.8,6.4)"
       gradientUnits="userSpaceOnUse"
       xlink:href="#XMLID_39_" />
    <linearGradient
       id="linearGradient4487"
       x1="14"
       x2="14"
       y1="52"
       y2="32"
       gradientTransform="matrix(1,0,0,0.8,24,-5.6)"
       gradientUnits="userSpaceOnUse"
       xlink:href="#XMLID_39_" />
    <linearGradient
       id="linearGradient3294"
       x1="160.62"
       x2="-35.602001"
       y1="165.64999"
       y2="-30.570999"
       gradientTransform="matrix(0.5,0,0,0.5,16,20)"
       gradientUnits="userSpaceOnUse">
      <stop
         stop-color="#bbb"
         offset="0"
         id="stop16" />
      <stop
         stop-color="#ddd"
         offset="1"
         id="stop18" />
    </linearGradient>
    <linearGradient
       inkscape:collect="always"
       xlink:href="#linearGradient3294"
       id="linearGradient88641"
       gradientUnits="userSpaceOnUse"
       gradientTransform="scale(0.5)"
       x1="160.62"
       y1="165.64999"
       x2="-35.602001"
       y2="-30.570999" />
    <linearGradient
       id="linearGradient4437-9"
       x1="25.308001"
       x2="5.5848999"
       y1="64"
       y2="64"
       gradientTransform="matrix(0.5,0,0,0.07142826,-4e-8,39.428522)"
       gradientUnits="userSpaceOnUse"
       xlink:href="#XMLID_43_" />
  </defs>
  <rect
     style="fill:#ffffff;fill-rule:evenodd"
     id="rect23"
     height="88"
     width="96"
     y="0"
     x="0" />
  <rect
     style="fill:url(#linearGradient4441)"
     id="rect25"
     height="76"
     width="12"
     y="-92"
     x="4"
     transform="rotate(90)" />
  <rect
     style="fill:url(#linearGradient4437)"
     id="rect29"
     height="88"
     width="12"
     y="0"
     x="4" />
  <path
     style="fill:url(#linearGradient88641)"
     inkscape:connector-curvature="0"
     id="path33"
     d="M 0,0 V 88 H 96 V 0 H 64 Z m 4,4 h 8 v 8 H 4 Z m 12,0 h 12 v 8 H 16 Z m 16,0 h 12 v 8 H 32 Z m 16,0 h 12 v 8 H 48 Z m 16,0 h 12 v 8 H 64 Z m 16,0 h 12 v 8 H 80 Z M 4,16 h 8 v 8 H 4 Z m 12,0 h 12 v 8 H 16 Z m 16,0 h 12 v 8 H 32 Z m 16,0 h 12 v 8 H 48 Z m 16,0 h 12 v 8 H 64 Z m 16,0 h 12 v 8 H 80 Z M 4,28 h 8 v 8 H 4 Z m 12,0 h 12 v 8 H 16 Z m 16,0 h 12 v 8 H 32 Z m 16,0 h 12 v 8 H 48 Z m 16,0 h 12 v 8 H 64 Z m 16,0 h 12 v 8 H 80 Z M 4,40 h 8 v 8 H 4 Z m 12,0 h 12 v 8 H 16 Z m 16,0 h 12 v 8 H 32 Z m 16,0 h 12 v 8 H 48 Z m 16,0 h 12 v 8 H 64 Z m 16,0 h 12 v 8 H 80 Z M 4,52 h 8 v 8 H 4 Z m 12,0 h 12 v 8 H 16 Z m 16,0 h 12 v 8 H 32 Z m 16,0 h 12 v 8 H 48 Z m 16,0 h 12 v 8 H 64 Z m 16,0 h 12 v 8 H 80 Z M 4,64 h 8 v 8 H 4 Z m 12,0 h 12 v 8 H 16 Z m 16,0 h 12 v 8 H 32 Z m 16,0 h 12 v 8 H 48 Z m 16,0 h 12 v 8 H 64 Z m 16,0 h 12 v 8 H 80 Z M 4,76 h 8 v 8 H 4 Z m 12,0 h 12 v 8 H 16 Z m 16,0 h 12 v 8 H 32 Z m 16,0 h 12 v 8 H 48 Z m 16,0 h 12 v 8 H 64 Z m 16,0 h 12 v 8 H 80 Z" />
  <rect
     style="opacity:0.73000004;fill:#e5ff00"
     y="-20"
     x="-16"
     id="rect43"
     height="132.13"
     width="0" />
  <rect
     style="fill:#3e61cd;fill-opacity:1;stroke-width:2.45152712"
     id="rect39-8"
     height="7.0681248"
     width="68.023544"
     y="12.000001"
     x="12" />
  <rect
     style="fill:#3e61cd;fill-opacity:1;stroke-width:1.75069809"
     id="rect47-8-3"
     height="24.437344"
     width="8.0269136"
     y="15.727503"
     x="11.999996" />
  <rect
     style="opacity:1;fill:#ffffff;fill-opacity:1;stroke:none;stroke-width:5.88097048;stroke-linecap:round;stroke-linejoin:round;stroke-miterlimit:4;stroke-dasharray:none;stroke-dashoffset:0;stroke-opacity:1;paint-order:stroke markers fill"
     id="rect88812-0-7"
     width="68"
     height="8.000001"
     x="12"
     y="40" />
  <rect
     style="fill:url(#linearGradient4437-9);stroke-width:0.24618298"
     id="rect29-3"
     height="8.000001"
     width="8"
     y="40"
     x="4" />
  <rect
     style="fill:#3e61cd;fill-opacity:1;stroke-width:2.45152712"
     id="rect39-8-4"
     height="7.0681248"
     width="68.023544"
     y="32.931877"
     x="11.976455" />
  <rect
     style="fill:#3e61cd;fill-opacity:1;stroke-width:1.87397277"
     id="rect47-8-3-5"
     height="28"
     width="8.0269136"
     y="12"
     x="71.973083" />
  <rect
     style="fill:#3bca3b;fill-opacity:1;stroke-width:2.45152712"
     id="rect39-8-5"
     height="7.0681248"
     width="68.023544"
     y="48"
     x="12.000003" />
  <rect
     style="fill:#3bca3b;fill-opacity:1;stroke-width:1.75069809"
     id="rect47-8-3-56"
     height="24.437344"
     width="8.0269136"
     y="51.727501"
     x="11.999999" />
  <rect
     style="fill:#3bca3b;fill-opacity:1;stroke-width:2.45152712"
     id="rect39-8-4-0"
     height="7.0681248"
     width="68.023544"
     y="68.931877"
     x="11.976458" />
  <rect
     style="fill:#3bca3b;fill-opacity:1;stroke-width:1.87397277"
     id="rect47-8-3-5-6"
     height="28"
     width="8.0269136"
     y="48"
     x="71.973083" />
  <rect
     style="opacity:1;fill:#ffffff;fill-opacity:1;stroke:none;stroke-width:6.79521894;stroke-linecap:round;stroke-linejoin:round;stroke-miterlimit:4;stroke-dasharray:none;stroke-dashoffset:0;stroke-opacity:1;paint-order:stroke markers fill"
     id="rect88812-0-7-7"
     width="52.084103"
     height="13.944492"
     x="20.003365"
     y="18.994118" />
  <rect
     style="opacity:1;fill:#ffffff;fill-opacity:1;stroke:none;stroke-width:6.79521894;stroke-linecap:round;stroke-linejoin:round;stroke-miterlimit:4;stroke-dasharray:none;stroke-dashoffset:0;stroke-opacity:1;paint-order:stroke markers fill"
     id="rect88812-0-7-7-9"
     width="52.084103"
     height="13.944492"
     x="20.003365"
     y="54.960468" />
</svg>
