<?xml version="1.0" encoding="UTF-8" standalone="no"?>
<!-- Created with Inkscape (http://www.inkscape.org/) -->

<svg
   id="svg1"
   sodipodi:version="0.32"
   inkscape:version="1.2.1 (9c6d41e410, 2022-07-14, custom)"
   width="64.000000mm"
   height="60.000000mm"
   sodipodi:docname="chart_contour_R_ggplot_1_1.svg"
   inkscape:export-filename="/home/manu/Desktop/chart_contour.png"
   inkscape:export-xdpi="25.400000"
   inkscape:export-ydpi="25.400000"
   version="1.1"
   xmlns:inkscape="http://www.inkscape.org/namespaces/inkscape"
   xmlns:sodipodi="http://sodipodi.sourceforge.net/DTD/sodipodi-0.dtd"
   xmlns:xlink="http://www.w3.org/1999/xlink"
   xmlns="http://www.w3.org/2000/svg"
   xmlns:svg="http://www.w3.org/2000/svg"
   xmlns:rdf="http://www.w3.org/1999/02/22-rdf-syntax-ns#"
   xmlns:cc="http://creativecommons.org/ns#"
   xmlns:dc="http://purl.org/dc/elements/1.1/">
  <defs
     id="defs3">
    <linearGradient
       id="linearGradient4044">
      <stop
         style="stop-color:#ffffff;stop-opacity:0.0000000;"
         offset="0.0000000"
         id="stop4045" />
      <stop
         style="stop-color:#363636;stop-opacity:0.18750000;"
         offset="1.0000000"
         id="stop4046" />
    </linearGradient>
    <linearGradient
       id="linearGradient3418">
      <stop
         style="stop-color:#f7f7f7;stop-opacity:1.0000000;"
         offset="0.0000000"
         id="stop3419" />
      <stop
         style="stop-color:#dedede;stop-opacity:1.0000000;"
         offset="1.0000000"
         id="stop3420" />
    </linearGradient>
    <linearGradient
       id="linearGradient2791">
      <stop
         style="stop-color:#fbfbfb;stop-opacity:1.0000000;"
         offset="0.0000000"
         id="stop2792" />
      <stop
         style="stop-color:#e9e9e9;stop-opacity:1.0000000;"
         offset="1.0000000"
         id="stop2793" />
    </linearGradient>
    <linearGradient
       inkscape:collect="always"
       xlink:href="#linearGradient2791"
       id="linearGradient2794"
       x1="0.49693251"
       y1="0.058441557"
       x2="0.49079755"
       y2="0.96103895" />
    <linearGradient
       inkscape:collect="always"
       xlink:href="#linearGradient3418"
       id="linearGradient3417"
       x1="0.53846157"
       y1="0.012987013"
       x2="0.53254437"
       y2="0.98051947" />
    <linearGradient
       inkscape:collect="always"
       xlink:href="#linearGradient4044"
       id="linearGradient4043"
       x1="0.49689442"
       y1="0.012987013"
       x2="0.49689442"
       y2="0.99350649" />
    <linearGradient
       id="gradientFill-1"
       x1="0.7414425"
       x2="590.86261"
       y1="3.6658268"
       y2="593.78699"
       gradientUnits="userSpaceOnUse"
       spreadMethod="pad"
       gradientTransform="scale(1.2219423,0.81836924)">
      <stop
         offset="0"
         stop-color="rgb(203,206,208)"
         stop-opacity="1"
         id="stop502" />
      <stop
         offset="1"
         stop-color="rgb(132,131,139)"
         stop-opacity="1"
         id="stop504" />
    </linearGradient>
    <linearGradient
       id="gradientFill-2"
       x1="301.02603"
       x2="703.0675"
       y1="151.4006"
       y2="553.44208"
       gradientUnits="userSpaceOnUse"
       spreadMethod="pad"
       gradientTransform="scale(0.9899476,1.0101545)">
      <stop
         offset="0"
         stop-color="rgb(39,109,195)"
         stop-opacity="1"
         id="stop507" />
      <stop
         offset="1"
         stop-color="rgb(22,92,170)"
         stop-opacity="1"
         id="stop509" />
    </linearGradient>
  </defs>
  <sodipodi:namedview
     id="base"
     pagecolor="#ffffff"
     bordercolor="#666666"
     borderopacity="1.0"
     inkscape:pageopacity="0.0000000"
     inkscape:pageshadow="2"
     inkscape:zoom="0.89636264"
     inkscape:cx="18.407728"
     inkscape:cy="-12.271819"
     inkscape:window-width="789"
     inkscape:window-height="713"
     showborder="true"
     showgrid="true"
     inkscape:grid-points="true"
     inkscape:grid-bbox="true"
     gridtolerance="1.0000000px"
     inkscape:guide-bbox="true"
     inkscape:guide-points="true"
     guidetolerance="1.0000000mm"
     inkscape:window-x="0"
     inkscape:window-y="0"
     showguides="true"
     inkscape:current-layer="svg1"
     inkscape:showpageshadow="2"
     inkscape:pagecheckerboard="0"
     inkscape:deskcolor="#d1d1d1"
     inkscape:document-units="mm"
     inkscape:window-maximized="0">
    <sodipodi:guide
       orientation="vertical"
       position="27.300554,-31.244094"
       id="guide5924"
       inkscape:locked="false" />
    <sodipodi:guide
       orientation="vertical"
       position="66.082649,-31.244094"
       id="guide5925"
       inkscape:locked="false" />
    <sodipodi:guide
       orientation="vertical"
       position="104.86474,-31.244094"
       id="guide5926"
       inkscape:locked="false" />
    <sodipodi:guide
       orientation="vertical"
       position="143.64684,-31.244094"
       id="guide5927"
       inkscape:locked="false" />
    <inkscape:grid
       id="GridFromPre046Settings"
       type="xygrid"
       originx="1.8897638"
       originy="1.8897638"
       spacingx="3.7795276"
       spacingy="3.7795276"
       color="#3f3fff"
       empcolor="#3f3fff"
       opacity="0.15"
       empopacity="0.38"
       empspacing="5" />
  </sodipodi:namedview>
  <metadata
     id="metadata4">
    <rdf:RDF>
      <cc:Work
         rdf:about="">
        <dc:format>image/svg+xml</dc:format>
        <dc:type
           rdf:resource="http://purl.org/dc/dcmitype/StillImage" />
      </cc:Work>
    </rdf:RDF>
  </metadata>
  <rect
     style="fill:url(#linearGradient4043);fill-opacity:1.0;fill-rule:evenodd;stroke:none;stroke-width:3.0000000pt;stroke-linecap:butt;stroke-linejoin:miter;stroke-opacity:1.0000000;"
     id="rect4047"
     width="184.25197"
     height="177.15660"
     x="23.031496"
     y="23.040251"
     rx="17.594519"
     ry="14.164467" />
  <rect
     style="fill:url(#linearGradient4043);fill-opacity:1.0;fill-rule:evenodd;stroke:none;stroke-width:3.0000000pt;stroke-linecap:butt;stroke-linejoin:miter;stroke-opacity:1.0000000;"
     id="rect3421"
     width="177.16536"
     height="173.62204"
     x="26.574802"
     y="23.031490"
     rx="17.594519"
     ry="14.164467" />
  <rect
     style="fill:url(#linearGradient2794);fill-opacity:1.0;fill-rule:evenodd;stroke:none;stroke-width:3.5262673;stroke-linecap:butt;stroke-linejoin:miter;stroke-miterlimit:4.0000000;stroke-opacity:1.0000000;"
     id="rect2169"
     width="170.38249"
     height="159.80026"
     x="30.118111"
     y="26.554472"
     rx="17.594519"
     ry="14.164467" />
  <rect
     style="fill:url(#linearGradient3417);fill-opacity:1.0;fill-rule:evenodd;stroke:none;stroke-width:3.0000000pt;stroke-linecap:butt;stroke-linejoin:miter;stroke-opacity:1.0000000;"
     id="rect3416"
     width="163.39728"
     height="149.19994"
     x="31.955462"
     y="31.699234"
     rx="17.594519"
     ry="14.164467" />
  <rect
     style="fill:#c5d2c8;fill-opacity:1.0000000;fill-rule:evenodd;stroke:#000000;stroke-width:3.5262673;stroke-linecap:butt;stroke-linejoin:miter;stroke-miterlimit:4.0000000;stroke-opacity:1.0000000;"
     id="rect386"
     width="170.38249"
     height="159.80026"
     x="29.993284"
     y="26.574797"
     rx="17.594519"
     ry="14.164467" />
  <path
     style="fill:#83a67f;fill-opacity:1.0000000;fill-rule:evenodd;stroke:#000000;stroke-width:1.7750000;stroke-linecap:butt;stroke-linejoin:miter;stroke-opacity:1.0000000;stroke-miterlimit:4.0000000;stroke-dasharray:none;"
     d="M 47.593750,26.562500 C 37.846387,26.562500 30.000000,32.902883 30.000000,40.750000 L 30.000000,157.31250 C 30.006008,157.31920 30.121170,157.68750 30.125000,157.68750 L 65.562500,148.31250 L 120.31250,93.906250 L 114.00000,28.000000 C 114.00000,28.000000 111.27000,26.882252 110.56250,26.562500 L 47.593750,26.562500 z "
     id="path13"
     sodipodi:nodetypes="ccccccccc" />
  <path
     style="fill:#d1940c;fill-opacity:1.0000000;fill-rule:evenodd;stroke:#000000;stroke-width:1.7750000;stroke-linecap:butt;stroke-linejoin:miter;stroke-opacity:1.0000000;stroke-miterlimit:4.0000000;stroke-dasharray:none;"
     d="M 47.593750,26.562500 C 37.846387,26.562500 30.000000,32.902883 30.000000,40.750000 L 30.000000,95.031250 C 30.005058,95.045916 30.125000,95.437500 30.125000,95.437500 L 76.187500,83.281250 L 80.187500,26.562500 L 47.593750,26.562500 z "
     id="path12"
     sodipodi:nodetypes="ccccccc" />
  <path
     style="fill:#83a67f;fill-opacity:1.0000000;fill-rule:evenodd;stroke:#000000;stroke-width:1.7750000;stroke-linecap:butt;stroke-linejoin:miter;stroke-opacity:1.0000000;stroke-miterlimit:4.0000000;stroke-dasharray:none;"
     d="M 180.40625,26.562500 C 180.26064,26.680328 179.46875,27.218750 179.46875,27.218750 L 149.50000,122.25000 L 69.093750,186.03125 C 68.976443,186.05329 70.037845,186.29787 70.187500,186.37500 L 182.78125,186.37500 C 192.52861,186.37500 200.37500,180.06587 200.37500,172.21875 L 200.37500,40.750000 C 200.37500,32.902885 192.52862,26.562500 182.78125,26.562500 L 180.40625,26.562500 z "
     id="path15"
     sodipodi:nodetypes="cccccccccc" />
  <path
     style="fill:#d1940c;fill-opacity:1.0000000;fill-rule:evenodd;stroke:#000000;stroke-width:1.7750000;stroke-linecap:butt;stroke-linejoin:miter;stroke-opacity:1.0000000;stroke-miterlimit:4.0000000;stroke-dasharray:none;"
     d="M 200.18750,123.84375 L 155.81250,145.93750 L 143.96875,185.78125 C 143.96875,185.78125 145.28255,186.27152 145.53125,186.37500 L 182.78125,186.37500 C 192.52861,186.37500 200.37500,180.06587 200.37500,172.21875 L 200.37500,123.96875 C 200.32000,123.94859 200.23799,123.84375 200.18750,123.84375 z "
     id="path14"
     sodipodi:nodetypes="cccccccc" />
  <rect
     style="fill:none;fill-opacity:1.0;fill-rule:evenodd;stroke:#000000;stroke-width:3.5262673;stroke-linecap:butt;stroke-linejoin:miter;stroke-miterlimit:4.0000000;stroke-opacity:1.0000000;"
     id="rect5928"
     width="170.38249"
     height="159.80026"
     x="29.993284"
     y="26.574797"
     rx="17.594519"
     ry="14.164467" />
  <g
     id="g530"
     transform="matrix(0.17337339,0,0,0.17337339,111.70257,4.8324192)">
    <path
       d="M 361.453,485.937 C 162.329,485.937 0.906,377.828 0.906,244.469 0.906,111.109 162.329,3 361.453,3 560.578,3 722,111.109 722,244.469 722,377.828 560.578,485.937 361.453,485.937 Z M 416.641,97.406 c -151.352,0 -274.047,73.908 -274.047,165.078 0,91.17 122.695,165.078 274.047,165.078 151.351,0 263.046,-50.529 263.046,-165.078 0,-114.513 -111.695,-165.078 -263.046,-165.078 z"
       fill="url(#gradientFill-1)"
       fill-rule="evenodd"
       id="path514"
       style="fill:url(#gradientFill-1)" />
    <path
       d="m 550,377 c 0,0 21.822,6.585 34.5,13 4.399,2.226 12.01,6.668 17.5,12.5 5.378,5.712 8,11.5 8,11.5 L 696,559 557,559.062 492,437 c 0,0 -13.31,-22.869 -21.5,-29.5 -6.832,-5.531 -9.745,-7.5 -16.5,-7.5 -4.702,0 -33.026,0 -33.026,0 L 421,558.974 298,559.026 V 152.938 h 247 c 0,0 112.5,2.029 112.5,109.062 0,107.033 -107.5,115 -107.5,115 z m -53.5,-135.976 -74.463,-0.048 -0.037,69.05 74.5,-0.024 c 0,0 34.5,-0.107 34.5,-35.125 0,-35.722 -34.5,-33.853 -34.5,-33.853 z"
       fill="url(#gradientFill-2)"
       fill-rule="evenodd"
       id="path516"
       style="fill:url(#gradientFill-2)" />
  </g>
</svg>
