<?xml version="1.0" encoding="UTF-8" standalone="no"?>
<svg
   xmlns:dc="http://purl.org/dc/elements/1.1/"
   xmlns:cc="http://creativecommons.org/ns#"
   xmlns:rdf="http://www.w3.org/1999/02/22-rdf-syntax-ns#"
   xmlns:svg="http://www.w3.org/2000/svg"
   xmlns="http://www.w3.org/2000/svg"
   xmlns:xlink="http://www.w3.org/1999/xlink"
   xmlns:sodipodi="http://sodipodi.sourceforge.net/DTD/sodipodi-0.dtd"
   xmlns:inkscape="http://www.inkscape.org/namespaces/inkscape"
   version="1.1"
   id="Layer_1"
   x="0px"
   y="0px"
   width="97px"
   height="97px"
   viewBox="0 0 97 97"
   enable-background="new 0 0 97 97"
   xml:space="preserve"
   sodipodi:docname="Git_icon.svg"
   inkscape:version="1.0.1 (3bc2e813f5, 2020-09-07)"><metadata
   id="metadata11"><rdf:RDF><cc:Work
       rdf:about=""><dc:format>image/svg+xml</dc:format><dc:type
         rdf:resource="http://purl.org/dc/dcmitype/StillImage" /></cc:Work></rdf:RDF></metadata><defs
   id="defs9"><inkscape:perspective
     sodipodi:type="inkscape:persp3d"
     inkscape:vp_x="0 : 24 : 1"
     inkscape:vp_y="0 : 1000 : 0"
     inkscape:vp_z="48 : 24 : 1"
     inkscape:persp3d-origin="24 : 16 : 1"
     id="perspective32" /><linearGradient
     inkscape:collect="always"
     id="linearGradient5060"><stop
       style="stop-color:black;stop-opacity:1;"
       offset="0"
       id="stop5062" /><stop
       style="stop-color:black;stop-opacity:0;"
       offset="1"
       id="stop5064" /></linearGradient><linearGradient
     id="linearGradient5048"><stop
       style="stop-color:black;stop-opacity:0;"
       offset="0"
       id="stop5050" /><stop
       id="stop5056"
       offset="0.5"
       style="stop-color:black;stop-opacity:1;" /><stop
       style="stop-color:black;stop-opacity:0;"
       offset="1"
       id="stop5052" /></linearGradient><linearGradient
     id="linearGradient11520"><stop
       id="stop11522"
       offset="0.0000000"
       style="stop-color:#ffffff;stop-opacity:1.0000000;" /><stop
       id="stop11524"
       offset="1.0000000"
       style="stop-color:#dcdcdc;stop-opacity:1.0000000;" /></linearGradient><radialGradient
     inkscape:collect="always"
     xlink:href="#linearGradient5060"
     id="radialGradient1348"
     gradientUnits="userSpaceOnUse"
     gradientTransform="matrix(1.000000,0.000000,0.000000,0.338462,-1.435476e-15,29.48178)"
     cx="30.203562"
     cy="44.565483"
     fx="30.203562"
     fy="44.565483"
     r="6.5659914" /></defs><sodipodi:namedview
   pagecolor="#ffffff"
   bordercolor="#666666"
   borderopacity="1"
   objecttolerance="10"
   gridtolerance="10"
   guidetolerance="10"
   inkscape:pageopacity="0"
   inkscape:pageshadow="2"
   inkscape:window-width="738"
   inkscape:window-height="480"
   id="namedview7"
   showgrid="false"
   inkscape:zoom="1.7525773"
   inkscape:cx="-1.6635574"
   inkscape:cy="59.305707"
   inkscape:window-x="0"
   inkscape:window-y="0"
   inkscape:window-maximized="0"
   inkscape:current-layer="Layer_1"
   inkscape:document-rotation="0" />
<g
   id="g4"
   transform="matrix(0.92153935,0,0,0.92153935,0.20044736,7.4101576)">
	<path
   fill="#f05133"
   d="M 92.71,44.408 52.591,4.291 c -2.31,-2.311 -6.057,-2.311 -8.369,0 l -8.33,8.332 10.567,10.567 c 2.456,-0.83 5.272,-0.273 7.229,1.685 1.969,1.97 2.521,4.81 1.67,7.275 l 10.186,10.185 c 2.465,-0.85 5.307,-0.3 7.275,1.671 2.75,2.75 2.75,7.206 0,9.958 -2.752,2.751 -7.208,2.751 -9.961,0 -2.068,-2.07 -2.58,-5.11 -1.531,-7.658 l -9.5,-9.499 v 24.997 c 0.67,0.332 1.303,0.774 1.861,1.332 2.75,2.75 2.75,7.206 0,9.959 -2.75,2.749 -7.209,2.749 -9.957,0 -2.75,-2.754 -2.75,-7.21 0,-9.959 0.68,-0.679 1.467,-1.193 2.307,-1.537 v -25.23 c -0.84,-0.344 -1.625,-0.853 -2.307,-1.537 -2.083,-2.082 -2.584,-5.14 -1.516,-7.698 L 31.798,16.715 4.288,44.222 c -2.311,2.313 -2.311,6.06 0,8.371 l 40.121,40.118 c 2.31,2.311 6.056,2.311 8.369,0 L 92.71,52.779 c 2.311,-2.311 2.311,-6.06 0,-8.371 z"
   id="path2" />
</g>
<g
   id="layer1"
   inkscape:label="Layer 1"
   transform="translate(-77.746196,-32.621559)"><path
     sodipodi:nodetypes="ccccccc"
     id="path2177"
     d="m 128.0742,58.243198 c 0.78793,-20.28494 18.86119,-35.982005 36.95778,-16.91839 l 8.78391,-8.46766 c 0,0 0.035,26.39412 0.035,26.39412 l -26.70615,-0.0392 c 0,0 8.65432,-8.65432 8.65432,-8.65432 -15.15104,-15.87929 -24.51966,-3.41686 -27.72489,7.68548 z"
     style="color:#000000;display:block;overflow:visible;visibility:visible;opacity:0.698864;fill:#888a85;fill-opacity:1;fill-rule:nonzero;stroke:none;stroke-width:1.78897;stroke-linecap:butt;stroke-linejoin:miter;stroke-miterlimit:10;stroke-dasharray:none;stroke-dashoffset:0;stroke-opacity:1;marker:none;marker-start:none;marker-mid:none;marker-end:none" /></g></svg>
