<?xml version="1.0" standalone="no"?>
<!DOCTYPE svg PUBLIC "-//W3C//DTD SVG 20010904//EN"
 "http://www.w3.org/TR/2001/REC-SVG-20010904/DTD/svg10.dtd">
<svg version="1.0" xmlns="http://www.w3.org/2000/svg"
 width="519.000000pt" height="481.000000pt" viewBox="0 0 519.000000 481.000000"
 preserveAspectRatio="xMidYMid meet">

<g transform="translate(0.000000,481.000000) scale(0.100000,-0.100000)"
fill="#000000" stroke="none">
<path d="M2450 4804 c0 -5 0 -642 0 -1415 -1 -1128 -3 -1409 -13 -1418 -24
-19 -193 -79 -298 -105 -302 -75 -703 -100 -1698 -104 -239 -2 -437 -5 -440
-7 -2 -3 -2 -8 2 -11 3 -3 555 -6 1226 -5 l1221 0 -3 -870 c-1 -478 1 -869 6
-869 4 0 7 15 7 33 0 17 1 408 3 867 l2 835 1360 2 c940 1 1361 5 1363 12 3 8
-412 12 -1360 13 l-1363 3 -3 97 -3 96 103 67 c410 267 673 816 882 1835 51
244 94 487 131 735 14 94 28 181 31 193 2 13 1 21 -4 18 -5 -3 -13 -34 -16
-68 -13 -114 -96 -599 -141 -823 -144 -717 -330 -1241 -551 -1552 -73 -104
-227 -253 -326 -317 -49 -32 -92 -55 -97 -52 -6 4 -9 564 -10 1407 0 771 -2
1404 -5 1407 -3 3 -6 1 -6 -4z m-2 -2946 l-3 -93 -455 -1 c-461 -2 -470 0
-185 31 232 25 459 79 590 140 55 25 56 23 53 -77z"/>
<path d="M2386 3482 c-3 -5 1 -9 9 -9 8 0 12 4 9 9 -3 4 -7 8 -9 8 -2 0 -6 -4
-9 -8z"/>
</g>
</svg>
