<?xml version="1.0" encoding="UTF-8"?>
<!DOCTYPE svg PUBLIC "-//W3C//DTD SVG 1.1//EN" "http://www.w3.org/Graphics/SVG/1.1/DTD/svg11.dtd">
<svg xmlns="http://www.w3.org/2000/svg" version="1.1" width="519px" height="481px" style="shape-rendering:geometricPrecision; text-rendering:geometricPrecision; image-rendering:optimizeQuality; fill-rule:evenodd; clip-rule:evenodd" xmlns:xlink="http://www.w3.org/1999/xlink">
<g><path style="opacity:0.004" fill="#fefffe" d="M 302.5,0.5 C 303.833,1.16667 303.833,1.16667 302.5,0.5 Z"/></g>
<g><path style="opacity:0.004" fill="#fefffe" d="M 86.5,2.5 C 87.8333,3.16667 87.8333,3.16667 86.5,2.5 Z"/></g>
<g><path style="opacity:0.365" fill="#b1b1b1" d="M 240.5,-0.5 C 240.833,-0.5 241.167,-0.5 241.5,-0.5C 242.5,0.833333 243.5,0.833333 244.5,-0.5C 244.833,-0.5 245.167,-0.5 245.5,-0.5C 246.694,1.48436 246.694,3.48436 245.5,5.5C 243.576,5.433 241.576,5.09967 239.5,4.5C 239.579,2.87174 239.912,1.20508 240.5,-0.5 Z"/></g>
<g><path style="opacity:0.196" fill="#d6d6d6" d="M 248.5,-0.5 C 248.833,-0.5 249.167,-0.5 249.5,-0.5C 249.567,0.95875 249.234,2.29208 248.5,3.5C 247.646,2.36837 247.646,1.03503 248.5,-0.5 Z"/></g>
<g><path style="opacity:0.004" fill="#fefffe" d="M 173.5,5.5 C 174.833,6.16667 174.833,6.16667 173.5,5.5 Z"/></g>
<g><path style="opacity:0.127" fill="#dddddd" d="M 248.5,3.5 C 248.402,20.6195 248.735,37.9528 249.5,55.5C 246.881,55.7683 244.381,55.435 242,54.5C 241.292,55.3805 240.458,56.0472 239.5,56.5C 238.833,56.5 238.167,56.5 237.5,56.5C 238.635,55.5255 239.635,54.3588 240.5,53C 243.195,52.7457 245.695,52.579 248,52.5C 247.586,36.2018 247.753,19.8685 248.5,3.5 Z"/></g>
<g><path style="opacity:0.004" fill="#fefffe" d="M 131.5,14.5 C 132.833,15.1667 132.833,15.1667 131.5,14.5 Z"/></g>
<g><path style="opacity:0.004" fill="#fefffe" d="M 467.5,15.5 C 468.833,16.1667 468.833,16.1667 467.5,15.5 Z"/></g>
<g><path style="opacity:0.004" fill="#fefffe" d="M 275.5,16.5 C 276.833,17.1667 276.833,17.1667 275.5,16.5 Z"/></g>
<g><path style="opacity:0.51" fill="#bababa" d="M 239.5,26.5 C 241.527,26.3379 243.527,26.5045 245.5,27C 245.957,27.414 246.291,27.914 246.5,28.5C 245.167,29.5 245.167,30.5 246.5,31.5C 244.257,32.4742 241.924,32.8076 239.5,32.5C 239.5,30.5 239.5,28.5 239.5,26.5 Z"/></g>
<g><path style="opacity:0.98" fill="#363636" d="M 249.5,-0.5 C 250.167,-0.5 250.833,-0.5 251.5,-0.5C 251.5,18.1667 251.5,36.8333 251.5,55.5C 253.5,55.5 255.5,55.5 257.5,55.5C 259.099,55.2322 260.432,55.5655 261.5,56.5C 261.918,57.2216 262.584,57.7216 263.5,58C 262.207,58.49 260.873,58.6567 259.5,58.5C 258.833,58.5 258.167,58.5 257.5,58.5C 255.735,57.5386 253.735,57.2053 251.5,57.5C 251.5,144.833 251.5,232.167 251.5,319.5C 250.502,285.004 250.168,250.337 250.5,215.5C 250.832,162.997 250.499,110.664 249.5,58.5C 247.167,57.1667 244.833,57.1667 242.5,58.5C 241.833,58.5 241.167,58.5 240.5,58.5C 239.127,58.6567 237.793,58.49 236.5,58C 237.737,57.7679 238.737,57.2679 239.5,56.5C 240.458,56.0472 241.292,55.3805 242,54.5C 244.381,55.435 246.881,55.7683 249.5,55.5C 248.735,37.9528 248.402,20.6195 248.5,3.5C 249.234,2.29208 249.567,0.95875 249.5,-0.5 Z"/></g>
<g><path style="opacity:0.082" fill="#eeeeee" d="M 251.5,-0.5 C 251.833,-0.5 252.167,-0.5 252.5,-0.5C 252.5,17.8333 252.5,36.1667 252.5,54.5C 254.415,54.2155 256.081,54.5489 257.5,55.5C 255.5,55.5 253.5,55.5 251.5,55.5C 251.5,36.8333 251.5,18.1667 251.5,-0.5 Z"/></g>
<g><path style="opacity:0.004" fill="#fefffe" d="M 416.5,32.5 C 417.833,33.1667 417.833,33.1667 416.5,32.5 Z"/></g>
<g><path style="opacity:0.004" fill="#fefffe" d="M 11.5,40.5 C 12.8333,41.1667 12.8333,41.1667 11.5,40.5 Z"/></g>
<g><path style="opacity:0.004" fill="#fefffe" d="M 233.5,43.5 C 234.833,44.1667 234.833,44.1667 233.5,43.5 Z"/></g>
<g><path style="opacity:0.004" fill="#fefffe" d="M 290.5,45.5 C 291.833,46.1667 291.833,46.1667 290.5,45.5 Z"/></g>
<g><path style="opacity:0.004" fill="#fefffe" d="M 80.5,47.5 C 81.8333,48.1667 81.8333,48.1667 80.5,47.5 Z"/></g>
<g><path style="opacity:0.004" fill="#fefffe" d="M 404.5,47.5 C 405.833,48.1667 405.833,48.1667 404.5,47.5 Z"/></g>
<g><path style="opacity:0.004" fill="#fefffe" d="M 425.5,49.5 C 426.833,50.1667 426.833,50.1667 425.5,49.5 Z"/></g>
<g><path style="opacity:0.004" fill="#fefffe" d="M 416.5,53.5 C 417.833,54.1667 417.833,54.1667 416.5,53.5 Z"/></g>
<g><path style="opacity:0.004" fill="#fefffe" d="M 356.5,55.5 C 357.833,56.1667 357.833,56.1667 356.5,55.5 Z"/></g>
<g><path style="opacity:0.004" fill="#fefffe" d="M 56.5,58.5 C 57.8333,59.1667 57.8333,59.1667 56.5,58.5 Z"/></g>
<g><path style="opacity:0.004" fill="#fefffe" d="M 509.5,58.5 C 510.833,59.1667 510.833,59.1667 509.5,58.5 Z"/></g>
<g><path style="opacity:0.137" fill="#dfdfdf" d="M 242.5,58.5 C 244.833,57.1667 247.167,57.1667 249.5,58.5C 249.825,66.3516 249.492,74.0182 248.5,81.5C 248.5,73.8333 248.5,66.1667 248.5,58.5C 246.5,58.5 244.5,58.5 242.5,58.5 Z"/></g>
<g><path style="opacity:0.871" fill="#7c7c7c" d="M 237.5,56.5 C 238.167,56.5 238.833,56.5 239.5,56.5C 238.737,57.2679 237.737,57.7679 236.5,58C 237.793,58.49 239.127,58.6567 240.5,58.5C 234.312,60.5906 228.312,63.2573 222.5,66.5C 224.031,65.0755 223.698,64.4088 221.5,64.5C 226.082,60.5162 231.415,57.8495 237.5,56.5 Z"/></g>
<g><path style="opacity:0.087" fill="#ebebeb" d="M 257.5,58.5 C 255.833,58.5 254.167,58.5 252.5,58.5C 252.5,145.5 252.5,232.5 252.5,319.5C 252.167,319.5 251.833,319.5 251.5,319.5C 251.5,232.167 251.5,144.833 251.5,57.5C 253.735,57.2053 255.735,57.5386 257.5,58.5 Z"/></g>
<g><path style="opacity:0.867" fill="#787878" d="M 261.5,56.5 C 273.025,59.5924 283.025,65.259 291.5,73.5C 291.631,74.2389 291.464,74.9056 291,75.5C 290.329,74.7476 289.496,74.4142 288.5,74.5C 286.091,73.2993 284.091,71.6326 282.5,69.5C 282.027,68.0937 281.027,67.427 279.5,67.5C 273.022,63.9248 266.355,60.9248 259.5,58.5C 260.873,58.6567 262.207,58.49 263.5,58C 262.584,57.7216 261.918,57.2216 261.5,56.5 Z"/></g>
<g><path style="opacity:0.773" fill="#777777" d="M 221.5,64.5 C 223.698,64.4088 224.031,65.0755 222.5,66.5C 204.754,80.2451 189.42,96.2451 176.5,114.5C 176.672,113.508 176.338,112.842 175.5,112.5C 185.794,96.6957 198.128,82.5291 212.5,70C 215.222,67.6422 218.222,65.8089 221.5,64.5 Z"/></g>
<g><path style="opacity:0.004" fill="#fefffe" d="M 146.5,68.5 C 147.833,69.1667 147.833,69.1667 146.5,68.5 Z"/></g>
<g><path style="opacity:0.004" fill="#fefffe" d="M 179.5,68.5 C 180.833,69.1667 180.833,69.1667 179.5,68.5 Z"/></g>
<g><path style="opacity:0.447" fill="#afafaf" d="M 279.5,67.5 C 281.027,67.427 282.027,68.0937 282.5,69.5C 280.973,69.573 279.973,68.9063 279.5,67.5 Z"/></g>
<g><path style="opacity:0.753" fill="#7a7a7a" d="M 291.5,73.5 C 297.227,78.2244 302.227,83.5578 306.5,89.5C 305.075,87.9689 304.409,88.3023 304.5,90.5C 299.5,84.8333 294.167,79.5 288.5,74.5C 289.496,74.4142 290.329,74.7476 291,75.5C 291.464,74.9056 291.631,74.2389 291.5,73.5 Z"/></g>
<g><path style="opacity:0.004" fill="#fefffe" d="M 362.5,79.5 C 363.833,80.1667 363.833,80.1667 362.5,79.5 Z"/></g>
<g><path style="opacity:0.004" fill="#fefffe" d="M 8.5,82.5 C 9.83333,83.1667 9.83333,83.1667 8.5,82.5 Z"/></g>
<g><path style="opacity:0.004" fill="#fefffe" d="M 221.5,82.5 C 222.833,83.1667 222.833,83.1667 221.5,82.5 Z"/></g>
<g><path style="opacity:0.584" fill="#a8a8a8" d="M 239.5,80.5 C 241.833,80.5 244.167,80.5 246.5,80.5C 246.5,82.1667 246.5,83.8333 246.5,85.5C 244.076,85.8076 241.743,85.4742 239.5,84.5C 240.363,83.2736 240.363,81.9403 239.5,80.5 Z"/></g>
<g><path style="opacity:0.143" fill="#e1e1e1" d="M 248.5,81.5 C 249.815,90.5983 249.815,99.5983 248.5,108.5C 248.427,99.252 248.427,90.252 248.5,81.5 Z"/></g>
<g><path style="opacity:0.004" fill="#fefffe" d="M 242.5,89.5 C 243.833,90.1667 243.833,90.1667 242.5,89.5 Z"/></g>
<g><path style="opacity:0.004" fill="#fefffe" d="M 353.5,92.5 C 354.833,93.1667 354.833,93.1667 353.5,92.5 Z"/></g>
<g><path style="opacity:0.004" fill="#fefffe" d="M 161.5,95.5 C 162.833,96.1667 162.833,96.1667 161.5,95.5 Z"/></g>
<g><path style="opacity:0.004" fill="#fefffe" d="M 419.5,96.5 C 420.833,97.1667 420.833,97.1667 419.5,96.5 Z"/></g>
<g><path style="opacity:0.004" fill="#fefffe" d="M 395.5,99.5 C 396.833,100.167 396.833,100.167 395.5,99.5 Z"/></g>
<g><path style="opacity:0.812" fill="#6e6e6e" d="M 306.5,89.5 C 313.297,95.6258 318.964,102.626 323.5,110.5C 323.672,111.492 323.338,112.158 322.5,112.5C 316.152,105.482 310.152,98.1485 304.5,90.5C 304.409,88.3023 305.075,87.9689 306.5,89.5 Z"/></g>
<g><path style="opacity:0.82" fill="#b3b3b3" d="M 239.5,106.5 C 241.833,106.5 244.167,106.5 246.5,106.5C 246.949,108.977 246.283,110.977 244.5,112.5C 242.744,112.64 241.078,112.14 239.5,111C 240.413,109.586 240.413,108.086 239.5,106.5 Z"/></g>
<g><path style="opacity:0.004" fill="#fefffe" d="M 50.5,111.5 C 51.8333,112.167 51.8333,112.167 50.5,111.5 Z"/></g>
<g><path style="opacity:0.004" fill="#fefffe" d="M 77.5,114.5 C 78.8333,115.167 78.8333,115.167 77.5,114.5 Z"/></g>
<g><path style="opacity:0.004" fill="#fefffe" d="M 68.5,116.5 C 69.8333,117.167 69.8333,117.167 68.5,116.5 Z"/></g>
<g><path style="opacity:0.004" fill="#fefffe" d="M 395.5,116.5 C 396.833,117.167 396.833,117.167 395.5,116.5 Z"/></g>
<g><path style="opacity:0.004" fill="#fefffe" d="M 158.5,118.5 C 159.833,119.167 159.833,119.167 158.5,118.5 Z"/></g>
<g><path style="opacity:0.004" fill="#fefffe" d="M 497.5,120.5 C 498.833,121.167 498.833,121.167 497.5,120.5 Z"/></g>
<g><path style="opacity:0.004" fill="#fefffe" d="M 104.5,121.5 C 105.833,122.167 105.833,122.167 104.5,121.5 Z"/></g>
<g><path style="opacity:0.004" fill="#fefffe" d="M 182.5,122.5 C 183.833,123.167 183.833,123.167 182.5,122.5 Z"/></g>
<g><path style="opacity:0.004" fill="#fefffe" d="M 221.5,126.5 C 222.833,127.167 222.833,127.167 221.5,126.5 Z"/></g>
<g><path style="opacity:0.804" fill="#797979" d="M 175.5,112.5 C 176.338,112.842 176.672,113.508 176.5,114.5C 172.215,121.448 167.549,128.115 162.5,134.5C 162.591,132.302 161.925,131.969 160.5,133.5C 164.767,125.963 169.767,118.963 175.5,112.5 Z"/></g>
<g><path style="opacity:0.659" fill="#7a7a7a" d="M 323.5,110.5 C 331.745,121.323 339.745,132.323 347.5,143.5C 349.861,147.517 352.194,151.517 354.5,155.5C 353.075,153.969 352.409,154.302 352.5,156.5C 342.116,142.113 332.116,127.446 322.5,112.5C 323.338,112.158 323.672,111.492 323.5,110.5 Z"/></g>
<g><path style="opacity:0.004" fill="#fefffe" d="M 461.5,130.5 C 462.833,131.167 462.833,131.167 461.5,130.5 Z"/></g>
<g><path style="opacity:0.004" fill="#fefffe" d="M 275.5,133.5 C 276.833,134.167 276.833,134.167 275.5,133.5 Z"/></g>
<g><path style="opacity:0.004" fill="#fefffe" d="M 110.5,134.5 C 111.833,135.167 111.833,135.167 110.5,134.5 Z"/></g>
<g><path style="opacity:0.467" fill="#b8b8b8" d="M 240.5,132.5 C 242.205,133.535 243.872,133.535 245.5,132.5C 246.833,134.5 246.833,136.5 245.5,138.5C 243.49,138.174 241.49,137.841 239.5,137.5C 239.579,135.872 239.912,134.205 240.5,132.5 Z"/></g>
<g><path style="opacity:0.004" fill="#fefffe" d="M 5.5,136.5 C 6.83333,137.167 6.83333,137.167 5.5,136.5 Z"/></g>
<g><path style="opacity:0.004" fill="#fefffe" d="M 68.5,136.5 C 69.8333,137.167 69.8333,137.167 68.5,136.5 Z"/></g>
<g><path style="opacity:0.753" fill="#727272" d="M 162.5,134.5 C 154.859,146.795 146.859,158.795 138.5,170.5C 137.075,172.031 136.409,171.698 136.5,169.5C 144.007,157.148 152.007,145.148 160.5,133.5C 161.925,131.969 162.591,132.302 162.5,134.5 Z"/></g>
<g><path style="opacity:0.004" fill="#fefffe" d="M 68.5,138.5 C 69.8333,139.167 69.8333,139.167 68.5,138.5 Z"/></g>
<g><path style="opacity:0.004" fill="#fefffe" d="M 440.5,140.5 C 441.833,141.167 441.833,141.167 440.5,140.5 Z"/></g>
<g><path style="opacity:0.97" fill="#1a1a1a" d="M 249.5,58.5 C 250.499,110.664 250.832,162.997 250.5,215.5C 250.167,215.5 249.833,215.5 249.5,215.5C 249.79,206.959 249.457,198.293 248.5,189.5C 249.815,180.402 249.815,171.402 248.5,162.5C 249.833,144.5 249.833,126.5 248.5,108.5C 249.815,99.5983 249.815,90.5983 248.5,81.5C 249.492,74.0182 249.825,66.3516 249.5,58.5 Z"/></g>
<g><path style="opacity:0.146" fill="#dfdfdf" d="M 248.5,108.5 C 249.833,126.5 249.833,144.5 248.5,162.5C 247.662,162.158 247.328,161.492 247.5,160.5C 247.84,143.069 248.173,125.736 248.5,108.5 Z"/></g>
<g><path style="opacity:0.004" fill="#fefffe" d="M 347.5,142.5 C 348.833,143.167 348.833,143.167 347.5,142.5 Z"/></g>
<g><path style="opacity:0.004" fill="#fefffe" d="M 281.5,145.5 C 282.833,146.167 282.833,146.167 281.5,145.5 Z"/></g>
<g><path style="opacity:0.004" fill="#fefffe" d="M 275.5,148.5 C 276.833,149.167 276.833,149.167 275.5,148.5 Z"/></g>
<g><path style="opacity:0.004" fill="#fefffe" d="M 383.5,149.5 C 384.833,150.167 384.833,150.167 383.5,149.5 Z"/></g>
<g><path style="opacity:0.004" fill="#fefffe" d="M 86.5,155.5 C 87.8333,156.167 87.8333,156.167 86.5,155.5 Z"/></g>
<g><path style="opacity:0.741" fill="#5e5e5e" d="M 354.5,155.5 C 354.427,157.027 355.094,158.027 356.5,158.5C 356.427,160.027 357.094,161.027 358.5,161.5C 358.414,162.496 358.748,163.329 359.5,164C 358.906,164.464 358.239,164.631 357.5,164.5C 355.336,162.178 353.669,159.511 352.5,156.5C 352.409,154.302 353.075,153.969 354.5,155.5 Z"/></g>
<g><path style="opacity:0.365" fill="#b2b2b2" d="M 354.5,155.5 C 355.906,155.973 356.573,156.973 356.5,158.5C 355.094,158.027 354.427,157.027 354.5,155.5 Z"/></g>
<g><path style="opacity:0.004" fill="#fefffe" d="M 326.5,158.5 C 327.833,159.167 327.833,159.167 326.5,158.5 Z"/></g>
<g><path style="opacity:0.004" fill="#fefffe" d="M 80.5,159.5 C 81.8333,160.167 81.8333,160.167 80.5,159.5 Z"/></g>
<g><path style="opacity:0.365" fill="#ababab" d="M 356.5,158.5 C 357.906,158.973 358.573,159.973 358.5,161.5C 357.094,161.027 356.427,160.027 356.5,158.5 Z"/></g>
<g><path style="opacity:0.778" fill="#9b9b9b" d="M 240.5,160.5 C 241.931,160.881 242.764,161.881 243,163.5C 244.941,159.446 245.775,159.78 245.5,164.5C 243.585,164.784 241.919,164.451 240.5,163.5C 239.884,162.202 239.884,161.202 240.5,160.5 Z"/></g>
<g><path style="opacity:0.153" fill="#eaeaea" d="M 247.5,160.5 C 247.328,161.492 247.662,162.158 248.5,162.5C 249.815,171.402 249.815,180.402 248.5,189.5C 248.5,190.5 248.5,191.5 248.5,192.5C 246.104,192.362 243.771,192.029 241.5,191.5C 245.257,191.351 246.59,189.685 245.5,186.5C 246.496,186.586 247.329,186.252 248,185.5C 248.831,178.476 248.664,171.476 247.5,164.5C 244.834,165.738 242.168,165.738 239.5,164.5C 239.624,163.893 239.957,163.56 240.5,163.5C 241.919,164.451 243.585,164.784 245.5,164.5C 245.775,159.78 244.941,159.446 243,163.5C 242.764,161.881 241.931,160.881 240.5,160.5C 241.531,159.751 242.698,159.085 244,158.5C 245.113,159.305 246.279,159.972 247.5,160.5 Z"/></g>
<g><path style="opacity:0.804" fill="#999999" d="M 358.5,161.5 C 360.326,163.147 361.66,165.147 362.5,167.5C 361.075,165.969 360.409,166.302 360.5,168.5C 359.026,167.564 358.026,166.23 357.5,164.5C 358.239,164.631 358.906,164.464 359.5,164C 358.748,163.329 358.414,162.496 358.5,161.5 Z"/></g>
<g><path style="opacity:0.004" fill="#fefffe" d="M 17.5,165.5 C 18.8333,166.167 18.8333,166.167 17.5,165.5 Z"/></g>
<g><path style="opacity:0.004" fill="#fefffe" d="M 443.5,165.5 C 444.833,166.167 444.833,166.167 443.5,165.5 Z"/></g>
<g><path style="opacity:0.792" fill="#606060" d="M 362.5,167.5 C 362.427,169.027 363.094,170.027 364.5,170.5C 364.427,172.027 365.094,173.027 366.5,173.5C 366.414,174.496 366.748,175.329 367.5,176C 366.906,176.464 366.239,176.631 365.5,176.5C 363.336,174.178 361.669,171.511 360.5,168.5C 360.409,166.302 361.075,165.969 362.5,167.5 Z"/></g>
<g><path style="opacity:0.004" fill="#fefffe" d="M 53.5,168.5 C 54.8333,169.167 54.8333,169.167 53.5,168.5 Z"/></g>
<g><path style="opacity:0.302" fill="#b8b8b8" d="M 362.5,167.5 C 363.906,167.973 364.573,168.973 364.5,170.5C 363.094,170.027 362.427,169.027 362.5,167.5 Z"/></g>
<g><path style="opacity:0.004" fill="#fefffe" d="M 419.5,171.5 C 420.833,172.167 420.833,172.167 419.5,171.5 Z"/></g>
<g><path style="opacity:0.302" fill="#bbbbbb" d="M 364.5,170.5 C 365.906,170.973 366.573,171.973 366.5,173.5C 365.094,173.027 364.427,172.027 364.5,170.5 Z"/></g>
<g><path style="opacity:0.392" fill="#afafaf" d="M 372.5,182.5 C 373.906,182.973 374.573,183.973 374.5,185.5C 373.094,185.027 372.427,184.027 372.5,182.5 Z"/></g>
<g><path style="opacity:0.004" fill="#fefffe" d="M 188.5,186.5 C 189.833,187.167 189.833,187.167 188.5,186.5 Z"/></g>
<g><path style="opacity:0.733" fill="#7b7b7b" d="M 136.5,169.5 C 136.409,171.698 137.075,172.031 138.5,170.5C 131.238,182.696 123.238,194.363 114.5,205.5C 114.672,204.508 114.338,203.842 113.5,203.5C 120.674,191.813 128.341,180.479 136.5,169.5 Z"/></g>
<g><path style="opacity:0.643" fill="#b2b2b2" d="M 245.5,186.5 C 246.59,189.685 245.257,191.351 241.5,191.5C 240.351,191.209 239.684,190.376 239.5,189C 239.667,188.167 239.833,187.333 240,186.5C 241.943,185.193 243.777,185.193 245.5,186.5 Z"/></g>
<g><path style="opacity:0.784" fill="#7b7b7b" d="M 366.5,173.5 C 369.241,175.975 371.241,178.975 372.5,182.5C 372.427,184.027 373.094,185.027 374.5,185.5C 381.215,194.218 387.548,203.218 393.5,212.5C 392.075,210.969 391.409,211.302 391.5,213.5C 382.108,201.73 373.441,189.396 365.5,176.5C 366.239,176.631 366.906,176.464 367.5,176C 366.748,175.329 366.414,174.496 366.5,173.5 Z"/></g>
<g><path style="opacity:0.004" fill="#fefffe" d="M 182.5,207.5 C 183.833,208.167 183.833,208.167 182.5,207.5 Z"/></g>
<g><path style="opacity:0.845" fill="#787878" d="M 113.5,203.5 C 114.338,203.842 114.672,204.508 114.5,205.5C 108.984,213.866 102.984,221.866 96.5,229.5C 95.6618,229.158 95.3284,228.492 95.5,227.5C 101.122,219.212 107.122,211.212 113.5,203.5 Z"/></g>
<g><path style="opacity:0.808" fill="#707070" d="M 393.5,212.5 C 397.878,217.545 401.878,222.878 405.5,228.5C 404.075,226.969 403.409,227.302 403.5,229.5C 399.147,224.473 395.147,219.14 391.5,213.5C 391.409,211.302 392.075,210.969 393.5,212.5 Z"/></g>
<g><path style="opacity:0.004" fill="#fefffe" d="M 455.5,216.5 C 456.833,217.167 456.833,217.167 455.5,216.5 Z"/></g>
<g><path style="opacity:0.151" fill="#e3e3e3" d="M 248.5,189.5 C 249.457,198.293 249.79,206.959 249.5,215.5C 248.735,233.047 248.402,250.381 248.5,267.5C 249.134,259.097 248.467,251.097 246.5,243.5C 245.766,242.292 245.433,240.959 245.5,239.5C 246.15,239.804 246.817,240.137 247.5,240.5C 248.665,232.521 248.832,224.521 248,216.5C 246.556,218.155 244.722,218.822 242.5,218.5C 242.216,216.585 242.549,214.919 243.5,213.5C 244.672,212.295 246.005,212.295 247.5,213.5C 248.497,206.532 248.83,199.532 248.5,192.5C 248.5,191.5 248.5,190.5 248.5,189.5 Z"/></g>
<g><path style="opacity:0.898" fill="#7e7e7e" d="M 243.5,213.5 C 244.586,213.62 245.253,214.287 245.5,215.5C 245.167,216.167 244.833,216.833 244.5,217.5C 243.571,216.311 243.238,214.978 243.5,213.5 Z"/></g>
<g><path style="opacity:0.004" fill="#fefffe" d="M 56.5,224.5 C 57.8333,225.167 57.8333,225.167 56.5,224.5 Z"/></g>
<g><path style="opacity:0.004" fill="#fefffe" d="M 392.5,225.5 C 393.833,226.167 393.833,226.167 392.5,225.5 Z"/></g>
<g><path style="opacity:0.004" fill="#fefffe" d="M 137.5,233.5 C 138.833,234.167 138.833,234.167 137.5,233.5 Z"/></g>
<g><path style="opacity:0.937" fill="#7e7e7e" d="M 95.5,227.5 C 95.3284,228.492 95.6618,229.158 96.5,229.5C 87.6093,241.729 77.6093,253.063 66.5,263.5C 66.631,262.761 66.4643,262.094 66,261.5C 65.3292,262.252 64.4959,262.586 63.5,262.5C 74.4093,250.982 85.0759,239.315 95.5,227.5 Z"/></g>
<g><path style="opacity:0.851" fill="#6f6f6f" d="M 405.5,228.5 C 412.2,234.901 418.2,241.901 423.5,249.5C 422.662,249.842 422.328,250.508 422.5,251.5C 415.448,244.782 409.115,237.449 403.5,229.5C 403.409,227.302 404.075,226.969 405.5,228.5 Z"/></g>
<g><path style="opacity:0.004" fill="#fefffe" d="M 485.5,238.5 C 486.833,239.167 486.833,239.167 485.5,238.5 Z"/></g>
<g><path style="opacity:0.004" fill="#fefffe" d="M 512.5,239.5 C 513.833,240.167 513.833,240.167 512.5,239.5 Z"/></g>
<g><path style="opacity:0.004" fill="#fefffe" d="M 143.5,242.5 C 144.833,243.167 144.833,243.167 143.5,242.5 Z"/></g>
<g><path style="opacity:0.957" fill="#1a1a1a" d="M 249.5,215.5 C 249.833,215.5 250.167,215.5 250.5,215.5C 250.168,250.337 250.502,285.004 251.5,319.5C 251.5,319.833 251.5,320.167 251.5,320.5C 250.833,320.5 250.167,320.5 249.5,320.5C 249.5,320.167 249.5,319.833 249.5,319.5C 249.819,302.09 249.485,284.756 248.5,267.5C 248.402,250.381 248.735,233.047 249.5,215.5 Z"/></g>
<g><path style="opacity:0.627" fill="#a6a6a6" d="M 245.5,239.5 C 245.433,240.959 245.766,242.292 246.5,243.5C 245.432,244.434 244.099,244.768 242.5,244.5C 242.34,242.801 242.506,241.134 243,239.5C 243.77,238.402 244.603,238.402 245.5,239.5 Z"/></g>
<g><path style="opacity:0.004" fill="#fefffe" d="M 260.5,251.5 C 261.833,252.167 261.833,252.167 260.5,251.5 Z"/></g>
<g><path style="opacity:0.004" fill="#fefffe" d="M 443.5,253.5 C 444.833,254.167 444.833,254.167 443.5,253.5 Z"/></g>
<g><path style="opacity:0.004" fill="#fefffe" d="M 320.5,254.5 C 321.833,255.167 321.833,255.167 320.5,254.5 Z"/></g>
<g><path style="opacity:0.843" fill="#616161" d="M 423.5,249.5 C 428.167,253.5 432.5,257.833 436.5,262.5C 436.158,263.338 435.492,263.672 434.5,263.5C 430.167,259.833 426.167,255.833 422.5,251.5C 422.328,250.508 422.662,249.842 423.5,249.5 Z"/></g>
<g><path style="opacity:0.929" fill="#6d6d6d" d="M 66.5,263.5 C 61.8207,268.178 56.8207,272.511 51.5,276.5C 50.1667,275.5 50.1667,274.5 51.5,273.5C 55.0794,269.377 59.0794,265.71 63.5,262.5C 64.4959,262.586 65.3292,262.252 66,261.5C 66.4643,262.094 66.631,262.761 66.5,263.5 Z"/></g>
<g><path style="opacity:0.533" fill="#cacaca" d="M 245.5,270.5 C 245.79,266.446 245.123,265.946 243.5,269C 244.056,269.383 244.389,269.883 244.5,270.5C 242.775,270.157 242.275,269.157 243,267.5C 243.71,266.027 244.876,265.36 246.5,265.5C 246.784,267.415 246.451,269.081 245.5,270.5 Z"/></g>
<g><path style="opacity:0.961" fill="#515151" d="M 245.5,270.5 C 245.167,270.5 244.833,270.5 244.5,270.5C 244.389,269.883 244.056,269.383 243.5,269C 245.123,265.946 245.79,266.446 245.5,270.5 Z"/></g>
<g><path style="opacity:0.733" fill="#777777" d="M 436.5,262.5 C 452.568,276.91 470.235,288.91 489.5,298.5C 487.323,298.414 485.323,297.747 483.5,296.5C 482.537,296.97 482.537,297.637 483.5,298.5C 464.869,290.021 448.536,278.354 434.5,263.5C 435.492,263.672 436.158,263.338 436.5,262.5 Z"/></g>
<g><path style="opacity:0.722" fill="#7c7c7c" d="M 51.5,273.5 C 50.1667,274.5 50.1667,275.5 51.5,276.5C 44.4085,282.58 36.7419,287.913 28.5,292.5C 28.5,291.167 27.8333,290.5 26.5,290.5C 34.9982,285.084 43.3316,279.417 51.5,273.5 Z"/></g>
<g><path style="opacity:0.004" fill="#fefffe" d="M 110.5,281.5 C 111.833,282.167 111.833,282.167 110.5,281.5 Z"/></g>
<g><path style="opacity:0.004" fill="#fefffe" d="M 176.5,286.5 C 177.833,287.167 177.833,287.167 176.5,286.5 Z"/></g>
<g><path style="opacity:0.667" fill="#a5a5a5" d="M 26.5,290.5 C 26.0269,291.906 25.0269,292.573 23.5,292.5C 23.9731,291.094 24.9731,290.427 26.5,290.5 Z"/></g>
<g><path style="opacity:0.82" fill="#5f5f5f" d="M 26.5,290.5 C 27.8333,290.5 28.5,291.167 28.5,292.5C 27.4863,293.674 26.153,294.34 24.5,294.5C 22.3023,294.591 21.9689,293.925 23.5,292.5C 25.0269,292.573 26.0269,291.906 26.5,290.5 Z"/></g>
<g><path style="opacity:0.278" fill="#bababa" d="M 242.5,292.5 C 243.833,292.5 245.167,292.5 246.5,292.5C 246.5,294.167 246.5,295.833 246.5,297.5C 245.022,297.762 243.689,297.429 242.5,296.5C 243.363,295.274 243.363,293.94 242.5,292.5 Z"/></g>
<g><path style="opacity:0.127" fill="#d9d9d9" d="M 248.5,267.5 C 249.485,284.756 249.819,302.09 249.5,319.5C 249.167,319.5 248.833,319.5 248.5,319.5C 247.847,301.997 247.847,284.663 248.5,267.5 Z"/></g>
<g><path style="opacity:0.867" fill="#717171" d="M 23.5,292.5 C 21.9689,293.925 22.3023,294.591 24.5,294.5C 16.5969,299.284 8.26354,303.284 -0.5,306.5C -0.5,305.167 -0.5,303.833 -0.5,302.5C 7.72934,299.719 15.7293,296.385 23.5,292.5 Z"/></g>
<g><path style="opacity:0.929" fill="#686868" d="M 489.5,298.5 C 494.68,300.264 499.68,302.264 504.5,304.5C 504.918,305.222 505.584,305.722 506.5,306C 504.203,306.018 501.869,305.851 499.5,305.5C 493.864,303.678 488.531,301.345 483.5,298.5C 482.537,297.637 482.537,296.97 483.5,296.5C 485.323,297.747 487.323,298.414 489.5,298.5 Z"/></g>
<g><path style="opacity:0.004" fill="#fefffe" d="M 311.5,300.5 C 312.833,301.167 312.833,301.167 311.5,300.5 Z"/></g>
<g><path style="opacity:0.004" fill="#fefffe" d="M 326.5,301.5 C 327.833,302.167 327.833,302.167 326.5,301.5 Z"/></g>
<g><path style="opacity:0.004" fill="#fefffe" d="M 230.5,305.5 C 231.833,306.167 231.833,306.167 230.5,305.5 Z"/></g>
<g><path style="opacity:0.788" fill="#7d7d7d" d="M 504.5,304.5 C 509.24,305.636 513.907,306.97 518.5,308.5C 518.5,309.5 518.5,310.5 518.5,311.5C 511.832,310.255 505.499,308.255 499.5,305.5C 501.869,305.851 504.203,306.018 506.5,306C 505.584,305.722 504.918,305.222 504.5,304.5 Z"/></g>
<g><path style="opacity:0.004" fill="#fefffe" d="M 47.5,309.5 C 48.8333,310.167 48.8333,310.167 47.5,309.5 Z"/></g>
<g><path style="opacity:0.004" fill="#fefffe" d="M 173.5,311.5 C 174.833,312.167 174.833,312.167 173.5,311.5 Z"/></g>
<g><path style="opacity:0.004" fill="#fefffe" d="M 263.5,314.5 C 264.833,315.167 264.833,315.167 263.5,314.5 Z"/></g>
<g><path style="opacity:0.505" fill="#8f8f8f" d="M 136.5,319.5 C 136.5,319.833 136.5,320.167 136.5,320.5C 90.8333,320.5 45.1667,320.5 -0.5,320.5C -0.5,320.167 -0.5,319.833 -0.5,319.5C 45.3744,319.487 91.041,319.487 136.5,319.5 Z"/></g>
<g><path style="opacity:0.502" fill="#8c8c8c" d="M 136.5,319.5 C 173.833,319.5 211.167,319.5 248.5,319.5C 248.833,319.5 249.167,319.5 249.5,319.5C 249.5,319.833 249.5,320.167 249.5,320.5C 227.833,320.5 206.167,320.5 184.5,320.5C 169.163,320.333 153.83,320.5 138.5,321C 140.586,321.315 142.586,321.815 144.5,322.5C 140.375,323.294 136.041,323.294 131.5,322.5C 133.167,321.833 134.833,321.167 136.5,320.5C 136.5,320.167 136.5,319.833 136.5,319.5 Z"/></g>
<g><path style="opacity:1" fill="#242424" d="M -0.5,321.5 C -0.5,321.167 -0.5,320.833 -0.5,320.5C 45.1667,320.5 90.8333,320.5 136.5,320.5C 134.833,321.167 133.167,321.833 131.5,322.5C 129.059,321.244 126.726,321.244 124.5,322.5C 123.833,323.833 123.167,323.833 122.5,322.5C 116.665,321.527 110.665,321.527 104.5,322.5C 101.833,321.167 99.1667,321.167 96.5,322.5C 93.9213,322.865 91.588,322.865 89.5,322.5C 87.6112,321.258 85.6112,321.258 83.5,322.5C 79.5,323.833 75.5,323.833 71.5,322.5C 68.8333,321.167 66.1667,321.167 63.5,322.5C 61.2743,321.244 58.941,321.244 56.5,322.5C 53.9213,322.865 51.588,322.865 49.5,322.5C 43.6646,321.527 37.6646,321.527 31.5,322.5C 28.8333,321.167 26.1667,321.167 23.5,322.5C 15.535,322.159 7.53496,321.826 -0.5,321.5 Z"/></g>
<g><path style="opacity:1" fill="#3c3c3c" d="M 184.5,320.5 C 186.167,321.167 187.833,321.833 189.5,322.5C 185.5,323.833 181.5,323.833 177.5,322.5C 174.833,321.167 172.167,321.167 169.5,322.5C 167.833,322.5 166.167,322.5 164.5,322.5C 161.833,321.167 159.167,321.167 156.5,322.5C 152.5,323.833 148.5,323.833 144.5,322.5C 142.586,321.815 140.586,321.315 138.5,321C 153.83,320.5 169.163,320.333 184.5,320.5 Z"/></g>
<g><path style="opacity:0.984" fill="#212121" d="M 184.5,320.5 C 206.167,320.5 227.833,320.5 249.5,320.5C 250.167,320.5 250.833,320.5 251.5,320.5C 253.167,320.5 254.833,320.5 256.5,320.5C 256.5,321.167 256.167,321.5 255.5,321.5C 254.167,321.5 252.833,321.5 251.5,321.5C 250.833,321.5 250.167,321.5 249.5,321.5C 247.05,321.298 244.717,321.631 242.5,322.5C 240.833,322.5 239.167,322.5 237.5,322.5C 234.833,321.167 232.167,321.167 229.5,322.5C 226.921,322.865 224.588,322.865 222.5,322.5C 216.665,321.527 210.665,321.527 204.5,322.5C 201.833,321.167 199.167,321.167 196.5,322.5C 194.274,321.244 191.941,321.244 189.5,322.5C 187.833,321.833 186.167,321.167 184.5,320.5 Z"/></g>
<g><path style="opacity:0.971" fill="#313131" d="M 256.5,320.5 C 274.5,320.5 292.5,320.5 310.5,320.5C 310.5,320.833 310.5,321.167 310.5,321.5C 310.5,321.833 310.5,322.167 310.5,322.5C 307.833,321.167 305.167,321.167 302.5,322.5C 299.921,322.865 297.588,322.865 295.5,322.5C 291.833,322.5 288.167,322.5 284.5,322.5C 282.412,322.865 280.079,322.865 277.5,322.5C 274.833,321.167 272.167,321.167 269.5,322.5C 267.833,322.5 266.167,322.5 264.5,322.5C 262.059,321.244 259.726,321.244 257.5,322.5C 256.833,323.833 256.167,323.833 255.5,322.5C 255.5,322.167 255.5,321.833 255.5,321.5C 256.167,321.5 256.5,321.167 256.5,320.5 Z"/></g>
<g><path style="opacity:0.996" fill="#2a2a2a" d="M 310.5,321.5 C 310.5,321.167 310.5,320.833 310.5,320.5C 329.833,320.5 349.167,320.5 368.5,320.5C 368.5,320.833 368.5,321.167 368.5,321.5C 366.379,321.325 364.379,321.659 362.5,322.5C 358.5,323.833 354.5,323.833 350.5,322.5C 347.833,321.167 345.167,321.167 342.5,322.5C 340.833,322.5 339.167,322.5 337.5,322.5C 334.833,321.167 332.167,321.167 329.5,322.5C 323.504,321.927 317.17,321.593 310.5,321.5 Z"/></g>
<g><path style="opacity:0.999" fill="#434343" d="M 368.5,320.5 C 370.833,320.5 373.167,320.5 375.5,320.5C 375.5,321.167 375.5,321.833 375.5,322.5C 372.921,322.865 370.588,322.865 368.5,322.5C 368.5,322.167 368.5,321.833 368.5,321.5C 368.5,321.167 368.5,320.833 368.5,320.5 Z"/></g>
<g><path style="opacity:0.993" fill="#141414" d="M 375.5,320.5 C 379.833,320.5 384.167,320.5 388.5,320.5C 386.833,321.167 385.167,321.833 383.5,322.5C 380.833,321.167 378.167,321.167 375.5,322.5C 375.5,321.833 375.5,321.167 375.5,320.5 Z"/></g>
<g><path style="opacity:0.996" fill="#5d5d5d" d="M 388.5,320.5 C 391.5,320.5 394.5,320.5 397.5,320.5C 399.167,321.167 400.833,321.833 402.5,322.5C 396.167,322.5 389.833,322.5 383.5,322.5C 385.167,321.833 386.833,321.167 388.5,320.5 Z"/></g>
<g><path style="opacity:1" fill="#1f1f1f" d="M 397.5,320.5 C 408.172,320.333 418.839,320.5 429.5,321C 427.292,321.191 425.292,321.691 423.5,322.5C 420.833,321.167 418.167,321.167 415.5,322.5C 413.833,322.5 412.167,322.5 410.5,322.5C 407.833,321.167 405.167,321.167 402.5,322.5C 400.833,321.833 399.167,321.167 397.5,320.5 Z"/></g>
<g><path style="opacity:0.988" fill="#767676" d="M 251.5,320.5 C 251.5,320.167 251.5,319.833 251.5,319.5C 251.833,319.5 252.167,319.5 252.5,319.5C 341.167,319.5 429.833,319.5 518.5,319.5C 518.5,319.833 518.5,320.167 518.5,320.5C 491.165,320.333 463.831,320.5 436.5,321C 438.92,321.29 441.254,321.79 443.5,322.5C 437.092,322.737 430.425,322.737 423.5,322.5C 425.292,321.691 427.292,321.191 429.5,321C 418.839,320.5 408.172,320.333 397.5,320.5C 394.5,320.5 391.5,320.5 388.5,320.5C 384.167,320.5 379.833,320.5 375.5,320.5C 373.167,320.5 370.833,320.5 368.5,320.5C 349.167,320.5 329.833,320.5 310.5,320.5C 292.5,320.5 274.5,320.5 256.5,320.5C 254.833,320.5 253.167,320.5 251.5,320.5 Z"/></g>
<g><path style="opacity:0.987" fill="#272727" d="M 518.5,320.5 C 518.5,321.167 518.5,321.833 518.5,322.5C 517.833,322.5 517.167,322.5 516.5,322.5C 513.833,321.167 511.167,321.167 508.5,322.5C 505.921,322.865 503.588,322.865 501.5,322.5C 495.665,321.527 489.665,321.527 483.5,322.5C 480.833,321.167 478.167,321.167 475.5,322.5C 472.921,322.865 470.588,322.865 468.5,322.5C 464.602,322.036 460.602,322.036 456.5,322.5C 453.833,321.167 451.167,321.167 448.5,322.5C 446.833,322.5 445.167,322.5 443.5,322.5C 441.254,321.79 438.92,321.29 436.5,321C 463.831,320.5 491.165,320.333 518.5,320.5 Z"/></g>
<g><path style="opacity:0.478" fill="#909090" d="M -0.5,322.5 C -0.5,322.167 -0.5,321.833 -0.5,321.5C 7.53496,321.826 15.535,322.159 23.5,322.5C 15.479,323.625 7.47898,323.625 -0.5,322.5 Z"/></g>
<g><path style="opacity:0.504" fill="#979797" d="M 31.5,322.5 C 28.8333,322.5 26.1667,322.5 23.5,322.5C 26.1667,321.167 28.8333,321.167 31.5,322.5 Z"/></g>
<g><path style="opacity:0.516" fill="#9a9a9a" d="M 31.5,322.5 C 37.6646,321.527 43.6646,321.527 49.5,322.5C 43.48,322.51 37.48,322.51 31.5,322.5 Z"/></g>
<g><path style="opacity:0.51" fill="#999999" d="M 63.5,322.5 C 60.9213,322.865 58.588,322.865 56.5,322.5C 58.941,321.244 61.2743,321.244 63.5,322.5 Z"/></g>
<g><path style="opacity:0.508" fill="#969696" d="M 71.5,322.5 C 68.8333,322.5 66.1667,322.5 63.5,322.5C 66.1667,321.167 68.8333,321.167 71.5,322.5 Z"/></g>
<g><path style="opacity:0.522" fill="#9d9d9d" d="M 89.5,322.5 C 87.2589,322.954 85.2589,322.954 83.5,322.5C 85.2589,322.954 87.2589,322.954 89.5,322.5 Z"/></g>
<g><path style="opacity:0.505" fill="#999999" d="M 104.5,322.5 C 101.833,322.5 99.1667,322.5 96.5,322.5C 99.1667,321.167 101.833,321.167 104.5,322.5 Z"/></g>
<g><path style="opacity:0.525" fill="#919191" d="M 104.5,322.5 C 110.665,321.527 116.665,321.527 122.5,322.5C 116.48,322.51 110.48,322.51 104.5,322.5 Z"/></g>
<g><path style="opacity:0.525" fill="#8e8e8e" d="M 124.5,322.5 C 126.726,321.244 129.059,321.244 131.5,322.5C 129.412,322.865 127.079,322.865 124.5,322.5 Z"/></g>
<g><path style="opacity:0.535" fill="#989898" d="M 164.5,322.5 C 161.833,322.5 159.167,322.5 156.5,322.5C 159.167,321.167 161.833,321.167 164.5,322.5 Z"/></g>
<g><path style="opacity:0.522" fill="#989898" d="M 177.5,322.5 C 174.833,322.5 172.167,322.5 169.5,322.5C 172.167,321.167 174.833,321.167 177.5,322.5 Z"/></g>
<g><path style="opacity:0.494" fill="#9b9b9b" d="M 196.5,322.5 C 193.921,322.865 191.588,322.865 189.5,322.5C 191.941,321.244 194.274,321.244 196.5,322.5 Z"/></g>
<g><path style="opacity:0.506" fill="#989898" d="M 204.5,322.5 C 201.833,322.5 199.167,322.5 196.5,322.5C 199.167,321.167 201.833,321.167 204.5,322.5 Z"/></g>
<g><path style="opacity:0.506" fill="#949494" d="M 204.5,322.5 C 210.665,321.527 216.665,321.527 222.5,322.5C 216.48,322.51 210.48,322.51 204.5,322.5 Z"/></g>
<g><path style="opacity:0.49" fill="#999999" d="M 237.5,322.5 C 234.833,322.5 232.167,322.5 229.5,322.5C 232.167,321.167 234.833,321.167 237.5,322.5 Z"/></g>
<g><path style="opacity:0.508" fill="#919191" d="M 257.5,322.5 C 259.726,321.244 262.059,321.244 264.5,322.5C 262.412,322.865 260.079,322.865 257.5,322.5 Z"/></g>
<g><path style="opacity:0.486" fill="#9c9c9c" d="M 277.5,322.5 C 274.833,322.5 272.167,322.5 269.5,322.5C 272.167,321.167 274.833,321.167 277.5,322.5 Z"/></g>
<g><path style="opacity:0.51" fill="#9f9f9f" d="M 284.5,322.5 C 288.167,322.5 291.833,322.5 295.5,322.5C 291.833,323.833 288.167,323.833 284.5,322.5 Z"/></g>
<g><path style="opacity:0.508" fill="#979797" d="M 310.5,322.5 C 307.833,322.5 305.167,322.5 302.5,322.5C 305.167,321.167 307.833,321.167 310.5,322.5 Z"/></g>
<g><path style="opacity:0.532" fill="#919191" d="M 310.5,322.5 C 310.5,322.167 310.5,321.833 310.5,321.5C 317.17,321.593 323.504,321.927 329.5,322.5C 323.133,322.65 316.8,322.65 310.5,322.5 Z"/></g>
<g><path style="opacity:0.51" fill="#989898" d="M 337.5,322.5 C 334.833,322.5 332.167,322.5 329.5,322.5C 332.167,321.167 334.833,321.167 337.5,322.5 Z"/></g>
<g><path style="opacity:0.512" fill="#979797" d="M 350.5,322.5 C 347.833,322.5 345.167,322.5 342.5,322.5C 345.167,321.167 347.833,321.167 350.5,322.5 Z"/></g>
<g><path style="opacity:0.512" fill="#9a9a9a" d="M 368.5,321.5 C 368.5,321.833 368.5,322.167 368.5,322.5C 366.259,322.954 364.259,322.954 362.5,322.5C 364.379,321.659 366.379,321.325 368.5,321.5 Z"/></g>
<g><path style="opacity:0.518" fill="#9b9b9b" d="M 383.5,322.5 C 380.833,322.5 378.167,322.5 375.5,322.5C 378.167,321.167 380.833,321.167 383.5,322.5 Z"/></g>
<g><path style="opacity:0.502" fill="#989898" d="M 410.5,322.5 C 407.833,322.5 405.167,322.5 402.5,322.5C 405.167,321.167 407.833,321.167 410.5,322.5 Z"/></g>
<g><path style="opacity:0.503" fill="#969696" d="M 423.5,322.5 C 420.833,322.5 418.167,322.5 415.5,322.5C 418.167,321.167 420.833,321.167 423.5,322.5 Z"/></g>
<g><path style="opacity:0.482" fill="#9c9c9c" d="M 456.5,322.5 C 453.833,322.5 451.167,322.5 448.5,322.5C 451.167,321.167 453.833,321.167 456.5,322.5 Z"/></g>
<g><path style="opacity:0.498" fill="#a0a0a0" d="M 456.5,322.5 C 460.602,322.036 464.602,322.036 468.5,322.5C 464.521,323.625 460.521,323.625 456.5,322.5 Z"/></g>
<g><path style="opacity:0.49" fill="#979797" d="M 483.5,322.5 C 480.833,322.5 478.167,322.5 475.5,322.5C 478.167,321.167 480.833,321.167 483.5,322.5 Z"/></g>
<g><path style="opacity:0.496" fill="#949494" d="M 483.5,322.5 C 489.665,321.527 495.665,321.527 501.5,322.5C 495.48,322.51 489.48,322.51 483.5,322.5 Z"/></g>
<g><path style="opacity:0.482" fill="#999999" d="M 516.5,322.5 C 513.833,322.5 511.167,322.5 508.5,322.5C 511.167,321.167 513.833,321.167 516.5,322.5 Z"/></g>
<g><path style="opacity:0.392" fill="#b5b5b5" d="M 62.5,324.5 C 63.7498,324.577 64.5831,325.244 65,326.5C 66.7888,323.821 67.9555,323.987 68.5,327C 68.6243,329.737 67.6243,330.571 65.5,329.5C 64.5224,329.977 63.6891,330.643 63,331.5C 61.4002,330.134 59.5668,329.134 57.5,328.5C 59.8263,327.855 61.493,326.522 62.5,324.5 Z"/></g>
<g><path style="opacity:0.094" fill="#c3c3c3" d="M 75.5,324.5 C 77.5,324.5 79.5,324.5 81.5,324.5C 81.5,326.5 81.5,328.5 81.5,330.5C 77.5425,330.732 73.8758,329.899 70.5,328C 72.1667,327.667 73.8333,327.333 75.5,327C 74.4019,326.23 74.4019,325.397 75.5,324.5 Z"/></g>
<g><path style="opacity:0.959" fill="#2a2a2a" d="M 249.5,321.5 C 250.167,321.5 250.833,321.5 251.5,321.5C 251.5,374.5 251.5,427.5 251.5,480.5C 251.167,480.5 250.833,480.5 250.5,480.5C 250.831,455.328 250.498,430.328 249.5,405.5C 249.74,394.943 249.407,384.276 248.5,373.5C 248.402,356.381 248.735,339.047 249.5,321.5 Z"/></g>
<g><path style="opacity:0.6" fill="#b0b0b0" d="M 288.5,324.5 C 289.5,324.5 290.5,324.5 291.5,324.5C 291.421,325.93 291.754,327.264 292.5,328.5C 290.907,330.66 289.24,330.827 287.5,329C 288.167,328.667 288.833,328.333 289.5,328C 288.663,326.989 288.33,325.822 288.5,324.5 Z"/></g>
<g><path style="opacity:0.557" fill="#b6b6b6" d="M 314.5,324.5 C 316.103,324.312 317.437,324.812 318.5,326C 317.359,326.741 317.359,327.575 318.5,328.5C 317.672,329.415 316.672,330.081 315.5,330.5C 314.534,328.604 314.201,326.604 314.5,324.5 Z"/></g>
<g><path style="opacity:0.141" fill="#cbcbcb" d="M 14.5,325.5 C 13.5,325.5 12.5,325.5 11.5,325.5C 11.5,326.833 11.5,328.167 11.5,329.5C 12.5,329.5 13.5,329.5 14.5,329.5C 11.1821,330.736 7.84873,330.403 4.5,328.5C 5.68884,327.571 7.02218,327.238 8.5,327.5C 8.5,326.5 8.5,325.5 8.5,324.5C 10.7354,324.205 12.7354,324.539 14.5,325.5 Z"/></g>
<g><path style="opacity:0.208" fill="#cacaca" d="M 41.5,325.5 C 40.5,325.5 39.5,325.5 38.5,325.5C 38.5,326.833 38.5,328.167 38.5,329.5C 39.5,329.5 40.5,329.5 41.5,329.5C 38.1821,330.736 34.8487,330.403 31.5,328.5C 32.6888,327.571 34.0222,327.238 35.5,327.5C 35.5,326.5 35.5,325.5 35.5,324.5C 37.7354,324.205 39.7354,324.539 41.5,325.5 Z"/></g>
<g><path style="opacity:0.643" fill="#8e8e8e" d="M 262.5,324.5 C 264.256,325.552 264.923,327.219 264.5,329.5C 263.448,329.649 262.448,329.483 261.5,329C 261.912,327.436 262.245,325.936 262.5,324.5 Z"/></g>
<g><path style="opacity:0.467" fill="#adadad" d="M 275.5,324.5 C 276.5,324.5 277.5,324.5 278.5,324.5C 278.5,326.5 278.5,328.5 278.5,330.5C 274.673,330.56 274.006,329.393 276.5,327C 274.381,326.658 274.047,325.825 275.5,324.5 Z"/></g>
<g><path style="opacity:0.761" fill="#aaaaaa" d="M 380.5,324.5 C 382.153,325.605 383.82,325.771 385.5,325C 386.554,326.388 386.72,327.888 386,329.5C 383.896,329.708 381.73,329.708 379.5,329.5C 379.579,327.872 379.912,326.205 380.5,324.5 Z"/></g>
<g><path style="opacity:0.535" fill="#afafaf" d="M 393.5,324.5 C 394.94,325.363 396.274,325.363 397.5,324.5C 398.466,326.396 398.799,328.396 398.5,330.5C 392.729,331.105 391.063,329.105 393.5,324.5 Z"/></g>
<g><path style="opacity:0.706" fill="#b0b0b0" d="M 419.5,324.5 C 421.389,325.38 423.389,325.38 425.5,324.5C 427.402,329.926 425.402,331.926 419.5,330.5C 419.5,328.5 419.5,326.5 419.5,324.5 Z"/></g>
<g><path style="opacity:0.18" fill="#b9b9b9" d="M 459.5,324.5 C 461.754,324.723 464.088,325.056 466.5,325.5C 466.277,326.967 465.944,328.467 465.5,330C 463.613,329.577 461.613,329.744 459.5,330.5C 459.5,328.5 459.5,326.5 459.5,324.5 Z"/></g>
<g><path style="opacity:0.696" fill="#aaaaaa" d="M 499.5,324.5 C 501.389,325.38 503.389,325.38 505.5,324.5C 506.007,330.431 503.674,331.931 498.5,329C 498.912,327.436 499.245,325.936 499.5,324.5 Z"/></g>
<g><path style="opacity:0.655" fill="#ababab" d="M -0.5,324.5 C 1.25169,324.418 2.25169,325.251 2.5,327C 2.29257,328.95 1.29257,330.116 -0.5,330.5C -0.5,328.5 -0.5,326.5 -0.5,324.5 Z"/></g>
<g><path style="opacity:0.427" fill="#bdbdbd" d="M 130.5,324.5 C 135.147,325.792 135.481,327.792 131.5,330.5C 129.775,329.985 128.108,329.318 126.5,328.5C 128.421,327.676 129.754,326.343 130.5,324.5 Z"/></g>
<g><path style="opacity:0.773" fill="#b0b0b0" d="M 170.5,324.5 C 171.5,324.5 172.5,324.5 173.5,324.5C 173.564,331.298 170.897,332.465 165.5,328C 167.936,327.794 169.602,326.627 170.5,324.5 Z"/></g>
<g><path style="opacity:0.743" fill="#aeaeae" d="M 197.5,324.5 C 198.5,324.5 199.5,324.5 200.5,324.5C 200.68,331.037 198.014,332.204 192.5,328C 193.833,327.667 195.167,327.333 196.5,327C 197.252,326.329 197.586,325.496 197.5,324.5 Z"/></g>
<g><path style="opacity:0.349" fill="#b9b9b9" d="M 341.5,324.5 C 342.833,324.5 344.167,324.5 345.5,324.5C 345.496,326.842 344.663,328.842 343,330.5C 342.5,330 342,329.5 341.5,329C 341.966,327.701 341.966,326.201 341.5,324.5 Z"/></g>
<g><path style="opacity:0.09" fill="#c8c8c8" d="M 438.5,325.5 C 434.918,327.209 434.918,328.542 438.5,329.5C 436.721,329.374 434.721,329.708 432.5,330.5C 432.5,328.5 432.5,326.5 432.5,324.5C 434.124,324.36 435.29,325.027 436,326.5C 436.601,324.641 437.434,324.308 438.5,325.5 Z"/></g>
<g><path style="opacity:0.576" fill="#adadad" d="M 518.5,324.5 C 518.5,326.5 518.5,328.5 518.5,330.5C 516.5,330.5 514.5,330.5 512.5,330.5C 513.052,328.669 513.052,327.003 512.5,325.5C 514.542,325.241 516.542,324.908 518.5,324.5 Z"/></g>
<g><path style="opacity:0.659" fill="#9c9b9b" d="M 14.5,325.5 C 15.8333,326.833 15.8333,328.167 14.5,329.5C 13.5,329.5 12.5,329.5 11.5,329.5C 11.5,328.167 11.5,326.833 11.5,325.5C 12.5,325.5 13.5,325.5 14.5,325.5 Z"/></g>
<g><path style="opacity:0.094" fill="#c7c7c7" d="M 22.5,324.5 C 24.7544,324.723 27.0878,325.056 29.5,325.5C 27.2711,331.114 23.6044,332.114 18.5,328.5C 19.7287,327.719 21.062,327.219 22.5,327C 21.4019,326.23 21.4019,325.397 22.5,324.5 Z"/></g>
<g><path style="opacity:0.812" fill="#9c9c9c" d="M 41.5,325.5 C 42.8333,326.833 42.8333,328.167 41.5,329.5C 40.5,329.5 39.5,329.5 38.5,329.5C 38.5,328.167 38.5,326.833 38.5,325.5C 39.5,325.5 40.5,325.5 41.5,325.5 Z"/></g>
<g><path style="opacity:0.196" fill="#c5c5c5" d="M 48.5,324.5 C 50.8568,324.337 53.1902,324.503 55.5,325C 55.507,326.583 55.1737,328.249 54.5,330C 50.9978,330.694 47.6645,330.194 44.5,328.5C 45.6888,327.571 47.0222,327.238 48.5,327.5C 48.5,326.5 48.5,325.5 48.5,324.5 Z"/></g>
<g><path style="opacity:0.174" fill="#c7c7c7" d="M 89.5,324.5 C 91.1992,324.34 92.8659,324.506 94.5,325C 94.9437,326.533 95.277,328.033 95.5,329.5C 91.7113,330.769 88.0446,330.436 84.5,328.5C 86.8263,327.855 88.493,326.522 89.5,324.5 Z"/></g>
<g><path style="opacity:0.127" fill="#c4c4c4" d="M 102.5,324.5 C 103.94,325.363 105.274,325.363 106.5,324.5C 107.466,326.396 107.799,328.396 107.5,330.5C 103.987,330.693 100.654,330.026 97.5,328.5C 99.0777,327.702 100.744,327.202 102.5,327C 101.402,326.23 101.402,325.397 102.5,324.5 Z"/></g>
<g><path style="opacity:0.196" fill="#bcbcbc" d="M 115.5,324.5 C 117.389,325.38 119.389,325.38 121.5,324.5C 121.66,326.199 121.494,327.866 121,329.5C 117.303,330.696 113.803,330.196 110.5,328C 112.167,327.667 113.833,327.333 115.5,327C 114.402,326.23 114.402,325.397 115.5,324.5 Z"/></g>
<g><path style="opacity:0.62" fill="#b4b4b4" d="M 143.5,324.5 C 147.35,324.701 148.35,326.534 146.5,330C 144.049,330.306 141.716,329.806 139.5,328.5C 140.729,327.719 142.062,327.219 143.5,327C 142.402,326.23 142.402,325.397 143.5,324.5 Z"/></g>
<g><path style="opacity:0.139" fill="#d2d2d2" d="M 156.5,324.5 C 160.984,324.551 161.65,326.385 158.5,330C 156.423,330.148 154.423,329.648 152.5,328.5C 153.689,327.571 155.022,327.238 156.5,327.5C 156.5,326.5 156.5,325.5 156.5,324.5 Z"/></g>
<g><path style="opacity:0.694" fill="#b9b9b9" d="M 183.5,324.5 C 184.5,324.5 185.5,324.5 186.5,324.5C 186.815,326.226 186.981,327.893 187,329.5C 184.452,330.417 181.952,330.084 179.5,328.5C 180.689,327.571 182.022,327.238 183.5,327.5C 183.5,326.5 183.5,325.5 183.5,324.5 Z"/></g>
<g><path style="opacity:0.355" fill="#c4c4c4" d="M 209.5,324.5 C 210.833,324.5 212.167,324.5 213.5,324.5C 213.505,331.119 210.838,332.285 205.5,328C 207.167,327.667 208.833,327.333 210.5,327C 209.748,326.329 209.414,325.496 209.5,324.5 Z"/></g>
<g><path style="opacity:0.251" fill="#c0c0c0" d="M 222.5,324.5 C 223.833,324.5 225.167,324.5 226.5,324.5C 226.5,326.5 226.5,328.5 226.5,330.5C 223.941,330.61 221.608,329.944 219.5,328.5C 221.078,327.702 222.744,327.202 224.5,327C 223.244,326.583 222.577,325.75 222.5,324.5 Z"/></g>
<g><path style="opacity:0.143" fill="#c9c9c9" d="M 236.5,324.5 C 237.5,324.5 238.5,324.5 239.5,324.5C 239.5,326.5 239.5,328.5 239.5,330.5C 237.04,330.301 234.707,329.635 232.5,328.5C 233.689,327.571 235.022,327.238 236.5,327.5C 236.5,326.5 236.5,325.5 236.5,324.5 Z"/></g>
<g><path style="opacity:0.741" fill="#979797" d="M 302.5,324.5 C 304.185,325.184 305.185,326.517 305.5,328.5C 304.193,330.807 302.86,330.64 301.5,328C 301.989,326.862 302.322,325.695 302.5,324.5 Z"/></g>
<g><path style="opacity:0.647" fill="#a2a2a2" d="M 328.5,324.5 C 329.5,324.5 330.5,324.5 331.5,324.5C 331.949,326.977 331.283,328.977 329.5,330.5C 327.261,328.867 326.928,326.867 328.5,324.5 Z"/></g>
<g><path style="opacity:0.635" fill="#a4a4a4" d="M 354.5,324.5 C 358.071,324.408 359.238,326.074 358,329.5C 357,330.833 356,330.833 355,329.5C 354.506,327.866 354.34,326.199 354.5,324.5 Z"/></g>
<g><path style="opacity:0.784" fill="#787878" d="M 438.5,325.5 C 439.354,327.035 439.354,328.368 438.5,329.5C 434.918,328.542 434.918,327.209 438.5,325.5 Z"/></g>
<g><path style="opacity:0.541" fill="#b7b7b7" d="M 446.5,324.5 C 448.045,325.23 448.878,326.563 449,328.5C 449.49,327.207 449.657,325.873 449.5,324.5C 450.5,324.5 451.5,324.5 452.5,324.5C 454.402,329.926 452.402,331.926 446.5,330.5C 446.5,328.5 446.5,326.5 446.5,324.5 Z"/></g>
<g><path style="opacity:0.627" fill="#aaaaaa" d="M 486.5,324.5 C 488.389,325.38 490.389,325.38 492.5,324.5C 492.949,326.977 492.283,328.977 490.5,330.5C 488.883,330.331 487.216,329.997 485.5,329.5C 485.579,327.872 485.912,326.205 486.5,324.5 Z"/></g>
<g><path style="opacity:0.102" fill="#bcbcbc" d="M 368.5,324.5 C 369.5,324.5 370.5,324.5 371.5,324.5C 371.949,326.977 371.283,328.977 369.5,330.5C 367.261,328.867 366.928,326.867 368.5,324.5 Z"/></g>
<g><path style="opacity:0.051" fill="#bebebe" d="M 406.5,324.5 C 408.389,325.38 410.389,325.38 412.5,324.5C 412.5,326.5 412.5,328.5 412.5,330.5C 410.5,330.5 408.5,330.5 406.5,330.5C 406.065,328.297 406.065,326.297 406.5,324.5 Z M 408.5,326.5 C 411.001,326.511 411.168,327.178 409,328.5C 408.536,327.906 408.369,327.239 408.5,326.5 Z"/></g>
<g><path style="opacity:0.094" fill="#cacaca" d="M 472.5,324.5 C 474.833,324.5 477.167,324.5 479.5,324.5C 479.627,329.373 477.294,331.373 472.5,330.5C 472.5,328.5 472.5,326.5 472.5,324.5 Z"/></g>
<g><path style="opacity:0.004" fill="#fefffe" d="M 500.5,342.5 C 501.833,343.167 501.833,343.167 500.5,342.5 Z"/></g>
<g><path style="opacity:0.082" fill="#cacaca" d="M 242.5,345.5 C 243.833,345.5 245.167,345.5 246.5,345.5C 246.5,347.5 246.5,349.5 246.5,351.5C 243.529,351.565 240.862,350.731 238.5,349C 240.91,348.943 242.244,347.776 242.5,345.5 Z"/></g>
<g><path style="opacity:0.142" fill="#dcdcdc" d="M 249.5,321.5 C 248.735,339.047 248.402,356.381 248.5,373.5C 248.5,372.833 248.5,372.167 248.5,371.5C 247.588,355.201 247.588,338.868 248.5,322.5C 246.259,322.954 244.259,322.954 242.5,322.5C 244.717,321.631 247.05,321.298 249.5,321.5 Z"/></g>
<g><path style="opacity:0.004" fill="#fefffe" d="M 68.5,351.5 C 69.8333,352.167 69.8333,352.167 68.5,351.5 Z"/></g>
<g><path style="opacity:0.004" fill="#fefffe" d="M 404.5,353.5 C 405.833,354.167 405.833,354.167 404.5,353.5 Z"/></g>
<g><path style="opacity:0.004" fill="#fefffe" d="M 392.5,355.5 C 393.833,356.167 393.833,356.167 392.5,355.5 Z"/></g>
<g><path style="opacity:0.004" fill="#fefffe" d="M 71.5,361.5 C 72.8333,362.167 72.8333,362.167 71.5,361.5 Z"/></g>
<g><path style="opacity:0.004" fill="#fefffe" d="M 47.5,365.5 C 48.8333,366.167 48.8333,366.167 47.5,365.5 Z"/></g>
<g><path style="opacity:0.004" fill="#fefffe" d="M 98.5,371.5 C 99.8333,372.167 99.8333,372.167 98.5,371.5 Z"/></g>
<g><path style="opacity:0.089" fill="#eaeaea" d="M 251.5,321.5 C 252.833,321.5 254.167,321.5 255.5,321.5C 255.5,321.833 255.5,322.167 255.5,322.5C 254.5,322.5 253.5,322.5 252.5,322.5C 252.5,375.167 252.5,427.833 252.5,480.5C 252.167,480.5 251.833,480.5 251.5,480.5C 251.5,427.5 251.5,374.5 251.5,321.5 Z"/></g>
<g><path style="opacity:0.004" fill="#fefffe" d="M 377.5,373.5 C 378.833,374.167 378.833,374.167 377.5,373.5 Z"/></g>
<g><path style="opacity:0.004" fill="#fefffe" d="M 155.5,390.5 C 156.833,391.167 156.833,391.167 155.5,390.5 Z"/></g>
<g><path style="opacity:0.004" fill="#fefffe" d="M 482.5,390.5 C 483.833,391.167 483.833,391.167 482.5,390.5 Z"/></g>
<g><path style="opacity:0.147" fill="#dbdbdb" d="M 248.5,371.5 C 248.5,372.167 248.5,372.833 248.5,373.5C 249.407,384.276 249.74,394.943 249.5,405.5C 249.5,412.167 249.5,418.833 249.5,425.5C 248.833,425.5 248.5,425.167 248.5,424.5C 249.13,416.757 248.463,409.424 246.5,402.5C 245.655,400.238 244.322,399.571 242.5,400.5C 243.572,398.16 245.239,397.827 247.5,399.5C 248.665,392.189 248.831,384.856 248,377.5C 244.812,377.961 241.645,377.295 238.5,375.5C 241.391,373.054 244.725,371.721 248.5,371.5 Z"/></g>
<g><path style="opacity:0.004" fill="#fefffe" d="M 374.5,392.5 C 375.833,393.167 375.833,393.167 374.5,392.5 Z"/></g>
<g><path style="opacity:0.004" fill="#fefffe" d="M 455.5,400.5 C 456.833,401.167 456.833,401.167 455.5,400.5 Z"/></g>
<g><path style="opacity:0.945" fill="#9f9f9f" d="M 246.5,402.5 C 244.144,403.68 241.811,403.346 239.5,401.5C 240.325,400.614 241.325,400.281 242.5,400.5C 244.322,399.571 245.655,400.238 246.5,402.5 Z"/></g>
<g><path style="opacity:0.004" fill="#fefffe" d="M 332.5,401.5 C 333.833,402.167 333.833,402.167 332.5,401.5 Z"/></g>
<g><path style="opacity:0.004" fill="#fefffe" d="M 317.5,402.5 C 318.833,403.167 318.833,403.167 317.5,402.5 Z"/></g>
<g><path style="opacity:0.004" fill="#fefffe" d="M 311.5,406.5 C 312.833,407.167 312.833,407.167 311.5,406.5 Z"/></g>
<g><path style="opacity:0.004" fill="#fefffe" d="M 434.5,420.5 C 435.833,421.167 435.833,421.167 434.5,420.5 Z"/></g>
<g><path style="opacity:0.004" fill="#fefffe" d="M 329.5,428.5 C 330.833,429.167 330.833,429.167 329.5,428.5 Z"/></g>
<g><path style="opacity:0.004" fill="#fefffe" d="M 77.5,435.5 C 78.8333,436.167 78.8333,436.167 77.5,435.5 Z"/></g>
<g><path style="opacity:0.004" fill="#fefffe" d="M 95.5,438.5 C 96.8333,439.167 96.8333,439.167 95.5,438.5 Z"/></g>
<g><path style="opacity:0.138" fill="#d4d4d4" d="M 248.5,424.5 C 248.5,425.167 248.833,425.5 249.5,425.5C 248.865,443.761 248.865,462.095 249.5,480.5C 248.833,480.5 248.167,480.5 247.5,480.5C 248.801,472.225 248.801,463.892 247.5,455.5C 245.941,456.447 244.274,457.113 242.5,457.5C 240.374,456.214 238.041,455.381 235.5,455C 238.226,452.97 241.226,451.47 244.5,450.5C 245.5,451.167 246.5,451.833 247.5,452.5C 248.833,444.833 248.833,437.167 247.5,429.5C 244.462,430.731 241.462,430.564 238.5,429C 241.195,426.155 244.529,424.655 248.5,424.5 Z"/></g>
<g><path style="opacity:0.977" fill="#1b1b1b" d="M 249.5,405.5 C 250.498,430.328 250.831,455.328 250.5,480.5C 250.167,480.5 249.833,480.5 249.5,480.5C 248.865,462.095 248.865,443.761 249.5,425.5C 249.5,418.833 249.5,412.167 249.5,405.5 Z"/></g>
<g><path style="opacity:0.004" fill="#fefffe" d="M 290.5,453.5 C 291.833,454.167 291.833,454.167 290.5,453.5 Z"/></g>
<g><path style="opacity:0.004" fill="#fefffe" d="M 173.5,455.5 C 174.833,456.167 174.833,456.167 173.5,455.5 Z"/></g>
<g><path style="opacity:0.004" fill="#fefffe" d="M 437.5,455.5 C 438.833,456.167 438.833,456.167 437.5,455.5 Z"/></g>
<g><path style="opacity:0.004" fill="#fefffe" d="M 446.5,456.5 C 447.833,457.167 447.833,457.167 446.5,456.5 Z"/></g>
<g><path style="opacity:0.004" fill="#fefffe" d="M 230.5,458.5 C 231.833,459.167 231.833,459.167 230.5,458.5 Z"/></g>
<g><path style="opacity:0.004" fill="#fefffe" d="M 416.5,458.5 C 417.833,459.167 417.833,459.167 416.5,458.5 Z"/></g>
<g><path style="opacity:0.004" fill="#fefffe" d="M 452.5,458.5 C 453.833,459.167 453.833,459.167 452.5,458.5 Z"/></g>
<g><path style="opacity:0.004" fill="#fefffe" d="M 488.5,463.5 C 489.833,464.167 489.833,464.167 488.5,463.5 Z"/></g>
<g><path style="opacity:0.004" fill="#fefffe" d="M 404.5,466.5 C 405.833,467.167 405.833,467.167 404.5,466.5 Z"/></g>
<g><path style="opacity:0.004" fill="#fefffe" d="M 134.5,469.5 C 135.833,470.167 135.833,470.167 134.5,469.5 Z"/></g>
<g><path style="opacity:0.004" fill="#fefffe" d="M 29.5,470.5 C 30.8333,471.167 30.8333,471.167 29.5,470.5 Z"/></g>
<g><path style="opacity:0.004" fill="#fefffe" d="M 476.5,473.5 C 477.833,474.167 477.833,474.167 476.5,473.5 Z"/></g>
<g><path style="opacity:0.004" fill="#fefffe" d="M 134.5,475.5 C 135.833,476.167 135.833,476.167 134.5,475.5 Z"/></g>
<g><path style="opacity:0.149" fill="#c8c8c8" d="M 246.5,480.5 C 244.167,480.5 241.833,480.5 239.5,480.5C 240.152,479.275 241.319,478.608 243,478.5C 244.681,478.608 245.848,479.275 246.5,480.5 Z"/></g>
</svg>
