<?xml version="1.0" standalone="no"?>
<!DOCTYPE svg PUBLIC "-//W3C//DTD SVG 20010904//EN"
 "http://www.w3.org/TR/2001/REC-SVG-20010904/DTD/svg10.dtd">
<svg version="1.0" xmlns="http://www.w3.org/2000/svg"
 width="519.000000pt" height="481.000000pt" viewBox="0 0 519.000000 481.000000"
 preserveAspectRatio="xMidYMid meet">

<g transform="translate(0.000000,481.000000) scale(0.100000,-0.100000)"
fill="#000000" stroke="none">
<path d="M602 4685 c-1 -71 -3 -616 -5 -1210 l-2 -1080 -297 -3 c-187 -1 -298
-6 -298 -12 0 -12 -18 -11 328 -11 l272 0 -5 -1117 c-3 -614 -2 -1148 3 -1187
5 -43 10 283 14 850 5 767 9 937 22 1025 28 183 78 315 150 393 l33 36 2179 0
c1198 0 2182 1 2187 1 4 0 7 5 7 10 0 7 -730 10 -2170 10 -1195 0 -2170 4
-2170 9 0 13 107 85 185 123 281 141 733 239 1505 327 538 62 1433 128 2250
166 190 9 359 20 375 25 29 8 29 8 -11 9 -46 1 -675 -32 -1029 -54 -1343 -85
-2141 -177 -2659 -307 -277 -69 -449 -141 -585 -243 l-73 -56 -97 3 -96 3 -5
1210 c-3 666 -6 1152 -8 1080z m174 -2338 c-74 -102 -117 -200 -137 -312 -7
-39 -16 -74 -21 -79 -4 -6 -8 85 -8 202 l0 211 91 0 91 0 -16 -22z"/>
<path d="M536 4112 c-3 -5 1 -9 9 -9 8 0 12 4 9 9 -3 4 -7 8 -9 8 -2 0 -6 -4
-9 -8z"/>
<path d="M391 2314 c0 -11 3 -14 6 -6 3 7 2 16 -1 19 -3 4 -6 -2 -5 -13z"/>
<path d="M3621 2314 c0 -11 3 -14 6 -6 3 7 2 16 -1 19 -3 4 -6 -2 -5 -13z"/>
<path d="M3841 2314 c0 -11 3 -14 6 -6 3 7 2 16 -1 19 -3 4 -6 -2 -5 -13z"/>
<path d="M4061 2314 c0 -11 3 -14 6 -6 3 7 2 16 -1 19 -3 4 -6 -2 -5 -13z"/>
<path d="M5181 2314 c0 -11 3 -14 6 -6 3 7 2 16 -1 19 -3 4 -6 -2 -5 -13z"/>
</g>
</svg>
