<?xml version="1.0" encoding="UTF-8"?>
<!DOCTYPE svg PUBLIC "-//W3C//DTD SVG 1.1//EN" "http://www.w3.org/Graphics/SVG/1.1/DTD/svg11.dtd">
<svg xmlns="http://www.w3.org/2000/svg" version="1.1" width="519px" height="481px" style="shape-rendering:geometricPrecision; text-rendering:geometricPrecision; image-rendering:optimizeQuality; fill-rule:evenodd; clip-rule:evenodd" xmlns:xlink="http://www.w3.org/1999/xlink">
<g><path style="opacity:0.794" fill="#6b6b6b" d="M 248.5,-0.5 C 248.833,-0.5 249.167,-0.5 249.5,-0.5C 249.184,26.2111 249.518,52.8778 250.5,79.5C 249.883,79.3893 249.383,79.056 249,78.5C 248.5,52.1688 248.333,25.8354 248.5,-0.5 Z"/></g>
<g><path style="opacity:0.004" fill="#fefffe" d="M 341.5,2.5 C 342.833,3.16667 342.833,3.16667 341.5,2.5 Z"/></g>
<g><path style="opacity:0.004" fill="#fefffe" d="M 176.5,13.5 C 177.833,14.1667 177.833,14.1667 176.5,13.5 Z"/></g>
<g><path style="opacity:0.004" fill="#fefffe" d="M 59.5,17.5 C 60.8333,18.1667 60.8333,18.1667 59.5,17.5 Z"/></g>
<g><path style="opacity:0.004" fill="#fefffe" d="M 329.5,17.5 C 330.833,18.1667 330.833,18.1667 329.5,17.5 Z"/></g>
<g><path style="opacity:0.004" fill="#fefffe" d="M 140.5,25.5 C 141.833,26.1667 141.833,26.1667 140.5,25.5 Z"/></g>
<g><path style="opacity:0.729" fill="#b5b5b5" d="M 236.5,26.5 C 238.833,26.5 241.167,26.5 243.5,26.5C 244.15,32.6857 241.817,34.1857 236.5,31C 237.413,29.5861 237.413,28.0861 236.5,26.5 Z"/></g>
<g><path style="opacity:0.804" fill="#aeaeae" d="M 246.5,27.5 C 246.5,28.5 246.5,29.5 246.5,30.5C 244.015,29.7399 244.015,28.7399 246.5,27.5 Z"/></g>
<g><path style="opacity:0.004" fill="#fefffe" d="M 467.5,46.5 C 468.833,47.1667 468.833,47.1667 467.5,46.5 Z"/></g>
<g><path style="opacity:0.004" fill="#fefffe" d="M 122.5,52.5 C 123.833,53.1667 123.833,53.1667 122.5,52.5 Z"/></g>
<g><path style="opacity:0.004" fill="#fefffe" d="M 146.5,52.5 C 147.833,53.1667 147.833,53.1667 146.5,52.5 Z"/></g>
<g><path style="opacity:0.004" fill="#fefffe" d="M 278.5,52.5 C 279.833,53.1667 279.833,53.1667 278.5,52.5 Z"/></g>
<g><path style="opacity:0.004" fill="#fefffe" d="M 353.5,52.5 C 354.833,53.1667 354.833,53.1667 353.5,52.5 Z"/></g>
<g><path style="opacity:0.004" fill="#fefffe" d="M 377.5,58.5 C 378.833,59.1667 378.833,59.1667 377.5,58.5 Z"/></g>
<g><path style="opacity:0.004" fill="#fefffe" d="M 491.5,71.5 C 492.833,72.1667 492.833,72.1667 491.5,71.5 Z"/></g>
<g><path style="opacity:0.004" fill="#fefffe" d="M 251.5,74.5 C 252.833,75.1667 252.833,75.1667 251.5,74.5 Z"/></g>
<g><path style="opacity:0.004" fill="#fefffe" d="M 35.5,75.5 C 36.8333,76.1667 36.8333,76.1667 35.5,75.5 Z"/></g>
<g><path style="opacity:0.004" fill="#fefffe" d="M 338.5,75.5 C 339.833,76.1667 339.833,76.1667 338.5,75.5 Z"/></g>
<g><path style="opacity:0.776" fill="#a7a7a7" d="M 245.5,77.5 C 244.143,79.4988 244.81,80.6655 247.5,81C 247.272,81.3988 246.938,81.5654 246.5,81.5C 245.833,82.5 245.167,83.5 244.5,84.5C 244.869,82.0065 244.203,81.3398 242.5,82.5C 240.586,81.8153 238.586,81.3153 236.5,81C 237.711,79.8869 237.711,78.7202 236.5,77.5C 239.498,76.3565 242.498,76.3565 245.5,77.5 Z"/></g>
<g><path style="opacity:0.941" fill="#3a3a3a" d="M 244.5,84.5 C 243.033,87.2583 242.367,86.925 242.5,83.5C 242.5,83.1667 242.5,82.8333 242.5,82.5C 244.203,81.3398 244.869,82.0065 244.5,84.5 Z"/></g>
<g><path style="opacity:0.871" fill="#a8a8a8" d="M 242.5,83.5 C 242.367,86.925 243.033,87.2583 244.5,84.5C 244.279,87.0673 243.612,89.4006 242.5,91.5C 242.657,90.1266 242.49,88.7932 242,87.5C 241.722,88.4158 241.222,89.0825 240.5,89.5C 240.595,87.2143 241.262,85.2143 242.5,83.5 Z"/></g>
<g><path style="opacity:0.941" fill="#565656" d="M 253.5,87.5 C 254.451,88.9187 254.784,90.5853 254.5,92.5C 254.657,93.8734 254.49,95.2068 254,96.5C 253.768,95.2625 253.268,94.2625 252.5,93.5C 251.699,91.9582 251.366,90.2915 251.5,88.5C 251.367,85.075 252.033,84.7417 253.5,87.5 Z"/></g>
<g><path style="opacity:0.857" fill="#3b3b3b" d="M 242.5,91.5 C 242.5,91.8333 242.5,92.1667 242.5,92.5C 241.778,92.9175 241.278,93.5842 241,94.5C 240.51,93.2068 240.343,91.8734 240.5,90.5C 240.5,90.1667 240.5,89.8333 240.5,89.5C 241.222,89.0825 241.722,88.4158 242,87.5C 242.49,88.7932 242.657,90.1266 242.5,91.5 Z"/></g>
<g><path style="opacity:0.753" fill="#a2a2a2" d="M 240.5,90.5 C 240.343,91.8734 240.51,93.2068 241,94.5C 241.278,93.5842 241.778,92.9175 242.5,92.5C 242.198,95.3725 241.531,98.0392 240.5,100.5C 240.66,98.8008 240.494,97.1341 240,95.5C 239.79,97.0581 239.29,98.3915 238.5,99.5C 238.42,96.2186 239.087,93.2186 240.5,90.5 Z"/></g>
<g><path style="opacity:0.8" fill="#a7a7a7" d="M 254.5,92.5 C 255.451,93.9187 255.784,95.5853 255.5,97.5C 254.549,98.9187 254.216,100.585 254.5,102.5C 253.343,99.7273 252.676,96.7273 252.5,93.5C 253.268,94.2625 253.768,95.2625 254,96.5C 254.49,95.2068 254.657,93.8734 254.5,92.5 Z"/></g>
<g><path style="opacity:0.98" fill="#222222" d="M 240.5,100.5 C 239.698,101.952 239.198,103.618 239,105.5C 238.505,103.527 238.338,101.527 238.5,99.5C 239.29,98.3915 239.79,97.0581 240,95.5C 240.494,97.1341 240.66,98.8008 240.5,100.5 Z"/></g>
<g><path style="opacity:0.973" fill="#636363" d="M 255.5,97.5 C 257.011,100.544 257.678,103.878 257.5,107.5C 257.662,109.527 257.495,111.527 257,113.5C 256.768,112.263 256.268,111.263 255.5,110.5C 254.735,107.904 254.401,105.237 254.5,102.5C 254.216,100.585 254.549,98.9187 255.5,97.5 Z"/></g>
<g><path style="opacity:0.004" fill="#fefffe" d="M 47.5,104.5 C 48.8333,105.167 48.8333,105.167 47.5,104.5 Z"/></g>
<g><path style="opacity:0.996" fill="#434343" d="M 246.5,-0.5 C 247.167,-0.5 247.833,-0.5 248.5,-0.5C 248.333,25.8354 248.5,52.1688 249,78.5C 249.383,79.056 249.883,79.3893 250.5,79.5C 251.338,79.8417 251.672,80.5084 251.5,81.5C 251.671,84.7973 251.005,85.1306 249.5,82.5C 248.5,163.497 248.167,244.497 248.5,325.5C 247.833,325.5 247.167,325.5 246.5,325.5C 246.5,310.167 246.5,294.833 246.5,279.5C 246.167,278.833 245.833,278.167 245.5,277.5C 246.484,261.578 246.817,245.578 246.5,229.5C 246.167,228.833 245.833,228.167 245.5,227.5C 246.496,211.675 246.83,195.675 246.5,179.5C 246.5,178.833 246.5,178.167 246.5,177.5C 246.5,161.833 246.5,146.167 246.5,130.5C 245.89,129.609 245.557,128.609 245.5,127.5C 246.496,112.342 246.83,97.0091 246.5,81.5C 246.938,81.5654 247.272,81.3988 247.5,81C 244.81,80.6655 244.143,79.4988 245.5,77.5C 246.484,61.911 246.817,46.2444 246.5,30.5C 246.5,29.5 246.5,28.5 246.5,27.5C 246.5,18.1667 246.5,8.83333 246.5,-0.5 Z"/></g>
<g><path style="opacity:0.773" fill="#a8a8a8" d="M 238.5,99.5 C 238.338,101.527 238.505,103.527 239,105.5C 239.198,103.618 239.698,101.952 240.5,100.5C 240.57,104.425 239.903,108.091 238.5,111.5C 238.66,109.801 238.494,108.134 238,106.5C 237.79,108.058 237.29,109.391 236.5,110.5C 236.646,106.613 237.313,102.946 238.5,99.5 Z"/></g>
<g><path style="opacity:0.004" fill="#fefffe" d="M 413.5,108.5 C 414.833,109.167 414.833,109.167 413.5,108.5 Z"/></g>
<g><path style="opacity:0.82" fill="#a9a9a9" d="M 257.5,107.5 C 258.687,110.946 259.354,114.613 259.5,118.5C 258.71,117.391 258.21,116.058 258,114.5C 257.506,116.134 257.34,117.801 257.5,119.5C 256.343,116.727 255.676,113.727 255.5,110.5C 256.268,111.263 256.768,112.263 257,113.5C 257.495,111.527 257.662,109.527 257.5,107.5 Z"/></g>
<g><path style="opacity:0.875" fill="#5a5a5a" d="M 238.5,111.5 C 238.702,113.95 238.369,116.283 237.5,118.5C 236.71,119.609 236.21,120.942 236,122.5C 235.506,120.866 235.34,119.199 235.5,117.5C 235.298,115.05 235.631,112.717 236.5,110.5C 237.29,109.391 237.79,108.058 238,106.5C 238.494,108.134 238.66,109.801 238.5,111.5 Z"/></g>
<g><path style="opacity:0.835" fill="#5b5b5b" d="M 259.5,118.5 C 260.388,121.054 260.721,123.721 260.5,126.5C 260.66,128.199 260.494,129.866 260,131.5C 259.79,129.942 259.29,128.609 258.5,127.5C 257.612,124.946 257.279,122.279 257.5,119.5C 257.34,117.801 257.506,116.134 258,114.5C 258.21,116.058 258.71,117.391 259.5,118.5 Z"/></g>
<g><path style="opacity:0.784" fill="#a5a5a5" d="M 235.5,117.5 C 235.34,119.199 235.506,120.866 236,122.5C 236.21,120.942 236.71,119.609 237.5,118.5C 237.283,122.705 236.617,126.705 235.5,130.5C 235.662,128.473 235.495,126.473 235,124.5C 234.768,125.737 234.268,126.737 233.5,127.5C 233.753,123.96 234.419,120.627 235.5,117.5 Z"/></g>
<g><path style="opacity:0.004" fill="#fefffe" d="M 143.5,125.5 C 144.833,126.167 144.833,126.167 143.5,125.5 Z"/></g>
<g><path style="opacity:0.839" fill="#454545" d="M 235.5,130.5 C 235.5,131.167 235.5,131.833 235.5,132.5C 234.732,133.263 234.232,134.263 234,135.5C 233.505,133.527 233.338,131.527 233.5,129.5C 233.5,128.833 233.5,128.167 233.5,127.5C 234.268,126.737 234.768,125.737 235,124.5C 235.495,126.473 235.662,128.473 235.5,130.5 Z"/></g>
<g><path style="opacity:0.584" fill="#b9b9b9" d="M 245.5,127.5 C 245.557,128.609 245.89,129.609 246.5,130.5C 244.499,130.883 242.165,131.217 239.5,131.5C 239.5,129.833 239.5,128.167 239.5,126.5C 241.451,126.227 242.951,126.893 244,128.5C 244.383,127.944 244.883,127.611 245.5,127.5 Z"/></g>
<g><path style="opacity:0.004" fill="#fefffe" d="M 59.5,131.5 C 60.8333,132.167 60.8333,132.167 59.5,131.5 Z"/></g>
<g><path style="opacity:0.004" fill="#fefffe" d="M 116.5,131.5 C 117.833,132.167 117.833,132.167 116.5,131.5 Z"/></g>
<g><path style="opacity:0.749" fill="#ababab" d="M 260.5,126.5 C 261.903,129.909 262.57,133.575 262.5,137.5C 261.698,136.048 261.198,134.382 261,132.5C 260.503,134.81 260.337,137.143 260.5,139.5C 259.383,135.705 258.717,131.705 258.5,127.5C 259.29,128.609 259.79,129.942 260,131.5C 260.494,129.866 260.66,128.199 260.5,126.5 Z"/></g>
<g><path style="opacity:0.737" fill="#ababab" d="M 233.5,129.5 C 233.338,131.527 233.505,133.527 234,135.5C 234.232,134.263 234.732,133.263 235.5,132.5C 235.354,136.387 234.687,140.054 233.5,143.5C 233.662,141.473 233.495,139.473 233,137.5C 232.768,138.737 232.268,139.737 231.5,140.5C 231.808,136.64 232.475,132.974 233.5,129.5 Z"/></g>
<g><path style="opacity:0.004" fill="#fefffe" d="M 347.5,138.5 C 348.833,139.167 348.833,139.167 347.5,138.5 Z"/></g>
<g><path style="opacity:0.004" fill="#fefffe" d="M 464.5,139.5 C 465.833,140.167 465.833,140.167 464.5,139.5 Z"/></g>
<g><path style="opacity:0.004" fill="#fefffe" d="M 11.5,142.5 C 12.8333,143.167 12.8333,143.167 11.5,142.5 Z"/></g>
<g><path style="opacity:0.004" fill="#fefffe" d="M 215.5,144.5 C 216.833,145.167 216.833,145.167 215.5,144.5 Z"/></g>
<g><path style="opacity:0.957" fill="#494949" d="M 262.5,137.5 C 263.388,140.054 263.721,142.721 263.5,145.5C 263.662,147.527 263.495,149.527 263,151.5C 262.581,147.608 261.748,143.942 260.5,140.5C 260.5,140.167 260.5,139.833 260.5,139.5C 260.337,137.143 260.503,134.81 261,132.5C 261.198,134.382 261.698,136.048 262.5,137.5 Z"/></g>
<g><path style="opacity:0.004" fill="#fefffe" d="M 125.5,147.5 C 126.833,148.167 126.833,148.167 125.5,147.5 Z"/></g>
<g><path style="opacity:0.004" fill="#fefffe" d="M 71.5,151.5 C 72.8333,152.167 72.8333,152.167 71.5,151.5 Z"/></g>
<g><path style="opacity:0.851" fill="#a6a6a6" d="M 260.5,140.5 C 261.748,143.942 262.581,147.608 263,151.5C 263.495,149.527 263.662,147.527 263.5,145.5C 264.687,148.946 265.354,152.613 265.5,156.5C 264.71,155.391 264.21,154.058 264,152.5C 263.506,154.134 263.34,155.801 263.5,157.5C 261.764,152.089 260.764,146.422 260.5,140.5 Z"/></g>
<g><path style="opacity:0.004" fill="#fefffe" d="M 173.5,160.5 C 174.833,161.167 174.833,161.167 173.5,160.5 Z"/></g>
<g><path style="opacity:0.965" fill="#6e6e6e" d="M 233.5,143.5 C 232.628,152.274 231.295,160.941 229.5,169.5C 228.368,172.628 227.535,175.962 227,179.5C 226.506,177.866 226.34,176.199 226.5,174.5C 227.91,163.121 229.576,151.787 231.5,140.5C 232.268,139.737 232.768,138.737 233,137.5C 233.495,139.473 233.662,141.473 233.5,143.5 Z"/></g>
<g><path style="opacity:0.004" fill="#fefffe" d="M 206.5,165.5 C 207.833,166.167 207.833,166.167 206.5,165.5 Z"/></g>
<g><path style="opacity:0.953" fill="#616161" d="M 265.5,156.5 C 266.49,160.772 267.156,165.106 267.5,169.5C 267.663,171.857 267.497,174.19 267,176.5C 266.802,174.618 266.302,172.952 265.5,171.5C 264.189,166.964 263.523,162.297 263.5,157.5C 263.34,155.801 263.506,154.134 264,152.5C 264.21,154.058 264.71,155.391 265.5,156.5 Z"/></g>
<g><path style="opacity:0.898" fill="#a7a7a7" d="M 267.5,169.5 C 268.617,173.295 269.283,177.295 269.5,181.5C 268.71,180.391 268.21,179.058 268,177.5C 267.506,179.134 267.34,180.801 267.5,182.5C 266.097,179.091 265.43,175.425 265.5,171.5C 266.302,172.952 266.802,174.618 267,176.5C 267.497,174.19 267.663,171.857 267.5,169.5 Z"/></g>
<g><path style="opacity:0.004" fill="#fefffe" d="M 341.5,176.5 C 342.833,177.167 342.833,177.167 341.5,176.5 Z"/></g>
<g><path style="opacity:0.416" fill="#b7b7b7" d="M 246.5,177.5 C 246.5,178.167 246.5,178.833 246.5,179.5C 243.833,178.833 243.833,178.167 246.5,177.5 Z"/></g>
<g><path style="opacity:0.914" fill="#999999" d="M 229.5,169.5 C 229.246,175.095 228.246,180.428 226.5,185.5C 226.657,184.127 226.49,182.793 226,181.5C 225.79,183.058 225.29,184.391 224.5,185.5C 224.646,181.613 225.313,177.946 226.5,174.5C 226.34,176.199 226.506,177.866 227,179.5C 227.535,175.962 228.368,172.628 229.5,169.5 Z"/></g>
<g><path style="opacity:0.741" fill="#a4a4a4" d="M 241.5,175.5 C 243.28,176.99 243.946,178.99 243.5,181.5C 239.151,180.775 238.484,178.775 241.5,175.5 Z"/></g>
<g><path style="opacity:0.778" fill="#6c6c6c" d="M 251.5,81.5 C 252.738,83.2143 253.405,85.2143 253.5,87.5C 252.033,84.7417 251.367,85.075 251.5,88.5C 250.732,87.7375 250.232,86.7375 250,85.5C 249.5,165.499 249.333,245.499 249.5,325.5C 249.167,325.5 248.833,325.5 248.5,325.5C 248.167,244.497 248.5,163.497 249.5,82.5C 251.005,85.1306 251.671,84.7973 251.5,81.5 Z"/></g>
<g><path style="opacity:0.976" fill="#717171" d="M 269.5,181.5 C 272.084,193.42 274.417,205.42 276.5,217.5C 276.657,218.873 276.49,220.207 276,221.5C 275.768,220.263 275.268,219.263 274.5,218.5C 271.31,206.699 268.977,194.699 267.5,182.5C 267.34,180.801 267.506,179.134 268,177.5C 268.21,179.058 268.71,180.391 269.5,181.5 Z"/></g>
<g><path style="opacity:0.004" fill="#fefffe" d="M 170.5,199.5 C 171.525,199.897 171.692,200.563 171,201.5C 170.536,200.906 170.369,200.239 170.5,199.5 Z"/></g>
<g><path style="opacity:1" fill="#6e6e6e" d="M 226.5,185.5 C 225.727,194.696 224.06,203.696 221.5,212.5C 220.732,213.263 220.232,214.263 220,215.5C 219.51,214.207 219.343,212.873 219.5,211.5C 220.659,202.707 222.326,194.04 224.5,185.5C 225.29,184.391 225.79,183.058 226,181.5C 226.49,182.793 226.657,184.127 226.5,185.5 Z"/></g>
<g><path style="opacity:0.004" fill="#fefffe" d="M 95.5,209.5 C 96.8333,210.167 96.8333,210.167 95.5,209.5 Z"/></g>
<g><path style="opacity:0.843" fill="#a2a2a2" d="M 219.5,211.5 C 219.343,212.873 219.51,214.207 220,215.5C 220.232,214.263 220.732,213.263 221.5,212.5C 221.435,215.428 220.768,218.095 219.5,220.5C 219.768,218.901 219.434,217.568 218.5,216.5C 218.216,214.585 218.549,212.919 219.5,211.5 Z"/></g>
<g><path style="opacity:0.876" fill="#a7a7a7" d="M 276.5,217.5 C 277.768,219.905 278.435,222.572 278.5,225.5C 277.732,224.737 277.232,223.737 277,222.5C 276.51,223.793 276.343,225.127 276.5,226.5C 275.232,224.095 274.565,221.428 274.5,218.5C 275.268,219.263 275.768,220.263 276,221.5C 276.49,220.207 276.657,218.873 276.5,217.5 Z"/></g>
<g><path style="opacity:0.855" fill="#393939" d="M 278.5,225.5 C 278.657,226.873 278.49,228.207 278,229.5C 277.722,228.584 277.222,227.918 276.5,227.5C 276.5,227.167 276.5,226.833 276.5,226.5C 276.343,225.127 276.51,223.793 277,222.5C 277.232,223.737 277.732,224.737 278.5,225.5 Z"/></g>
<g><path style="opacity:0.025" fill="#eeeeee" d="M 245.5,227.5 C 245.833,228.167 246.167,228.833 246.5,229.5C 244.576,229.289 244.243,228.623 245.5,227.5 Z"/></g>
<g><path style="opacity:0.984" fill="#9f9f9e" d="M 241.5,225.5 C 243.976,227.121 244.142,229.121 242,231.5C 238.953,229.783 238.786,227.783 241.5,225.5 Z"/></g>
<g><path style="opacity:0.878" fill="#a6a6a6" d="M 278.5,225.5 C 279.768,227.905 280.435,230.572 280.5,233.5C 279.732,232.737 279.232,231.737 279,230.5C 278.51,231.793 278.343,233.127 278.5,234.5C 277.388,232.401 276.721,230.067 276.5,227.5C 277.222,227.918 277.722,228.584 278,229.5C 278.49,228.207 278.657,226.873 278.5,225.5 Z"/></g>
<g><path style="opacity:0.91" fill="#676767" d="M 280.5,233.5 C 280.5,234.833 280.5,236.167 280.5,237.5C 280.5,238.833 280.5,240.167 280.5,241.5C 279.388,239.401 278.721,237.067 278.5,234.5C 278.343,233.127 278.51,231.793 279,230.5C 279.232,231.737 279.732,232.737 280.5,233.5 Z"/></g>
<g><path style="opacity:0.882" fill="#797979" d="M 218.5,216.5 C 219.434,217.568 219.768,218.901 219.5,220.5C 217.904,230.559 215.238,240.225 211.5,249.5C 211.869,247.007 211.203,246.34 209.5,247.5C 212.363,237.034 215.363,226.7 218.5,216.5 Z"/></g>
<g><path style="opacity:0.816" fill="#a2a2a2" d="M 280.5,233.5 C 281.738,235.214 282.405,237.214 282.5,239.5C 281.833,238.833 281.167,238.167 280.5,237.5C 280.5,236.167 280.5,234.833 280.5,233.5 Z"/></g>
<g><path style="opacity:0.004" fill="#fefffe" d="M 155.5,237.5 C 156.833,238.167 156.833,238.167 155.5,237.5 Z"/></g>
<g><path style="opacity:0.004" fill="#fefffe" d="M 179.5,238.5 C 180.833,239.167 180.833,239.167 179.5,238.5 Z"/></g>
<g><path style="opacity:0.004" fill="#fefffe" d="M 488.5,239.5 C 489.833,240.167 489.833,240.167 488.5,239.5 Z"/></g>
<g><path style="opacity:0.914" fill="#373737" d="M 280.5,237.5 C 281.167,238.167 281.833,238.833 282.5,239.5C 282.5,239.833 282.5,240.167 282.5,240.5C 282.633,243.925 281.967,244.258 280.5,241.5C 280.5,240.167 280.5,238.833 280.5,237.5 Z"/></g>
<g><path style="opacity:0.004" fill="#fefffe" d="M 308.5,244.5 C 309.833,245.167 309.833,245.167 308.5,244.5 Z"/></g>
<g><path style="opacity:0.898" fill="#7d7d7d" d="M 282.5,240.5 C 286.652,252.477 291.652,264.144 297.5,275.5C 296.637,274.537 295.97,274.537 295.5,275.5C 296.127,276.417 296.461,277.417 296.5,278.5C 288.855,267.255 283.522,254.921 280.5,241.5C 281.967,244.258 282.633,243.925 282.5,240.5 Z"/></g>
<g><path style="opacity:0.004" fill="#fefffe" d="M 83.5,248.5 C 84.8333,249.167 84.8333,249.167 83.5,248.5 Z"/></g>
<g><path style="opacity:0.902" fill="#373737" d="M 211.5,249.5 C 210.033,252.258 209.367,251.925 209.5,248.5C 209.5,248.167 209.5,247.833 209.5,247.5C 211.203,246.34 211.869,247.007 211.5,249.5 Z"/></g>
<g><path style="opacity:0.929" fill="#a1a1a1" d="M 209.5,248.5 C 209.367,251.925 210.033,252.258 211.5,249.5C 211.598,251.553 210.931,253.22 209.5,254.5C 209.591,252.302 208.925,251.969 207.5,253.5C 207.402,251.447 208.069,249.78 209.5,248.5 Z"/></g>
<g><path style="opacity:0.918" fill="#363636" d="M 209.5,254.5 C 209.5,254.833 209.5,255.167 209.5,255.5C 207.797,256.66 207.131,255.993 207.5,253.5C 208.925,251.969 209.591,252.302 209.5,254.5 Z"/></g>
<g><path style="opacity:0.875" fill="#a6a6a6" d="M 207.5,253.5 C 207.131,255.993 207.797,256.66 209.5,255.5C 209.204,257.403 208.537,259.07 207.5,260.5C 207.869,258.007 207.203,257.34 205.5,258.5C 205.796,256.597 206.463,254.93 207.5,253.5 Z"/></g>
<g><path style="opacity:0.929" fill="#353535" d="M 207.5,260.5 C 205.797,261.66 205.131,260.993 205.5,258.5C 207.203,257.34 207.869,258.007 207.5,260.5 Z"/></g>
<g><path style="opacity:0.004" fill="#fefffe" d="M 416.5,261.5 C 417.833,262.167 417.833,262.167 416.5,261.5 Z"/></g>
<g><path style="opacity:0.004" fill="#fefffe" d="M 500.5,263.5 C 501.833,264.167 501.833,264.167 500.5,263.5 Z"/></g>
<g><path style="opacity:0.933" fill="#4b4b4b" d="M 297.5,275.5 C 297.427,277.027 298.094,278.027 299.5,278.5C 299.5,279.833 298.833,280.5 297.5,280.5C 296.662,280.158 296.328,279.492 296.5,278.5C 296.461,277.417 296.127,276.417 295.5,275.5C 295.97,274.537 296.637,274.537 297.5,275.5 Z"/></g>
<g><path style="opacity:0.941" fill="#848484" d="M 205.5,258.5 C 205.131,260.993 205.797,261.66 207.5,260.5C 205.068,268.234 201.401,275.234 196.5,281.5C 196.869,279.007 196.203,278.34 194.5,279.5C 198.44,272.619 202.107,265.619 205.5,258.5 Z"/></g>
<g><path style="opacity:0.024" fill="#f5f5f5" d="M 245.5,277.5 C 245.833,278.167 246.167,278.833 246.5,279.5C 244.576,279.289 244.243,278.623 245.5,277.5 Z"/></g>
<g><path style="opacity:0.322" fill="#c2c2c2" d="M 297.5,275.5 C 298.906,275.973 299.573,276.973 299.5,278.5C 298.094,278.027 297.427,277.027 297.5,275.5 Z"/></g>
<g><path style="opacity:0.475" fill="#b7b7b7" d="M 239.5,275.5 C 240.833,275.5 242.167,275.5 243.5,275.5C 243.5,277.167 243.5,278.833 243.5,280.5C 242.022,280.762 240.689,280.429 239.5,279.5C 240.363,278.274 240.363,276.94 239.5,275.5 Z"/></g>
<g><path style="opacity:0.451" fill="#b9b9b9" d="M 194.5,279.5 C 194.573,281.027 193.906,282.027 192.5,282.5C 192.427,280.973 193.094,279.973 194.5,279.5 Z"/></g>
<g><path style="opacity:0.933" fill="#393939" d="M 196.5,281.5 C 196.5,282.167 196.167,282.5 195.5,282.5C 194.542,282.953 193.708,283.619 193,284.5C 192.536,283.906 192.369,283.239 192.5,282.5C 193.906,282.027 194.573,281.027 194.5,279.5C 196.203,278.34 196.869,279.007 196.5,281.5 Z"/></g>
<g><path style="opacity:0.953" fill="#7a7a7a" d="M 299.5,278.5 C 312.954,296.267 330.621,307.6 352.5,312.5C 350.599,312.567 348.766,312.233 347,311.5C 345.97,311.836 345.47,312.503 345.5,313.5C 336.74,311.78 328.74,308.447 321.5,303.5C 321.027,302.094 320.027,301.427 318.5,301.5C 309.855,296.188 302.855,289.188 297.5,280.5C 298.833,280.5 299.5,279.833 299.5,278.5 Z"/></g>
<g><path style="opacity:0.004" fill="#d7d7d7" d="M 191.5,287.5 C 191.573,289.027 190.906,290.027 189.5,290.5C 189.427,288.973 190.094,287.973 191.5,287.5 Z"/></g>
<g><path style="opacity:0.004" fill="#fefffe" d="M 446.5,291.5 C 447.833,292.167 447.833,292.167 446.5,291.5 Z"/></g>
<g><path style="opacity:0.004" fill="#fefffe" d="M 80.5,296.5 C 81.8333,297.167 81.8333,297.167 80.5,296.5 Z"/></g>
<g><path style="opacity:0.004" fill="#fefffe" d="M 5.5,299.5 C 6.83333,300.167 6.83333,300.167 5.5,299.5 Z"/></g>
<g><path style="opacity:0.004" fill="#fefffe" d="M 467.5,299.5 C 468.833,300.167 468.833,300.167 467.5,299.5 Z"/></g>
<g><path style="opacity:0.388" fill="#b8b8b8" d="M 318.5,301.5 C 320.027,301.427 321.027,302.094 321.5,303.5C 319.973,303.573 318.973,302.906 318.5,301.5 Z"/></g>
<g><path style="opacity:0.004" fill="#fefffe" d="M 143.5,303.5 C 144.833,304.167 144.833,304.167 143.5,303.5 Z"/></g>
<g><path style="opacity:0.955" fill="#727272" d="M 192.5,282.5 C 192.369,283.239 192.536,283.906 193,284.5C 193.708,283.619 194.542,282.953 195.5,282.5C 194.92,284.749 193.587,286.415 191.5,287.5C 190.094,287.973 189.427,288.973 189.5,290.5C 181.013,299.917 170.68,306.584 158.5,310.5C 156.214,310.595 154.214,311.262 152.5,312.5C 151.127,312.657 149.793,312.49 148.5,312C 150.758,311.124 152.758,309.957 154.5,308.5C 169.642,303.343 182.308,294.677 192.5,282.5 Z"/></g>
<g><path style="opacity:0.725" fill="#9d9d9d" d="M 154.5,308.5 C 152.758,309.957 150.758,311.124 148.5,312C 149.793,312.49 151.127,312.657 152.5,312.5C 150.485,313.924 148.152,314.59 145.5,314.5C 145.918,313.778 146.584,313.278 147.5,313C 145.527,312.505 143.527,312.338 141.5,312.5C 145.617,310.797 149.95,309.463 154.5,308.5 Z"/></g>
<g><path style="opacity:0.004" fill="#d4d4d4" d="M 158.5,310.5 C 156.898,312.074 154.898,312.741 152.5,312.5C 154.214,311.262 156.214,310.595 158.5,310.5 Z"/></g>
<g><path style="opacity:0.973" fill="#454545" d="M 141.5,312.5 C 143.527,312.338 145.527,312.505 147.5,313C 146.584,313.278 145.918,313.778 145.5,314.5C 143.801,314.66 142.134,314.494 140.5,314C 141.056,313.617 141.389,313.117 141.5,312.5 Z"/></g>
<g><path style="opacity:0.888" fill="#969696" d="M 141.5,312.5 C 141.389,313.117 141.056,313.617 140.5,314C 142.134,314.494 143.801,314.66 145.5,314.5C 143.095,315.768 140.428,316.435 137.5,316.5C 137.611,315.883 137.944,315.383 138.5,315C 136.19,314.503 133.857,314.337 131.5,314.5C 134.589,313.215 137.922,312.549 141.5,312.5 Z"/></g>
<g><path style="opacity:0.443" fill="#bababa" d="M 349.5,314.5 C 352.152,314.41 354.485,315.076 356.5,316.5C 353.848,316.59 351.515,315.924 349.5,314.5 Z"/></g>
<g><path style="opacity:0.388" fill="#c2c2c2" d="M 363.5,314.5 C 370.38,314.958 377.047,315.958 383.5,317.5C 376.552,317.468 369.886,316.468 363.5,314.5 Z"/></g>
<g><path style="opacity:0.635" fill="#aeaeae" d="M 130.5,314.5 C 124.474,316.55 118.141,317.55 111.5,317.5C 117.631,316.051 123.964,315.051 130.5,314.5 Z"/></g>
<g><path style="opacity:0.918" fill="#707070" d="M 130.5,314.5 C 130.833,314.5 131.167,314.5 131.5,314.5C 133.857,314.337 136.19,314.503 138.5,315C 137.944,315.383 137.611,315.883 137.5,316.5C 128.793,318.935 119.793,320.268 110.5,320.5C 103.963,320.586 97.6301,321.253 91.5,322.5C 79.031,324.007 66.3643,324.674 53.5,324.5C 42.1618,324.333 30.8284,324.5 19.5,325C 21.0581,325.21 22.3915,325.71 23.5,326.5C 15.5,326.5 7.5,326.5 -0.5,326.5C -0.5,325.167 -0.5,323.833 -0.5,322.5C 36.8876,321.974 74.221,320.307 111.5,317.5C 118.141,317.55 124.474,316.55 130.5,314.5 Z"/></g>
<g><path style="opacity:0.525" fill="#aaaaaa" d="M 375.5,319.5 C 381.069,319.376 386.402,320.043 391.5,321.5C 385.949,321.473 380.616,320.806 375.5,319.5 Z"/></g>
<g><path style="opacity:0.929" fill="#6d6d6d" d="M 352.5,312.5 C 356.387,312.646 360.054,313.313 363.5,314.5C 369.886,316.468 376.552,317.468 383.5,317.5C 391.552,317.812 399.552,318.478 407.5,319.5C 428.612,321.908 449.945,322.908 471.5,322.5C 487.184,322.304 502.851,322.637 518.5,323.5C 518.5,324.167 518.5,324.833 518.5,325.5C 502.487,325.365 486.487,325.699 470.5,326.5C 471.952,325.698 473.618,325.198 475.5,325C 464.172,324.5 452.838,324.333 441.5,324.5C 424.613,324.653 407.946,323.653 391.5,321.5C 386.402,320.043 381.069,319.376 375.5,319.5C 368.907,319.322 362.574,318.322 356.5,316.5C 354.485,315.076 352.152,314.41 349.5,314.5C 347.901,314.768 346.568,314.434 345.5,313.5C 345.47,312.503 345.97,311.836 347,311.5C 348.766,312.233 350.599,312.567 352.5,312.5 Z"/></g>
<g><path style="opacity:0.38" fill="#cacaca" d="M 407.5,319.5 C 428.998,320.317 450.332,321.317 471.5,322.5C 449.945,322.908 428.612,321.908 407.5,319.5 Z"/></g>
<g><path style="opacity:0.063" fill="#d1d1d1" d="M 110.5,320.5 C 104.395,321.996 98.0616,322.663 91.5,322.5C 97.6301,321.253 103.963,320.586 110.5,320.5 Z"/></g>
<g><path style="opacity:0.651" fill="#797979" d="M 53.5,324.5 C 117.665,325.499 181.998,325.832 246.5,325.5C 237.682,326.493 228.682,326.827 219.5,326.5C 154.167,326.5 88.8333,326.5 23.5,326.5C 22.3915,325.71 21.0581,325.21 19.5,325C 30.8284,324.5 42.1618,324.333 53.5,324.5 Z"/></g>
<g><path style="opacity:0.641" fill="#787878" d="M 441.5,324.5 C 452.838,324.333 464.172,324.5 475.5,325C 473.618,325.198 471.952,325.698 470.5,326.5C 396.665,326.833 322.998,326.499 249.5,325.5C 313.669,325.832 377.669,325.499 441.5,324.5 Z"/></g>
<g><path style="opacity:1" fill="#363636" d="M -0.5,326.5 C 7.5,326.5 15.5,326.5 23.5,326.5C 88.8333,326.5 154.167,326.5 219.5,326.5C 220.167,327.167 220.833,327.833 221.5,328.5C 217.833,328.5 214.167,328.5 210.5,328.5C 205.833,327.167 201.167,327.167 196.5,328.5C 192.601,327.209 188.601,327.209 184.5,328.5C 176.5,327.167 168.5,327.167 160.5,328.5C 156.399,327.209 152.399,327.209 148.5,328.5C 143.833,327.167 139.167,327.167 134.5,328.5C 122.5,328.5 110.5,328.5 98.5,328.5C 93.8333,327.167 89.1667,327.167 84.5,328.5C 72.5,328.5 60.5,328.5 48.5,328.5C 43.8333,327.167 39.1667,327.167 34.5,328.5C 30.6011,327.209 26.6011,327.209 22.5,328.5C 14.7973,329.536 7.13064,329.536 -0.5,328.5C -0.5,327.833 -0.5,327.167 -0.5,326.5 Z"/></g>
<g><path style="opacity:1" fill="#383838" d="M 246.5,325.5 C 247.167,325.5 247.833,325.5 248.5,325.5C 248.833,325.5 249.167,325.5 249.5,325.5C 322.998,326.499 396.665,326.833 470.5,326.5C 486.487,325.699 502.487,325.365 518.5,325.5C 518.5,326.167 518.5,326.833 518.5,327.5C 515.061,327.253 511.728,327.586 508.5,328.5C 496.5,328.5 484.5,328.5 472.5,328.5C 467.833,327.167 463.167,327.167 458.5,328.5C 446.5,328.5 434.5,328.5 422.5,328.5C 417.833,327.167 413.167,327.167 408.5,328.5C 406.866,327.839 405.033,327.506 403,327.5C 400.705,327.547 398.871,328.213 397.5,329.5C 389.194,329.465 380.861,329.132 372.5,328.5C 368.399,327.209 364.399,327.209 360.5,328.5C 355.833,327.167 351.167,327.167 346.5,328.5C 338.5,329.833 330.5,329.833 322.5,328.5C 318.399,327.209 314.399,327.209 310.5,328.5C 305.833,327.167 301.167,327.167 296.5,328.5C 284.5,328.5 272.5,328.5 260.5,328.5C 256.936,327.577 253.269,327.244 249.5,327.5C 248.5,327.5 247.5,327.5 246.5,327.5C 242.4,327.237 238.4,327.57 234.5,328.5C 229.917,328.667 225.584,328.667 221.5,328.5C 220.833,327.833 220.167,327.167 219.5,326.5C 228.682,326.827 237.682,326.493 246.5,325.5 Z"/></g>
<g><path style="opacity:0.541" fill="#8b8b8b" d="M 34.5,328.5 C 30.2508,328.683 26.2508,328.683 22.5,328.5C 26.6011,327.209 30.6011,327.209 34.5,328.5 Z"/></g>
<g><path style="opacity:0.537" fill="#8f8f8f" d="M 48.5,328.5 C 43.8333,328.5 39.1667,328.5 34.5,328.5C 39.1667,327.167 43.8333,327.167 48.5,328.5 Z"/></g>
<g><path style="opacity:0.529" fill="#8e8e8e" d="M 98.5,328.5 C 93.8333,328.5 89.1667,328.5 84.5,328.5C 89.1667,327.167 93.8333,327.167 98.5,328.5 Z"/></g>
<g><path style="opacity:0.521" fill="#8d8d8d" d="M 148.5,328.5 C 143.833,328.5 139.167,328.5 134.5,328.5C 139.167,327.167 143.833,327.167 148.5,328.5 Z"/></g>
<g><path style="opacity:0.524" fill="#8c8c8c" d="M 148.5,328.5 C 152.399,327.209 156.399,327.209 160.5,328.5C 156.749,328.683 152.749,328.683 148.5,328.5 Z"/></g>
<g><path style="opacity:0.541" fill="#868686" d="M 160.5,328.5 C 168.5,327.167 176.5,327.167 184.5,328.5C 176.5,329.833 168.5,329.833 160.5,328.5 Z"/></g>
<g><path style="opacity:0.545" fill="#8f8f8f" d="M 196.5,328.5 C 192.251,328.683 188.251,328.683 184.5,328.5C 188.601,327.209 192.601,327.209 196.5,328.5 Z"/></g>
<g><path style="opacity:0.555" fill="#8d8d8d" d="M 210.5,328.5 C 205.833,328.5 201.167,328.5 196.5,328.5C 201.167,327.167 205.833,327.167 210.5,328.5 Z"/></g>
<g><path style="opacity:0.593" fill="#909090" d="M 246.5,327.5 C 246.5,327.833 246.5,328.167 246.5,328.5C 242.251,328.683 238.251,328.683 234.5,328.5C 238.4,327.57 242.4,327.237 246.5,327.5 Z"/></g>
<g><path style="opacity:0.583" fill="#8b8b8b" d="M 249.5,328.5 C 249.5,328.167 249.5,327.833 249.5,327.5C 253.269,327.244 256.936,327.577 260.5,328.5C 257.082,328.704 253.416,328.704 249.5,328.5 Z"/></g>
<g><path style="opacity:0.557" fill="#8e8e8e" d="M 310.5,328.5 C 305.833,328.5 301.167,328.5 296.5,328.5C 301.167,327.167 305.833,327.167 310.5,328.5 Z"/></g>
<g><path style="opacity:0.556" fill="#8e8e8e" d="M 310.5,328.5 C 314.399,327.209 318.399,327.209 322.5,328.5C 318.749,328.683 314.749,328.683 310.5,328.5 Z"/></g>
<g><path style="opacity:0.518" fill="#8e8e8e" d="M 360.5,328.5 C 355.833,328.5 351.167,328.5 346.5,328.5C 351.167,327.167 355.833,327.167 360.5,328.5 Z"/></g>
<g><path style="opacity:0.523" fill="#8b8b8b" d="M 360.5,328.5 C 364.399,327.209 368.399,327.209 372.5,328.5C 368.749,328.683 364.749,328.683 360.5,328.5 Z"/></g>
<g><path style="opacity:0.529" fill="#8b8b8b" d="M 408.5,328.5 C 404.731,328.244 401.064,328.577 397.5,329.5C 398.871,328.213 400.705,327.547 403,327.5C 405.033,327.506 406.866,327.839 408.5,328.5 Z"/></g>
<g><path style="opacity:0.533" fill="#8f8f8f" d="M 422.5,328.5 C 417.833,328.5 413.167,328.5 408.5,328.5C 413.167,327.167 417.833,327.167 422.5,328.5 Z"/></g>
<g><path style="opacity:0.537" fill="#919191" d="M 472.5,328.5 C 467.833,328.5 463.167,328.5 458.5,328.5C 463.167,327.167 467.833,327.167 472.5,328.5 Z"/></g>
<g><path style="opacity:0.535" fill="#919191" d="M 518.5,327.5 C 518.5,327.833 518.5,328.167 518.5,328.5C 514.918,328.729 511.584,328.729 508.5,328.5C 511.728,327.586 515.061,327.253 518.5,327.5 Z"/></g>
<g><path style="opacity:0.541" fill="#bebebe" d="M 196.5,331.5 C 197.833,331.5 199.167,331.5 200.5,331.5C 200.286,333.144 200.62,334.644 201.5,336C 198.613,336.723 195.947,336.223 193.5,334.5C 194.993,333.859 195.993,332.859 196.5,331.5 Z"/></g>
<g><path style="opacity:0.012" fill="#e3e3e3" d="M 222.5,331.5 C 222.5,333.167 222.5,334.833 222.5,336.5C 220.914,335.852 219.247,335.352 217.5,335C 219.365,334.036 221.032,332.869 222.5,331.5 Z"/></g>
<g><path style="opacity:0.459" fill="#bbbbbb" d="M 122.5,331.5 C 125.47,331.746 126.803,333.412 126.5,336.5C 123.679,336.461 121.012,335.795 118.5,334.5C 120.332,333.943 121.665,332.943 122.5,331.5 Z"/></g>
<g><path style="opacity:0.79" fill="#959595" d="M 222.5,331.5 C 224.085,332.474 225.085,333.974 225.5,336C 224.552,336.483 223.552,336.649 222.5,336.5C 222.5,334.833 222.5,333.167 222.5,331.5 Z"/></g>
<g><path style="opacity:0.165" fill="#bababa" d="M 295.5,331.5 C 296.833,331.5 298.167,331.5 299.5,331.5C 299.5,333.167 299.5,334.833 299.5,336.5C 298.022,336.762 296.689,336.429 295.5,335.5C 296.363,334.274 296.363,332.94 295.5,331.5 Z"/></g>
<g><path style="opacity:0.416" fill="#b9b9b9" d="M 419.5,331.5 C 424.819,330.543 425.819,332.043 422.5,336C 420.487,336.309 420.154,335.642 421.5,334C 420.244,333.583 419.577,332.75 419.5,331.5 Z"/></g>
<g><path style="opacity:0.541" fill="#a5a5a5" d="M 493.5,331.5 C 495.527,331.338 497.527,331.505 499.5,332C 500.833,333.333 500.833,334.667 499.5,336C 497.527,336.495 495.527,336.662 493.5,336.5C 493.5,334.833 493.5,333.167 493.5,331.5 Z"/></g>
<g><path style="opacity:0.682" fill="#9f9f9f" d="M -0.5,331.5 C 0.5,331.5 1.5,331.5 2.5,331.5C 2.5,333.167 2.5,334.833 2.5,336.5C 1.5,336.5 0.5,336.5 -0.5,336.5C -0.5,334.833 -0.5,333.167 -0.5,331.5 Z"/></g>
<g><path style="opacity:0.761" fill="#a8a8a8" d="M 46.5,331.5 C 50.5,330.833 52.1667,332.5 51.5,336.5C 48.6786,336.461 46.0119,335.795 43.5,334.5C 44.9935,333.859 45.9935,332.859 46.5,331.5 Z"/></g>
<g><path style="opacity:0.557" fill="#aaaaaa" d="M 97.5,331.5 C 100.47,331.746 101.803,333.412 101.5,336.5C 98.6786,336.461 96.0119,335.795 93.5,334.5C 95.1836,333.85 96.5169,332.85 97.5,331.5 Z"/></g>
<g><path style="opacity:0.031" fill="#f5f5f5" d="M 172.5,331.5 C 173.412,332.738 173.579,334.072 173,335.5C 171.644,334.62 170.144,334.286 168.5,334.5C 169.926,333.659 171.26,332.659 172.5,331.5 Z"/></g>
<g><path style="opacity:0.996" fill="#4c4c4c" d="M 246.5,327.5 C 247.5,327.5 248.5,327.5 249.5,327.5C 249.5,327.833 249.5,328.167 249.5,328.5C 249.5,379.167 249.5,429.833 249.5,480.5C 248.5,480.5 247.5,480.5 246.5,480.5C 246.5,479.833 246.5,479.167 246.5,478.5C 246.167,477.833 245.833,477.167 245.5,476.5C 246.496,460.675 246.83,444.675 246.5,428.5C 246.5,427.5 246.5,426.5 246.5,425.5C 246.5,410.167 246.5,394.833 246.5,379.5C 246.5,378.167 246.5,376.833 246.5,375.5C 246.5,359.833 246.5,344.167 246.5,328.5C 246.5,328.167 246.5,327.833 246.5,327.5 Z"/></g>
<g><path style="opacity:0.655" fill="#a3a3a3" d="M 270.5,331.5 C 271.5,331.5 272.5,331.5 273.5,331.5C 273.286,333.144 273.62,334.644 274.5,336C 273.167,336.667 271.833,336.667 270.5,336C 271.413,334.586 271.413,333.086 270.5,331.5 Z"/></g>
<g><path style="opacity:0.773" fill="#9d9d9d" d="M 346.5,331.5 C 348.741,332.3 349.741,333.966 349.5,336.5C 344.516,336.856 343.516,335.189 346.5,331.5 Z"/></g>
<g><path style="opacity:0.565" fill="#bcbcbc" d="M 369.5,331.5 C 370.833,331.5 372.167,331.5 373.5,331.5C 375.314,335.37 373.981,337.037 369.5,336.5C 369.5,334.833 369.5,333.167 369.5,331.5 Z"/></g>
<g><path style="opacity:0.824" fill="#a9a9a9" d="M 469.5,331.5 C 471.716,331.275 473.383,332.108 474.5,334C 473.383,335.892 471.716,336.725 469.5,336.5C 469.5,334.833 469.5,333.167 469.5,331.5 Z"/></g>
<g><path style="opacity:0.55" fill="#b1b1b1" d="M 22.5,331.5 C 26.1612,331.35 27.1612,332.85 25.5,336C 23.1546,336.17 20.8212,335.837 18.5,335C 20.3187,334.26 21.6521,333.093 22.5,331.5 Z"/></g>
<g><path style="opacity:0.522" fill="#c3c3c3" d="M 72.5,331.5 C 73.9778,331.238 75.3112,331.571 76.5,332.5C 75.7542,333.736 75.4208,335.07 75.5,336.5C 73.146,336.162 70.8127,335.662 68.5,335C 70.3187,334.26 71.6521,333.093 72.5,331.5 Z"/></g>
<g><path style="opacity:0.518" fill="#a9a9a9" d="M 148.5,331.5 C 150.026,332.105 151.026,333.271 151.5,335C 148.881,336.552 146.215,336.385 143.5,334.5C 145.544,333.935 147.21,332.935 148.5,331.5 Z"/></g>
<g><path style="opacity:0.582" fill="#a2a2a2" d="M 172.5,331.5 C 173.5,331.5 174.5,331.5 175.5,331.5C 175.5,333.167 175.5,334.833 175.5,336.5C 172.281,336.483 169.948,335.816 168.5,334.5C 170.144,334.286 171.644,334.62 173,335.5C 173.579,334.072 173.412,332.738 172.5,331.5 Z"/></g>
<g><path style="opacity:0.731" fill="#a3a3a3" d="M 239.5,331.5 C 240.833,331.5 242.167,331.5 243.5,331.5C 243.5,333.167 243.5,334.833 243.5,336.5C 242.167,336.5 240.833,336.5 239.5,336.5C 239.5,334.833 239.5,333.167 239.5,331.5 Z"/></g>
<g><path style="opacity:0.105" fill="#cacaca" d="M 319.5,331.5 C 320.833,331.5 322.167,331.5 323.5,331.5C 325.239,335.761 323.906,337.094 319.5,335.5C 320.363,334.274 320.363,332.94 319.5,331.5 Z"/></g>
<g><path style="opacity:0.608" fill="#a7a7a7" d="M 444.5,331.5 C 445.833,331.5 447.167,331.5 448.5,331.5C 448.5,333.167 448.5,334.833 448.5,336.5C 444.448,336.68 443.115,335.013 444.5,331.5 Z"/></g>
<g><path style="opacity:0.612" fill="#aaaaaa" d="M 395.5,331.5 C 396.833,331.5 398.167,331.5 399.5,331.5C 399.5,333.167 399.5,334.833 399.5,336.5C 395.065,337.078 393.732,335.411 395.5,331.5 Z"/></g>
<g><path style="opacity:0.004" fill="#fefffe" d="M 254.5,340.5 C 255.833,341.167 255.833,341.167 254.5,340.5 Z"/></g>
<g><path style="opacity:0.004" fill="#fefffe" d="M 437.5,347.5 C 438.833,348.167 438.833,348.167 437.5,347.5 Z"/></g>
<g><path style="opacity:0.004" fill="#fefffe" d="M 113.5,351.5 C 114.833,352.167 114.833,352.167 113.5,351.5 Z"/></g>
<g><path style="opacity:0.004" fill="#fefffe" d="M 104.5,355.5 C 105.833,356.167 105.833,356.167 104.5,355.5 Z"/></g>
<g><path style="opacity:0.004" fill="#fefffe" d="M 89.5,359.5 C 90.8333,360.167 90.8333,360.167 89.5,359.5 Z"/></g>
<g><path style="opacity:0.004" fill="#fefffe" d="M 104.5,359.5 C 105.833,360.167 105.833,360.167 104.5,359.5 Z"/></g>
<g><path style="opacity:0.004" fill="#fefffe" d="M 80.5,360.5 C 81.8333,361.167 81.8333,361.167 80.5,360.5 Z"/></g>
<g><path style="opacity:0.004" fill="#fefffe" d="M 251.5,360.5 C 252.833,361.167 252.833,361.167 251.5,360.5 Z"/></g>
<g><path style="opacity:0.004" fill="#fefffe" d="M 41.5,364.5 C 42.8333,365.167 42.8333,365.167 41.5,364.5 Z"/></g>
<g><path style="opacity:0.004" fill="#fefffe" d="M 311.5,369.5 C 312.833,370.167 312.833,370.167 311.5,369.5 Z"/></g>
<g><path style="opacity:0.004" fill="#fefffe" d="M 254.5,371.5 C 255.833,372.167 255.833,372.167 254.5,371.5 Z"/></g>
<g><path style="opacity:0.004" fill="#fefffe" d="M 260.5,372.5 C 261.833,373.167 261.833,373.167 260.5,372.5 Z"/></g>
<g><path style="opacity:0.004" fill="#fefffe" d="M 362.5,372.5 C 363.833,373.167 363.833,373.167 362.5,372.5 Z"/></g>
<g><path style="opacity:0.004" fill="#fefffe" d="M 398.5,372.5 C 399.833,373.167 399.833,373.167 398.5,372.5 Z"/></g>
<g><path style="opacity:0.831" fill="#c3c3c3" d="M 246.5,375.5 C 246.5,376.833 246.5,378.167 246.5,379.5C 245.883,379.389 245.383,379.056 245,378.5C 242.085,381.134 239.252,381.134 236.5,378.5C 238.659,374.713 241.325,374.046 244.5,376.5C 245.183,376.137 245.85,375.804 246.5,375.5 Z"/></g>
<g><path style="opacity:0.004" fill="#fefffe" d="M 71.5,390.5 C 72.8333,391.167 72.8333,391.167 71.5,390.5 Z"/></g>
<g><path style="opacity:0.004" fill="#fefffe" d="M 485.5,394.5 C 486.833,395.167 486.833,395.167 485.5,394.5 Z"/></g>
<g><path style="opacity:0.004" fill="#fefffe" d="M 137.5,400.5 C 138.833,401.167 138.833,401.167 137.5,400.5 Z"/></g>
<g><path style="opacity:0.004" fill="#fefffe" d="M 185.5,401.5 C 186.833,402.167 186.833,402.167 185.5,401.5 Z"/></g>
<g><path style="opacity:0.004" fill="#fefffe" d="M 338.5,410.5 C 339.833,411.167 339.833,411.167 338.5,410.5 Z"/></g>
<g><path style="opacity:0.004" fill="#fefffe" d="M 197.5,420.5 C 198.833,421.167 198.833,421.167 197.5,420.5 Z"/></g>
<g><path style="opacity:0.004" fill="#fefffe" d="M 20.5,422.5 C 21.8333,423.167 21.8333,423.167 20.5,422.5 Z"/></g>
<g><path style="opacity:0.788" fill="#b7b7b7" d="M 246.5,425.5 C 246.5,426.5 246.5,427.5 246.5,428.5C 244.015,427.74 244.015,426.74 246.5,425.5 Z"/></g>
<g><path style="opacity:0.004" fill="#fefffe" d="M 302.5,426.5 C 303.833,427.167 303.833,427.167 302.5,426.5 Z"/></g>
<g><path style="opacity:0.804" fill="#b3b3b3" d="M 240.5,425.5 C 241.5,425.5 242.5,425.5 243.5,425.5C 243.5,427.167 243.5,428.833 243.5,430.5C 236.084,431.166 235.084,429.499 240.5,425.5 Z"/></g>
<g><path style="opacity:0.004" fill="#fefffe" d="M 458.5,432.5 C 459.833,433.167 459.833,433.167 458.5,432.5 Z"/></g>
<g><path style="opacity:0.004" fill="#fefffe" d="M 38.5,443.5 C 39.8333,444.167 39.8333,444.167 38.5,443.5 Z"/></g>
<g><path style="opacity:0.004" fill="#fefffe" d="M 56.5,454.5 C 57.8333,455.167 57.8333,455.167 56.5,454.5 Z"/></g>
<g><path style="opacity:0.004" fill="#fefffe" d="M 398.5,469.5 C 399.833,470.167 399.833,470.167 398.5,469.5 Z"/></g>
<g><path style="opacity:0.004" fill="#fefffe" d="M 98.5,472.5 C 99.8333,473.167 99.8333,473.167 98.5,472.5 Z"/></g>
<g><path style="opacity:0.004" fill="#fefffe" d="M 458.5,474.5 C 459.833,475.167 459.833,475.167 458.5,474.5 Z"/></g>
<g><path style="opacity:0.004" fill="#fefffe" d="M 311.5,475.5 C 312.833,476.167 312.833,476.167 311.5,475.5 Z"/></g>
<g><path style="opacity:0.025" fill="#f0f0f0" d="M 245.5,476.5 C 245.833,477.167 246.167,477.833 246.5,478.5C 244.576,478.289 244.243,477.623 245.5,476.5 Z"/></g>
<g><path style="opacity:0.596" fill="#adadad" d="M 242.5,480.5 C 242.167,480.5 241.833,480.5 241.5,480.5C 239.958,479.837 238.291,479.17 236.5,478.5C 238.162,477.673 239.495,476.507 240.5,475C 241.448,474.517 242.448,474.351 243.5,474.5C 243.675,476.621 243.341,478.621 242.5,480.5 Z"/></g>
<g><path style="opacity:0.004" fill="#fefffe" d="M 84.5,480.5 C 83.8333,479.167 83.8333,479.167 84.5,480.5 Z"/></g>
</svg>
