<?xml version="1.0" standalone="no"?>
<!DOCTYPE svg PUBLIC "-//W3C//DTD SVG 20010904//EN"
 "http://www.w3.org/TR/2001/REC-SVG-20010904/DTD/svg10.dtd">
<svg version="1.0" xmlns="http://www.w3.org/2000/svg"
 width="479.000000pt" height="521.000000pt" viewBox="0 0 479.000000 521.000000"
 preserveAspectRatio="xMidYMid meet">

<g transform="translate(0.000000,521.000000) scale(0.100000,-0.100000)"
fill="#000000" stroke="none">
<path d="M40 5208 c0 -28 274 -722 396 -1003 102 -234 330 -692 434 -870 361
-617 708 -980 1070 -1118 l84 -32 -1012 -3 c-663 -1 -1012 -6 -1012 -12 0 -6
15 -10 33 -10 17 -1 519 -1 1114 -1 l1083 0 -1 -1076 c0 -592 3 -1078 6 -1081
3 -3 5 481 5 1076 l0 1081 1275 -2 c1014 -2 1275 1 1275 11 0 9 -242 12 -1176
12 -665 0 -1173 4 -1170 9 3 4 19 11 36 14 17 4 65 23 107 42 239 110 509 362
746 693 328 460 679 1176 1002 2047 35 94 68 182 74 198 6 15 7 27 3 27 -4 0
-34 -73 -66 -163 -167 -459 -373 -943 -561 -1317 -488 -974 -987 -1496 -1477
-1546 l-68 -7 -1 1519 c0 836 -3 1514 -5 1508 -3 -6 -6 -687 -7 -1515 l-2
-1504 -69 2 c-188 7 -406 112 -622 301 -458 401 -956 1293 -1409 2522 -59 161
-85 220 -85 198z"/>
<path d="M2153 3735 c0 -6 6 -12 12 -12 6 0 12 6 12 12 0 6 -6 12 -12 12 -6 0
-12 -6 -12 -12z"/>
<path d="M2151 3344 c0 -11 3 -14 6 -6 3 7 2 16 -1 19 -3 4 -6 -2 -5 -13z"/>
<path d="M281 2094 c0 -11 3 -14 6 -6 3 7 2 16 -1 19 -3 4 -6 -2 -5 -13z"/>
<path d="M1456 2095 c-3 -8 -1 -15 4 -15 6 0 10 7 10 15 0 8 -2 15 -4 15 -2 0
-6 -7 -10 -15z"/>
<path d="M2042 2090 c0 -14 2 -19 5 -12 2 6 2 18 0 25 -3 6 -5 1 -5 -13z"/>
<path d="M2151 2094 c0 -11 3 -14 6 -6 3 7 2 16 -1 19 -3 4 -6 -2 -5 -13z"/>
<path d="M3391 2094 c0 -11 3 -14 6 -6 3 7 2 16 -1 19 -3 4 -6 -2 -5 -13z"/>
<path d="M3790 2100 c0 -5 5 -10 11 -10 5 0 7 5 4 10 -3 6 -8 10 -11 10 -2 0
-4 -4 -4 -10z"/>
<path d="M4172 2090 c0 -14 2 -19 5 -12 2 6 2 18 0 25 -3 6 -5 1 -5 -13z"/>
<path d="M4362 2090 c0 -14 2 -19 5 -12 2 6 2 18 0 25 -3 6 -5 1 -5 -13z"/>
<path d="M4562 2090 c0 -14 2 -19 5 -12 2 6 2 18 0 25 -3 6 -5 1 -5 -13z"/>
<path d="M2158 1363 c7 -3 16 -2 19 1 4 3 -2 6 -13 5 -11 0 -14 -3 -6 -6z"/>
<path d="M2151 984 c0 -11 3 -14 6 -6 3 7 2 16 -1 19 -3 4 -6 -2 -5 -13z"/>
<path d="M2155 589 c-4 -6 -5 -12 -2 -15 2 -3 7 2 10 11 7 17 1 20 -8 4z"/>
</g>
</svg>
