<?xml version="1.0" standalone="no"?>
<!DOCTYPE svg PUBLIC "-//W3C//DTD SVG 20010904//EN"
 "http://www.w3.org/TR/2001/REC-SVG-20010904/DTD/svg10.dtd">
<svg version="1.0" xmlns="http://www.w3.org/2000/svg"
 width="479.000000pt" height="521.000000pt" viewBox="0 0 479.000000 521.000000"
 preserveAspectRatio="xMidYMid meet">

<g transform="translate(0.000000,521.000000) scale(0.100000,-0.100000)"
fill="#000000" stroke="none">
<path d="M2610 5078 c0 -73 -1 -533 -1 -1023 l-1 -890 -26 105 c-44 171 -84
216 -135 148 -13 -18 -52 -87 -87 -152 -34 -65 -78 -144 -96 -175 -48 -78 -82
-192 -108 -361 l-22 -145 -1067 -3 c-700 -1 -1067 -6 -1067 -12 0 -12 -103
-11 1123 -11 l1009 0 -6 -57 c-13 -119 -36 -478 -51 -767 -28 -564 -64 -1746
-52 -1735 2 3 10 189 16 415 25 867 57 1589 87 1910 7 83 15 168 16 190 l3 40
232 2 233 2 0 -1187 c0 -653 0 -1229 0 -1279 0 -55 4 -93 10 -93 7 0 10 433
10 1280 0 1143 2 1280 15 1280 9 0 17 -6 20 -12 5 -16 44 -506 90 -1115 64
-848 93 -1103 126 -1103 32 0 54 224 79 815 8 198 40 1298 40 1392 l0 22 878
0 c482 0 885 0 895 1 9 0 17 5 17 10 0 7 -305 10 -895 10 -846 0 -895 1 -895
18 0 9 7 384 14 832 19 1081 27 1856 16 1575 -5 -115 -14 -597 -20 -1070 -7
-473 -15 -970 -19 -1105 l-6 -245 -155 0 -155 0 -22 195 c-21 188 -21 235 -22
1313 -1 737 -4 1117 -11 1117 -6 0 -10 -51 -10 -132z m-75 -1700 c51 -112 67
-230 72 -525 l5 -273 -232 0 -232 0 7 63 c11 103 45 266 67 326 12 31 49 106
83 166 34 61 77 139 95 175 70 139 96 152 135 68z m119 -715 c6 -72 5 -83 -8
-83 -14 0 -16 16 -15 103 0 116 12 106 23 -20z m318 -109 c15 -4 17 -19 12
-137 -2 -73 -9 -316 -14 -542 -22 -860 -51 -1425 -80 -1498 -8 -22 -8 -22 -18
4 -20 51 -52 358 -92 879 -55 724 -81 1064 -90 1154 -16 162 -32 144 128 145
75 0 145 -2 154 -5z"/>
<path d="M2852 2500 c0 -14 2 -19 5 -12 2 6 2 18 0 25 -3 6 -5 1 -5 -13z"/>
<path d="M2541 4944 c0 -11 3 -14 6 -6 3 7 2 16 -1 19 -3 4 -6 -2 -5 -13z"/>
<path d="M2541 3994 c0 -11 3 -14 6 -6 3 7 2 16 -1 19 -3 4 -6 -2 -5 -13z"/>
<path d="M22 2500 c0 -14 2 -19 5 -12 2 6 2 18 0 25 -3 6 -5 1 -5 -13z"/>
<path d="M232 2500 c0 -14 2 -19 5 -12 2 6 2 18 0 25 -3 6 -5 1 -5 -13z"/>
<path d="M1682 2500 c0 -14 2 -19 5 -12 2 6 2 18 0 25 -3 6 -5 1 -5 -13z"/>
<path d="M2392 2500 c0 -14 2 -19 5 -12 2 6 2 18 0 25 -3 6 -5 1 -5 -13z"/>
<path d="M3572 2500 c0 -14 2 -19 5 -12 2 6 2 18 0 25 -3 6 -5 1 -5 -13z"/>
<path d="M1191 2494 c0 -11 3 -14 6 -6 3 7 2 16 -1 19 -3 4 -6 -2 -5 -13z"/>
<path d="M1921 2494 c0 -11 3 -14 6 -6 3 7 2 16 -1 19 -3 4 -6 -2 -5 -13z"/>
<path d="M2541 2494 c0 -11 3 -14 6 -6 3 7 2 16 -1 19 -3 4 -6 -2 -5 -13z"/>
<path d="M3331 2494 c0 -11 3 -14 6 -6 3 7 2 16 -1 19 -3 4 -6 -2 -5 -13z"/>
<path d="M2550 1600 c0 -5 5 -10 10 -10 6 0 10 5 10 10 0 6 -4 10 -10 10 -5 0
-10 -4 -10 -10z"/>
<path d="M2541 1134 c0 -11 3 -14 6 -6 3 7 2 16 -1 19 -3 4 -6 -2 -5 -13z"/>
<path d="M2543 657 c0 -12 1 -16 4 -8 5 11 7 11 14 0 5 -8 9 -9 9 -3 0 6 -6
16 -13 22 -10 8 -13 6 -14 -11z"/>
</g>
</svg>
