<?xml version="1.0" encoding="UTF-8"?>
<!DOCTYPE svg PUBLIC "-//W3C//DTD SVG 1.1//EN" "http://www.w3.org/Graphics/SVG/1.1/DTD/svg11.dtd">
<svg xmlns="http://www.w3.org/2000/svg" version="1.1" width="519px" height="481px" style="shape-rendering:geometricPrecision; text-rendering:geometricPrecision; image-rendering:optimizeQuality; fill-rule:evenodd; clip-rule:evenodd" xmlns:xlink="http://www.w3.org/1999/xlink">
<g><path style="opacity:0.004" fill="#fefffe" d="M 422.5,-0.5 C 422.833,-0.5 423.167,-0.5 423.5,-0.5C 423.315,0.170143 422.981,0.170143 422.5,-0.5 Z"/></g>
<g><path style="opacity:0.004" fill="#fefffe" d="M 113.5,5.5 C 114.833,6.16667 114.833,6.16667 113.5,5.5 Z"/></g>
<g><path style="opacity:0.004" fill="#fefffe" d="M 218.5,18.5 C 219.833,19.1667 219.833,19.1667 218.5,18.5 Z"/></g>
<g><path style="opacity:0.004" fill="#fefffe" d="M 344.5,29.5 C 345.833,30.1667 345.833,30.1667 344.5,29.5 Z"/></g>
<g><path style="opacity:0.004" fill="#fefffe" d="M 188.5,35.5 C 189.833,36.1667 189.833,36.1667 188.5,35.5 Z"/></g>
<g><path style="opacity:0.004" fill="#fefffe" d="M 200.5,41.5 C 201.833,42.1667 201.833,42.1667 200.5,41.5 Z"/></g>
<g><path style="opacity:0.361" fill="#c7c7c7" d="M 247.5,43.5 C 245.694,40.6618 244.694,40.9952 244.5,44.5C 245.5,44.5 246.5,44.5 247.5,44.5C 246.432,45.4345 245.099,45.7678 243.5,45.5C 243.151,42.9552 243.984,40.9552 246,39.5C 247.188,40.5634 247.688,41.8967 247.5,43.5 Z"/></g>
<g><path style="opacity:0.978" fill="#7d7d7d" d="M 247.5,43.5 C 247.5,43.8333 247.5,44.1667 247.5,44.5C 246.5,44.5 245.5,44.5 244.5,44.5C 244.694,40.9952 245.694,40.6618 247.5,43.5 Z"/></g>
<g><path style="opacity:0.073" fill="#f1f1f1" d="M 249.5,41.5 C 250.824,58.2645 250.824,74.9312 249.5,91.5C 249.462,74.5864 249.462,57.9198 249.5,41.5 Z"/></g>
<g><path style="opacity:0.969" fill="#4a4a4a" d="M 249.5,-0.5 C 250.5,-0.5 251.5,-0.5 252.5,-0.5C 252.167,62.1702 252.5,124.837 253.5,187.5C 256.52,184.811 259.52,182.144 262.5,179.5C 263.167,179.5 263.5,179.833 263.5,180.5C 261.5,181.833 259.833,183.5 258.5,185.5C 257.207,187.296 255.707,188.963 254,190.5C 253.5,206.83 253.333,223.163 253.5,239.5C 252.5,239.5 251.5,239.5 250.5,239.5C 250.667,224.163 250.5,208.83 250,193.5C 249.617,194.056 249.117,194.389 248.5,194.5C 248.167,194.5 247.833,194.5 247.5,194.5C 247.5,194.167 247.5,193.833 247.5,193.5C 248.458,193.047 249.292,192.381 250,191.5C 250.818,174.759 250.651,158.093 249.5,141.5C 250.824,124.931 250.824,108.265 249.5,91.5C 250.824,74.9312 250.824,58.2645 249.5,41.5C 249.5,27.5 249.5,13.5 249.5,-0.5 Z"/></g>
<g><path style="opacity:0.004" fill="#fefffe" d="M 254.5,64.5 C 255.833,65.1667 255.833,65.1667 254.5,64.5 Z"/></g>
<g><path style="opacity:0.004" fill="#fefffe" d="M 185.5,73.5 C 186.833,74.1667 186.833,74.1667 185.5,73.5 Z"/></g>
<g><path style="opacity:0.004" fill="#fefffe" d="M 503.5,87.5 C 504.833,88.1667 504.833,88.1667 503.5,87.5 Z"/></g>
<g><path style="opacity:0.643" fill="#b2b2b2" d="M 244.5,89.5 C 245.496,89.4142 246.329,89.7476 247,90.5C 247.494,92.1341 247.66,93.8008 247.5,95.5C 243.556,95.1156 242.556,93.1156 244.5,89.5 Z"/></g>
<g><path style="opacity:0.004" fill="#fefffe" d="M 137.5,92.5 C 138.833,93.1667 138.833,93.1667 137.5,92.5 Z"/></g>
<g><path style="opacity:0.074" fill="#f0f0f0" d="M 249.5,91.5 C 250.824,108.265 250.824,124.931 249.5,141.5C 249.462,124.586 249.462,107.92 249.5,91.5 Z"/></g>
<g><path style="opacity:0.004" fill="#fefffe" d="M 263.5,98.5 C 264.833,99.1667 264.833,99.1667 263.5,98.5 Z"/></g>
<g><path style="opacity:0.004" fill="#fefffe" d="M 443.5,99.5 C 444.833,100.167 444.833,100.167 443.5,99.5 Z"/></g>
<g><path style="opacity:0.655" fill="#868686" d="M 252.5,-0.5 C 252.833,-0.5 253.167,-0.5 253.5,-0.5C 253.333,61.5009 253.5,123.501 254,185.5C 256.766,182.223 259.933,179.557 263.5,177.5C 263.167,178.167 262.833,178.833 262.5,179.5C 259.52,182.144 256.52,184.811 253.5,187.5C 252.5,124.837 252.167,62.1702 252.5,-0.5 Z"/></g>
<g><path style="opacity:0.004" fill="#fefffe" d="M 224.5,118.5 C 225.833,119.167 225.833,119.167 224.5,118.5 Z"/></g>
<g><path style="opacity:0.004" fill="#fefffe" d="M 257.5,123.5 C 258.833,124.167 258.833,124.167 257.5,123.5 Z"/></g>
<g><path style="opacity:0.004" fill="#fefffe" d="M 32.5,130.5 C 33.8333,131.167 33.8333,131.167 32.5,130.5 Z"/></g>
<g><path style="opacity:0.004" fill="#fefffe" d="M 428.5,132.5 C 429.833,133.167 429.833,133.167 428.5,132.5 Z"/></g>
<g><path style="opacity:0.939" fill="#494949" d="M 370.5,140.5 C 371.833,140.5 373.167,140.5 374.5,140.5C 402.502,140.333 430.502,140.5 458.5,141C 459.5,141.333 460.5,141.667 461.5,142C 436.836,142.5 412.169,142.667 387.5,142.5C 380.825,142.666 374.158,142.5 367.5,142C 368.737,141.768 369.737,141.268 370.5,140.5 Z"/></g>
<g><path style="opacity:0.93" fill="#858585" d="M 374.5,140.5 C 422.33,139.501 470.33,139.168 518.5,139.5C 518.5,140.833 518.5,142.167 518.5,143.5C 474.833,143.5 431.167,143.5 387.5,143.5C 387.5,143.167 387.5,142.833 387.5,142.5C 412.169,142.667 436.836,142.5 461.5,142C 460.5,141.667 459.5,141.333 458.5,141C 430.502,140.5 402.502,140.333 374.5,140.5 Z"/></g>
<g><path style="opacity:0.939" fill="#767676" d="M 370.5,140.5 C 369.737,141.268 368.737,141.768 367.5,142C 374.158,142.5 380.825,142.666 387.5,142.5C 387.5,142.833 387.5,143.167 387.5,143.5C 376.187,144.326 364.854,144.66 353.5,144.5C 347.238,144.105 341.238,144.772 335.5,146.5C 334.833,146.5 334.167,146.5 333.5,146.5C 330.482,146.665 327.482,146.498 324.5,146C 325.056,145.617 325.389,145.117 325.5,144.5C 325.833,144.5 326.167,144.5 326.5,144.5C 331.731,144.556 336.731,143.889 341.5,142.5C 350.954,140.917 360.621,140.251 370.5,140.5 Z"/></g>
<g><path style="opacity:0.431" fill="#cacaca" d="M 244.5,139.5 C 245.5,139.5 246.5,139.5 247.5,139.5C 247.5,141.167 247.5,142.833 247.5,144.5C 246.167,144.5 244.833,144.5 243.5,144.5C 243.629,142.784 243.962,141.117 244.5,139.5 Z"/></g>
<g><path style="opacity:1" fill="#4a4a4a" d="M 245.5,140.5 C 246.776,141.386 246.776,142.386 245.5,143.5C 244.913,142.767 244.913,141.767 245.5,140.5 Z"/></g>
<g><path style="opacity:0.776" fill="#989898" d="M 341.5,142.5 C 336.731,143.889 331.731,144.556 326.5,144.5C 331.25,142.969 336.25,142.302 341.5,142.5 Z"/></g>
<g><path style="opacity:0.074" fill="#eaeaea" d="M 249.5,141.5 C 250.651,158.093 250.818,174.759 250,191.5C 249.292,192.381 248.458,193.047 247.5,193.5C 246.761,193.631 246.094,193.464 245.5,193C 246.337,191.989 246.67,190.822 246.5,189.5C 247.222,189.918 247.722,190.584 248,191.5C 248.333,191.167 248.667,190.833 249,190.5C 249.459,173.923 249.625,157.59 249.5,141.5 Z"/></g>
<g><path style="opacity:0.224" fill="#cacaca" d="M 353.5,144.5 C 347.678,145.489 341.678,146.156 335.5,146.5C 341.238,144.772 347.238,144.105 353.5,144.5 Z"/></g>
<g><path style="opacity:0.967" fill="#9c9c9c" d="M 325.5,144.5 C 325.389,145.117 325.056,145.617 324.5,146C 327.482,146.498 330.482,146.665 333.5,146.5C 329.733,147.795 325.733,148.461 321.5,148.5C 321.918,147.778 322.584,147.278 323.5,147C 321.19,146.503 318.857,146.337 316.5,146.5C 319.273,145.343 322.273,144.676 325.5,144.5 Z"/></g>
<g><path style="opacity:0.757" fill="#aaaaaa" d="M 312.5,147.5 C 309.916,149.472 306.916,150.472 303.5,150.5C 306.215,148.928 309.215,147.928 312.5,147.5 Z"/></g>
<g><path style="opacity:1" fill="#646464" d="M 316.5,146.5 C 318.857,146.337 321.19,146.503 323.5,147C 322.584,147.278 321.918,147.778 321.5,148.5C 319.095,149.768 316.428,150.435 313.5,150.5C 311.102,150.259 309.102,150.926 307.5,152.5C 306.791,153.404 305.791,153.737 304.5,153.5C 302.774,153.815 301.107,153.981 299.5,154C 301.093,153.051 302.426,151.885 303.5,150.5C 306.916,150.472 309.916,149.472 312.5,147.5C 313.568,146.566 314.901,146.232 316.5,146.5 Z"/></g>
<g><path style="opacity:0.004" fill="#fefffe" d="M 221.5,150.5 C 222.833,151.167 222.833,151.167 221.5,150.5 Z"/></g>
<g><path style="opacity:0.2" fill="#cdcdcd" d="M 313.5,150.5 C 311.786,151.738 309.786,152.405 307.5,152.5C 309.102,150.926 311.102,150.259 313.5,150.5 Z"/></g>
<g><path style="opacity:0.983" fill="#878787" d="M 303.5,150.5 C 302.426,151.885 301.093,153.051 299.5,154C 301.107,153.981 302.774,153.815 304.5,153.5C 301.021,155.403 297.354,157.07 293.5,158.5C 293.631,157.624 293.298,156.957 292.5,156.5C 291.583,157.127 290.583,157.461 289.5,157.5C 293.569,154.132 298.236,151.799 303.5,150.5 Z"/></g>
<g><path style="opacity:1" fill="#585858" d="M 293.5,158.5 C 293.158,159.338 292.492,159.672 291.5,159.5C 290.167,159.5 289.5,158.833 289.5,157.5C 290.583,157.461 291.583,157.127 292.5,156.5C 293.298,156.957 293.631,157.624 293.5,158.5 Z"/></g>
<g><path style="opacity:0.004" fill="#fefffe" d="M 161.5,162.5 C 162.833,163.167 162.833,163.167 161.5,162.5 Z"/></g>
<g><path style="opacity:1" fill="#797979" d="M 289.5,157.5 C 289.5,158.833 290.167,159.5 291.5,159.5C 287.072,162.891 282.406,166.058 277.5,169C 272.998,172.67 268.665,176.503 264.5,180.5C 264.167,180.5 263.833,180.5 263.5,180.5C 263.5,179.833 263.167,179.5 262.5,179.5C 262.833,178.833 263.167,178.167 263.5,177.5C 270.736,168.926 279.403,162.259 289.5,157.5 Z"/></g>
<g><path style="opacity:0.004" fill="#fefffe" d="M 290.5,169.5 C 291.833,170.167 291.833,170.167 290.5,169.5 Z"/></g>
<g><path style="opacity:0.004" fill="#fefffe" d="M 380.5,177.5 C 381.833,178.167 381.833,178.167 380.5,177.5 Z"/></g>
<g><path style="opacity:0.004" fill="#fefffe" d="M 152.5,179.5 C 153.833,180.167 153.833,180.167 152.5,179.5 Z"/></g>
<g><path style="opacity:0.008" fill="#dbdbdb" d="M 263.5,180.5 C 263.833,180.5 264.167,180.5 264.5,180.5C 263.089,182.914 261.089,184.581 258.5,185.5C 259.833,183.5 261.5,181.833 263.5,180.5 Z"/></g>
<g><path style="opacity:0.004" fill="#fefffe" d="M 95.5,185.5 C 96.8333,186.167 96.8333,186.167 95.5,185.5 Z"/></g>
<g><path style="opacity:0.004" fill="#fefffe" d="M 332.5,190.5 C 333.833,191.167 333.833,191.167 332.5,190.5 Z"/></g>
<g><path style="opacity:0.741" fill="#9e9e9e" d="M 246.5,189.5 C 246.67,190.822 246.337,191.989 245.5,193C 246.094,193.464 246.761,193.631 247.5,193.5C 247.5,193.833 247.5,194.167 247.5,194.5C 245.098,196.909 242.431,198.909 239.5,200.5C 240.96,198.537 242.627,196.704 244.5,195C 244.056,193.467 243.723,191.967 243.5,190.5C 244.325,189.614 245.325,189.281 246.5,189.5 Z"/></g>
<g><path style="opacity:0.073" fill="#efefef" d="M 250.5,239.5 C 250.167,239.5 249.833,239.5 249.5,239.5C 249.829,224.657 249.496,209.99 248.5,195.5C 248.5,195.167 248.5,194.833 248.5,194.5C 249.117,194.389 249.617,194.056 250,193.5C 250.5,208.83 250.667,224.163 250.5,239.5 Z"/></g>
<g><path style="opacity:0.004" fill="#fefffe" d="M 383.5,200.5 C 384.833,201.167 384.833,201.167 383.5,200.5 Z"/></g>
<g><path style="opacity:0.004" fill="#fefffe" d="M 2.5,202.5 C 3.83333,203.167 3.83333,203.167 2.5,202.5 Z"/></g>
<g><path style="opacity:0.824" fill="#737373" d="M 247.5,194.5 C 247.833,194.5 248.167,194.5 248.5,194.5C 248.5,194.833 248.5,195.167 248.5,195.5C 239.671,206.336 229.337,215.336 217.5,222.5C 216.448,222.649 215.448,222.483 214.5,222C 215.381,221.292 216.047,220.458 216.5,219.5C 224.433,213.574 232.1,207.241 239.5,200.5C 242.431,198.909 245.098,196.909 247.5,194.5 Z"/></g>
<g><path style="opacity:0.004" fill="#fefffe" d="M 101.5,217.5 C 102.833,218.167 102.833,218.167 101.5,217.5 Z"/></g>
<g><path style="opacity:0.004" fill="#fefffe" d="M 167.5,223.5 C 168.833,224.167 168.833,224.167 167.5,223.5 Z"/></g>
<g><path style="opacity:0.996" fill="#818181" d="M 216.5,219.5 C 216.047,220.458 215.381,221.292 214.5,222C 215.448,222.483 216.448,222.649 217.5,222.5C 208.143,228.959 197.809,233.292 186.5,235.5C 187.808,234.768 189.142,233.934 190.5,233C 187.881,233.083 185.214,233.25 182.5,233.5C 194.333,230.218 205.666,225.551 216.5,219.5 Z"/></g>
<g><path style="opacity:0.004" fill="#fefffe" d="M 167.5,228.5 C 168.833,229.167 168.833,229.167 167.5,228.5 Z"/></g>
<g><path style="opacity:0.004" fill="#fefffe" d="M 125.5,232.5 C 126.833,233.167 126.833,233.167 125.5,232.5 Z"/></g>
<g><path style="opacity:0.004" fill="#fefffe" d="M 171.5,234.5 C 170.833,233.167 170.833,233.167 171.5,234.5 Z"/></g>
<g><path style="opacity:0.812" fill="#9d9d9d" d="M 182.5,233.5 C 179.155,235.217 175.489,235.884 171.5,235.5C 171.5,235.167 171.5,234.833 171.5,234.5C 175.179,234.276 178.846,233.942 182.5,233.5 Z"/></g>
<g><path style="opacity:0.004" fill="#fefffe" d="M 8.5,235.5 C 9.83333,236.167 9.83333,236.167 8.5,235.5 Z"/></g>
<g><path style="opacity:0.573" fill="#c4c4c4" d="M 171.5,235.5 C 165.406,237.094 159.072,237.761 152.5,237.5C 158.641,236.364 164.974,235.697 171.5,235.5 Z"/></g>
<g><path style="opacity:0.29" fill="#c6c6c6" d="M 178.5,237.5 C 176.5,238.167 174.5,238.833 172.5,239.5C 170.585,239.784 168.919,239.451 167.5,238.5C 171.135,237.886 174.802,237.552 178.5,237.5 Z"/></g>
<g><path style="opacity:0.833" fill="#848484" d="M 186.5,235.5 C 184.162,237.04 181.495,237.706 178.5,237.5C 174.802,237.552 171.135,237.886 167.5,238.5C 165.821,238.285 164.821,238.952 164.5,240.5C 157.877,239.62 151.211,239.287 144.5,239.5C 114.5,239.5 84.5,239.5 54.5,239.5C 87.005,238.732 119.672,238.065 152.5,237.5C 159.072,237.761 165.406,237.094 171.5,235.5C 175.489,235.884 179.155,235.217 182.5,233.5C 185.214,233.25 187.881,233.083 190.5,233C 189.142,233.934 187.808,234.768 186.5,235.5 Z"/></g>
<g><path style="opacity:0.739" fill="#5f5f5f" d="M 167.5,238.5 C 168.919,239.451 170.585,239.784 172.5,239.5C 198.167,239.5 223.833,239.5 249.5,239.5C 249.833,239.5 250.167,239.5 250.5,239.5C 222.005,240.498 193.338,240.831 164.5,240.5C 164.821,238.952 165.821,238.285 167.5,238.5 Z"/></g>
<g><path style="opacity:1" fill="#1c1c1c" d="M -0.5,239.5 C 17.8333,239.5 36.1667,239.5 54.5,239.5C 84.5,239.5 114.5,239.5 144.5,239.5C 147.118,240.056 149.118,240.723 150.5,241.5C 146.4,241.237 142.4,241.57 138.5,242.5C 134.267,241.206 129.934,241.206 125.5,242.5C 121.601,241.209 117.601,241.209 113.5,242.5C 108.917,242.667 104.584,242.667 100.5,242.5C 92.8333,242.5 85.1667,242.5 77.5,242.5C 76.8333,243.833 76.1667,243.833 75.5,242.5C 71.6011,241.209 67.6011,241.209 63.5,242.5C 59.2988,241.264 54.9655,241.264 50.5,242.5C 38.2681,241.269 25.9348,241.269 13.5,242.5C 9.29879,241.264 4.96545,241.264 0.5,242.5C 0.166667,242.5 -0.166667,242.5 -0.5,242.5C -0.5,241.5 -0.5,240.5 -0.5,239.5 Z"/></g>
<g><path style="opacity:1" fill="#232323" d="M 144.5,239.5 C 151.211,239.287 157.877,239.62 164.5,240.5C 193.338,240.831 222.005,240.498 250.5,239.5C 251.5,239.5 252.5,239.5 253.5,239.5C 269.167,240.167 284.833,240.833 300.5,241.5C 292.082,241.198 283.748,241.531 275.5,242.5C 271.833,242.5 268.167,242.5 264.5,242.5C 260.6,241.57 256.6,241.237 252.5,241.5C 251.833,241.5 251.167,241.5 250.5,241.5C 246.629,241.185 242.962,241.518 239.5,242.5C 234.833,241.167 230.167,241.167 225.5,242.5C 221.833,242.5 218.167,242.5 214.5,242.5C 209.833,241.167 205.167,241.167 200.5,242.5C 188.65,241.512 176.65,241.512 164.5,242.5C 160.399,241.209 156.399,241.209 152.5,242.5C 151.833,243.833 151.167,243.833 150.5,242.5C 150.5,242.167 150.5,241.833 150.5,241.5C 149.118,240.723 147.118,240.056 144.5,239.5 Z"/></g>
<g><path style="opacity:1" fill="#393939" d="M 253.5,239.5 C 341.833,239.5 430.167,239.5 518.5,239.5C 518.5,240.167 518.5,240.833 518.5,241.5C 516.379,241.325 514.379,241.659 512.5,242.5C 507.917,242.667 503.584,242.667 499.5,242.5C 495.601,241.209 491.601,241.209 487.5,242.5C 482.917,242.667 478.584,242.667 474.5,242.5C 470.601,241.209 466.601,241.209 462.5,242.5C 454.265,241.186 445.932,241.186 437.5,242.5C 433.833,242.5 430.167,242.5 426.5,242.5C 421.833,241.167 417.167,241.167 412.5,242.5C 404.404,241.817 396.071,241.817 387.5,242.5C 383.833,242.5 380.167,242.5 376.5,242.5C 372.399,241.209 368.399,241.209 364.5,242.5C 363.833,243.833 363.167,243.833 362.5,242.5C 354.404,241.817 346.071,241.817 337.5,242.5C 333.833,242.5 330.167,242.5 326.5,242.5C 322.399,241.209 318.399,241.209 314.5,242.5C 313.833,243.833 313.167,243.833 312.5,242.5C 308.386,241.598 304.386,241.265 300.5,241.5C 284.833,240.833 269.167,240.167 253.5,239.5 Z"/></g>
<g><path style="opacity:0.741" fill="#6a6a6a" d="M 13.5,242.5 C 8.94352,242.745 4.61018,242.745 0.5,242.5C 4.96545,241.264 9.29879,241.264 13.5,242.5 Z"/></g>
<g><path style="opacity:0.732" fill="#676767" d="M 50.5,242.5 C 37.9186,242.703 25.5853,242.703 13.5,242.5C 25.9348,241.269 38.2681,241.269 50.5,242.5 Z"/></g>
<g><path style="opacity:0.639" fill="#747474" d="M 63.5,242.5 C 58.8657,242.887 54.5324,242.887 50.5,242.5C 54.9655,241.264 59.2988,241.264 63.5,242.5 Z"/></g>
<g><path style="opacity:0.627" fill="#777777" d="M 75.5,242.5 C 71.2508,242.683 67.2508,242.683 63.5,242.5C 67.6011,241.209 71.6011,241.209 75.5,242.5 Z"/></g>
<g><path style="opacity:0.635" fill="#7a7a7a" d="M 77.5,242.5 C 85.1667,242.5 92.8333,242.5 100.5,242.5C 92.8333,243.833 85.1667,243.833 77.5,242.5 Z"/></g>
<g><path style="opacity:0.424" fill="#a1a1a1" d="M 125.5,242.5 C 121.251,242.683 117.251,242.683 113.5,242.5C 117.601,241.209 121.601,241.209 125.5,242.5 Z"/></g>
<g><path style="opacity:0.406" fill="#a2a2a2" d="M 138.5,242.5 C 133.917,242.667 129.584,242.667 125.5,242.5C 129.934,241.206 134.267,241.206 138.5,242.5 Z"/></g>
<g><path style="opacity:0.392" fill="#aaaaaa" d="M 150.5,241.5 C 150.5,241.833 150.5,242.167 150.5,242.5C 146.251,242.683 142.251,242.683 138.5,242.5C 142.4,241.57 146.4,241.237 150.5,241.5 Z"/></g>
<g><path style="opacity:0.416" fill="#a4a4a4" d="M 152.5,242.5 C 156.399,241.209 160.399,241.209 164.5,242.5C 160.749,242.683 156.749,242.683 152.5,242.5 Z"/></g>
<g><path style="opacity:0.401" fill="#a5a5a5" d="M 164.5,242.5 C 176.65,241.512 188.65,241.512 200.5,242.5C 188.476,242.505 176.476,242.505 164.5,242.5 Z"/></g>
<g><path style="opacity:0.408" fill="#a8a8a8" d="M 214.5,242.5 C 209.833,242.5 205.167,242.5 200.5,242.5C 205.167,241.167 209.833,241.167 214.5,242.5 Z"/></g>
<g><path style="opacity:0.414" fill="#a9a9a9" d="M 239.5,242.5 C 234.833,242.5 230.167,242.5 225.5,242.5C 230.167,241.167 234.833,241.167 239.5,242.5 Z"/></g>
<g><path style="opacity:0.417" fill="#a7a7a7" d="M 300.5,241.5 C 304.386,241.265 308.386,241.598 312.5,242.5C 299.891,242.622 287.558,242.622 275.5,242.5C 283.748,241.531 292.082,241.198 300.5,241.5 Z"/></g>
<g><path style="opacity:0.413" fill="#a1a1a1" d="M 314.5,242.5 C 318.399,241.209 322.399,241.209 326.5,242.5C 322.749,242.683 318.749,242.683 314.5,242.5 Z"/></g>
<g><path style="opacity:0.418" fill="#ababab" d="M 362.5,242.5 C 353.96,243.251 345.626,243.251 337.5,242.5C 346.071,241.817 354.404,241.817 362.5,242.5 Z"/></g>
<g><path style="opacity:0.412" fill="#a3a3a3" d="M 364.5,242.5 C 368.399,241.209 372.399,241.209 376.5,242.5C 372.749,242.683 368.749,242.683 364.5,242.5 Z"/></g>
<g><path style="opacity:0.409" fill="#aaaaaa" d="M 412.5,242.5 C 403.96,243.251 395.626,243.251 387.5,242.5C 396.071,241.817 404.404,241.817 412.5,242.5 Z"/></g>
<g><path style="opacity:0.409" fill="#a8a8a8" d="M 426.5,242.5 C 421.833,242.5 417.167,242.5 412.5,242.5C 417.167,241.167 421.833,241.167 426.5,242.5 Z"/></g>
<g><path style="opacity:0.409" fill="#a0a0a0" d="M 462.5,242.5 C 453.974,243.308 445.641,243.308 437.5,242.5C 445.932,241.186 454.265,241.186 462.5,242.5 Z"/></g>
<g><path style="opacity:0.406" fill="#a6a6a6" d="M 474.5,242.5 C 470.251,242.683 466.251,242.683 462.5,242.5C 466.601,241.209 470.601,241.209 474.5,242.5 Z"/></g>
<g><path style="opacity:0.404" fill="#a5a5a5" d="M 499.5,242.5 C 495.251,242.683 491.251,242.683 487.5,242.5C 491.601,241.209 495.601,241.209 499.5,242.5 Z"/></g>
<g><path style="opacity:0.412" fill="#adadad" d="M 518.5,241.5 C 518.5,241.833 518.5,242.167 518.5,242.5C 516.259,242.954 514.259,242.954 512.5,242.5C 514.379,241.659 516.379,241.325 518.5,241.5 Z"/></g>
<g><path style="opacity:0.073" fill="#e5e5e5" d="M 239.5,242.5 C 242.962,241.518 246.629,241.185 250.5,241.5C 250.83,258.009 250.496,274.342 249.5,290.5C 249.5,274.5 249.5,258.5 249.5,242.5C 246.167,242.5 242.833,242.5 239.5,242.5 Z"/></g>
<g><path style="opacity:0.025" fill="#e1e1e1" d="M 226.5,245.5 C 226.5,247.167 226.5,248.833 226.5,250.5C 224.914,249.852 223.247,249.352 221.5,249C 223.365,248.036 225.032,246.869 226.5,245.5 Z"/></g>
<g><path style="opacity:0.569" fill="#bbbbbb" d="M 298.5,245.5 C 299.873,245.343 301.207,245.51 302.5,246C 302.665,247.117 302.998,248.284 303.5,249.5C 301.926,250.631 300.259,250.798 298.5,250C 299.167,249.333 299.833,248.667 300.5,248C 299.244,247.583 298.577,246.75 298.5,245.5 Z"/></g>
<g><path style="opacity:0.041" fill="#f2f2f2" d="M 201.5,245.5 C 201.804,246.15 202.137,246.817 202.5,247.5C 200.955,248.452 199.288,248.785 197.5,248.5C 198.926,247.659 200.26,246.659 201.5,245.5 Z"/></g>
<g><path style="opacity:0.598" fill="#969696" d="M 226.5,245.5 C 228.085,246.474 229.085,247.974 229.5,250C 228.552,250.483 227.552,250.649 226.5,250.5C 226.5,248.833 226.5,247.167 226.5,245.5 Z"/></g>
<g><path style="opacity:0.839" fill="#a7a7a7" d="M 274.5,245.5 C 275.5,245.5 276.5,245.5 277.5,245.5C 277.286,247.144 277.62,248.644 278.5,250C 277.056,250.781 275.723,250.614 274.5,249.5C 275.363,248.274 275.363,246.94 274.5,245.5 Z"/></g>
<g><path style="opacity:0.718" fill="#9d9d9d" d="M 350.5,245.5 C 353.647,246.755 353.98,248.421 351.5,250.5C 347.862,249.459 347.529,247.792 350.5,245.5 Z"/></g>
<g><path style="opacity:0.357" fill="#b4b4b4" d="M 423.5,245.5 C 424.833,245.5 426.167,245.5 427.5,245.5C 427.617,247.484 426.95,249.15 425.5,250.5C 425.935,248.597 425.268,246.931 423.5,245.5 Z"/></g>
<g><path style="opacity:0.541" fill="#a2a2a2" d="M 101.5,245.5 C 102.5,245.5 103.5,245.5 104.5,245.5C 104.5,247.167 104.5,248.833 104.5,250.5C 102.04,250.301 99.7067,249.635 97.5,248.5C 99.1836,247.85 100.517,246.85 101.5,245.5 Z"/></g>
<g><path style="opacity:0.569" fill="#bbbbbb" d="M 126.5,245.5 C 129.685,245.722 130.685,247.222 129.5,250C 126.955,250.615 124.622,250.115 122.5,248.5C 124.332,247.943 125.665,246.943 126.5,245.5 Z"/></g>
<g><path style="opacity:0.612" fill="#a8a8a8" d="M 243.5,245.5 C 244.833,245.5 246.167,245.5 247.5,245.5C 247.5,247.167 247.5,248.833 247.5,250.5C 246.167,250.5 244.833,250.5 243.5,250.5C 243.5,248.833 243.5,247.167 243.5,245.5 Z"/></g>
<g><path style="opacity:0.949" fill="#a2a2a2" d="M 399.5,245.5 C 402.685,245.722 403.685,247.222 402.5,250C 398.707,250.487 397.707,248.987 399.5,245.5 Z"/></g>
<g><path style="opacity:0.42" fill="#bababa" d="M 25.5,245.5 C 29.1378,244.737 30.6378,246.07 30,249.5C 27.4522,250.417 24.9522,250.084 22.5,248.5C 23.9935,247.859 24.9935,246.859 25.5,245.5 Z"/></g>
<g><path style="opacity:0.512" fill="#a8a8a8" d="M 151.5,245.5 C 152.5,245.5 153.5,245.5 154.5,245.5C 154.785,247.288 154.452,248.955 153.5,250.5C 151.465,249.959 149.465,249.292 147.5,248.5C 149.332,247.943 150.665,246.943 151.5,245.5 Z"/></g>
<g><path style="opacity:0.102" fill="#c5c5c5" d="M 373.5,245.5 C 374.833,245.5 376.167,245.5 377.5,245.5C 377.5,247.167 377.5,248.833 377.5,250.5C 376.167,250.5 374.833,250.5 373.5,250.5C 373.5,248.833 373.5,247.167 373.5,245.5 Z"/></g>
<g><path style="opacity:0.54" fill="#a8a8a8" d="M 448.5,245.5 C 449.833,245.5 451.167,245.5 452.5,245.5C 452.5,247.167 452.5,248.833 452.5,250.5C 451.167,250.5 449.833,250.5 448.5,250.5C 448.5,248.833 448.5,247.167 448.5,245.5 Z"/></g>
<g><path style="opacity:0.114" fill="#b9b9b9" d="M 473.5,245.5 C 474.833,245.5 476.167,245.5 477.5,245.5C 477.5,247.167 477.5,248.833 477.5,250.5C 476.167,250.5 474.833,250.5 473.5,250.5C 473.5,248.833 473.5,247.167 473.5,245.5 Z"/></g>
<g><path style="opacity:0.275" fill="#acacac" d="M 497.5,245.5 C 499.39,246.18 501.39,246.347 503.5,246C 504.833,247.333 504.833,248.667 503.5,250C 501.527,250.495 499.527,250.662 497.5,250.5C 497.5,248.833 497.5,247.167 497.5,245.5 Z"/></g>
<g><path style="opacity:0.545" fill="#a9a9a9" d="M -0.5,245.5 C 1.83333,245.5 4.16667,245.5 6.5,245.5C 6.5,247.167 6.5,248.833 6.5,250.5C 4.16667,250.5 1.83333,250.5 -0.5,250.5C -0.5,249.833 -0.5,249.167 -0.5,248.5C 0.833333,248.167 0.833333,247.833 -0.5,247.5C -0.5,246.833 -0.5,246.167 -0.5,245.5 Z"/></g>
<g><path style="opacity:0.6" fill="#aeaeae" d="M 50.5,245.5 C 51.8333,245.5 53.1667,245.5 54.5,245.5C 54.5,247.167 54.5,248.833 54.5,250.5C 52.0401,250.301 49.7067,249.635 47.5,248.5C 48.9935,247.859 49.9935,246.859 50.5,245.5 Z"/></g>
<g><path style="opacity:0.239" fill="#c8c8c8" d="M 75.5,245.5 C 80.4058,244.954 81.4058,246.454 78.5,250C 76.4234,250.148 74.4234,249.648 72.5,248.5C 73.9935,247.859 74.9935,246.859 75.5,245.5 Z"/></g>
<g><path style="opacity:0.235" fill="#bebebe" d="M 175.5,245.5 C 176.833,245.5 178.167,245.5 179.5,245.5C 179.5,247.167 179.5,248.833 179.5,250.5C 176.784,250.322 174.117,249.822 171.5,249C 173.319,248.26 174.652,247.093 175.5,245.5 Z"/></g>
<g><path style="opacity:0.678" fill="#9a9a9a" d="M 201.5,245.5 C 202.5,245.5 203.5,245.5 204.5,245.5C 204.5,247.167 204.5,248.833 204.5,250.5C 201.848,250.59 199.515,249.924 197.5,248.5C 199.288,248.785 200.955,248.452 202.5,247.5C 202.137,246.817 201.804,246.15 201.5,245.5 Z"/></g>
<g><path style="opacity:0.537" fill="#b2b2b2" d="M 323.5,245.5 C 324.833,245.5 326.167,245.5 327.5,245.5C 327.5,247.167 327.5,248.833 327.5,250.5C 326.022,250.762 324.689,250.429 323.5,249.5C 324.363,248.274 324.363,246.94 323.5,245.5 Z"/></g>
<g><path style="opacity:0.004" fill="#fefffe" d="M 296.5,261.5 C 297.833,262.167 297.833,262.167 296.5,261.5 Z"/></g>
<g><path style="opacity:0.004" fill="#fefffe" d="M 290.5,263.5 C 291.833,264.167 291.833,264.167 290.5,263.5 Z"/></g>
<g><path style="opacity:0.004" fill="#fefffe" d="M 356.5,264.5 C 357.833,265.167 357.833,265.167 356.5,264.5 Z"/></g>
<g><path style="opacity:0.722" fill="#bfbfbf" d="M 244.5,288.5 C 246.913,289.68 247.913,291.68 247.5,294.5C 238.681,294.861 237.681,292.861 244.5,288.5 Z"/></g>
<g><path style="opacity:0.074" fill="#f0f0f0" d="M 249.5,290.5 C 250.485,307.089 250.818,323.756 250.5,340.5C 250.167,340.5 249.833,340.5 249.5,340.5C 249.462,323.586 249.462,306.92 249.5,290.5 Z"/></g>
<g><path style="opacity:0.968" fill="#3a3a3a" d="M 250.5,241.5 C 251.167,241.5 251.833,241.5 252.5,241.5C 252.5,321.167 252.5,400.833 252.5,480.5C 252.167,480.5 251.833,480.5 251.5,480.5C 251.832,433.664 251.499,386.997 250.5,340.5C 250.818,323.756 250.485,307.089 249.5,290.5C 250.496,274.342 250.83,258.009 250.5,241.5 Z"/></g>
<g><path style="opacity:0.004" fill="#fefffe" d="M 287.5,305.5 C 288.833,306.167 288.833,306.167 287.5,305.5 Z"/></g>
<g><path style="opacity:0.004" fill="#fefffe" d="M 164.5,310.5 C 165.833,311.167 165.833,311.167 164.5,310.5 Z"/></g>
<g><path style="opacity:0.004" fill="#fefffe" d="M 284.5,321.5 C 285.833,322.167 285.833,322.167 284.5,321.5 Z"/></g>
<g><path style="opacity:0.004" fill="#fefffe" d="M 182.5,328.5 C 183.833,329.167 183.833,329.167 182.5,328.5 Z"/></g>
<g><path style="opacity:0.004" fill="#fefffe" d="M 95.5,332.5 C 96.8333,333.167 96.8333,333.167 95.5,332.5 Z"/></g>
<g><path style="opacity:0.004" fill="#fefffe" d="M 305.5,339.5 C 306.833,340.167 306.833,340.167 305.5,339.5 Z"/></g>
<g><path style="opacity:0.671" fill="#aaaaaa" d="M 245.5,338.5 C 246.693,338.97 247.36,339.97 247.5,341.5C 247.167,342.5 246.833,343.5 246.5,344.5C 244.146,343.94 241.813,343.273 239.5,342.5C 242.185,341.984 244.185,340.65 245.5,338.5 Z"/></g>
<g><path style="opacity:0.074" fill="#f0f0f0" d="M 249.5,340.5 C 250.824,357.265 250.824,373.931 249.5,390.5C 249.462,373.586 249.462,356.92 249.5,340.5 Z"/></g>
<g><path style="opacity:0.651" fill="#838383" d="M 252.5,241.5 C 256.6,241.237 260.6,241.57 264.5,242.5C 261.082,242.704 257.416,242.704 253.5,242.5C 253.5,321.833 253.5,401.167 253.5,480.5C 253.167,480.5 252.833,480.5 252.5,480.5C 252.5,400.833 252.5,321.167 252.5,241.5 Z"/></g>
<g><path style="opacity:0.004" fill="#fefffe" d="M 221.5,350.5 C 222.833,351.167 222.833,351.167 221.5,350.5 Z"/></g>
<g><path style="opacity:0.004" fill="#fefffe" d="M 500.5,351.5 C 501.833,352.167 501.833,352.167 500.5,351.5 Z"/></g>
<g><path style="opacity:0.004" fill="#fefffe" d="M 368.5,359.5 C 369.833,360.167 369.833,360.167 368.5,359.5 Z"/></g>
<g><path style="opacity:0.004" fill="#fefffe" d="M 314.5,361.5 C 315.833,362.167 315.833,362.167 314.5,361.5 Z"/></g>
<g><path style="opacity:0.004" fill="#fefffe" d="M 353.5,378.5 C 354.833,379.167 354.833,379.167 353.5,378.5 Z"/></g>
<g><path style="opacity:0.004" fill="#fefffe" d="M 11.5,379.5 C 12.8333,380.167 12.8333,380.167 11.5,379.5 Z"/></g>
<g><path style="opacity:0.004" fill="#fefffe" d="M 29.5,381.5 C 30.8333,382.167 30.8333,382.167 29.5,381.5 Z"/></g>
<g><path style="opacity:0.004" fill="#fefffe" d="M 119.5,386.5 C 120.833,387.167 120.833,387.167 119.5,386.5 Z"/></g>
<g><path style="opacity:0.004" fill="#fefffe" d="M 11.5,387.5 C 12.8333,388.167 12.8333,388.167 11.5,387.5 Z"/></g>
<g><path style="opacity:0.82" fill="#b2b2b2" d="M 243.5,388.5 C 244.833,388.5 246.167,388.5 247.5,388.5C 247.5,390.167 247.5,391.833 247.5,393.5C 244.784,393.322 242.117,392.822 239.5,392C 241.319,391.26 242.652,390.093 243.5,388.5 Z"/></g>
<g><path style="opacity:0.961" fill="#333333" d="M 249.5,340.5 C 249.833,340.5 250.167,340.5 250.5,340.5C 251.499,386.997 251.832,433.664 251.5,480.5C 251.167,480.5 250.833,480.5 250.5,480.5C 250.299,450.568 249.966,420.568 249.5,390.5C 250.824,373.931 250.824,357.265 249.5,340.5 Z"/></g>
<g><path style="opacity:0.074" fill="#f0f0f0" d="M 249.5,390.5 C 249.966,420.568 250.299,450.568 250.5,480.5C 250.167,480.5 249.833,480.5 249.5,480.5C 248.955,450.308 248.955,420.308 249.5,390.5 Z"/></g>
<g><path style="opacity:0.004" fill="#fefffe" d="M 5.5,405.5 C 6.83333,406.167 6.83333,406.167 5.5,405.5 Z"/></g>
<g><path style="opacity:0.004" fill="#fefffe" d="M 488.5,410.5 C 489.833,411.167 489.833,411.167 488.5,410.5 Z"/></g>
<g><path style="opacity:0.004" fill="#fefffe" d="M 35.5,428.5 C 36.8333,429.167 36.8333,429.167 35.5,428.5 Z"/></g>
<g><path style="opacity:0.004" fill="#fefffe" d="M 59.5,433.5 C 60.8333,434.167 60.8333,434.167 59.5,433.5 Z"/></g>
<g><path style="opacity:0.169" fill="#e2e2e2" d="M 244.5,438.5 C 244.5,439.5 244.5,440.5 244.5,441.5C 243.209,441.263 242.209,441.596 241.5,442.5C 240.761,442.631 240.094,442.464 239.5,442C 241.196,440.824 242.862,439.657 244.5,438.5 Z"/></g>
<g><path style="opacity:0.737" fill="#a2a2a2" d="M 244.5,438.5 C 245.5,438.5 246.5,438.5 247.5,438.5C 247.5,440.167 247.5,441.833 247.5,443.5C 245.435,443.483 243.435,443.15 241.5,442.5C 242.209,441.596 243.209,441.263 244.5,441.5C 244.5,440.5 244.5,439.5 244.5,438.5 Z"/></g>
<g><path style="opacity:0.004" fill="#fefffe" d="M 374.5,444.5 C 375.833,445.167 375.833,445.167 374.5,444.5 Z"/></g>
<g><path style="opacity:0.004" fill="#fefffe" d="M 278.5,448.5 C 279.833,449.167 279.833,449.167 278.5,448.5 Z"/></g>
<g><path style="opacity:0.004" fill="#fefffe" d="M 5.5,450.5 C 6.83333,451.167 6.83333,451.167 5.5,450.5 Z"/></g>
<g><path style="opacity:0.004" fill="#fefffe" d="M 17.5,454.5 C 18.8333,455.167 18.8333,455.167 17.5,454.5 Z"/></g>
</svg>
