<svg height='100px' width='100px'  fill="#00b2ff" xmlns:x="http://ns.adobe.com/Extensibility/1.0/" xmlns:i="http://ns.adobe.com/AdobeIllustrator/10.0/" xmlns:graph="http://ns.adobe.com/Graphs/1.0/" xmlns="http://www.w3.org/2000/svg" xmlns:xlink="http://www.w3.org/1999/xlink" version="1.1" x="0px" y="0px" viewBox="0 0 100 100" style="enable-background:new 0 0 100 100;" xml:space="preserve"><g><g i:extraneous="self"><g><path d="M55,14.9c0-2.7-2.2-5-5-5c-2.7,0-5,2.2-5,5v9.3h10V14.9z"></path><path d="M12.2,45.8H9.7c-4,0-7.2,3.2-7.2,7.2v12.1c0,3.9,3.2,7.1,7.2,7.1h2.5c0-0.2,0-0.5,0-0.7V46.6     C12.2,46.3,12.2,46,12.2,45.8z"></path><path d="M90.4,45.8h-2.5c0,0.2,0,0.5,0,0.8v24.8c0,0.2,0,0.5,0,0.7h2.5c3.9,0,7.1-3.2,7.1-7.1V53C97.5,49,94.3,45.8,90.4,45.8z"></path><circle cx="35.3" cy="49" r="4.5"></circle><path d="M65.4,27.9H34.6c-10.3,0-18.7,8.4-18.7,18.7v24.9c0,10.3,8.4,18.7,18.7,18.7h30.9c10.3,0,18.7-8.4,18.7-18.7V46.6     C84.1,36.2,75.8,27.9,65.4,27.9z M27.5,49c0-4.3,3.5-7.8,7.8-7.8s7.8,3.5,7.8,7.8c0,4.3-3.5,7.8-7.8,7.8S27.5,53.3,27.5,49z      M65.4,74.3c0,1.6-1.3,2.8-2.8,2.8h-25c-1.6,0-2.8-1.3-2.8-2.8v-2.2c0-1.6,1.3-2.8,2.8-2.8h25c1.6,0,2.8,1.3,2.8,2.8V74.3z      M64.7,56.8c-4.3,0-7.8-3.5-7.8-7.8c0-4.3,3.5-7.8,7.8-7.8s7.8,3.5,7.8,7.8C72.5,53.3,69,56.8,64.7,56.8z"></path><circle cx="64.7" cy="49" r="4.5"></circle></g></g></g></svg>