<?xml version="1.0" encoding="UTF-8" standalone="no"?>
<!-- Created with Inkscape (http://www.inkscape.org/) -->

<svg
   xmlns:dc="http://purl.org/dc/elements/1.1/"
   xmlns:cc="http://creativecommons.org/ns#"
   xmlns:rdf="http://www.w3.org/1999/02/22-rdf-syntax-ns#"
   xmlns:svg="http://www.w3.org/2000/svg"
   xmlns="http://www.w3.org/2000/svg"
   xmlns:xlink="http://www.w3.org/1999/xlink"
   xmlns:sodipodi="http://sodipodi.sourceforge.net/DTD/sodipodi-0.dtd"
   xmlns:inkscape="http://www.inkscape.org/namespaces/inkscape"
   width="48px"
   height="48px"
   id="svg12360"
   sodipodi:version="0.32"
   inkscape:version="0.92.3 (2405546, 2018-03-11)"
   sodipodi:docname="edit-paste-format.svg"
   inkscape:output_extension="org.inkscape.output.svg.inkscape"
   version="1.1">
  <defs
     id="defs12362">
    <linearGradient
       id="linearGradient1049">
      <stop
         id="stop1043"
         offset="0"
         style="stop-color:#414141;stop-opacity:1;" />
      <stop
         style="stop-color:#6aec8f;stop-opacity:1"
         offset="0.5"
         id="stop1045" />
      <stop
         id="stop1047"
         offset="1"
         style="stop-color:#414141;stop-opacity:1;" />
    </linearGradient>
    <inkscape:perspective
       sodipodi:type="inkscape:persp3d"
       inkscape:vp_x="0 : 24 : 1"
       inkscape:vp_y="0 : 1000 : 0"
       inkscape:vp_z="48 : 24 : 1"
       inkscape:persp3d-origin="24 : 16 : 1"
       id="perspective80" />
    <radialGradient
       inkscape:collect="always"
       xlink:href="#linearGradient5060"
       id="radialGradient5031"
       gradientUnits="userSpaceOnUse"
       gradientTransform="matrix(-2.774389,0,0,1.969706,112.7623,-872.8854)"
       cx="605.71429"
       cy="486.64789"
       fx="605.71429"
       fy="486.64789"
       r="117.14286" />
    <linearGradient
       inkscape:collect="always"
       id="linearGradient5060">
      <stop
         style="stop-color:black;stop-opacity:1;"
         offset="0"
         id="stop5062" />
      <stop
         style="stop-color:black;stop-opacity:0;"
         offset="1"
         id="stop5064" />
    </linearGradient>
    <radialGradient
       inkscape:collect="always"
       xlink:href="#linearGradient5060"
       id="radialGradient5029"
       gradientUnits="userSpaceOnUse"
       gradientTransform="matrix(2.774389,0,0,1.969706,-1891.633,-872.8854)"
       cx="605.71429"
       cy="486.64789"
       fx="605.71429"
       fy="486.64789"
       r="117.14286" />
    <linearGradient
       id="linearGradient5048">
      <stop
         style="stop-color:black;stop-opacity:0;"
         offset="0"
         id="stop5050" />
      <stop
         id="stop5056"
         offset="0.5"
         style="stop-color:black;stop-opacity:1;" />
      <stop
         style="stop-color:black;stop-opacity:0;"
         offset="1"
         id="stop5052" />
    </linearGradient>
    <linearGradient
       inkscape:collect="always"
       xlink:href="#linearGradient5048"
       id="linearGradient5027"
       gradientUnits="userSpaceOnUse"
       gradientTransform="matrix(2.774389,0,0,1.969706,-1892.179,-872.8854)"
       x1="302.85715"
       y1="366.64789"
       x2="302.85715"
       y2="609.50507" />
    <linearGradient
       inkscape:collect="always"
       id="linearGradient2259">
      <stop
         style="stop-color:#ffffff;stop-opacity:1;"
         offset="0"
         id="stop2261" />
      <stop
         style="stop-color:#ffffff;stop-opacity:0;"
         offset="1"
         id="stop2263" />
    </linearGradient>
    <linearGradient
       inkscape:collect="always"
       id="linearGradient2251">
      <stop
         style="stop-color:#ffffff;stop-opacity:1;"
         offset="0"
         id="stop2253" />
      <stop
         style="stop-color:#ffffff;stop-opacity:0;"
         offset="1"
         id="stop2255" />
    </linearGradient>
    <linearGradient
       inkscape:collect="always"
       id="linearGradient2239">
      <stop
         style="stop-color:#ffffff;stop-opacity:1;"
         offset="0"
         id="stop2241" />
      <stop
         style="stop-color:#ffffff;stop-opacity:0;"
         offset="1"
         id="stop2243" />
    </linearGradient>
    <linearGradient
       id="linearGradient2224">
      <stop
         style="stop-color:#7c7c7c;stop-opacity:1;"
         offset="0"
         id="stop2226" />
      <stop
         style="stop-color:#b8b8b8;stop-opacity:1;"
         offset="1"
         id="stop2228" />
    </linearGradient>
    <linearGradient
       inkscape:collect="always"
       id="linearGradient2216">
      <stop
         style="stop-color:#000000;stop-opacity:1;"
         offset="0"
         id="stop2218" />
      <stop
         style="stop-color:#000000;stop-opacity:0;"
         offset="1"
         id="stop2220" />
    </linearGradient>
    <linearGradient
       id="linearGradient15234">
      <stop
         style="stop-color:#97978a;stop-opacity:1.0000000;"
         offset="0.0000000"
         id="stop15236" />
      <stop
         id="stop15242"
         offset="0.50000000"
         style="stop-color:#c2c2b9;stop-opacity:1.0000000;" />
      <stop
         style="stop-color:#7d7d6f;stop-opacity:1.0000000;"
         offset="1.0000000"
         id="stop15238" />
    </linearGradient>
    <linearGradient
       id="linearGradient15218">
      <stop
         style="stop-color:#f0f0ef;stop-opacity:1.0000000;"
         offset="0.0000000"
         id="stop15220" />
      <stop
         id="stop2269"
         offset="0.59928656"
         style="stop-color:#e8e8e8;stop-opacity:1;" />
      <stop
         id="stop2267"
         offset="0.82758623"
         style="stop-color:#ffffff;stop-opacity:1;" />
      <stop
         style="stop-color:#d8d8d3;stop-opacity:1.0000000;"
         offset="1.0000000"
         id="stop15222" />
    </linearGradient>
    <linearGradient
       id="linearGradient14484">
      <stop
         style="stop-color:#c68827;stop-opacity:1.0000000;"
         offset="0.0000000"
         id="stop14486" />
      <stop
         style="stop-color:#89601f;stop-opacity:1.0000000;"
         offset="1.0000000"
         id="stop14488" />
    </linearGradient>
    <linearGradient
       inkscape:collect="always"
       id="linearGradient13746">
      <stop
         style="stop-color:#646459;stop-opacity:1;"
         offset="0"
         id="stop13748" />
      <stop
         style="stop-color:#646459;stop-opacity:0;"
         offset="1"
         id="stop13750" />
    </linearGradient>
    <radialGradient
       inkscape:collect="always"
       xlink:href="#linearGradient13746"
       id="radialGradient13752"
       cx="24.647722"
       cy="45.272587"
       fx="24.647722"
       fy="45.272587"
       r="21.011173"
       gradientTransform="matrix(1.000000,0.000000,0.000000,0.110577,4.987330e-17,40.26648)"
       gradientUnits="userSpaceOnUse" />
    <linearGradient
       inkscape:collect="always"
       xlink:href="#linearGradient14484"
       id="linearGradient14490"
       x1="6.1071744"
       y1="10.451290"
       x2="33.857143"
       y2="37.879860"
       gradientUnits="userSpaceOnUse" />
    <linearGradient
       inkscape:collect="always"
       xlink:href="#linearGradient15218"
       id="linearGradient15224"
       x1="22.308331"
       y1="18.992140"
       x2="35.785294"
       y2="39.498238"
       gradientUnits="userSpaceOnUse"
       gradientTransform="matrix(1.065698,0.000000,0.000000,0.987595,-1.564439,7.487332e-2)" />
    <linearGradient
       inkscape:collect="always"
       xlink:href="#linearGradient15234"
       id="linearGradient15240"
       x1="25.404572"
       y1="3.8180194"
       x2="25.464211"
       y2="9.3233509"
       gradientUnits="userSpaceOnUse"
       gradientTransform="matrix(1.052632,0.000000,0.000000,1.000000,-1.789474,0.000000)" />
    <linearGradient
       inkscape:collect="always"
       xlink:href="#linearGradient2216"
       id="linearGradient2222"
       x1="36.8125"
       y1="39.15625"
       x2="39.0625"
       y2="42.0625"
       gradientUnits="userSpaceOnUse" />
    <linearGradient
       inkscape:collect="always"
       xlink:href="#linearGradient2224"
       id="linearGradient2230"
       x1="35.996582"
       y1="40.458221"
       x2="33.664921"
       y2="37.770721"
       gradientUnits="userSpaceOnUse" />
    <linearGradient
       inkscape:collect="always"
       xlink:href="#linearGradient2239"
       id="linearGradient2245"
       x1="25.682829"
       y1="12.172059"
       x2="25.692169"
       y2="-0.20294096"
       gradientUnits="userSpaceOnUse" />
    <linearGradient
       inkscape:collect="always"
       xlink:href="#linearGradient2251"
       id="linearGradient2257"
       x1="33.396004"
       y1="36.921333"
       x2="34.170048"
       y2="38.070381"
       gradientUnits="userSpaceOnUse" />
    <linearGradient
       inkscape:collect="always"
       xlink:href="#linearGradient2259"
       id="linearGradient2265"
       x1="26.076092"
       y1="26.696676"
       x2="30.811172"
       y2="42.007351"
       gradientUnits="userSpaceOnUse" />
    <linearGradient
       inkscape:collect="always"
       xlink:href="#linearGradient15234"
       id="linearGradient2283"
       gradientUnits="userSpaceOnUse"
       gradientTransform="matrix(0.538743,0.000000,0.000000,0.511806,10.80080,-0.582640)"
       x1="25.404572"
       y1="3.8180194"
       x2="25.404572"
       y2="6.481061" />
    <linearGradient
       inkscape:collect="always"
       xlink:href="#linearGradient15234"
       id="linearGradient2287"
       gradientUnits="userSpaceOnUse"
       gradientTransform="matrix(1.005222,0.000000,0.000000,0.883928,-0.627923,0.843750)"
       x1="25.404572"
       y1="3.8180194"
       x2="25.464211"
       y2="9.3233509" />
    <linearGradient
       y2="95.449455"
       x2="64"
       y1="20.184732"
       x1="64"
       gradientUnits="userSpaceOnUse"
       id="linearGradient3310"
       xlink:href="#linearGradient3180"
       inkscape:collect="always" />
    <linearGradient
       id="linearGradient3180">
      <stop
         style="stop-color:#414141;stop-opacity:1;"
         offset="0"
         id="stop3182" />
      <stop
         id="stop3188"
         offset="0.5"
         style="stop-color:#ababab;stop-opacity:1;" />
      <stop
         style="stop-color:#414141;stop-opacity:1;"
         offset="1"
         id="stop3184" />
    </linearGradient>
    <linearGradient
       y2="37.536259"
       x2="49.066868"
       y1="45.218086"
       x1="37.744732"
       gradientTransform="matrix(0.6171193,0.7859365,-0.8047136,0.6318632,50.737876,-22.37144)"
       gradientUnits="userSpaceOnUse"
       id="linearGradient3275"
       xlink:href="#linearGradient5060"
       inkscape:collect="always" />
    <linearGradient
       y2="24.784855"
       x2="105.72495"
       y1="24.784855"
       x1="64.018799"
       spreadMethod="reflect"
       gradientTransform="translate(-0.629767,-1.3)"
       gradientUnits="userSpaceOnUse"
       id="linearGradient3250"
       xlink:href="#linearGradient3270"
       inkscape:collect="always" />
    <linearGradient
       id="linearGradient3270">
      <stop
         id="stop3272"
         offset="0"
         style="stop-color:#000000;stop-opacity:0.58273381;" />
      <stop
         style="stop-color:#000000;stop-opacity:0.49640289;"
         offset="0.74876845"
         id="stop3312" />
      <stop
         id="stop3274"
         offset="1"
         style="stop-color:#000000;stop-opacity:0;" />
    </linearGradient>
    <linearGradient
       y2="24.784855"
       x2="105.72495"
       y1="24.784855"
       x1="64.018799"
       spreadMethod="reflect"
       gradientTransform="matrix(0.724771,0,0,1,16.97832,71.692659)"
       gradientUnits="userSpaceOnUse"
       id="linearGradient3292"
       xlink:href="#linearGradient3270"
       inkscape:collect="always" />
    <linearGradient
       y2="24.784855"
       x2="109.94408"
       y1="23.682602"
       x1="63.803757"
       spreadMethod="reflect"
       gradientTransform="matrix(0.01133529,0.5314782,-0.8225392,0.02199292,115.68823,2.3322008)"
       gradientUnits="userSpaceOnUse"
       id="linearGradient3294"
       xlink:href="#linearGradient3270"
       inkscape:collect="always" />
    <linearGradient
       y2="25.555504"
       x2="106.13834"
       y1="24.974937"
       x1="64.009895"
       spreadMethod="reflect"
       gradientTransform="matrix(-0.01133529,0.5314782,0.8225392,0.02199292,12.364199,3.3323718)"
       gradientUnits="userSpaceOnUse"
       id="linearGradient3298"
       xlink:href="#linearGradient3270"
       inkscape:collect="always" />
    <linearGradient
       inkscape:collect="always"
       xlink:href="#linearGradient3270"
       id="linearGradient1461"
       gradientUnits="userSpaceOnUse"
       gradientTransform="translate(-0.6180482,3.7)"
       x1="64.018799"
       y1="24.784855"
       x2="109.94408"
       y2="24.784855"
       spreadMethod="reflect" />
    <linearGradient
       y2="24.784855"
       x2="105.72495"
       y1="24.784855"
       x1="64.018799"
       spreadMethod="reflect"
       gradientTransform="matrix(0,1.0264643,-1,0,84.323571,-8.4262643)"
       gradientUnits="userSpaceOnUse"
       id="linearGradient3260"
       xlink:href="#linearGradient3270"
       inkscape:collect="always" />
    <linearGradient
       y2="24.784855"
       x2="105.72495"
       y1="24.784855"
       x1="64.018799"
       spreadMethod="reflect"
       gradientTransform="matrix(0,1.0264643,-1,0,93.3,-8.4262643)"
       gradientUnits="userSpaceOnUse"
       id="linearGradient3264"
       xlink:href="#linearGradient3270"
       inkscape:collect="always" />
    <linearGradient
       y2="36.833477"
       x2="53.124798"
       y1="44.211128"
       x1="42.093998"
       gradientTransform="matrix(-0.7569441,0,0,0.7750286,85.861495,53.215085)"
       gradientUnits="userSpaceOnUse"
       id="linearGradient3279"
       xlink:href="#linearGradient5060"
       inkscape:collect="always" />
    <linearGradient
       y2="37.536259"
       x2="49.066868"
       y1="44.257614"
       x1="28.098803"
       gradientTransform="matrix(-0.499633,0.8653897,0.8860651,0.5115699,68.29363,-21.372683)"
       gradientUnits="userSpaceOnUse"
       id="linearGradient3305"
       xlink:href="#linearGradient5060"
       inkscape:collect="always" />
    <linearGradient
       y2="36.833477"
       x2="53.124798"
       y1="45.569305"
       x1="33.189358"
       gradientTransform="matrix(0.5901775,-0.4739777,0.4853017,0.6042777,29.517036,82.426493)"
       gradientUnits="userSpaceOnUse"
       id="linearGradient3307"
       xlink:href="#linearGradient5060"
       inkscape:collect="always" />
    <linearGradient
       gradientUnits="userSpaceOnUse"
       y2="31.778175"
       x2="87.514717"
       y1="54.083012"
       x1="53.213203"
       id="linearGradient2924"
       xlink:href="#linearGradient2918"
       inkscape:collect="always" />
    <linearGradient
       id="linearGradient2918">
      <stop
         id="stop2920"
         offset="0"
         style="stop-color:#ffffff;stop-opacity:1;" />
      <stop
         style="stop-color:#ffffff;stop-opacity:0;"
         offset="0.5"
         id="stop2926" />
      <stop
         id="stop2922"
         offset="1"
         style="stop-color:#ffffff;stop-opacity:1;" />
    </linearGradient>
    <linearGradient
       inkscape:collect="always"
       xlink:href="#linearGradient1049"
       id="linearGradient1022"
       gradientUnits="userSpaceOnUse"
       x1="64"
       y1="20.184732"
       x2="64"
       y2="95.449455" />
  </defs>
  <sodipodi:namedview
     id="base"
     pagecolor="#ffffff"
     bordercolor="#666666"
     borderopacity="0.15294118"
     inkscape:pageopacity="0.0"
     inkscape:pageshadow="2"
     inkscape:zoom="11.313708"
     inkscape:cx="18.902352"
     inkscape:cy="17.031237"
     inkscape:current-layer="g1457"
     showgrid="false"
     inkscape:grid-bbox="true"
     inkscape:document-units="px"
     inkscape:window-width="1280"
     inkscape:window-height="956"
     inkscape:window-x="0"
     inkscape:window-y="0"
     inkscape:showpageshadow="false"
     inkscape:window-maximized="1" />
  <metadata
     id="metadata12365">
    <rdf:RDF>
      <cc:Work
         rdf:about="">
        <dc:format>image/svg+xml</dc:format>
        <dc:type
           rdf:resource="http://purl.org/dc/dcmitype/StillImage" />
        <dc:title></dc:title>
        <dc:date>2005-10-10</dc:date>
        <dc:creator>
          <cc:Agent>
            <dc:title>Andreas Nilsson</dc:title>
          </cc:Agent>
        </dc:creator>
        <dc:subject>
          <rdf:Bag>
            <rdf:li>edit</rdf:li>
            <rdf:li>paste</rdf:li>
          </rdf:Bag>
        </dc:subject>
        <cc:license
           rdf:resource="http://creativecommons.org/licenses/publicdomain/" />
        <dc:contributor>
          <cc:Agent>
            <dc:title>Jakub Steiner</dc:title>
          </cc:Agent>
        </dc:contributor>
      </cc:Work>
      <cc:License
         rdf:about="http://creativecommons.org/licenses/publicdomain/">
        <cc:permits
           rdf:resource="http://creativecommons.org/ns#Reproduction" />
        <cc:permits
           rdf:resource="http://creativecommons.org/ns#Distribution" />
        <cc:permits
           rdf:resource="http://creativecommons.org/ns#DerivativeWorks" />
      </cc:License>
    </rdf:RDF>
  </metadata>
  <g
     id="layer1"
     inkscape:label="Layer 1"
     inkscape:groupmode="layer">
    <g
       style="display:inline"
       id="g5022"
       transform="matrix(0.02325216,0,0,0.01485743,44.80627,43.06039)">
      <rect
         y="-150.69685"
         x="-1559.2523"
         height="478.35718"
         width="1339.6335"
         id="rect4173"
         style="color:#000000;display:inline;overflow:visible;visibility:visible;opacity:0.40206185;fill:url(#linearGradient5027);fill-opacity:1;fill-rule:nonzero;stroke:none;stroke-width:1;stroke-linecap:round;stroke-linejoin:miter;stroke-miterlimit:4;stroke-dasharray:none;stroke-dashoffset:0;stroke-opacity:1;marker:none;marker-start:none;marker-mid:none;marker-end:none" />
      <path
         sodipodi:nodetypes="cccc"
         id="path5058"
         d="m -219.61876,-150.68038 c 0,0 0,478.33079 0,478.33079 142.874166,0.90045 345.40022,-107.16966 345.40014,-239.196175 0,-132.026537 -159.436816,-239.134595 -345.40014,-239.134615 z"
         style="color:#000000;display:inline;overflow:visible;visibility:visible;opacity:0.40206185;fill:url(#radialGradient5029);fill-opacity:1;fill-rule:nonzero;stroke:none;stroke-width:1;stroke-linecap:round;stroke-linejoin:miter;stroke-miterlimit:4;stroke-dasharray:none;stroke-dashoffset:0;stroke-opacity:1;marker:none;marker-start:none;marker-mid:none;marker-end:none"
         inkscape:connector-curvature="0" />
      <path
         style="color:#000000;display:inline;overflow:visible;visibility:visible;opacity:0.40206185;fill:url(#radialGradient5031);fill-opacity:1;fill-rule:nonzero;stroke:none;stroke-width:1;stroke-linecap:round;stroke-linejoin:miter;stroke-miterlimit:4;stroke-dasharray:none;stroke-dashoffset:0;stroke-opacity:1;marker:none;marker-start:none;marker-mid:none;marker-end:none"
         d="m -1559.2523,-150.68038 c 0,0 0,478.33079 0,478.33079 -142.8742,0.90045 -345.4002,-107.16966 -345.4002,-239.196175 0,-132.026537 159.4368,-239.134595 345.4002,-239.134615 z"
         id="path5018"
         sodipodi:nodetypes="cccc"
         inkscape:connector-curvature="0" />
    </g>
    <rect
       style="opacity:1;fill:url(#linearGradient14490);fill-opacity:1;fill-rule:evenodd;stroke:#714c16;stroke-width:0.99999976;stroke-linecap:butt;stroke-linejoin:miter;stroke-miterlimit:4;stroke-dasharray:none;stroke-dashoffset:0;stroke-opacity:1"
       id="rect12368"
       width="39.035683"
       height="41.045437"
       x="4.4643173"
       y="4.5"
       rx="1.3879371"
       ry="1.3879364" />
    <rect
       style="opacity:1;fill:url(#linearGradient15224);fill-opacity:1;fill-rule:evenodd;stroke:#888a85;stroke-width:1.00000024;stroke-linecap:butt;stroke-linejoin:miter;stroke-miterlimit:4;stroke-dasharray:none;stroke-dashoffset:0;stroke-opacity:1"
       id="rect12413"
       width="30.951559"
       height="35.976688"
       x="8.5323219"
       y="6.5295157"
       rx="0.56650835"
       ry="0.56650835" />
    <g
       id="g1457"
       transform="matrix(0.3370469,0,0,0.3370469,2.7296684,5.4404769)">
      <path
         inkscape:connector-curvature="0"
         sodipodi:nodetypes="ccc"
         id="path2276"
         d="m 58.139789,20.665611 v -1.95659 z"
         style="fill:#ffffff;fill-opacity:0.75688076;fill-rule:nonzero;stroke:none;stroke-width:0.5;stroke-linecap:round;stroke-linejoin:round;stroke-miterlimit:4;stroke-dasharray:none;stroke-dashoffset:4;stroke-opacity:1" />
      <g
         id="g2916"
         transform="matrix(1.2161751,0,0,1.1876289,-13.835207,-14.821214)"
         style="fill:url(#linearGradient3310);fill-opacity:1">
        <radialGradient
           id="radialGradient2297"
           cx="98.125"
           cy="103.667"
           r="154.149"
           gradientUnits="userSpaceOnUse">
          <stop
             offset="0"
             style="stop-color:#A4C0E4;fill-opacity:1;fill:url(#linearGradient3310)"
             id="stop2919" />
          <stop
             offset="1"
             style="stop-color:#00438A;fill-opacity:1;fill:url(#linearGradient3310)"
             id="stop2921" />
        </radialGradient>
        <path
           inkscape:connector-curvature="0"
           style="fill:url(#linearGradient1022);fill-opacity:1"
           d="m 38.062,32.688 h 51.875 l 0.375,15.5 h -2.25 C 86.992,43.305 85.63,40.126 83.98,38.651 82.328,37.176 78.855,36.438 73.562,36.438 h -5.905749 v 46.875 c 0,3.539 1.446749,5.73 2.532749,6.578 1.084,0.848 3.459,1.406 7.123,1.672 v 1.75 H 50.688 v -1.75 c 3.908,-0.295 6.344,-0.93 7.307,-1.902 0.961,-0.973 2.348749,-3.20173 2.348749,-7.12773 v -45.875 L 54.438,36.438 c -6.974072,-0.09146 -8.492502,0.772697 -10.361,2.189 -3.013473,2.284183 -4.483048,5.286253 -4.139,9.561 h -2.25 z"
           id="path2923"
           sodipodi:nodetypes="ccccscccsccccscccsccc" />
      </g>
      <path
         inkscape:connector-curvature="0"
         style="opacity:0.59851302;fill:url(#linearGradient3275);fill-opacity:1;stroke:none;stroke-width:1;stroke-linecap:round;stroke-linejoin:round;stroke-miterlimit:4;stroke-dasharray:none;stroke-opacity:1"
         d="m 55.610348,31.728471 c -4.30642,-4.299528 -11.326152,-4.734854 -16.328137,-0.807283 -5.393699,4.235145 -6.423897,11.958135 -2.2749,17.242119 3.327311,4.237518 8.985799,5.613568 13.875208,3.8061 0.200685,-0.0339 0.360801,-0.186046 0.404891,-0.384741 0.04409,-0.198695 -0.03665,-0.404287 -0.20416,-0.519886 -0.16751,-0.1156 -0.388373,-0.11814 -0.558497,-0.0064 -4.500031,1.663527 -9.678859,0.374358 -12.730927,-3.512625 -3.806146,-4.84734 -2.873721,-11.927978 2.105957,-15.838032 4.61748,-3.625658 11.053852,-3.204423 15.001247,0.736655 0.197687,0.195873 0.51673,0.194402 0.712602,-0.0033 0.195871,-0.197685 0.194402,-0.516729 -0.0033,-0.712601 z"
         id="path2248" />
      <path
         inkscape:connector-curvature="0"
         style="opacity:0.89444448;fill:url(#linearGradient3250);fill-opacity:1;stroke:none;stroke-width:1;stroke-linecap:round;stroke-linejoin:round;stroke-miterlimit:4;stroke-dasharray:none;stroke-opacity:1"
         d="m 22.025563,23 c -0.276142,0.04315 -0.465022,0.301983 -0.421875,0.578125 0.04315,0.276142 0.301983,0.465022 0.578125,0.421875 h 82.406247 c 0.18032,0.0025 0.34804,-0.09219 0.43894,-0.247936 0.0909,-0.155749 0.0909,-0.348379 0,-0.504128 C 104.9361,23.092188 104.76838,22.99745 104.58806,23 H 22.181813 c -0.05176,-0.0082 -0.104488,-0.0082 -0.15625,0 z"
         id="path3268" />
      <path
         inkscape:connector-curvature="0"
         id="path3289"
         d="m 33.398246,95.992659 c -0.200139,0.04315 -0.337034,0.301983 -0.305762,0.578125 0.03127,0.276142 0.218868,0.465022 0.419008,0.421875 H 93.23715 c 0.130691,0.0025 0.252249,-0.09219 0.318131,-0.247936 0.06589,-0.155749 0.06589,-0.348379 0,-0.504128 -0.06588,-0.155748 -0.18744,-0.250486 -0.318131,-0.247936 H 33.511492 c -0.03752,-0.0082 -0.07573,-0.0082 -0.113246,0 z"
         style="opacity:0.89444448;fill:url(#linearGradient3292);fill-opacity:1;stroke:none;stroke-width:1;stroke-linecap:round;stroke-linejoin:round;stroke-miterlimit:4;stroke-dasharray:none;stroke-opacity:1" />
      <path
         inkscape:connector-curvature="0"
         style="opacity:0.65427509;fill:none;fill-opacity:1;stroke:url(#linearGradient3294);stroke-width:1;stroke-linecap:round;stroke-linejoin:round;stroke-miterlimit:4;stroke-dasharray:none;stroke-opacity:1"
         d="M 95.560274,14.999829 96.494522,58.80394"
         id="path3290" />
      <path
         inkscape:connector-curvature="0"
         id="path3296"
         d="M 32.492155,16 31.557907,59.804111"
         style="opacity:0.81040889;fill:none;fill-opacity:1;stroke:url(#linearGradient3298);stroke-width:1;stroke-linecap:round;stroke-linejoin:round;stroke-miterlimit:4;stroke-dasharray:none;stroke-opacity:1" />
      <path
         inkscape:connector-curvature="0"
         id="path3252"
         d="m 22.037282,28 c -0.276142,0.04315 -0.465022,0.301983 -0.421875,0.578125 0.04315,0.276142 0.301983,0.465022 0.578125,0.421875 h 82.406248 c 0.18032,0.0025 0.34804,-0.09219 0.43894,-0.247936 0.0909,-0.155749 0.0909,-0.348379 0,-0.504128 C 104.94782,28.092188 104.7801,27.99745 104.59978,28 H 22.193532 c -0.05176,-0.0082 -0.104488,-0.0082 -0.15625,0 z"
         style="opacity:0.89444448;fill:url(#linearGradient1461);fill-opacity:1;stroke:none;stroke-width:1;stroke-linecap:round;stroke-linejoin:round;stroke-miterlimit:4;stroke-dasharray:none;stroke-opacity:1" />
      <path
         inkscape:connector-curvature="0"
         id="path3257"
         d="m 60.023571,14.828623 c -0.04315,-0.283451 -0.301983,-0.477329 -0.578125,-0.43304 -0.276142,0.04429 -0.465022,0.309975 -0.421875,0.593424 v 84.587071 c -0.0025,0.185091 0.09219,0.35725 0.247936,0.450562 0.155749,0.0933 0.348379,0.0933 0.504128,0 0.155748,-0.09331 0.250486,-0.265471 0.247936,-0.450562 V 14.989007 c 0.0082,-0.05313 0.0082,-0.107252 0,-0.160384 z"
         style="opacity:0.89444448;fill:url(#linearGradient3260);fill-opacity:1;stroke:none;stroke-width:1;stroke-linecap:round;stroke-linejoin:round;stroke-miterlimit:4;stroke-dasharray:none;stroke-opacity:1" />
      <path
         inkscape:connector-curvature="0"
         style="opacity:0.89444448;fill:url(#linearGradient3264);fill-opacity:1;stroke:none;stroke-width:1;stroke-linecap:round;stroke-linejoin:round;stroke-miterlimit:4;stroke-dasharray:none;stroke-opacity:1"
         d="M 69,14.828623 C 68.956853,14.545172 68.698017,14.351294 68.421875,14.395583 68.145733,14.439872 67.956853,14.705558 68,14.989007 v 84.587071 c -0.0025,0.185091 0.09219,0.35725 0.247936,0.450562 0.155749,0.0933 0.348379,0.0933 0.504128,0 C 68.907812,99.933328 69.00255,99.761169 69,99.576078 V 14.989007 c 0.0082,-0.05313 0.0082,-0.107252 0,-0.160384 z"
         id="path3262" />
      <path
         inkscape:connector-curvature="0"
         id="path3277"
         d="m 51.350216,75.620693 c 4.576183,0.55433 8.119454,4.532925 8.119454,9.350392 10e-7,5.19473 -4.119298,9.421408 -9.20836,9.421407 -4.0812,0 -7.548135,-2.727507 -8.758595,-6.486094 -0.07369,-0.135423 -0.05794,-0.301994 0.03981,-0.421214 0.09775,-0.119219 0.258012,-0.167297 0.405248,-0.121574 0.147236,0.04572 0.252071,0.17612 0.265097,0.329741 1.114063,3.459264 4.304843,5.941641 8.048439,5.941641 4.668526,10e-7 8.450861,-3.867926 8.45086,-8.663907 0,-4.447146 -3.261973,-8.084777 -7.456641,-8.592892 -0.209178,-0.02615 -0.357554,-0.216916 -0.331407,-0.426094 0.02615,-0.209177 0.216916,-0.357553 0.426095,-0.331406 z"
         style="opacity:0.67286245;fill:url(#linearGradient3279);fill-opacity:1;stroke:none;stroke-width:1;stroke-linecap:round;stroke-linejoin:round;stroke-miterlimit:4;stroke-dasharray:none;stroke-opacity:1" />
      <path
         inkscape:connector-curvature="0"
         style="opacity:0.59851302;fill:url(#linearGradient3305);fill-opacity:1;stroke:none;stroke-width:1;stroke-linecap:round;stroke-linejoin:round;stroke-miterlimit:4;stroke-dasharray:none;stroke-opacity:1"
         d="m 71.129522,32.872124 c 3.65433,-4.865908 10.541722,-6.29068 16.049376,-3.110835 5.938968,3.428864 8.052184,10.928211 4.693066,16.746372 -2.693861,4.665904 -8.100537,6.829204 -13.196592,5.732168 -0.203462,-0.0051 -0.383506,-0.133092 -0.455282,-0.323543 -0.07178,-0.190451 -0.02096,-0.405403 0.128499,-0.543553 0.149457,-0.138151 0.367736,-0.171934 0.551963,-0.08543 4.69022,1.009671 9.634367,-0.999713 12.105387,-5.279645 3.081536,-5.337375 1.156051,-12.214683 -4.327041,-15.380346 -5.084278,-2.93541 -11.396181,-1.607178 -14.74585,2.853062 -0.167965,0.221887 -0.484003,0.265601 -0.70589,0.09764 -0.221886,-0.167964 -0.2656,-0.484002 -0.09764,-0.705889 z"
         id="path3301" />
      <path
         inkscape:connector-curvature="0"
         id="path3303"
         d="m 70.454719,78.285779 c -3.220871,3.297683 -3.492217,8.618431 -0.475651,12.374535 3.252797,4.05025 9.111181,4.766333 13.079042,1.579701 3.182048,-2.555536 4.177274,-6.853031 2.767526,-10.5415 -0.02735,-0.151727 -0.143923,-0.271742 -0.294793,-0.303485 -0.150869,-0.03174 -0.305925,0.03112 -0.392092,0.158966 -0.08617,0.127843 -0.08625,0.295157 -2.17e-4,0.42309 1.297478,3.39473 0.364074,7.32818 -2.55475,9.672318 -3.639976,2.923304 -9.010994,2.275937 -12.014106,-1.463416 -2.784681,-3.467371 -2.519156,-8.346133 0.433194,-11.368889 0.14672,-0.151368 0.142952,-0.393017 -0.0084,-0.539737 -0.151368,-0.146718 -0.393016,-0.142951 -0.539737,0.0084 z"
         style="opacity:0.67286245;fill:url(#linearGradient3307);fill-opacity:1;stroke:none;stroke-width:1;stroke-linecap:round;stroke-linejoin:round;stroke-miterlimit:4;stroke-dasharray:none;stroke-opacity:1" />
      <path
         inkscape:connector-curvature="0"
         style="opacity:0.2;fill:url(#linearGradient2924);fill-opacity:1;fill-rule:evenodd;stroke:none;stroke-width:1px;stroke-linecap:butt;stroke-linejoin:miter;stroke-opacity:1"
         d="M 32.46875,24 32,42.40625 h 2.75 c -0.418422,-5.076813 1.36634,-8.630989 5.03125,-11.34375 2.272421,-1.682043 4.112056,-2.702377 12.59375,-2.59375 l 7.1875,0.25 V 62 c 2.850879,1.311149 5.814035,2.576791 8.875,3.78125 v -37.3125 h 7.1875 c 6.437215,0 10.678378,0.873247 12.6875,2.625 2.006689,1.751752 3.636194,5.513307 4.9375,11.3125 H 96 L 95.53125,24 Z"
         id="path2894" />
    </g>
    <rect
       style="opacity:1;fill:#5c5c5c;fill-opacity:1;fill-rule:evenodd;stroke:none;stroke-width:1;stroke-linecap:butt;stroke-linejoin:miter;stroke-miterlimit:4;stroke-dasharray:none;stroke-dashoffset:0;stroke-opacity:1"
       id="rect13756"
       width="12"
       height="4"
       x="18"
       y="0"
       rx="0.98387533"
       ry="0.98387533" />
    <rect
       style="opacity:1;fill:none;fill-opacity:1;fill-rule:evenodd;stroke:url(#linearGradient2265);stroke-width:1.00000048;stroke-linecap:butt;stroke-linejoin:miter;stroke-miterlimit:4;stroke-dasharray:none;stroke-dashoffset:0;stroke-opacity:1"
       id="rect15244"
       width="29.014147"
       height="34.040764"
       x="9.5171413"
       y="7.4665856"
       rx="0"
       ry="0" />
    <rect
       style="opacity:1;fill:none;fill-opacity:1;fill-rule:evenodd;stroke:#c68827;stroke-width:0.99999976;stroke-linecap:butt;stroke-linejoin:miter;stroke-miterlimit:4;stroke-dasharray:none;stroke-dashoffset:0;stroke-opacity:1"
       id="rect15974"
       width="37.085655"
       height="39.092987"
       x="5.4393425"
       y="5.4307775"
       rx="0.47879848"
       ry="0.47879848" />
    <rect
       ry="1.3879364"
       rx="1.3879377"
       y="4.4722719"
       x="14.791488"
       height="7"
       width="18.947376"
       id="rect2208"
       style="opacity:0.10795456;fill:#000000;fill-opacity:1;fill-rule:evenodd;stroke:#000000;stroke-width:1.00000012;stroke-linecap:butt;stroke-linejoin:miter;stroke-miterlimit:4;stroke-dasharray:none;stroke-dashoffset:0;stroke-opacity:1" />
    <rect
       ry="1.3879364"
       rx="1.3879377"
       y="3.5"
       x="14.526322"
       height="7"
       width="18.947376"
       id="rect2285"
       style="opacity:1;fill:url(#linearGradient15240);fill-opacity:1;fill-rule:evenodd;stroke:#5c5c5c;stroke-width:1.00000012;stroke-linecap:butt;stroke-linejoin:miter;stroke-miterlimit:4;stroke-dasharray:none;stroke-dashoffset:0;stroke-opacity:1" />
    <rect
       ry="0.32543635"
       rx="0.32543635"
       y="1.2086792"
       x="19.151323"
       height="3.5826404"
       width="9.6973763"
       id="rect2281"
       style="opacity:1;fill:url(#linearGradient2283);fill-opacity:1;fill-rule:evenodd;stroke:none;stroke-width:1.00000012;stroke-linecap:butt;stroke-linejoin:miter;stroke-miterlimit:4;stroke-dasharray:none;stroke-dashoffset:0;stroke-opacity:1" />
    <rect
       style="opacity:1;fill:url(#linearGradient2287);fill-opacity:1;fill-rule:evenodd;stroke:none;stroke-width:1.00000012;stroke-linecap:butt;stroke-linejoin:miter;stroke-miterlimit:4;stroke-dasharray:none;stroke-dashoffset:0;stroke-opacity:1"
       id="rect13754"
       width="18.093992"
       height="6.1875"
       x="14.953014"
       y="3.9375"
       rx="1.0129364"
       ry="1.0129364" />
    <path
       style="color:#000000;display:inline;overflow:visible;visibility:visible;opacity:0.48863639;fill:url(#linearGradient2222);fill-opacity:1;fill-rule:evenodd;stroke:none;stroke-width:1.00000024;stroke-linecap:butt;stroke-linejoin:miter;stroke-miterlimit:4;stroke-dasharray:none;stroke-dashoffset:0;stroke-opacity:1;marker:none;marker-start:none;marker-mid:none;marker-end:none"
       d="m 39.018306,36.25 0.04419,5.8125 -8.5,-0.04419 z"
       id="path2212"
       sodipodi:nodetypes="cccc"
       inkscape:connector-curvature="0" />
    <path
       style="color:#000000;display:inline;overflow:visible;visibility:visible;opacity:1;fill:url(#linearGradient2230);fill-opacity:1;fill-rule:evenodd;stroke:#868a84;stroke-width:1.00000024;stroke-linecap:butt;stroke-linejoin:miter;stroke-miterlimit:4;stroke-dasharray:none;stroke-dashoffset:0;stroke-opacity:1;marker:none;marker-start:none;marker-mid:none;marker-end:none"
       d="m 30.059082,42.086864 c 1.791141,0.167652 8.989727,-4.369586 9.48084,-8.388009 -1.563262,2.423097 -4.954951,1.968591 -9.063709,2.127601 0,0 0.395369,5.760408 -0.417131,6.260408 z"
       id="path2210"
       sodipodi:nodetypes="cccc"
       inkscape:connector-curvature="0" />
    <path
       style="opacity:0.31681818;fill:none;fill-opacity:1;fill-rule:evenodd;stroke:url(#linearGradient2245);stroke-width:0.99999994;stroke-linecap:butt;stroke-linejoin:miter;stroke-miterlimit:4;stroke-dasharray:none;stroke-dashoffset:0;stroke-opacity:1"
       d="m 19.46875,1.46875 c -0.0021,0.0021 0.0017,0.028784 0,0.03125 -0.0012,0.00278 -0.03063,-0.00302 -0.03125,0 v 2.875 c 0,0.00642 0.02891,0.025698 0.03125,0.03125 0.0025,0.00166 -0.0028,0.03008 0,0.03125 H 15.9375 c -0.01776,0 -0.04522,-0.00174 -0.0625,0 -0.03403,0.00517 -0.09355,0.019776 -0.125,0.03125 -0.138168,0.058246 -0.267672,0.1990199 -0.3125,0.34375 -0.01051,0.041035 0,0.1118489 0,0.15625 V 9.125 c 0,0.01776 -0.0017,0.045215 0,0.0625 0.0052,0.034032 0.01978,0.093546 0.03125,0.125 0.0097,0.023028 0.01843,0.0726 0.03125,0.09375 0.0046,0.00682 0.02634,0.02467 0.03125,0.03125 0.02087,0.025314 0.06844,0.072876 0.09375,0.09375 0.01316,0.00983 0.0484,0.0227 0.0625,0.03125 0.01454,0.00788 0.04715,0.024778 0.0625,0.03125 0.03145,0.011474 0.09097,0.026079 0.125,0.03125 0.01728,0.00174 0.04474,0 0.0625,0 h 16.125 c 0.01776,0 0.04521,0.00174 0.0625,0 C 32.15903,9.61983 32.21855,9.605224 32.25,9.59375 32.26535,9.58728 32.29796,9.570378 32.3125,9.5625 32.3266,9.55395 32.36184,9.541079 32.375,9.53125 32.40031,9.510376 32.44788,9.462814 32.46875,9.4375 32.47365,9.43092 32.4954,9.41307 32.5,9.40625 32.51282,9.3851 32.52154,9.335528 32.53125,9.3125 c 0.01147,-0.031454 0.02608,-0.090968 0.03125,-0.125 0.0017,-0.017285 0,-0.04474 0,-0.0625 V 4.96875 c 0,-0.044401 0.01051,-0.1152152 0,-0.15625 C 32.51767,4.6677698 32.388168,4.5269964 32.25,4.46875 32.21855,4.457276 32.15903,4.442671 32.125,4.4375 c -0.01729,-0.00174 -0.04474,0 -0.0625,0 h -3.53125 c 0.0028,-0.00117 -0.0025,-0.029586 0,-0.03125 C 28.53355,4.4007 28.5625,4.381423 28.5625,4.375 V 1.5 c -6.16e-4,-0.00302 -0.03008,0.00278 -0.03125,0 -0.0017,-0.00247 0.0021,-0.029154 0,-0.03125 -0.0028,-0.00117 -0.02823,6.157e-4 -0.03125,0 h -9 c -0.003,6.157e-4 -0.02847,-0.00117 -0.03125,0 z"
       id="rect2232"
       inkscape:connector-curvature="0" />
    <path
       sodipodi:nodetypes="cccc"
       id="path2247"
       d="m 31.509519,40.68705 c 1.369779,-0.683829 4.529264,-2.601034 5.828645,-4.482038 -1.792523,0.376484 -2.990921,0.589573 -5.727588,0.695482 0,0 0.08656,3.011586 -0.101057,3.786556 z"
       style="color:#000000;display:inline;overflow:visible;visibility:visible;opacity:0.36931823;fill:none;fill-opacity:1;fill-rule:evenodd;stroke:url(#linearGradient2257);stroke-width:0.99999982;stroke-linecap:butt;stroke-linejoin:miter;stroke-miterlimit:4;stroke-dasharray:none;stroke-dashoffset:0;stroke-opacity:1;marker:none;marker-start:none;marker-mid:none;marker-end:none"
       inkscape:connector-curvature="0" />
  </g>
</svg>
