<?xml version="1.0" encoding="UTF-8" standalone="no"?>
<svg
   xmlns:dc="http://purl.org/dc/elements/1.1/"
   xmlns:cc="http://creativecommons.org/ns#"
   xmlns:rdf="http://www.w3.org/1999/02/22-rdf-syntax-ns#"
   xmlns:svg="http://www.w3.org/2000/svg"
   xmlns="http://www.w3.org/2000/svg"
   xmlns:sodipodi="http://sodipodi.sourceforge.net/DTD/sodipodi-0.dtd"
   xmlns:inkscape="http://www.inkscape.org/namespaces/inkscape"
   width="218.36047mm"
   height="218.36047mm"
   viewBox="0 0 218.36048 218.36048"
   version="1.1"
   id="svg8"
   inkscape:version="1.0.2 (e86c870879, 2021-01-15, custom)"
   sodipodi:docname="format-line-color.svg">
  <defs
     id="defs2" />
  <sodipodi:namedview
     id="base"
     pagecolor="#ffffff"
     bordercolor="#666666"
     borderopacity="1.0"
     inkscape:pageopacity="0"
     inkscape:pageshadow="2"
     inkscape:zoom="0.49497475"
     inkscape:cx="477.40298"
     inkscape:cy="512.44807"
     inkscape:document-units="mm"
     inkscape:current-layer="layer1"
     showgrid="false"
     inkscape:window-width="1280"
     inkscape:window-height="942"
     inkscape:window-x="0"
     inkscape:window-y="0"
     inkscape:window-maximized="1"
     fit-margin-top="0"
     fit-margin-left="0"
     fit-margin-right="0"
     fit-margin-bottom="0"
     inkscape:document-rotation="0"
     inkscape:pagecheckerboard="true" />
  <metadata
     id="metadata5">
    <rdf:RDF>
      <cc:Work
         rdf:about="">
        <dc:format>image/svg+xml</dc:format>
        <dc:type
           rdf:resource="http://purl.org/dc/dcmitype/StillImage" />
        <dc:title></dc:title>
      </cc:Work>
    </rdf:RDF>
  </metadata>
  <g
     inkscape:label="Layer 1"
     inkscape:groupmode="layer"
     id="layer1"
     transform="translate(12.75978,-2.0734556)">
    <g
       id="g3243"
       style="fill:#ffffff">
      <rect
         ry="0"
         y="38.004562"
         x="101.45494"
         height="68.342377"
         width="68.157104"
         id="rect869"
         style="opacity:1;fill:#ffffff;fill-opacity:1;stroke:none;stroke-width:8.75471878;stroke-linecap:square;stroke-linejoin:miter;stroke-miterlimit:4;stroke-dasharray:none;stroke-dashoffset:0;stroke-opacity:1;paint-order:stroke markers fill" />
      <rect
         ry="0"
         id="rect934-4"
         y="2.0734556"
         x="13.108531"
         height="25.868311"
         width="166.62384"
         style="opacity:1;fill:#ffffff;fill-opacity:1;stroke:none;stroke-width:7.31389809;stroke-linecap:square;stroke-linejoin:miter;stroke-miterlimit:4;stroke-dasharray:none;stroke-dashoffset:0;stroke-opacity:1;paint-order:stroke markers fill" />
      <rect
         ry="0"
         y="116.31454"
         x="23.092474"
         height="68.342377"
         width="68.157104"
         id="rect869-7"
         style="opacity:1;fill:#ffffff;fill-opacity:1;stroke:none;stroke-width:8.75471973;stroke-linecap:square;stroke-linejoin:miter;stroke-miterlimit:4;stroke-dasharray:none;stroke-dashoffset:0;stroke-opacity:1;paint-order:stroke markers fill" />
      <rect
         ry="0"
         y="38.004562"
         x="23.092474"
         height="68.342377"
         width="68.157104"
         id="rect869-74"
         style="opacity:1;fill:#ffffff;fill-opacity:1;stroke:none;stroke-width:8.75471973;stroke-linecap:square;stroke-linejoin:miter;stroke-miterlimit:4;stroke-dasharray:none;stroke-dashoffset:0;stroke-opacity:1;paint-order:stroke markers fill" />
      <rect
         ry="0"
         y="116.31454"
         x="101.45494"
         height="68.342377"
         width="68.157104"
         id="rect869-2"
         style="opacity:1;fill:#ffffff;fill-opacity:1;stroke:none;stroke-width:8.75471973;stroke-linecap:square;stroke-linejoin:miter;stroke-miterlimit:4;stroke-dasharray:none;stroke-dashoffset:0;stroke-opacity:1;paint-order:stroke markers fill" />
      <rect
         transform="rotate(90)"
         ry="0"
         id="rect934-4-6"
         y="-13.108531"
         x="2.0734556"
         height="25.868311"
         width="218.36047"
         style="opacity:1;fill:#ffffff;fill-opacity:1;stroke:none;stroke-width:8.37273502;stroke-linecap:square;stroke-linejoin:miter;stroke-miterlimit:4;stroke-dasharray:none;stroke-dashoffset:0;stroke-opacity:1;paint-order:stroke markers fill" />
      <rect
         ry="0"
         id="rect934-4-8"
         y="194.56561"
         x="13.108531"
         height="25.868311"
         width="166.62384"
         style="opacity:1;fill:#ffffff;fill-opacity:1;stroke:none;stroke-width:7.31389809;stroke-linecap:square;stroke-linejoin:miter;stroke-miterlimit:4;stroke-dasharray:none;stroke-dashoffset:0;stroke-opacity:1;paint-order:stroke markers fill" />
      <rect
         transform="rotate(90)"
         ry="0"
         id="rect934-4-6-2"
         y="-205.60069"
         x="2.0734556"
         height="25.868311"
         width="218.36047"
         style="opacity:1;fill:#ffffff;fill-opacity:1;stroke:none;stroke-width:8.37273502;stroke-linecap:square;stroke-linejoin:miter;stroke-miterlimit:4;stroke-dasharray:none;stroke-dashoffset:0;stroke-opacity:1;paint-order:stroke markers fill" />
    </g>
    <g
       transform="matrix(1.0772812,0,0,1.0772812,26.463861,43.644625)"
       id="g1195">
      <circle
         transform="matrix(-1.5323,0.87462,-0.87462,-1.5323,218.1,106.72)"
         cx="93.004997"
         cy="70.773003"
         r="5.9920001"
         id="circle1179"
         style="opacity:0.7;fill:#99ff00" />
      <path
         d="m 126.25,82.909 c -1.5389,5.6321 -7.3568,8.953 -12.99,7.415 -5.6273,-1.5376 -8.9482,-7.3555 -7.4109,-12.987 1.5389,-5.6321 7.3568,-8.953 12.987,-7.4172 5.6323,1.5428 8.9508,7.3601 7.4141,12.989 z"
         id="path1181"
         inkscape:connector-curvature="0"
         style="opacity:0.7;fill:#ff0000" />
      <path
         d="m 24.032,54.986 c -1.5406,5.629 -7.3562,8.9506 -12.986,7.4124 -5.6336,-1.538 -8.953,-7.3568 -7.4141,-12.989 1.5382,-5.6297 7.3546,-8.9497 12.987,-7.4133 5.6305,1.5397 8.9515,7.3577 7.4126,12.99 z"
         id="path1183"
         inkscape:connector-curvature="0"
         style="opacity:0.7;fill:#00cc00" />
      <path
         d="m 118.87,62.922 c -5.6471,1.4885 -11.429,-1.8889 -12.913,-7.5362 -1.483,-5.6482 1.8928,-11.429 7.5403,-12.909 5.6495,-1.4878 11.432,1.8871 12.912,7.541 1.4845,5.6473 -1.8915,11.424 -7.539,12.905 z"
         id="path1185"
         inkscape:connector-curvature="0"
         style="opacity:0.7;fill:#cc0099" />
      <path
         d="m 35.099,36.03 c -4.1484,4.1069 -10.843,4.0766 -14.951,-0.07728 -4.1093,-4.1491 -4.0764,-10.839 0.06809,-14.946 4.1519,-4.115 10.846,-4.0784 14.956,0.07071 4.1108,4.1482 4.0773,10.841 -0.07246,14.952 z"
         id="path1187"
         inkscape:connector-curvature="0"
         style="opacity:0.7;fill:#009999" />
      <path
         d="m 110.02,36.394 c -4.1523,4.1071 -10.842,4.0781 -14.953,-0.07399 -4.1075,-4.146 -4.0742,-10.843 0.07881,-14.952 4.1469,-4.106 10.838,-4.0755 14.945,0.0729 4.1165,4.151 4.0832,10.848 -0.0701,14.953 z"
         id="path1189"
         inkscape:connector-curvature="0"
         style="opacity:0.7;fill:#660099" />
      <circle
         transform="matrix(-1.5323,0.87462,-0.87462,-1.5323,218.1,106.72)"
         cx="56.226002"
         cy="92.004997"
         r="5.993"
         id="circle1191"
         style="opacity:0.7;fill:#0033cc" />
      <path
         d="m 89.105,17.842 c -1.5397,5.6305 -7.3586,8.9499 -12.989,7.4141 -5.6305,-1.5397 -8.9515,-7.3577 -7.4141,-12.989 1.5397,-5.6305 7.3577,-8.9515 12.989,-7.4141 5.629,1.5406 8.9515,7.3577 7.4141,12.989 z"
         id="path1193"
         inkscape:connector-curvature="0"
         style="opacity:0.7;fill:#330099" />
    </g>
  </g>
</svg>
