<?xml version="1.0" encoding="UTF-8" standalone="no"?>
<svg
   xmlns:dc="http://purl.org/dc/elements/1.1/"
   xmlns:cc="http://creativecommons.org/ns#"
   xmlns:rdf="http://www.w3.org/1999/02/22-rdf-syntax-ns#"
   xmlns:svg="http://www.w3.org/2000/svg"
   xmlns="http://www.w3.org/2000/svg"
   xmlns:sodipodi="http://sodipodi.sourceforge.net/DTD/sodipodi-0.dtd"
   xmlns:inkscape="http://www.inkscape.org/namespaces/inkscape"
   width="48"
   height="48"
   version="1.0"
   id="svg1197"
   sodipodi:docname="format-text-color.svg"
   inkscape:version="0.92.3 (2405546, 2018-03-11)">
  <metadata
     id="metadata1201">
    <rdf:RDF>
      <cc:Work
         rdf:about="">
        <dc:format>image/svg+xml</dc:format>
        <dc:type
           rdf:resource="http://purl.org/dc/dcmitype/StillImage" />
      </cc:Work>
    </rdf:RDF>
  </metadata>
  <sodipodi:namedview
     pagecolor="#ffffff"
     bordercolor="#666666"
     borderopacity="1"
     objecttolerance="10"
     gridtolerance="10"
     guidetolerance="10"
     inkscape:pageopacity="0"
     inkscape:pageshadow="2"
     inkscape:window-width="1280"
     inkscape:window-height="970"
     id="namedview1199"
     showgrid="false"
     inkscape:zoom="5.6568543"
     inkscape:cx="26.975477"
     inkscape:cy="-1.5959452"
     inkscape:window-x="0"
     inkscape:window-y="0"
     inkscape:window-maximized="1"
     inkscape:current-layer="svg1197" />
  <defs
     id="defs1165">
    <radialGradient
       id="a"
       cx="24.837"
       cy="36.421"
       r="15.645"
       gradientTransform="matrix(1 0 0 .53672 0 16.873)"
       gradientUnits="userSpaceOnUse">
      <stop
         offset="0"
         id="stop1140" />
      <stop
         stop-opacity="0"
         offset="1"
         id="stop1142" />
    </radialGradient>
    <linearGradient
       id="c"
       x1="24.912"
       x2="24.912"
       y1="22.136"
       y2="6.4029"
       gradientTransform="translate(-1,1)"
       gradientUnits="userSpaceOnUse">
      <stop
         stop-color="#fff"
         offset="0"
         id="stop1145" />
      <stop
         stop-color="#fff"
         stop-opacity="0"
         offset="1"
         id="stop1147" />
    </linearGradient>
    <linearGradient
       id="b"
       x1="19.892"
       x2="21.507"
       y1="16.115"
       y2="85.697"
       gradientTransform="translate(0,1)"
       gradientUnits="userSpaceOnUse">
      <stop
         stop-color="#fff"
         offset="0"
         id="stop1150" />
      <stop
         stop-color="#b3b3b3"
         stop-opacity="0"
         offset="1"
         id="stop1152" />
    </linearGradient>
    <linearGradient
       id="e"
       x1="29.033"
       x2="14.334"
       y1="36.445"
       y2="9.4597"
       gradientTransform="translate(0,1)"
       gradientUnits="userSpaceOnUse">
      <stop
         stop-color="#497fc6"
         offset="0"
         id="stop1155" />
      <stop
         stop-color="#90b3d9"
         offset="1"
         id="stop1157" />
    </linearGradient>
    <linearGradient
       id="d"
       x1="22.125"
       x2="22.125"
       y1="34.963"
       y2="6.25"
       gradientTransform="translate(0,4)"
       gradientUnits="userSpaceOnUse">
      <stop
         stop-color="#2a5387"
         offset="0"
         id="stop1160" />
      <stop
         stop-color="#3465a4"
         offset="1"
         id="stop1162" />
    </linearGradient>
  </defs>
  <g
     transform="translate(.40678 3.4237)"
     id="g1169">
    <path
       transform="matrix(1.4701 0 0 .53547 -12.764 20.915)"
       d="m40.482 36.421a15.645 8.3969 0 1 1-31.289 0 15.645 8.3969 0 1 1 31.289 0z"
       id="path1167"
       fill-rule="evenodd"
       fill="url(#a)"
       color="#000000"
       opacity=".15" />
  </g>
  <g
     transform="matrix(.91971 0 0 .91971 2.3336 6.2194)"
     id="g1177">
    <path
       d="m20 4.5-15 37h6l3.25-8h19.5l3.25 8h6l-15-37zm4 5 7.7188 19h-15.438z"
       id="path1171"
       stroke="url(#d)"
       fill-rule="evenodd"
       fill="url(#e)" />
    <path
       d="m10.5 40.5h-3.8537l14.037-35h6.6709l14.329 35h-3.8172l-3.4621-8.0309-20.88-0.10079s-3.0234 8.1317-3.0234 8.1317z"
       id="path1173"
       stroke="url(#b)"
       fill="none"
       opacity=".6" />
    <path
       d="m14.689 29.5h18.57l-9.2173-22.689z"
       id="path1175"
       stroke="url(#c)"
       fill="none"
       opacity=".46703" />
  </g>
  <g
     transform="matrix(.31562 0 0 .31562 3.9107 .53623)"
     id="g1195">
    <circle
       transform="matrix(-1.5323 .87462 -.87462 -1.5323 218.1 106.72)"
       cx="93.005"
       cy="70.773"
       r="5.992"
       id="circle1179"
       fill="#9f0"
       opacity=".7" />
    <path
       d="m126.25 82.909c-1.5389 5.6321-7.3568 8.953-12.99 7.415-5.6273-1.5376-8.9482-7.3555-7.4109-12.987 1.5389-5.6321 7.3568-8.953 12.987-7.4172 5.6323 1.5428 8.9508 7.3601 7.4141 12.989z"
       id="path1181"
       fill="#f00"
       opacity=".7" />
    <path
       d="m24.032 54.986c-1.5406 5.629-7.3562 8.9506-12.986 7.4124-5.6336-1.538-8.953-7.3568-7.4141-12.989 1.5382-5.6297 7.3546-8.9497 12.987-7.4133 5.6305 1.5397 8.9515 7.3577 7.4126 12.99z"
       id="path1183"
       fill="#0c0"
       opacity=".7" />
    <path
       d="m118.87 62.922c-5.6471 1.4885-11.429-1.8889-12.913-7.5362-1.483-5.6482 1.8928-11.429 7.5403-12.909 5.6495-1.4878 11.432 1.8871 12.912 7.541 1.4845 5.6473-1.8915 11.424-7.539 12.905z"
       id="path1185"
       fill="#c09"
       opacity=".7" />
    <path
       d="m35.099 36.03c-4.1484 4.1069-10.843 4.0766-14.951-0.07728-4.1093-4.1491-4.0764-10.839 0.06809-14.946 4.1519-4.115 10.846-4.0784 14.956 0.07071 4.1108 4.1482 4.0773 10.841-0.07246 14.952z"
       id="path1187"
       fill="#099"
       opacity=".7" />
    <path
       d="m110.02 36.394c-4.1523 4.1071-10.842 4.0781-14.953-0.07399-4.1075-4.146-4.0742-10.843 0.07881-14.952 4.1469-4.106 10.838-4.0755 14.945 0.0729 4.1165 4.151 4.0832 10.848-0.0701 14.953z"
       id="path1189"
       fill="#609"
       opacity=".7" />
    <circle
       transform="matrix(-1.5323 .87462 -.87462 -1.5323 218.1 106.72)"
       cx="56.226"
       cy="92.005"
       r="5.993"
       id="circle1191"
       fill="#03c"
       opacity=".7" />
    <path
       d="m89.105 17.842c-1.5397 5.6305-7.3586 8.9499-12.989 7.4141-5.6305-1.5397-8.9515-7.3577-7.4141-12.989 1.5397-5.6305 7.3577-8.9515 12.989-7.4141 5.629 1.5406 8.9515 7.3577 7.4141 12.989z"
       id="path1193"
       fill="#309"
       opacity=".7" />
  </g>
</svg>
