<svg width="48" height="48" version="1.0" xmlns="http://www.w3.org/2000/svg" xmlns:xlink="http://www.w3.org/1999/xlink">
 <defs>
  <linearGradient id="b" x1="6.2186" x2="6.2186" y1="4.0344" y2="9.6829" gradientTransform="matrix(2.0835 0 0 1.9032 -.79438 15.548)" gradientUnits="userSpaceOnUse">
   <stop stop-color="#eeeeec" offset="0"/>
   <stop stop-color="#fff" offset="1"/>
  </linearGradient>
  <radialGradient id="a" cx="7.2188" cy="18" r="7.2188" gradientTransform="matrix(1 0 0 .55411 0 8.026)" gradientUnits="userSpaceOnUse">
   <stop offset="0"/>
   <stop stop-opacity="0" offset="1"/>
  </radialGradient>
 </defs>
 <g opacity=".7">
  <g transform="translate(-6,-15)" opacity=".6">
   <path transform="matrix(2.0307 0 0 2.0614 5 1.5461)" d="m14.438 18a7.2188 4 0 1 1-14.438 0 7.2188 4 0 1 1 14.438 0z" fill="url(#a)" opacity=".15"/>
   <path d="m11.837 16.5c-2.9588 0-5.3391 2.174-5.3391 4.877v11.181c0 2.703 2.3803 4.877 5.3391 4.877h5.078l13.543 8.565-2.669-8.862c2.119-0.646 3.711-2.421 3.711-4.58v-11.181c0-2.703-2.445-4.877-5.404-4.877h-14.259z" fill="url(#b)" fill-rule="evenodd" stroke="#888a85" stroke-width="1px"/>
   <path transform="matrix(1.0042 0 0 1 -.1275 0)" d="m11.938 17.5c-2.4547 0-4.3442 1.764-4.3442 3.875v11.187c0 2.112 1.8895 3.876 4.3442 3.876h5.031c0.188 1e-3 0.372 0.055 0.531 0.156l11.219 7.125-1.875-6.313c-0.077-0.257-0.048-0.534 0.081-0.769 0.13-0.235 0.348-0.408 0.606-0.481 1.758-0.538 2.969-1.922 2.969-3.594v-11.187c0-2.103-1.921-3.875-4.375-3.875h-14.187z" fill="none" stroke="#fff" stroke-width=".99792px"/>
   <path d="m19.938 30.098h-1.816v-1.114c0-0.487 0.089-0.888 0.267-1.202 0.177-0.313 0.551-0.677 1.122-1.092l0.855-0.644c0.362-0.256 0.621-0.497 0.78-0.724 0.165-0.227 0.247-0.459 0.247-0.695 0-0.429-0.209-0.777-0.627-1.042-0.412-0.265-0.961-0.398-1.645-0.398-0.501 0-1.037 0.084-1.607 0.253-0.564 0.169-1.154 0.415-1.769 0.738v-1.36c0.596-0.275 1.198-0.48 1.807-0.615 0.615-0.135 1.249-0.203 1.902-0.203 1.166 0 2.101 0.234 2.804 0.702 0.71 0.468 1.065 1.086 1.065 1.853 0 0.366-0.114 0.716-0.342 1.049-0.228 0.328-0.628 0.7-1.198 1.115l-0.837 0.622c-0.298 0.227-0.51 0.405-0.637 0.536-0.12 0.125-0.206 0.248-0.257 0.369-0.038 0.101-0.066 0.224-0.085 0.369-0.019 0.144-0.029 0.342-0.029 0.593v0.89" fill="#729fcf" opacity="1"/>
   <path d="m18.065 31.162h1.93v1.838h-1.93v-1.838" fill="#729fcf" opacity="1"/>
  </g>
  <g transform="translate(16,-12)">
   <path transform="matrix(2.0307 0 0 2.0614 5 1.5461)" d="m14.438 18a7.2188 4 0 1 1-14.438 0 7.2188 4 0 1 1 14.438 0z" fill="url(#a)" opacity=".15"/>
   <path d="m11.837 16.5c-2.9588 0-5.3391 2.174-5.3391 4.877v11.181c0 2.703 2.3803 4.877 5.3391 4.877h5.078l13.543 8.565-2.669-8.862c2.119-0.646 3.711-2.421 3.711-4.58v-11.181c0-2.703-2.445-4.877-5.404-4.877h-14.259z" fill="url(#b)" fill-rule="evenodd" stroke="#888a85" stroke-width="1px"/>
   <path transform="matrix(1.0042 0 0 1 -.1275 0)" d="m11.938 17.5c-2.4547 0-4.3442 1.764-4.3442 3.875v11.187c0 2.112 1.8895 3.876 4.3442 3.876h5.031c0.188 1e-3 0.372 0.055 0.531 0.156l11.219 7.125-1.875-6.313c-0.077-0.257-0.048-0.534 0.081-0.769 0.13-0.235 0.348-0.408 0.606-0.481 1.758-0.538 2.969-1.922 2.969-3.594v-11.187c0-2.103-1.921-3.875-4.375-3.875h-14.187z" fill="none" stroke="#fff" stroke-width=".99792px"/>
   <path d="m19.938 30.098h-1.816v-1.114c0-0.487 0.089-0.888 0.267-1.202 0.177-0.313 0.551-0.677 1.122-1.092l0.855-0.644c0.362-0.256 0.621-0.497 0.78-0.724 0.165-0.227 0.247-0.459 0.247-0.695 0-0.429-0.209-0.777-0.627-1.042-0.412-0.265-0.961-0.398-1.645-0.398-0.501 0-1.037 0.084-1.607 0.253-0.564 0.169-1.154 0.415-1.769 0.738v-1.36c0.596-0.275 1.198-0.48 1.807-0.615 0.615-0.135 1.249-0.203 1.902-0.203 1.166 0 2.101 0.234 2.804 0.702 0.71 0.468 1.065 1.086 1.065 1.853 0 0.366-0.114 0.716-0.342 1.049-0.228 0.328-0.628 0.7-1.198 1.115l-0.837 0.622c-0.298 0.227-0.51 0.405-0.637 0.536-0.12 0.125-0.206 0.248-0.257 0.369-0.038 0.101-0.066 0.224-0.085 0.369-0.019 0.144-0.029 0.342-0.029 0.593v0.89" fill="#729fcf" opacity="1"/>
   <path d="m18.065 31.162h1.93v1.838h-1.93v-1.838" fill="#729fcf" opacity="1"/>
  </g>
 </g>
 <path transform="matrix(2.0307 0 0 2.0614 5 1.5461)" d="m14.438 18a7.2188 4 0 1 1-14.438 0 7.2188 4 0 1 1 14.438 0z" fill="url(#a)" opacity=".15"/>
 <path d="m11.837 16.5c-2.9588 0-5.3391 2.174-5.3391 4.877v11.181c0 2.703 2.3803 4.877 5.3391 4.877h5.078l13.543 8.565-2.669-8.862c2.119-0.646 3.711-2.421 3.711-4.58v-11.181c0-2.703-2.445-4.877-5.404-4.877h-14.259z" fill="url(#b)" fill-rule="evenodd" stroke="#888a85" stroke-width="1px"/>
 <path transform="matrix(1.0042 0 0 1 -.1275 0)" d="m11.938 17.5c-2.4547 0-4.3442 1.764-4.3442 3.875v11.187c0 2.112 1.8895 3.876 4.3442 3.876h5.031c0.188 1e-3 0.372 0.055 0.531 0.156l11.219 7.125-1.875-6.313c-0.077-0.257-0.048-0.534 0.081-0.769 0.13-0.235 0.348-0.408 0.606-0.481 1.758-0.538 2.969-1.922 2.969-3.594v-11.187c0-2.103-1.921-3.875-4.375-3.875h-14.187z" fill="none" stroke="#fff" stroke-width=".99792px"/>
 <path d="m19.938 30.098h-1.816v-1.114c0-0.487 0.089-0.888 0.267-1.202 0.177-0.313 0.551-0.677 1.122-1.092l0.855-0.644c0.362-0.256 0.621-0.497 0.78-0.724 0.165-0.227 0.247-0.459 0.247-0.695 0-0.429-0.209-0.777-0.627-1.042-0.412-0.265-0.961-0.398-1.645-0.398-0.501 0-1.037 0.084-1.607 0.253-0.564 0.169-1.154 0.415-1.769 0.738v-1.36c0.596-0.275 1.198-0.48 1.807-0.615 0.615-0.135 1.249-0.203 1.902-0.203 1.166 0 2.101 0.234 2.804 0.702 0.71 0.468 1.065 1.086 1.065 1.853 0 0.366-0.114 0.716-0.342 1.049-0.228 0.328-0.628 0.7-1.198 1.115l-0.837 0.622c-0.298 0.227-0.51 0.405-0.637 0.536-0.12 0.125-0.206 0.248-0.257 0.369-0.038 0.101-0.066 0.224-0.085 0.369-0.019 0.144-0.029 0.342-0.029 0.593v0.89" fill="#729fcf"/>
 <path d="m18.065 31.162h1.93v1.838h-1.93v-1.838" fill="#729fcf"/>
</svg>
