<?xml version="1.0" encoding="UTF-8" standalone="no"?>
<svg
   xmlns:dc="http://purl.org/dc/elements/1.1/"
   xmlns:cc="http://creativecommons.org/ns#"
   xmlns:rdf="http://www.w3.org/1999/02/22-rdf-syntax-ns#"
   xmlns:svg="http://www.w3.org/2000/svg"
   xmlns="http://www.w3.org/2000/svg"
   xmlns:xlink="http://www.w3.org/1999/xlink"
   xmlns:sodipodi="http://sodipodi.sourceforge.net/DTD/sodipodi-0.dtd"
   xmlns:inkscape="http://www.inkscape.org/namespaces/inkscape"
   width="122"
   height="135.49"
   version="1.0"
   viewBox="0 0 122 135.49"
   xml:space="preserve"
   id="svg49"
   sodipodi:docname="show-frozen.svg"
   inkscape:version="0.92.3 (2405546, 2018-03-11)"><metadata
   id="metadata53"><rdf:RDF><cc:Work
       rdf:about=""><dc:format>image/svg+xml</dc:format><dc:type
         rdf:resource="http://purl.org/dc/dcmitype/StillImage" /><dc:title></dc:title></cc:Work></rdf:RDF></metadata><sodipodi:namedview
   pagecolor="#ffffff"
   bordercolor="#666666"
   borderopacity="1"
   objecttolerance="10"
   gridtolerance="10"
   guidetolerance="10"
   inkscape:pageopacity="0"
   inkscape:pageshadow="2"
   inkscape:window-width="1280"
   inkscape:window-height="956"
   id="namedview51"
   showgrid="false"
   inkscape:zoom="1.7418259"
   inkscape:cx="-1.578011"
   inkscape:cy="76.356656"
   inkscape:window-x="0"
   inkscape:window-y="0"
   inkscape:window-maximized="1"
   inkscape:current-layer="svg49" /><defs
   id="defs9"><pattern
     id="b"
     xlink:href="#d"
     patternTransform="matrix(1.2175 .92713 -.64868 .85186 0 0)" /><pattern
     id="d"
     width="6"
     height="1"
     patternTransform="translate(0) scale(10)"
     patternUnits="userSpaceOnUse"><rect
       y="-.5"
       width="1"
       height="2"
       id="rect3" /></pattern><filter
     id="c"
     x="-.12663"
     y="-.11403"
     width="1.2533"
     height="1.2281"
     color-interpolation-filters="sRGB"><feGaussianBlur
       stdDeviation="6.43725"
       id="feGaussianBlur6" /></filter></defs>
	
		<g
   transform="matrix(.75847 0 0 .75847 16.354 16.116)"
   fill="#808080"
   filter="url(#c)"
   id="g27"><path
     d="m44.997 72.365 8.003-4.62-8.003-4.621-6.988 3.879-1.335 0.742 1.335 0.741s4.347 2.413 6.988 3.879zm-0.01-8.092 6.013 3.472-6.013 3.471-6.254-3.471c0.981-0.545 4.877-2.707 6.254-3.472z"
     id="path11" /><path
     d="m73.002 79.294-8.003-4.621v9.241l6.854 4.111 1.308 0.785-0.022-1.525c-2e-3 0-0.086-4.973-0.137-7.991zm-7.003 4.055v-6.942l6.013 3.472 0.12 7.15z"
     id="path13" /><path
     d="m65 60.816 8.003-4.62 0.136-7.992 0.023-1.525-1.311 0.784s-4.264 2.559-6.853 4.112zm1-8.673 6.133-3.682c-0.02 1.124-0.094 5.577-0.119 7.152l-6.014 3.471z"
     id="path15" /><path
     d="m77.002 63.124-8.003 4.621 8.003 4.62 6.986-3.879 1.335-0.741-1.335-0.742c2e-3 0-4.345-2.413-6.986-3.879zm0.01 8.092-6.012-3.471 6.014-3.472 6.254 3.471z"
     id="path17" /><path
     d="m121.6 97.057-4.555-6.095-0.285-0.383-0.479-0.018-6.162-0.229-9.323-5.384 6.73-3.736 2.187-1.212 0.874-0.484-0.484-0.874-1.213-2.187-1.455-2.623-1.215-2.188-0.484-0.874-0.874 0.484-2.187 1.215-11.976 6.65-3.593-2.073 1.246-0.69 2.188-1.214 0.874-0.485-0.485-0.874-1.213-2.186c2e-3 0-1.453-2.624-1.453-2.624-2e-3 0-0.401-0.722-0.684-1.229l0.682-1.227c0-1e-3 1.455-2.625 1.455-2.625l1.215-2.187 0.484-0.875-0.874-0.484-2.187-1.213-1.248-0.692 3.594-2.075 14.164 7.863 0.874 0.484 0.484-0.875 1.215-2.186 1.455-2.625 1.213-2.186 0.484-0.875-0.873-0.485-2.187-1.213-6.729-3.736 9.321-5.382 6.16-0.229 0.478-0.018 0.286-0.383 4.556-6.093 0.394-0.525-0.329-0.571-4-6.928-0.33-0.571-0.653 0.078-7.556 0.897-0.475 0.057-0.255 0.405-3.274 5.222-9.323 5.382 0.131-7.696 0.041-2.499 0.018-1-1-0.018-2.499-0.042-3-0.051-2.5-0.042-1-0.018-0.017 1-0.043 2.5-0.229 13.696-3.592 2.073 0.023-1.425 0.043-2.499 0.018-1-0.999-0.017-2.5-0.043c-1e-3 0-3.001-0.051-3.001-0.051l-1.404-0.024-0.722-1.202-1.544-2.573-1.285-2.145-0.514-0.857-0.858 0.515-2.146 1.287-1.224 0.734v-4.148l11.746-7.047 2.143-1.281 0.856-0.514-0.515-0.857-1.285-2.144-1.545-2.573-1.286-2.143-0.515-0.856-0.857 0.515-2.144 1.285-6.6 3.96v-10.766l2.884-5.45 0.224-0.423-0.188-0.438-3-6.99-0.26-0.606h-9.318l-0.26 0.605-3 6.99-0.188 0.438 0.224 0.423 2.884 5.45v10.764l-6.602-3.96-2.143-1.286-0.857-0.515-0.515 0.857-1.287 2.143-1.544 2.572-1.287 2.144-0.515 0.858 0.858 0.514 2.144 1.286s9.48 5.689 11.745 7.048v4.147l-1.222-0.733-2.143-1.286-0.857-0.515-0.515 0.857-1.287 2.143-1.544 2.572-0.723 1.205-1.404 0.022-2.999 0.05-2.5 0.042-1 0.018 0.017 1 0.042 2.5s0.012 0.688 0.024 1.427l-3.593-2.074-0.229-13.695-0.042-2.5-0.017-1-1 0.017-2.5 0.042-3 0.051-2.5 0.042-1 0.018 0.017 1 0.042 2.499 0.129 7.696-9.321-5.381-3.277-5.223-0.254-0.405-0.475-0.057-7.554-0.897-0.654-0.079-0.33 0.571-4 6.928-0.33 0.572 0.395 0.528 4.554 6.093 0.286 0.383 0.478 0.019 6.161 0.228 9.322 5.382-6.73 3.737-2.186 1.212-0.874 0.485 0.485 0.875 1.213 2.186 1.456 2.624 1.213 2.186 0.485 0.875 0.875-0.484 2.186-1.214 11.976-6.648 3.591 2.074-1.246 0.691-2.186 1.213-0.874 0.484 0.485 0.875 1.213 2.187 1.456 2.623c0-1e-3 0.401 0.722 0.682 1.229l-0.682 1.228-1.457 2.623-1.213 2.186-0.486 0.874 0.875 0.485 2.187 1.214 1.248 0.692-3.593 2.073-11.976-6.646-2.186-1.214-0.875-0.486-0.485 0.875-1.213 2.188-1.456 2.623-1.213 2.187-0.485 0.875 0.875 0.483 2.186 1.214 6.73 3.735-9.322 5.384-6.159 0.228-0.478 0.018-0.288 0.375-4.554 6.095-0.395 0.527 0.33 0.57 4 6.928 0.33 0.57 0.655-0.077 7.554-0.896 0.475-0.058 0.254-0.405 3.277-5.221 9.321-5.382-0.129 7.696-0.042 2.499-0.017 1 1 0.017 2.5 0.042 3 0.052 2.5 0.042 1 0.018 0.017-1 0.042-2.5 0.23-13.695 3.592-2.074-0.024 1.427-0.042 2.499-0.017 0.998 1 0.019 2.5 0.043 3 0.051 1.405 0.023 0.721 1.204c0 1e-3 1.543 2.572 1.543 2.572l1.286 2.145 0.514 0.856 0.857-0.515 2.145-1.286 1.223-0.733v4.146l-11.746 7.047-2.144 1.287-0.857 0.515 0.515 0.857 1.287 2.146 1.544 2.571 1.287 2.144 0.515 0.856 0.857-0.515 2.143-1.286 6.6-3.959v10.764l-2.884 5.448-0.224 0.423 0.188 0.439 3 6.99 0.26 0.604h9.318l0.26-0.604 3-6.99 0.189-0.439-0.225-0.423-2.884-5.448v-10.766l6.601 3.959 2.144 1.286 0.856 0.515 0.516-0.856 1.287-2.144 1.544-2.572 1.286-2.145 0.515-0.857-0.856-0.515-2.146-1.287-11.746-7.047v-4.146l1.222 0.732 2.145 1.285 0.857 0.514 0.514-0.855 1.287-2.144 1.545-2.571 0.723-1.205 1.404-0.023 2.998-0.05 2.5-0.042 1-0.017-0.016-1-0.043-2.5s-0.012-0.689-0.023-1.428l3.593 2.074 0.229 13.695 0.041 2.5 0.018 1 1-0.018 2.5-0.042c1e-3 0 3.001-0.052 3.001-0.052-1e-3 0 2.498-0.042 2.498-0.042l1-0.017-0.017-1-0.043-2.499-0.129-7.697 9.322 5.383 3.275 5.221 0.254 0.405 0.475 0.058 7.555 0.896 0.654 0.077 0.33-0.57 4-6.928 0.329-0.57zm-26.83-5.195 0.16 9.463 0.041 2.499-2.498 0.042-3 0.052-2.5 0.042-0.043-2.5s-0.162-9.738-0.237-14.262l-5.614-3.241 0.057 3.193 0.041 2.5-2.5 0.042-2.998 0.05-1.959 0.032-1.01 1.682-1.544 2.572-1.287 2.143-2.144-1.284-2.737-1.644v6.479l12.231 7.338 2.145 1.287-1.286 2.145-1.544 2.572-1.287 2.143-2.144-1.286-8.115-4.867v19.438h-8v-19.438l-8.115 4.867-2.143 1.286-1.287-2.143-1.544-2.572-1.287-2.145 2.144-1.287s8.352-5.012 12.231-7.338v-6.48l-2.738 1.645-2.144 1.285-1.286-2.144-1.543-2.572-1.007-1.681-1.96-0.033-3-0.051-2.5-0.043 0.042-2.499 0.053-3.191-5.612 3.24-0.24 14.262-0.042 2.5-2.5-0.042-3-0.052-2.5-0.042 0.042-2.499 0.159-9.463-16.833 9.719-4-6.928 16.832-9.72-8.274-4.595-2.186-1.213 1.213-2.186 1.456-2.623 1.213-2.188 2.186 1.215s8.516 4.729 12.471 6.923l5.613-3.239-2.792-1.551-2.187-1.214 2.67-4.81 0.951-1.712-0.951-1.714-1.456-2.623-1.213-2.186 2.186-1.214 2.791-1.549-5.612-3.24-12.471 6.926-2.186 1.214-1.213-2.187-1.456-2.624-1.213-2.186 2.186-1.213 8.274-4.595-16.833-9.715 4-6.928 16.833 9.719-0.159-9.463-0.042-2.499 2.5-0.042 3-0.051 2.5-0.042 0.042 2.5s0.163 9.739 0.239 14.262l5.613 3.241-0.054-3.193-0.042-2.5 2.5-0.042 2.999-0.05 1.959-0.032 1.009-1.681 1.544-2.572 1.287-2.143 2.143 1.286 2.737 1.642v-6.479l-12.231-7.339-2.144-1.286 1.287-2.145 1.544-2.572 1.287-2.143 2.143 1.286 8.115 4.869v-19.437h8v19.439l8.115-4.869 2.144-1.286 1.287 2.144 1.544 2.571 1.285 2.145-2.144 1.286s-8.353 5.011-12.231 7.338v6.48l2.737-1.643 2.146-1.287 1.285 2.144 1.544 2.572 1.007 1.68 1.961 0.033 3 0.051 2.5 0.043-0.043 2.499-0.055 3.191 5.611-3.24 0.238-14.262 0.043-2.5 2.5 0.042 3 0.051 2.498 0.042-0.041 2.499-0.16 9.463 16.834-9.719 4 6.928-16.834 9.719 8.274 4.594 2.187 1.213-1.213 2.186-1.455 2.624-1.215 2.187-2.187-1.214s-8.517-4.728-12.472-6.923l-5.613 3.24 2.793 1.551 2.188 1.213-1.215 2.186-1.455 2.623-0.951 1.712 0.951 1.714 1.455 2.624 1.213 2.187-2.187 1.214-2.79 1.549 5.611 3.239 12.471-6.924 2.188-1.215 1.213 2.188 1.455 2.623 1.213 2.186-2.186 1.213-8.271 4.594 16.834 9.72-4 6.928"
     id="path19" /><path
     d="m48.997 56.195 8.003 4.621v-9.241l-6.854-4.112-1.308-0.784 0.025 1.525s0.083 4.973 0.134 7.991zm7.003-4.052v6.941l-6.012-3.472-0.12-7.15z"
     id="path21" /><path
     d="m56.999 74.673-8.003 4.62-0.134 7.992-0.026 1.525 1.31-0.785s4.264-2.559 6.853-4.111zm-1 8.676-6.132 3.68 0.12-7.151 6.012-3.471z"
     id="path23" /><polygon
     points="62.5 46.662 62.5 34.351 75.945 26.284 74.402 23.712 62.5 30.853 62.5 16.5 59.5 16.5 59.5 30.853 47.598 23.712 46.055 26.284 59.5 34.351 59.5 46.662 52.976 42.748 51.433 45.32 59.5 50.16 59.5 65.266 46.42 57.712 46.261 48.307 43.261 48.356 43.389 55.963 32.728 49.809 32.464 34.129 29.464 34.181 29.698 48.059 17.269 40.882 15.769 43.48 28.199 50.656 16.063 57.395 17.519 60.018 31.229 52.405 41.89 58.562 35.238 62.253 36.694 64.876 44.92 60.312 58 67.862 44.92 75.414 36.693 70.849 35.237 73.472 41.89 77.164 31.228 83.319 17.519 75.708 16.063 78.331 28.199 85.068 15.769 92.245 17.269 94.844 29.698 87.667 29.464 101.54 32.464 101.6 32.728 85.917 43.389 79.763 43.261 87.368 46.261 87.419 46.42 78.014 59.5 70.46 59.5 85.564 51.433 90.404 52.976 92.978 59.5 89.062 59.5 101.37 46.054 109.44 47.598 112.02 59.5 104.87 59.5 119.23 62.5 119.23 62.5 104.87 74.402 112.02 75.945 109.44 62.5 101.37 62.5 89.062 69.023 92.978 70.566 90.404 62.5 85.564 62.5 70.46 75.581 78.014 75.738 87.42 78.738 87.369 78.609 79.763 89.271 85.918 89.535 101.6 92.535 101.54 92.301 87.667 104.73 94.844 106.23 92.245 93.801 85.069 105.94 78.331 104.48 75.708 90.771 83.319 80.109 77.164 86.76 73.473 85.305 70.85 77.08 75.414 64 67.862 77.08 60.311 85.307 64.876 86.762 62.253 80.109 58.562 90.771 52.406 104.48 60.018 105.94 57.395 93.801 50.656 106.23 43.48 104.73 40.882 92.301 48.059 92.535 34.181 89.535 34.129 89.271 49.809 78.609 55.963 78.738 48.356 75.738 48.307 75.581 57.712 62.5 65.266 62.5 50.16 70.566 45.32 69.023 42.748"
     id="polygon25" /></g><g
   transform="matrix(.75847 0 0 .75847 16.354 16.116)"
   fill="#3566a4"
   id="g45">
			<path
   d="m44.997 72.365 8.003-4.62-8.003-4.621-6.988 3.879-1.335 0.742 1.335 0.741s4.347 2.413 6.988 3.879zm-0.01-8.092 6.013 3.472-6.013 3.471-6.254-3.471c0.981-0.545 4.877-2.707 6.254-3.472z"
   id="path29" />
			<path
   d="m73.002 79.294-8.003-4.621v9.241l6.854 4.111 1.308 0.785-0.022-1.525c-2e-3 0-0.086-4.973-0.137-7.991zm-7.003 4.055v-6.942l6.013 3.472 0.12 7.15z"
   id="path31" />
			<path
   d="m65 60.816 8.003-4.62 0.136-7.992 0.023-1.525-1.311 0.784s-4.264 2.559-6.853 4.112zm1-8.673 6.133-3.682c-0.02 1.124-0.094 5.577-0.119 7.152l-6.014 3.471z"
   id="path33" />
			<path
   d="m77.002 63.124-8.003 4.621 8.003 4.62 6.986-3.879 1.335-0.741-1.335-0.742c2e-3 0-4.345-2.413-6.986-3.879zm0.01 8.092-6.012-3.471 6.014-3.472 6.254 3.471z"
   id="path35" />
			<path
   d="m121.6 97.057-4.555-6.095-0.285-0.383-0.479-0.018-6.162-0.229-9.323-5.384 6.73-3.736 2.187-1.212 0.874-0.484-0.484-0.874-1.213-2.187-1.455-2.623-1.215-2.188-0.484-0.874-0.874 0.484-2.187 1.215-11.976 6.65-3.593-2.073 1.246-0.69 2.188-1.214 0.874-0.485-0.485-0.874-1.213-2.186c2e-3 0-1.453-2.624-1.453-2.624-2e-3 0-0.401-0.722-0.684-1.229l0.682-1.227c0-1e-3 1.455-2.625 1.455-2.625l1.215-2.187 0.484-0.875-0.874-0.484-2.187-1.213-1.248-0.692 3.594-2.075 14.164 7.863 0.874 0.484 0.484-0.875 1.215-2.186 1.455-2.625 1.213-2.186 0.484-0.875-0.873-0.485-2.187-1.213-6.729-3.736 9.321-5.382 6.16-0.229 0.478-0.018 0.286-0.383 4.556-6.093 0.394-0.525-0.329-0.571-4-6.928-0.33-0.571-0.653 0.078-7.556 0.897-0.475 0.057-0.255 0.405-3.274 5.222-9.323 5.382 0.131-7.696 0.041-2.499 0.018-1-1-0.018-2.499-0.042-3-0.051-2.5-0.042-1-0.018-0.017 1-0.043 2.5-0.229 13.696-3.592 2.073 0.023-1.425 0.043-2.499 0.018-1-0.999-0.017-2.5-0.043c-1e-3 0-3.001-0.051-3.001-0.051l-1.404-0.024-0.722-1.202-1.544-2.573-1.285-2.145-0.514-0.857-0.858 0.515-2.146 1.287-1.224 0.734v-4.148l11.746-7.047 2.143-1.281 0.856-0.514-0.515-0.857-1.285-2.144-1.545-2.573-1.286-2.143-0.515-0.856-0.857 0.515-2.144 1.285-6.6 3.96v-10.766l2.884-5.45 0.224-0.423-0.188-0.438-3-6.99-0.26-0.606h-9.318l-0.26 0.605-3 6.99-0.188 0.438 0.224 0.423 2.884 5.45v10.764l-6.602-3.96-2.143-1.286-0.857-0.515-0.515 0.857-1.287 2.143-1.544 2.572-1.287 2.144-0.515 0.858 0.858 0.514 2.144 1.286s9.48 5.689 11.745 7.048v4.147l-1.222-0.733-2.143-1.286-0.857-0.515-0.515 0.857-1.287 2.143-1.544 2.572-0.723 1.205-1.404 0.022-2.999 0.05-2.5 0.042-1 0.018 0.017 1 0.042 2.5s0.012 0.688 0.024 1.427l-3.593-2.074-0.229-13.695-0.042-2.5-0.017-1-1 0.017-2.5 0.042-3 0.051-2.5 0.042-1 0.018 0.017 1 0.042 2.499 0.129 7.696-9.321-5.381-3.277-5.223-0.254-0.405-0.475-0.057-7.554-0.897-0.654-0.079-0.33 0.571-4 6.928-0.33 0.572 0.395 0.528 4.554 6.093 0.286 0.383 0.478 0.019 6.161 0.228 9.322 5.382-6.73 3.737-2.186 1.212-0.874 0.485 0.485 0.875 1.213 2.186 1.456 2.624 1.213 2.186 0.485 0.875 0.875-0.484 2.186-1.214 11.976-6.648 3.591 2.074-1.246 0.691-2.186 1.213-0.874 0.484 0.485 0.875 1.213 2.187 1.456 2.623c0-1e-3 0.401 0.722 0.682 1.229l-0.682 1.228-1.457 2.623-1.213 2.186-0.486 0.874 0.875 0.485 2.187 1.214 1.248 0.692-3.593 2.073-11.976-6.646-2.186-1.214-0.875-0.486-0.485 0.875-1.213 2.188-1.456 2.623-1.213 2.187-0.485 0.875 0.875 0.483 2.186 1.214 6.73 3.735-9.322 5.384-6.159 0.228-0.478 0.018-0.288 0.375-4.554 6.095-0.395 0.527 0.33 0.57 4 6.928 0.33 0.57 0.655-0.077 7.554-0.896 0.475-0.058 0.254-0.405 3.277-5.221 9.321-5.382-0.129 7.696-0.042 2.499-0.017 1 1 0.017 2.5 0.042 3 0.052 2.5 0.042 1 0.018 0.017-1 0.042-2.5 0.23-13.695 3.592-2.074-0.024 1.427-0.042 2.499-0.017 0.998 1 0.019 2.5 0.043 3 0.051 1.405 0.023 0.721 1.204c0 1e-3 1.543 2.572 1.543 2.572l1.286 2.145 0.514 0.856 0.857-0.515 2.145-1.286 1.223-0.733v4.146l-11.746 7.047-2.144 1.287-0.857 0.515 0.515 0.857 1.287 2.146 1.544 2.571 1.287 2.144 0.515 0.856 0.857-0.515 2.143-1.286 6.6-3.959v10.764l-2.884 5.448-0.224 0.423 0.188 0.439 3 6.99 0.26 0.604h9.318l0.26-0.604 3-6.99 0.189-0.439-0.225-0.423-2.884-5.448v-10.766l6.601 3.959 2.144 1.286 0.856 0.515 0.516-0.856 1.287-2.144 1.544-2.572 1.286-2.145 0.515-0.857-0.856-0.515-2.146-1.287-11.746-7.047v-4.146l1.222 0.732 2.145 1.285 0.857 0.514 0.514-0.855 1.287-2.144 1.545-2.571 0.723-1.205 1.404-0.023 2.998-0.05 2.5-0.042 1-0.017-0.016-1-0.043-2.5s-0.012-0.689-0.023-1.428l3.593 2.074 0.229 13.695 0.041 2.5 0.018 1 1-0.018 2.5-0.042c1e-3 0 3.001-0.052 3.001-0.052-1e-3 0 2.498-0.042 2.498-0.042l1-0.017-0.017-1-0.043-2.499-0.129-7.697 9.322 5.383 3.275 5.221 0.254 0.405 0.475 0.058 7.555 0.896 0.654 0.077 0.33-0.57 4-6.928 0.329-0.57zm-26.83-5.195 0.16 9.463 0.041 2.499-2.498 0.042-3 0.052-2.5 0.042-0.043-2.5s-0.162-9.738-0.237-14.262l-5.614-3.241 0.057 3.193 0.041 2.5-2.5 0.042-2.998 0.05-1.959 0.032-1.01 1.682-1.544 2.572-1.287 2.143-2.144-1.284-2.737-1.644v6.479l12.231 7.338 2.145 1.287-1.286 2.145-1.544 2.572-1.287 2.143-2.144-1.286-8.115-4.867v19.438h-8v-19.438l-8.115 4.867-2.143 1.286-1.287-2.143-1.544-2.572-1.287-2.145 2.144-1.287s8.352-5.012 12.231-7.338v-6.48l-2.738 1.645-2.144 1.285-1.286-2.144-1.543-2.572-1.007-1.681-1.96-0.033-3-0.051-2.5-0.043 0.042-2.499 0.053-3.191-5.612 3.24-0.24 14.262-0.042 2.5-2.5-0.042-3-0.052-2.5-0.042 0.042-2.499 0.159-9.463-16.833 9.719-4-6.928 16.832-9.72-8.274-4.595-2.186-1.213 1.213-2.186 1.456-2.623 1.213-2.188 2.186 1.215s8.516 4.729 12.471 6.923l5.613-3.239-2.792-1.551-2.187-1.214 2.67-4.81 0.951-1.712-0.951-1.714-1.456-2.623-1.213-2.186 2.186-1.214 2.791-1.549-5.612-3.24-12.471 6.926-2.186 1.214-1.213-2.187-1.456-2.624-1.213-2.186 2.186-1.213 8.274-4.595-16.833-9.715 4-6.928 16.833 9.719-0.159-9.463-0.042-2.499 2.5-0.042 3-0.051 2.5-0.042 0.042 2.5s0.163 9.739 0.239 14.262l5.613 3.241-0.054-3.193-0.042-2.5 2.5-0.042 2.999-0.05 1.959-0.032 1.009-1.681 1.544-2.572 1.287-2.143 2.143 1.286 2.737 1.642v-6.479l-12.231-7.339-2.144-1.286 1.287-2.145 1.544-2.572 1.287-2.143 2.143 1.286 8.115 4.869v-19.437h8v19.439l8.115-4.869 2.144-1.286 1.287 2.144 1.544 2.571 1.285 2.145-2.144 1.286s-8.353 5.011-12.231 7.338v6.48l2.737-1.643 2.146-1.287 1.285 2.144 1.544 2.572 1.007 1.68 1.961 0.033 3 0.051 2.5 0.043-0.043 2.499-0.055 3.191 5.611-3.24 0.238-14.262 0.043-2.5 2.5 0.042 3 0.051 2.498 0.042-0.041 2.499-0.16 9.463 16.834-9.719 4 6.928-16.834 9.719 8.274 4.594 2.187 1.213-1.213 2.186-1.455 2.624-1.215 2.187-2.187-1.214s-8.517-4.728-12.472-6.923l-5.613 3.24 2.793 1.551 2.188 1.213-1.215 2.186-1.455 2.623-0.951 1.712 0.951 1.714 1.455 2.624 1.213 2.187-2.187 1.214-2.79 1.549 5.611 3.239 12.471-6.924 2.188-1.215 1.213 2.188 1.455 2.623 1.213 2.186-2.186 1.213-8.271 4.594 16.834 9.72-4 6.928"
   id="path37" />
			<path
   d="m48.997 56.195 8.003 4.621v-9.241l-6.854-4.112-1.308-0.784 0.025 1.525s0.083 4.973 0.134 7.991zm7.003-4.052v6.941l-6.012-3.472-0.12-7.15z"
   id="path39" />
			<path
   d="m56.999 74.673-8.003 4.62-0.134 7.992-0.026 1.525 1.31-0.785s4.264-2.559 6.853-4.111zm-1 8.676-6.132 3.68 0.12-7.151 6.012-3.471z"
   id="path41" />
			<polygon
   points="104.73 40.882 92.301 48.059 92.535 34.181 89.535 34.129 89.271 49.809 78.609 55.963 78.738 48.356 75.738 48.307 75.581 57.712 62.5 65.266 62.5 50.16 70.566 45.32 69.023 42.748 62.5 46.662 62.5 34.351 75.945 26.284 74.402 23.712 62.5 30.853 62.5 16.5 59.5 16.5 59.5 30.853 47.598 23.712 46.055 26.284 59.5 34.351 59.5 46.662 52.976 42.748 51.433 45.32 59.5 50.16 59.5 65.266 46.42 57.712 46.261 48.307 43.261 48.356 43.389 55.963 32.728 49.809 32.464 34.129 29.464 34.181 29.698 48.059 17.269 40.882 15.769 43.48 28.199 50.656 16.063 57.395 17.519 60.018 31.229 52.405 41.89 58.562 35.238 62.253 36.694 64.876 44.92 60.312 58 67.862 44.92 75.414 36.693 70.849 35.237 73.472 41.89 77.164 31.228 83.319 17.519 75.708 16.063 78.331 28.199 85.068 15.769 92.245 17.269 94.844 29.698 87.667 29.464 101.54 32.464 101.6 32.728 85.917 43.389 79.763 43.261 87.368 46.261 87.419 46.42 78.014 59.5 70.46 59.5 85.564 51.433 90.404 52.976 92.978 59.5 89.062 59.5 101.37 46.054 109.44 47.598 112.02 59.5 104.87 59.5 119.23 62.5 119.23 62.5 104.87 74.402 112.02 75.945 109.44 62.5 101.37 62.5 89.062 69.023 92.978 70.566 90.404 62.5 85.564 62.5 70.46 75.581 78.014 75.738 87.42 78.738 87.369 78.609 79.763 89.271 85.918 89.535 101.6 92.535 101.54 92.301 87.667 104.73 94.844 106.23 92.245 93.801 85.069 105.94 78.331 104.48 75.708 90.771 83.319 80.109 77.164 86.76 73.473 85.305 70.85 77.08 75.414 64 67.862 77.08 60.311 85.307 64.876 86.762 62.253 80.109 58.562 90.771 52.406 104.48 60.018 105.94 57.395 93.801 50.656 106.23 43.48"
   id="polygon43" />
		</g>
	<path
   style="fill:#000000;stroke:#3566a4;stroke-width:3;stroke-linecap:butt;stroke-linejoin:miter;stroke-opacity:1;fill-opacity:1;stroke-miterlimit:4;stroke-dasharray:none"
   d="M 41.02403,0.30070785 0,47.651146"
   id="path1576"
   inkscape:connector-curvature="0" /><path
   style="fill:#000000;fill-opacity:1;stroke:#3566a4;stroke-width:3;stroke-linecap:butt;stroke-linejoin:miter;stroke-miterlimit:4;stroke-dasharray:none;stroke-opacity:1"
   d="M 121.55541,87.702158 80.531379,135.0526"
   id="path1576-3"
   inkscape:connector-curvature="0" /><path
   style="fill:#000000;fill-opacity:1;stroke:#3566a4;stroke-width:3;stroke-linecap:butt;stroke-linejoin:miter;stroke-miterlimit:4;stroke-dasharray:none;stroke-opacity:1"
   d="M 119.51358,1.422046 3.0302649,135.86853"
   id="path1576-3-6"
   inkscape:connector-curvature="0" /><path
   style="fill:#000000;fill-opacity:1;stroke:#3566a4;stroke-width:3;stroke-linecap:butt;stroke-linejoin:miter;stroke-miterlimit:4;stroke-dasharray:none;stroke-opacity:1"
   d="M 79.749266,1.5504598 0.99558856,92.448919"
   id="path1576-7"
   inkscape:connector-curvature="0" /><path
   style="fill:#000000;fill-opacity:1;stroke:#3566a4;stroke-width:3;stroke-linecap:butt;stroke-linejoin:miter;stroke-miterlimit:4;stroke-dasharray:none;stroke-opacity:1"
   d="M 123.4746,43.834291 44.720919,134.73275"
   id="path1576-7-6"
   inkscape:connector-curvature="0" /></svg>