<?xml version="1.0" standalone="no"?>
<!DOCTYPE svg PUBLIC "-//W3C//DTD SVG 20010904//EN"
 "http://www.w3.org/TR/2001/REC-SVG-20010904/DTD/svg10.dtd">
<svg version="1.0" xmlns="http://www.w3.org/2000/svg"
 width="521.000000pt" height="479.000000pt" viewBox="0 0 521.000000 479.000000"
 preserveAspectRatio="xMidYMid meet">

<g transform="translate(0.000000,479.000000) scale(0.100000,-0.100000)"
fill="#000000" stroke="none">
<path d="M2447 4684 c-28 -56 -31 -78 -7 -49 7 8 16 15 21 15 5 0 9 -351 9
-808 l0 -808 -442 -310 -443 -309 -730 -5 -730 -5 708 -3 c395 -1 707 -6 707
-11 0 -7 -205 -154 -611 -436 -456 -318 -797 -560 -794 -563 2 -3 93 58 202
135 109 77 275 193 368 258 94 65 260 182 370 259 318 223 427 299 471 329
l40 27 440 -2 439 -3 5 -1170 5 -1170 5 1170 5 1170 1123 3 c641 1 1122 -2
1122 -7 0 -5 -7 -14 -15 -21 -34 -28 -11 -27 46 3 34 17 55 33 47 36 -7 2 -35
15 -62 29 l-50 24 17 -26 17 -26 -1125 0 -1125 0 0 309 0 308 478 335 c796
559 1380 968 1509 1057 68 47 121 87 118 89 -4 5 -70 -41 -950 -658 -959 -672
-1142 -800 -1149 -800 -3 0 -6 360 -6 800 0 440 3 800 7 800 3 0 15 -7 25 -17
28 -26 27 -13 -7 49 l-31 58 -27 -56z m23 -1974 l0 -300 -432 0 c-266 0 -428
4 -423 9 20 19 839 591 847 591 4 0 8 -135 8 -300z"/>
<path d="M2594 4668 c4 -13 9 -44 12 -69 6 -41 4 -48 -17 -62 -26 -19 -20 -34
8 -19 20 11 108 160 100 169 -3 3 -19 -16 -35 -42 -32 -51 -36 -50 -47 8 -4
20 -12 37 -17 37 -6 0 -8 -10 -4 -22z"/>
<path d="M4665 4570 c-3 -5 -2 -10 4 -10 5 0 13 5 16 10 3 6 2 10 -4 10 -5 0
-13 -4 -16 -10z"/>
<path d="M4710 2625 c0 -3 7 -17 16 -30 15 -23 15 -26 -10 -56 -15 -17 -24
-34 -21 -38 4 -3 15 4 25 17 23 27 37 28 45 2 3 -11 11 -20 16 -20 12 0 11 6
-6 39 -13 27 -13 30 10 51 14 13 25 28 25 34 0 5 -13 -3 -30 -19 l-29 -28 -10
26 c-9 23 -31 38 -31 22z"/>
</g>
</svg>
