<?xml version="1.0" standalone="no"?>
<!DOCTYPE svg PUBLIC "-//W3C//DTD SVG 20010904//EN"
 "http://www.w3.org/TR/2001/REC-SVG-20010904/DTD/svg10.dtd">
<svg version="1.0" xmlns="http://www.w3.org/2000/svg"
 width="600.000000pt" height="600.000000pt" viewBox="0 0 600.000000 600.000000"
 preserveAspectRatio="xMidYMid meet">

<g transform="translate(0.000000,600.000000) scale(0.100000,-0.100000)"
fill="#000000" stroke="none">
<path d="M2960 5923 c-19 -41 -37 -80 -39 -86 -2 -5 13 2 33 18 l36 27 0
-1436 0 -1436 -1495 0 c-987 0 -1495 -3 -1495 -10 0 -7 502 -11 1470 -12
l1471 -3 -1471 -735 c-1242 -621 -1510 -760 -1465 -760 12 0 2952 1474 2968
1488 16 14 17 -57 17 -1481 0 -991 3 -1497 10 -1497 7 0 10 505 10 1495 l0
1495 1436 0 1436 0 -27 -36 c-16 -20 -23 -35 -18 -33 37 14 162 75 162 79 0 4
-125 65 -162 79 -5 2 2 -13 18 -33 l27 -36 -1413 1 -1414 0 1473 737 c1243
623 1512 762 1467 762 -12 0 -2952 -1474 -2967 -1488 -17 -14 -18 54 -18 1423
l0 1437 36 -27 c20 -16 35 -23 33 -18 -14 37 -75 162 -79 162 -3 0 -21 -34
-40 -76z"/>
<path d="M3144 5913 c3 -10 12 -47 20 -82 16 -71 11 -90 -33 -112 l-26 -13 24
-4 c13 -2 30 3 39 11 29 30 130 212 120 216 -12 4 -19 -4 -62 -76 l-29 -48 -9
40 c-16 78 -19 85 -34 85 -10 0 -13 -6 -10 -17z"/>
<path d="M5870 3249 l21 -40 -37 -42 c-26 -28 -33 -42 -24 -45 7 -3 26 9 42
27 15 17 30 31 33 31 2 0 11 -13 20 -30 9 -16 22 -30 30 -30 12 0 10 9 -7 45
l-22 45 39 40 c32 33 36 40 20 40 -11 0 -32 -14 -46 -32 l-27 -32 -16 32 c-9
18 -23 32 -31 32 -13 0 -12 -7 5 -41z"/>
</g>
</svg>
