<?xml version="1.0" encoding="UTF-8"?>
<!DOCTYPE svg PUBLIC "-//W3C//DTD SVG 1.1//EN" "http://www.w3.org/Graphics/SVG/1.1/DTD/svg11.dtd">
<svg xmlns="http://www.w3.org/2000/svg" version="1.1" width="527px" height="474px" style="shape-rendering:geometricPrecision; text-rendering:geometricPrecision; image-rendering:optimizeQuality; fill-rule:evenodd; clip-rule:evenodd" xmlns:xlink="http://www.w3.org/1999/xlink">
<g><path style="opacity:0.007" fill="#ececec" d="M 75.5,-0.5 C 75.8333,-0.5 76.1667,-0.5 76.5,-0.5C 77.0915,8.43403 76.4249,17.1007 74.5,25.5C 73.9569,25.44 73.6236,25.1067 73.5,24.5C 74.1669,16.1369 74.8335,7.80358 75.5,-0.5 Z"/></g>
<g><path style="opacity:0.004" fill="#fefffe" d="M 12.5,6.5 C 13.8333,7.16667 13.8333,7.16667 12.5,6.5 Z"/></g>
<g><path style="opacity:0.004" fill="#fefffe" d="M 61.5,7.5 C 62.8333,8.16667 62.8333,8.16667 61.5,7.5 Z"/></g>
<g><path style="opacity:0.004" fill="#fefffe" d="M 15.5,9.5 C 16.8333,10.1667 16.8333,10.1667 15.5,9.5 Z"/></g>
<g><path style="opacity:0.004" fill="#fefffe" d="M 409.5,10.5 C 410.833,11.1667 410.833,11.1667 409.5,10.5 Z"/></g>
<g><path style="opacity:0.004" fill="#fefffe" d="M 292.5,22.5 C 293.833,23.1667 293.833,23.1667 292.5,22.5 Z"/></g>
<g><path style="opacity:0.004" fill="#fefffe" d="M 349.5,22.5 C 350.833,23.1667 350.833,23.1667 349.5,22.5 Z"/></g>
<g><path style="opacity:0.004" fill="#fefffe" d="M 401.5,23.5 C 402.833,24.1667 402.833,24.1667 401.5,23.5 Z"/></g>
<g><path style="opacity:0.886" fill="#8a8a8a" d="M 71.5,23.5 C 72.8333,25.1667 72.8333,26.8333 71.5,28.5C 66.3769,27.042 66.3769,25.3753 71.5,23.5 Z"/></g>
<g><path style="opacity:0.004" fill="#fefffe" d="M 457.5,25.5 C 458.833,26.1667 458.833,26.1667 457.5,25.5 Z"/></g>
<g><path style="opacity:0.224" fill="#e5e5e5" d="M 71.5,23.5 C 66.3769,25.3753 66.3769,27.042 71.5,28.5C 69.1667,28.5 66.8333,28.5 64.5,28.5C 62.5946,26.951 62.2613,25.1176 63.5,23C 65.8907,22.7132 68.2241,22.2132 70.5,21.5C 71.2975,21.9569 71.6309,22.6236 71.5,23.5 Z"/></g>
<g><path style="opacity:0.843" fill="#777777" d="M 64.5,28.5 C 64.2148,26.712 64.5481,25.0453 65.5,23.5C 65.8333,24.3333 66.1667,25.1667 66.5,26C 66.3158,27.3756 65.6491,28.2089 64.5,28.5 Z"/></g>
<g><path style="opacity:0.36" fill="#dadada" d="M 74.5,25.5 C 75.8286,30.6238 76.4952,36.1238 76.5,42C 76.4839,58.7676 76.1505,75.6009 75.5,92.5C 75.1667,92.5 74.8333,92.5 74.5,92.5C 73.6867,70.3535 73.6867,48.0201 74.5,25.5 Z"/></g>
<g><path style="opacity:0.004" fill="#fefffe" d="M 438.5,33.5 C 439.833,34.1667 439.833,34.1667 438.5,33.5 Z"/></g>
<g><path style="opacity:0.004" fill="#fefffe" d="M 337.5,37.5 C 338.833,38.1667 338.833,38.1667 337.5,37.5 Z"/></g>
<g><path style="opacity:0.004" fill="#fefffe" d="M 388.5,52.5 C 389.833,53.1667 389.833,53.1667 388.5,52.5 Z"/></g>
<g><path style="opacity:0.773" fill="#9a9a9a" d="M 71.5,56.5 C 72.8333,58.1667 72.8333,59.8333 71.5,61.5C 70.1266,61.6567 68.7932,61.49 67.5,61C 69.5268,59.6043 69.8602,57.9376 68.5,56C 69.5768,55.5304 70.5768,55.6971 71.5,56.5 Z"/></g>
<g><path style="opacity:0.043" fill="#e4e4e4" d="M 71.5,56.5 C 70.5768,55.6971 69.5768,55.5304 68.5,56C 69.8602,57.9376 69.5268,59.6043 67.5,61C 68.7932,61.49 70.1266,61.6567 71.5,61.5C 69.0521,62.4731 66.3854,62.8064 63.5,62.5C 63.7394,60.5328 63.4061,58.6995 62.5,57C 63.1667,56.3333 63.8333,55.6667 64.5,55C 66.1647,55.7436 67.8314,55.5769 69.5,54.5C 70.7133,54.7472 71.38,55.4138 71.5,56.5 Z"/></g>
<g><path style="opacity:0.896" fill="#656565" d="M 64.5,56.5 C 65.6491,56.7911 66.3158,57.6244 66.5,59C 66.1667,59.8333 65.8333,60.6667 65.5,61.5C 64.5481,59.9547 64.2148,58.288 64.5,56.5 Z"/></g>
<g><path style="opacity:1" fill="#0a0a0a" d="M 76.5,-0.5 C 76.8333,-0.5 77.1667,-0.5 77.5,-0.5C 77.5,39.5 77.5,79.5 77.5,119.5C 77.1667,119.5 76.8333,119.5 76.5,119.5C 76.8266,110.318 76.4933,101.318 75.5,92.5C 76.1505,75.6009 76.4839,58.7676 76.5,42C 76.4952,36.1238 75.8286,30.6238 74.5,25.5C 76.4249,17.1007 77.0915,8.43403 76.5,-0.5 Z"/></g>
<g><path style="opacity:0.47" fill="#cfcfcf" d="M 78.5,-0.5 C 79.1667,-0.5 79.8333,-0.5 80.5,-0.5C 80.5399,71.0375 80.2066,142.538 79.5,214C 79.6667,220.833 79.8333,227.667 80,234.5C 80.7013,230.891 81.8679,227.558 83.5,224.5C 82.3258,230.864 80.9925,237.197 79.5,243.5C 78.5007,162.335 78.1674,81.0017 78.5,-0.5 Z"/></g>
<g><path style="opacity:0.004" fill="#fefffe" d="M 66.5,66.5 C 67.8333,67.1667 67.8333,67.1667 66.5,66.5 Z"/></g>
<g><path style="opacity:0.287" fill="#f4f4f4" d="M 71.5,90.5 C 67.9291,89.2432 66.7624,90.5765 68,94.5C 68.6708,95.2524 69.5041,95.5858 70.5,95.5C 69.1667,96.8333 67.8333,96.8333 66.5,95.5C 65.8333,87.5 65.1667,87.5 64.5,95.5C 63.5318,93.3926 63.1984,91.0593 63.5,88.5C 66.6981,87.9644 69.3647,88.631 71.5,90.5 Z"/></g>
<g><path style="opacity:0.004" fill="#fefffe" d="M 309.5,90.5 C 310.833,91.1667 310.833,91.1667 309.5,90.5 Z"/></g>
<g><path style="opacity:0.867" fill="#787878" d="M 66.5,95.5 C 65.8333,95.5 65.1667,95.5 64.5,95.5C 65.1667,87.5 65.8333,87.5 66.5,95.5 Z"/></g>
<g><path style="opacity:0.014" fill="#e6e6e6" d="M 74.5,92.5 C 74.8333,92.5 75.1667,92.5 75.5,92.5C 76.4933,101.318 76.8266,110.318 76.5,119.5C 76.0355,126.735 76.0355,134.068 76.5,141.5C 76.4949,147.211 75.8282,152.544 74.5,157.5C 73.1667,135.833 73.1667,114.167 74.5,92.5 Z"/></g>
<g><path style="opacity:0.98" fill="#919191" d="M 71.5,90.5 C 72.9302,92.4547 72.5969,94.1214 70.5,95.5C 69.5041,95.5858 68.6708,95.2524 68,94.5C 66.7624,90.5765 67.9291,89.2432 71.5,90.5 Z"/></g>
<g><path style="opacity:0.97" fill="#2c2c2c" d="M 77.5,-0.5 C 77.8333,-0.5 78.1667,-0.5 78.5,-0.5C 78.1674,81.0017 78.5007,162.335 79.5,243.5C 79.5,244.167 79.5,244.833 79.5,245.5C 77.5055,203.847 76.8388,161.847 77.5,119.5C 77.5,79.5 77.5,39.5 77.5,-0.5 Z"/></g>
<g><path style="opacity:0.004" fill="#fefffe" d="M 490.5,97.5 C 491.833,98.1667 491.833,98.1667 490.5,97.5 Z"/></g>
<g><path style="opacity:0.727" fill="#989898" d="M 526.5,100.5 C 526.5,101.167 526.5,101.833 526.5,102.5C 511.167,102.5 495.833,102.5 480.5,102.5C 495.66,101.447 510.993,100.78 526.5,100.5 Z"/></g>
<g><path style="opacity:0.004" fill="#fefffe" d="M 130.5,103.5 C 131.833,104.167 131.833,104.167 130.5,103.5 Z"/></g>
<g><path style="opacity:0.853" fill="#444444" d="M 480.5,102.5 C 495.833,102.5 511.167,102.5 526.5,102.5C 526.5,103.167 526.5,103.833 526.5,104.5C 523.5,104.5 520.5,104.5 517.5,104.5C 498.157,104.399 478.823,104.733 459.5,105.5C 452.167,105.5 444.833,105.5 437.5,105.5C 437.158,104.662 436.492,104.328 435.5,104.5C 435.5,104.167 435.5,103.833 435.5,103.5C 450.49,102.801 465.49,102.468 480.5,102.5 Z"/></g>
<g><path style="opacity:0.643" fill="#a6a6a6" d="M 435.5,103.5 C 435.5,103.833 435.5,104.167 435.5,104.5C 423.175,105.094 410.842,105.427 398.5,105.5C 410.649,104.275 422.983,103.609 435.5,103.5 Z"/></g>
<g><path style="opacity:0.702" fill="#2d2d2d" d="M 435.5,104.5 C 436.492,104.328 437.158,104.662 437.5,105.5C 424.686,106.2 412.019,107.2 399.5,108.5C 395.167,108.5 390.833,108.5 386.5,108.5C 377.491,108.626 368.491,108.959 359.5,109.5C 355.486,109.666 351.486,109.499 347.5,109C 352.351,108.826 357.018,108.326 361.5,107.5C 372.668,107.079 383.668,106.413 394.5,105.5C 395.833,105.5 397.167,105.5 398.5,105.5C 410.842,105.427 423.175,105.094 435.5,104.5 Z"/></g>
<g><path style="opacity:0.051" fill="#e0e0e0" d="M 517.5,104.5 C 498.339,105.57 479.006,106.237 459.5,106.5C 459.5,106.167 459.5,105.833 459.5,105.5C 478.823,104.733 498.157,104.399 517.5,104.5 Z"/></g>
<g><path style="opacity:0.202" fill="#bdbdbd" d="M 394.5,105.5 C 383.668,106.413 372.668,107.079 361.5,107.5C 360.167,107.5 358.833,107.5 357.5,107.5C 369.625,105.826 381.958,105.159 394.5,105.5 Z"/></g>
<g><path style="opacity:0.092" fill="#afafaf" d="M 437.5,105.5 C 444.833,105.5 452.167,105.5 459.5,105.5C 459.5,105.833 459.5,106.167 459.5,106.5C 439.505,107.3 419.505,107.966 399.5,108.5C 412.019,107.2 424.686,106.2 437.5,105.5 Z"/></g>
<g><path style="opacity:0.004" fill="#fefffe" d="M 225.5,108.5 C 226.833,109.167 226.833,109.167 225.5,108.5 Z"/></g>
<g><path style="opacity:0.004" fill="#fefffe" d="M 243.5,108.5 C 244.833,109.167 244.833,109.167 243.5,108.5 Z"/></g>
<g><path style="opacity:0.665" fill="#676767" d="M 357.5,107.5 C 358.833,107.5 360.167,107.5 361.5,107.5C 357.018,108.326 352.351,108.826 347.5,109C 351.486,109.499 355.486,109.666 359.5,109.5C 359.5,109.833 359.5,110.167 359.5,110.5C 351.846,111.07 344.179,111.404 336.5,111.5C 333.5,111.5 330.5,111.5 327.5,111.5C 321.69,110.51 315.69,110.177 309.5,110.5C 325.307,108.843 341.307,107.843 357.5,107.5 Z"/></g>
<g><path style="opacity:0.167" fill="#a4a4a4" d="M 386.5,108.5 C 377.688,109.689 368.688,110.355 359.5,110.5C 359.5,110.167 359.5,109.833 359.5,109.5C 368.491,108.959 377.491,108.626 386.5,108.5 Z"/></g>
<g><path style="opacity:0.078" fill="#b7b7b7" d="M 327.5,111.5 C 330.5,111.5 333.5,111.5 336.5,111.5C 324.681,112.897 312.681,113.897 300.5,114.5C 309.273,112.71 318.273,111.71 327.5,111.5 Z"/></g>
<g><path style="opacity:0.804" fill="#454545" d="M 309.5,110.5 C 315.69,110.177 321.69,110.51 327.5,111.5C 318.273,111.71 309.273,112.71 300.5,114.5C 298.833,114.5 297.167,114.5 295.5,114.5C 288.604,114.294 281.937,114.961 275.5,116.5C 272.236,117.324 268.902,117.658 265.5,117.5C 262.15,117.665 258.817,117.498 255.5,117C 262.314,115.864 268.981,114.698 275.5,113.5C 286.76,111.901 298.093,110.901 309.5,110.5 Z"/></g>
<g><path style="opacity:0.088" fill="#b6b6b6" d="M 295.5,114.5 C 289.053,115.936 282.386,116.603 275.5,116.5C 281.937,114.961 288.604,114.294 295.5,114.5 Z"/></g>
<g><path style="opacity:0.643" fill="#818181" d="M 275.5,113.5 C 268.981,114.698 262.314,115.864 255.5,117C 258.817,117.498 262.15,117.665 265.5,117.5C 260.367,118.665 255.034,119.332 249.5,119.5C 250.263,118.732 251.263,118.232 252.5,118C 249.518,117.502 246.518,117.335 243.5,117.5C 253.929,115.346 264.595,114.013 275.5,113.5 Z"/></g>
<g><path style="opacity:0.004" fill="#fefffe" d="M 143.5,119.5 C 144.833,120.167 144.833,120.167 143.5,119.5 Z"/></g>
<g><path style="opacity:0.725" fill="#818181" d="M 241.5,117.5 C 235.804,119.561 229.804,120.561 223.5,120.5C 229.268,118.872 235.268,117.872 241.5,117.5 Z"/></g>
<g><path style="opacity:0.838" fill="#363636" d="M 241.5,117.5 C 242.167,117.5 242.833,117.5 243.5,117.5C 246.518,117.335 249.518,117.502 252.5,118C 251.263,118.232 250.263,118.732 249.5,119.5C 244.547,119.123 239.881,119.789 235.5,121.5C 233.393,122.468 231.059,122.802 228.5,122.5C 224.152,122.909 219.819,123.076 215.5,123C 218.104,122.61 220.438,121.776 222.5,120.5C 222.833,120.5 223.167,120.5 223.5,120.5C 229.804,120.561 235.804,119.561 241.5,117.5 Z"/></g>
<g><path style="opacity:0.094" fill="#b0b0b0" d="M 249.5,119.5 C 245.036,120.644 240.37,121.31 235.5,121.5C 239.881,119.789 244.547,119.123 249.5,119.5 Z"/></g>
<g><path style="opacity:0.004" fill="#fefffe" d="M 154.5,121.5 C 155.833,122.167 155.833,122.167 154.5,121.5 Z"/></g>
<g><path style="opacity:0.816" fill="#888888" d="M 222.5,120.5 C 220.438,121.776 218.104,122.61 215.5,123C 219.819,123.076 224.152,122.909 228.5,122.5C 223.089,124.236 217.422,125.236 211.5,125.5C 212.263,124.732 213.263,124.232 214.5,124C 212.19,123.503 209.857,123.337 207.5,123.5C 212.248,121.862 217.248,120.862 222.5,120.5 Z"/></g>
<g><path style="opacity:0.861" fill="#272727" d="M 207.5,123.5 C 209.857,123.337 212.19,123.503 214.5,124C 213.263,124.232 212.263,124.732 211.5,125.5C 209.473,125.662 207.473,125.495 205.5,125C 206.416,124.722 207.082,124.222 207.5,123.5 Z"/></g>
<g><path style="opacity:0.78" fill="#8e8e8e" d="M 207.5,123.5 C 207.082,124.222 206.416,124.722 205.5,125C 207.473,125.495 209.473,125.662 211.5,125.5C 207.143,127.419 202.477,128.419 197.5,128.5C 206.358,126.431 206.358,125.431 197.5,125.5C 200.627,124.419 203.96,123.753 207.5,123.5 Z"/></g>
<g><path style="opacity:0.988" fill="#ababab" d="M 67.5,121.5 C 70.9304,120.755 72.597,122.089 72.5,125.5C 71.6947,129.514 69.8614,130.181 67,127.5C 66.3224,125.402 66.4891,123.402 67.5,121.5 Z"/></g>
<g><path style="opacity:0.651" fill="#9a9a9a" d="M 197.5,125.5 C 195.485,126.924 193.152,127.59 190.5,127.5C 192.515,126.076 194.848,125.41 197.5,125.5 Z"/></g>
<g><path style="opacity:0.004" fill="#fefffe" d="M 160.5,127.5 C 161.833,128.167 161.833,128.167 160.5,127.5 Z"/></g>
<g><path style="opacity:0.082" fill="#cacaca" d="M 197.5,128.5 C 195.162,130.04 192.495,130.706 189.5,130.5C 191.905,129.232 194.572,128.565 197.5,128.5 Z"/></g>
<g><path style="opacity:0.769" fill="#888888" d="M 182.5,129.5 C 182.389,130.117 182.056,130.617 181.5,131C 183.134,131.494 184.801,131.66 186.5,131.5C 184.401,132.612 182.067,133.279 179.5,133.5C 181.054,132.105 180.721,131.439 178.5,131.5C 174.586,132.917 170.586,133.917 166.5,134.5C 171.5,132.057 176.834,130.39 182.5,129.5 Z"/></g>
<g><path style="opacity:0.827" fill="#474747" d="M 197.5,125.5 C 206.358,125.431 206.358,126.431 197.5,128.5C 194.572,128.565 191.905,129.232 189.5,130.5C 188.791,131.404 187.791,131.737 186.5,131.5C 184.801,131.66 183.134,131.494 181.5,131C 182.056,130.617 182.389,130.117 182.5,129.5C 184.838,127.96 187.505,127.294 190.5,127.5C 193.152,127.59 195.485,126.924 197.5,125.5 Z"/></g>
<g><path style="opacity:0.016" fill="#d2d2d2" d="M 178.5,133.5 C 175.916,135.472 172.916,136.472 169.5,136.5C 172.215,134.928 175.215,133.928 178.5,133.5 Z"/></g>
<g><path style="opacity:0.004" fill="#fefffe" d="M 177.5,138.5 C 178.833,139.167 178.833,139.167 177.5,138.5 Z"/></g>
<g><path style="opacity:0.8" fill="#585858" d="M 179.5,133.5 C 179.167,133.5 178.833,133.5 178.5,133.5C 175.215,133.928 172.215,134.928 169.5,136.5C 161.161,139.954 152.827,143.621 144.5,147.5C 142.973,147.427 141.973,148.094 141.5,149.5C 140.448,149.649 139.448,149.483 138.5,149C 139.381,148.292 140.047,147.458 140.5,146.5C 148.588,141.459 157.254,137.459 166.5,134.5C 170.586,133.917 174.586,132.917 178.5,131.5C 180.721,131.439 181.054,132.105 179.5,133.5 Z"/></g>
<g><path style="opacity:0.004" fill="#fefffe" d="M 483.5,141.5 C 484.833,142.167 484.833,142.167 483.5,141.5 Z"/></g>
<g><path style="opacity:0.004" fill="#fefffe" d="M 298.5,142.5 C 299.833,143.167 299.833,143.167 298.5,142.5 Z"/></g>
<g><path style="opacity:0.024" fill="#d9d9d9" d="M 144.5,147.5 C 144.027,148.906 143.027,149.573 141.5,149.5C 141.973,148.094 142.973,147.427 144.5,147.5 Z"/></g>
<g><path style="opacity:0.004" fill="#fefffe" d="M 524.5,152.5 C 525.833,153.167 525.833,153.167 524.5,152.5 Z"/></g>
<g><path style="opacity:0.865" fill="#6f6f6f" d="M 140.5,146.5 C 140.047,147.458 139.381,148.292 138.5,149C 139.448,149.483 140.448,149.649 141.5,149.5C 131.471,156.2 122.137,163.867 113.5,172.5C 113.631,171.761 113.464,171.094 113,170.5C 111.629,172.041 110.129,173.375 108.5,174.5C 114.268,165.564 121.602,158.064 130.5,152C 133.727,149.888 137.06,148.055 140.5,146.5 Z"/></g>
<g><path style="opacity:0.722" fill="#9d9d9d" d="M 67.5,154.5 C 68.8333,154.5 70.1667,154.5 71.5,154.5C 71.5191,156.06 71.8524,157.56 72.5,159C 70.3642,162.459 68.3642,162.293 66.5,158.5C 67.2458,157.264 67.5792,155.93 67.5,154.5 Z"/></g>
<g><path style="opacity:0.011" fill="#ebebeb" d="M 74.5,158.5 C 75.1174,158.611 75.6174,158.944 76,159.5C 76.1667,164.667 76.3333,169.833 76.5,175C 76.4946,180.546 75.8279,185.712 74.5,190.5C 74.5,179.833 74.5,169.167 74.5,158.5 Z"/></g>
<g><path style="opacity:0.004" fill="#fefffe" d="M 151.5,163.5 C 152.833,164.167 152.833,164.167 151.5,163.5 Z"/></g>
<g><path style="opacity:0.004" fill="#fefffe" d="M 90.5,165.5 C 91.8333,166.167 91.8333,166.167 90.5,165.5 Z"/></g>
<g><path style="opacity:0.004" fill="#fefffe" d="M 231.5,165.5 C 232.833,166.167 232.833,166.167 231.5,165.5 Z"/></g>
<g><path style="opacity:0.004" fill="#fefffe" d="M 106.5,169.5 C 107.833,170.167 107.833,170.167 106.5,169.5 Z"/></g>
<g><path style="opacity:0.004" fill="#fefffe" d="M 299.5,170.5 C 300.833,171.167 300.833,171.167 299.5,170.5 Z"/></g>
<g><path style="opacity:0.004" fill="#fefffe" d="M 91.5,172.5 C 92.8333,173.167 92.8333,173.167 91.5,172.5 Z"/></g>
<g><path style="opacity:0.004" fill="#dddddd" d="M 113.5,172.5 C 113.262,174.404 112.262,175.738 110.5,176.5C 110.738,174.596 111.738,173.262 113.5,172.5 Z"/></g>
<g><path style="opacity:0.004" fill="#fefffe" d="M 133.5,175.5 C 134.833,176.167 134.833,176.167 133.5,175.5 Z"/></g>
<g><path style="opacity:0.004" fill="#fefffe" d="M 283.5,175.5 C 284.833,176.167 284.833,176.167 283.5,175.5 Z"/></g>
<g><path style="opacity:0.004" fill="#d8d8d8" d="M 109.5,177.5 C 109.573,179.027 108.906,180.027 107.5,180.5C 107.427,178.973 108.094,177.973 109.5,177.5 Z"/></g>
<g><path style="opacity:0.557" fill="#acacac" d="M 105.5,178.5 C 105.262,180.404 104.262,181.738 102.5,182.5C 102.738,180.596 103.738,179.262 105.5,178.5 Z"/></g>
<g><path style="opacity:0.008" fill="#e1e1e1" d="M 107.5,180.5 C 107.573,182.027 106.906,183.027 105.5,183.5C 105.427,181.973 106.094,180.973 107.5,180.5 Z"/></g>
<g><path style="opacity:0.224" fill="#d0d0d0" d="M 102.5,182.5 C 102.573,184.027 101.906,185.027 100.5,185.5C 100.427,183.973 101.094,182.973 102.5,182.5 Z"/></g>
<g><path style="opacity:0.008" fill="#e0e0e0" d="M 105.5,183.5 C 105.573,185.027 104.906,186.027 103.5,186.5C 103.427,184.973 104.094,183.973 105.5,183.5 Z"/></g>
<g><path style="opacity:0.004" fill="#fefffe" d="M 20.5,188.5 C 21.8333,189.167 21.8333,189.167 20.5,188.5 Z"/></g>
<g><path style="opacity:0.812" fill="#c5c5c5" d="M 71.5,189.5 C 70.1667,190.5 68.8333,191.5 67.5,192.5C 67.795,190.577 68.6283,188.91 70,187.5C 70.7172,188.044 71.2172,188.711 71.5,189.5 Z"/></g>
<g><path style="opacity:0.863" fill="#515151" d="M 71.5,189.5 C 71.5,190.833 71.5,192.167 71.5,193.5C 70.1667,193.5 68.8333,193.5 67.5,193.5C 67.5,193.167 67.5,192.833 67.5,192.5C 68.8333,191.5 70.1667,190.5 71.5,189.5 Z"/></g>
<g><path style="opacity:0.051" fill="#e6e6e6" d="M 103.5,186.5 C 102.59,189.992 100.924,192.992 98.5,195.5C 99.4097,192.008 101.076,189.008 103.5,186.5 Z"/></g>
<g><path style="opacity:0.004" fill="#fefffe" d="M 22.5,193.5 C 23.8333,194.167 23.8333,194.167 22.5,193.5 Z"/></g>
<g><path style="opacity:0.729" fill="#bbbbbb" d="M 71.5,189.5 C 72.6129,190.946 72.7796,192.613 72,194.5C 70.2507,195.553 68.7507,195.22 67.5,193.5C 68.8333,193.5 70.1667,193.5 71.5,193.5C 71.5,192.167 71.5,190.833 71.5,189.5 Z"/></g>
<g><path style="opacity:0.314" fill="#d9d9d9" d="M 74.5,190.5 C 75.7858,195.924 76.4525,201.59 76.5,207.5C 76.4949,213.211 75.8282,218.544 74.5,223.5C 75.1899,212.271 75.1899,201.271 74.5,190.5 Z"/></g>
<g><path style="opacity:0.993" fill="#0b0b0b" d="M 76.5,119.5 C 76.8333,119.5 77.1667,119.5 77.5,119.5C 76.8388,161.847 77.5055,203.847 79.5,245.5C 79.5,245.833 79.5,246.167 79.5,246.5C 79.5,247.833 79.5,249.167 79.5,250.5C 78.1667,252.5 78.1667,254.5 79.5,256.5C 79.1667,257.167 78.8333,257.833 78.5,258.5C 77.8343,261.028 77.1676,263.694 76.5,266.5C 75.7025,266.043 75.3691,265.376 75.5,264.5C 75.5,263.833 75.5,263.167 75.5,262.5C 76.4614,260.735 76.7947,258.735 76.5,256.5C 76.5,256.167 76.5,255.833 76.5,255.5C 77.1419,244.779 76.4753,234.446 74.5,224.5C 74.5,224.167 74.5,223.833 74.5,223.5C 75.8282,218.544 76.4949,213.211 76.5,207.5C 76.4525,201.59 75.7858,195.924 74.5,190.5C 75.8279,185.712 76.4946,180.546 76.5,175C 76.3333,169.833 76.1667,164.667 76,159.5C 75.6174,158.944 75.1174,158.611 74.5,158.5C 74.5,158.167 74.5,157.833 74.5,157.5C 75.8282,152.544 76.4949,147.211 76.5,141.5C 76.0355,134.068 76.0355,126.735 76.5,119.5 Z"/></g>
<g><path style="opacity:0.025" fill="#eeeeee" d="M 95.5,194.5 C 94.6743,197.485 93.341,200.151 91.5,202.5C 91.7936,199.246 93.127,196.579 95.5,194.5 Z"/></g>
<g><path style="opacity:0.022" fill="#e6e6e6" d="M 97.5,197.5 C 96.6236,201.582 94.9569,205.249 92.5,208.5C 93.3933,204.387 95.0599,200.72 97.5,197.5 Z"/></g>
<g><path style="opacity:0.018" fill="#d7d7d7" d="M 91.5,202.5 C 90.243,206.441 89.0764,210.441 88,214.5C 87.6174,215.056 87.1174,215.389 86.5,215.5C 87.2038,210.71 88.8705,206.377 91.5,202.5 Z"/></g>
<g><path style="opacity:0.149" fill="#dbdbdb" d="M 86.5,215.5 C 86.2525,218.854 85.2525,221.854 83.5,224.5C 83.7475,221.146 84.7475,218.146 86.5,215.5 Z"/></g>
<g><path style="opacity:0.831" fill="#b0b0b0" d="M 67.5,221.5 C 69.1439,221.286 70.6439,221.62 72,222.5C 71.8651,224.425 71.6984,226.425 71.5,228.5C 70.1667,228.5 68.8333,228.5 67.5,228.5C 67.5,226.167 67.5,223.833 67.5,221.5 Z"/></g>
<g><path style="opacity:0.004" fill="#fefffe" d="M 262.5,223.5 C 263.833,224.167 263.833,224.167 262.5,223.5 Z"/></g>
<g><path style="opacity:1" fill="#2f2f2f" d="M 113.5,172.5 C 111.738,173.262 110.738,174.596 110.5,176.5C 110.5,177.167 110.167,177.5 109.5,177.5C 108.094,177.973 107.427,178.973 107.5,180.5C 106.094,180.973 105.427,181.973 105.5,183.5C 104.094,183.973 103.427,184.973 103.5,186.5C 101.076,189.008 99.4097,192.008 98.5,195.5C 98.6716,196.492 98.3382,197.158 97.5,197.5C 95.0599,200.72 93.3933,204.387 92.5,208.5C 91.8826,208.611 91.3826,208.944 91,209.5C 86.6836,221.789 82.8502,234.122 79.5,246.5C 79.5,246.167 79.5,245.833 79.5,245.5C 79.5,244.833 79.5,244.167 79.5,243.5C 80.9925,237.197 82.3258,230.864 83.5,224.5C 85.2525,221.854 86.2525,218.854 86.5,215.5C 87.1174,215.389 87.6174,215.056 88,214.5C 89.0764,210.441 90.243,206.441 91.5,202.5C 93.341,200.151 94.6743,197.485 95.5,194.5C 96.4097,191.008 98.0764,188.008 100.5,185.5C 101.906,185.027 102.573,184.027 102.5,182.5C 104.262,181.738 105.262,180.404 105.5,178.5C 105.738,176.596 106.738,175.262 108.5,174.5C 110.129,173.375 111.629,172.041 113,170.5C 113.464,171.094 113.631,171.761 113.5,172.5 Z"/></g>
<g><path style="opacity:0.063" fill="#d6d6d6" d="M 92.5,208.5 C 89.441,218.845 86.2744,229.178 83,239.5C 81.3638,244.375 80.5305,249.375 80.5,254.5C 85.0323,254.182 89.3656,254.515 93.5,255.5C 88.8333,255.5 84.1667,255.5 79.5,255.5C 79.5,253.833 79.5,252.167 79.5,250.5C 79.5,249.167 79.5,247.833 79.5,246.5C 82.8502,234.122 86.6836,221.789 91,209.5C 91.3826,208.944 91.8826,208.611 92.5,208.5 Z"/></g>
<g><path style="opacity:0.004" fill="#fefffe" d="M 109.5,229.5 C 110.833,230.167 110.833,230.167 109.5,229.5 Z"/></g>
<g><path style="opacity:0.242" fill="#d9d9d9" d="M 74.5,224.5 C 76.4753,234.446 77.1419,244.779 76.5,255.5C 73.5,255.5 70.5,255.5 67.5,255.5C 69.8927,254.79 72.3927,254.123 75,253.5C 75.5787,243.82 75.412,234.153 74.5,224.5 Z"/></g>
<g><path style="opacity:0.004" fill="#fefffe" d="M 297.5,234.5 C 298.833,235.167 298.833,235.167 297.5,234.5 Z"/></g>
<g><path style="opacity:0.004" fill="#fefffe" d="M 31.5,241.5 C 32.8333,242.167 32.8333,242.167 31.5,241.5 Z"/></g>
<g><path style="opacity:0.004" fill="#fefffe" d="M 448.5,244.5 C 449.833,245.167 449.833,245.167 448.5,244.5 Z"/></g>
<g><path style="opacity:0.004" fill="#fefffe" d="M 3.5,249.5 C 4.83333,250.167 4.83333,250.167 3.5,249.5 Z"/></g>
<g><path style="opacity:0.004" fill="#fefffe" d="M 427.5,250.5 C 428.833,251.167 428.833,251.167 427.5,250.5 Z"/></g>
<g><path style="opacity:0.535" fill="#838383" d="M 67.5,255.5 C 70.5,255.5 73.5,255.5 76.5,255.5C 76.5,255.833 76.5,256.167 76.5,256.5C 50.8333,256.5 25.1667,256.5 -0.5,256.5C -0.5,256.167 -0.5,255.833 -0.5,255.5C 22.3496,255.304 45.0163,255.304 67.5,255.5 Z"/></g>
<g><path style="opacity:0.512" fill="#868686" d="M 79.5,250.5 C 79.5,252.167 79.5,253.833 79.5,255.5C 84.1667,255.5 88.8333,255.5 93.5,255.5C 237.848,255.755 382.181,255.422 526.5,254.5C 526.5,255.167 526.5,255.833 526.5,256.5C 488.833,256.5 451.167,256.5 413.5,256.5C 392.167,256.5 370.833,256.5 349.5,256.5C 307.167,256.5 264.833,256.5 222.5,256.5C 174.833,256.5 127.167,256.5 79.5,256.5C 78.1667,254.5 78.1667,252.5 79.5,250.5 Z"/></g>
<g><path style="opacity:1" fill="#232323" d="M -0.5,256.5 C 25.1667,256.5 50.8333,256.5 76.5,256.5C 76.7947,258.735 76.4614,260.735 75.5,262.5C 75.5,261.167 75.5,259.833 75.5,258.5C 72.0075,258.998 68.6741,258.998 65.5,258.5C 64.5,258.5 63.5,258.5 62.5,258.5C 60.6112,259.38 58.6112,259.38 56.5,258.5C 55.8333,258.5 55.1667,258.5 54.5,258.5C 49.8489,258.591 45.1822,258.591 40.5,258.5C 39.5,258.5 38.5,258.5 37.5,258.5C 36.391,258.557 35.391,258.89 34.5,259.5C 32.064,258.067 29.7307,258.4 27.5,260.5C 26.8076,259.975 26.3076,259.308 26,258.5C 25.0293,259.198 23.8626,259.198 22.5,258.5C 21.3279,258.919 20.3279,259.585 19.5,260.5C 17.677,259.253 15.677,258.586 13.5,258.5C 11.5,258.5 9.5,258.5 7.5,258.5C 5.5165,258.383 3.84983,259.05 2.5,260.5C 1.73485,259.388 0.734849,258.721 -0.5,258.5C -0.5,257.833 -0.5,257.167 -0.5,256.5 Z"/></g>
<g><path style="opacity:0.952" fill="#2f2f2f" d="M 79.5,256.5 C 127.167,256.5 174.833,256.5 222.5,256.5C 223.167,257.167 223.833,257.833 224.5,258.5C 222.833,258.5 221.167,258.5 219.5,258.5C 218.5,259.833 217.5,259.833 216.5,258.5C 213.856,258.16 211.523,258.827 209.5,260.5C 208.808,259.975 208.308,259.308 208,258.5C 207.029,259.198 205.863,259.198 204.5,258.5C 203.328,258.919 202.328,259.585 201.5,260.5C 200.808,259.975 200.308,259.308 200,258.5C 198.374,258.854 196.541,258.854 194.5,258.5C 193.298,259.405 191.964,259.405 190.5,258.5C 188.179,258.229 186.179,258.896 184.5,260.5C 183.808,259.975 183.308,259.308 183,258.5C 182.014,259.171 180.847,259.171 179.5,258.5C 178.041,258.433 176.708,258.766 175.5,259.5C 170.337,259.842 165.337,259.842 160.5,259.5C 159.833,259.5 159.167,259.5 158.5,259.5C 150.847,258.487 143.18,258.487 135.5,259.5C 134.292,258.766 132.959,258.433 131.5,258.5C 130.292,259.234 128.959,259.567 127.5,259.5C 124.728,258.233 122.061,258.233 119.5,259.5C 117.958,258.699 116.292,258.366 114.5,258.5C 114.167,258.5 113.833,258.5 113.5,258.5C 111.167,259.833 108.833,259.833 106.5,258.5C 104.516,258.383 102.85,259.05 101.5,260.5C 99.4072,258.257 97.0739,257.923 94.5,259.5C 93.609,258.89 92.609,258.557 91.5,258.5C 89.8333,258.5 88.1667,258.5 86.5,258.5C 85.2976,259.405 83.9643,259.405 82.5,258.5C 81.5,258.5 80.5,258.5 79.5,258.5C 79.1667,258.5 78.8333,258.5 78.5,258.5C 78.8333,257.833 79.1667,257.167 79.5,256.5 Z"/></g>
<g><path style="opacity:0.92" fill="#272727" d="M 222.5,256.5 C 264.833,256.5 307.167,256.5 349.5,256.5C 352.5,257.167 355.5,257.833 358.5,258.5C 358.167,258.5 357.833,258.5 357.5,258.5C 354.856,258.16 352.523,258.827 350.5,260.5C 348.821,258.896 346.821,258.229 344.5,258.5C 343.391,258.557 342.391,258.89 341.5,259.5C 319.938,260.375 298.271,260.375 276.5,259.5C 275.833,259.167 275.167,258.833 274.5,258.5C 271.856,258.16 269.523,258.827 267.5,260.5C 264.833,257.833 262.167,257.833 259.5,260.5C 257.056,258.238 254.389,257.904 251.5,259.5C 250.833,259.167 250.167,258.833 249.5,258.5C 247.833,258.5 246.167,258.5 244.5,258.5C 243.5,259.833 242.5,259.833 241.5,258.5C 239.5,258.5 237.5,258.5 235.5,258.5C 234.833,258.833 234.167,259.167 233.5,259.5C 231.621,258.659 229.621,258.325 227.5,258.5C 226.5,259.833 225.5,259.833 224.5,258.5C 223.833,257.833 223.167,257.167 222.5,256.5 Z"/></g>
<g><path style="opacity:0.934" fill="#232323" d="M 349.5,256.5 C 370.833,256.5 392.167,256.5 413.5,256.5C 412.167,257.167 410.833,257.833 409.5,258.5C 409.631,259.376 409.298,260.043 408.5,260.5C 406.477,258.827 404.144,258.16 401.5,258.5C 400.5,259.833 399.5,259.833 398.5,258.5C 396.833,258.5 395.167,258.5 393.5,258.5C 392.5,259.833 391.5,259.833 390.5,258.5C 388.833,258.5 387.167,258.5 385.5,258.5C 384.5,259.833 383.5,259.833 382.5,258.5C 379.856,258.16 377.523,258.827 375.5,260.5C 372.833,257.833 370.167,257.833 367.5,260.5C 365.49,258.829 363.157,258.162 360.5,258.5C 359.604,259.506 358.938,259.506 358.5,258.5C 355.5,257.833 352.5,257.167 349.5,256.5 Z"/></g>
<g><path style="opacity:0.937" fill="#292929" d="M 413.5,256.5 C 451.167,256.5 488.833,256.5 526.5,256.5C 526.5,257.167 526.5,257.833 526.5,258.5C 525.391,258.557 524.391,258.89 523.5,259.5C 522.408,259.662 521.075,259.328 519.5,258.5C 518.041,258.433 516.708,258.766 515.5,259.5C 514.432,258.566 513.099,258.232 511.5,258.5C 510.041,258.433 508.708,258.766 507.5,259.5C 505.735,258.539 503.735,258.205 501.5,258.5C 500.5,258.5 499.5,258.5 498.5,258.5C 495.856,258.16 493.523,258.827 491.5,260.5C 488.833,257.833 486.167,257.833 483.5,260.5C 480.5,257.833 477.5,257.833 474.5,260.5C 471.833,257.833 469.167,257.833 466.5,260.5C 463.833,257.833 461.167,257.833 458.5,260.5C 455.5,257.833 452.5,257.833 449.5,260.5C 446.833,257.833 444.167,257.833 441.5,260.5C 438.833,257.833 436.167,257.833 433.5,260.5C 431.477,258.827 429.144,258.16 426.5,258.5C 425.5,259.833 424.5,259.833 423.5,258.5C 420.843,258.162 418.51,258.829 416.5,260.5C 414.477,258.827 412.144,258.16 409.5,258.5C 410.833,257.833 412.167,257.167 413.5,256.5 Z"/></g>
<g><path style="opacity:0.733" fill="#a6a6a6" d="M 7.5,258.5 C 9.5,258.5 11.5,258.5 13.5,258.5C 11.5,261.167 9.5,261.167 7.5,258.5 Z"/></g>
<g><path style="opacity:0.005" fill="#efefef" d="M 40.5,258.5 C 45.1822,258.591 49.8489,258.591 54.5,258.5C 54.1344,259.695 53.301,260.361 52,260.5C 49.3333,259.167 46.6667,259.167 44,260.5C 42.5405,260.192 41.3739,259.525 40.5,258.5 Z"/></g>
<g><path style="opacity:0.553" fill="#bababa" d="M 91.5,258.5 C 92.609,258.557 93.609,258.89 94.5,259.5C 93.221,260.715 92.221,260.382 91.5,258.5 Z"/></g>
<g><path style="opacity:0.005" fill="#eaeaea" d="M 119.5,259.5 C 122.061,258.233 124.728,258.233 127.5,259.5C 125.081,259.805 122.414,259.805 119.5,259.5 Z"/></g>
<g><path style="opacity:0.208" fill="#c0c0c0" d="M 37.5,258.5 C 36.779,260.382 35.779,260.715 34.5,259.5C 35.391,258.89 36.391,258.557 37.5,258.5 Z"/></g>
<g><path style="opacity:0.145" fill="#dcdcdc" d="M 56.5,258.5 C 58.6112,259.38 60.6112,259.38 62.5,258.5C 60.594,260.994 58.594,260.994 56.5,258.5 Z"/></g>
<g><path style="opacity:0.059" fill="#d7d7d7" d="M 82.5,258.5 C 83.9643,259.405 85.2976,259.405 86.5,258.5C 85.3351,261.022 84.0018,261.022 82.5,258.5 Z"/></g>
<g><path style="opacity:0.157" fill="#dddddd" d="M 106.5,258.5 C 108.833,259.833 111.167,259.833 113.5,258.5C 111.167,261.167 108.833,261.167 106.5,258.5 Z"/></g>
<g><path style="opacity:0.275" fill="#c5c5c5" d="M 114.5,258.5 C 116.292,258.366 117.958,258.699 119.5,259.5C 119.44,260.043 119.107,260.376 118.5,260.5C 116.974,260.006 115.641,259.339 114.5,258.5 Z"/></g>
<g><path style="opacity:0.18" fill="#c9c9c9" d="M 131.5,258.5 C 132.959,258.433 134.292,258.766 135.5,259.5C 134.038,260.471 132.705,260.138 131.5,258.5 Z"/></g>
<g><path style="opacity:0.267" fill="#bebebe" d="M 179.5,258.5 C 178.295,260.138 176.962,260.471 175.5,259.5C 176.708,258.766 178.041,258.433 179.5,258.5 Z"/></g>
<g><path style="opacity:0.157" fill="#d2d2d2" d="M 190.5,258.5 C 191.964,259.405 193.298,259.405 194.5,258.5C 193.335,261.022 192.002,261.022 190.5,258.5 Z"/></g>
<g><path style="opacity:0.082" fill="#d6d6d6" d="M 216.5,258.5 C 217.5,259.833 218.5,259.833 219.5,258.5C 218.5,261.167 217.5,261.167 216.5,258.5 Z"/></g>
<g><path style="opacity:0.114" fill="#d0d0d0" d="M 224.5,258.5 C 225.5,259.833 226.5,259.833 227.5,258.5C 226.5,261.167 225.5,261.167 224.5,258.5 Z"/></g>
<g><path style="opacity:0.098" fill="#c3c3c3" d="M 235.5,258.5 C 235.289,260.424 234.623,260.757 233.5,259.5C 234.167,259.167 234.833,258.833 235.5,258.5 Z"/></g>
<g><path style="opacity:0.012" fill="#e0e0e0" d="M 241.5,258.5 C 242.5,259.833 243.5,259.833 244.5,258.5C 243.5,261.167 242.5,261.167 241.5,258.5 Z"/></g>
<g><path style="opacity:0.024" fill="#bcbcbc" d="M 249.5,258.5 C 250.167,258.833 250.833,259.167 251.5,259.5C 250.377,260.757 249.711,260.424 249.5,258.5 Z"/></g>
<g><path style="opacity:0.137" fill="#c9c9c9" d="M 274.5,258.5 C 275.167,258.833 275.833,259.167 276.5,259.5C 277.745,259.969 277.579,260.303 276,260.5C 274.97,260.164 274.47,259.497 274.5,258.5 Z"/></g>
<g><path style="opacity:0.22" fill="#c1c1c1" d="M 344.5,258.5 C 343.779,260.382 342.779,260.715 341.5,259.5C 342.391,258.89 343.391,258.557 344.5,258.5 Z"/></g>
<g><path style="opacity:0.125" fill="#d0d0d0" d="M 357.5,258.5 C 357.833,258.5 358.167,258.5 358.5,258.5C 358.938,259.506 359.604,259.506 360.5,258.5C 359.5,261.167 358.5,261.167 357.5,258.5 Z"/></g>
<g><path style="opacity:0.047" fill="#d9d9d9" d="M 382.5,258.5 C 383.5,259.833 384.5,259.833 385.5,258.5C 384.5,261.167 383.5,261.167 382.5,258.5 Z"/></g>
<g><path style="opacity:0.078" fill="#d4d4d4" d="M 390.5,258.5 C 391.5,259.833 392.5,259.833 393.5,258.5C 392.5,261.167 391.5,261.167 390.5,258.5 Z"/></g>
<g><path style="opacity:0.078" fill="#d5d5d5" d="M 398.5,258.5 C 399.5,259.833 400.5,259.833 401.5,258.5C 400.5,261.167 399.5,261.167 398.5,258.5 Z"/></g>
<g><path style="opacity:0.031" fill="#e3e3e3" d="M 423.5,258.5 C 424.5,259.833 425.5,259.833 426.5,258.5C 425.5,261.167 424.5,261.167 423.5,258.5 Z"/></g>
<g><path style="opacity:0.275" fill="#a4a4a4" d="M 498.5,258.5 C 499.5,258.5 500.5,258.5 501.5,258.5C 500.26,260.985 499.26,260.985 498.5,258.5 Z"/></g>
<g><path style="opacity:0.231" fill="#cdcdcd" d="M 519.5,258.5 C 518.462,260.519 517.128,260.853 515.5,259.5C 516.708,258.766 518.041,258.433 519.5,258.5 Z"/></g>
<g><path style="opacity:0.007" fill="#e0e0e0" d="M 511.5,258.5 C 508.77,259.991 508.937,261.325 512,262.5C 512.789,264.712 512.622,266.712 511.5,268.5C 511.587,265.402 511.087,265.068 510,267.5C 509.51,266.207 509.343,264.873 509.5,263.5C 508.167,263.5 506.833,263.5 505.5,263.5C 505.715,265.179 505.048,266.179 503.5,266.5C 503.461,265.417 503.127,264.417 502.5,263.5C 504.22,262.066 506.22,261.233 508.5,261C 507.833,260.667 507.167,260.333 506.5,260C 506.728,259.601 507.062,259.435 507.5,259.5C 508.708,258.766 510.041,258.433 511.5,258.5 Z"/></g>
<g><path style="opacity:0.455" fill="#b4b4b4" d="M 143.5,261.5 C 147.017,263.61 147.351,266.277 144.5,269.5C 139.725,267.604 139.392,264.937 143.5,261.5 Z"/></g>
<g><path style="opacity:0.714" fill="#c5c5c5" d="M 224.5,261.5 C 227.136,261.491 228.469,262.825 228.5,265.5C 228.384,267.552 227.384,268.885 225.5,269.5C 223.225,267.168 222.892,264.502 224.5,261.5 Z"/></g>
<g><path style="opacity:0.022" fill="#dbdbdb" d="M 345.5,265.5 C 344.778,265.918 344.278,266.584 344,267.5C 343.667,266.167 343.333,264.833 343,263.5C 341.212,265.023 341.045,266.69 342.5,268.5C 341.039,269.686 339.705,269.686 338.5,268.5C 339.649,268.209 340.316,267.376 340.5,266C 340.167,265.167 339.833,264.333 339.5,263.5C 338.893,263.624 338.56,263.957 338.5,264.5C 337.957,264.44 337.624,264.107 337.5,263.5C 340.706,261.556 343.706,261.556 346.5,263.5C 346.137,264.183 345.804,264.85 345.5,265.5 Z"/></g>
<g><path style="opacity:0.818" fill="#b1b1b1" d="M 360.5,261.5 C 361.643,261.908 362.643,262.575 363.5,263.5C 362.586,265.664 361.419,267.664 360,269.5C 358.417,269.507 356.751,269.174 355,268.5C 354.505,266.527 354.338,264.527 354.5,262.5C 356.735,262.795 358.735,262.461 360.5,261.5 Z"/></g>
<g><path style="opacity:0.353" fill="#d7d7d7" d="M 14.5,263.5 C 12.9519,263.821 12.2852,264.821 12.5,266.5C 10.2646,266.205 8.26465,266.539 6.5,267.5C 5.95691,267.44 5.62358,267.107 5.5,266.5C 8.74497,265.877 11.245,264.21 13,261.5C 13.7172,262.044 14.2172,262.711 14.5,263.5 Z"/></g>
<g><path style="opacity:0.725" fill="#c6c6c6" d="M 158.5,259.5 C 159.167,259.5 159.833,259.5 160.5,259.5C 159.342,260.95 159.842,261.95 162,262.5C 163.026,265.593 162.193,267.927 159.5,269.5C 157.854,268.098 156.854,266.264 156.5,264C 157.414,262.594 158.08,261.094 158.5,259.5 Z"/></g>
<g><path style="opacity:0.286" fill="#b4b4b4" d="M 242.5,263.5 C 242.5,265.167 242.5,266.833 242.5,268.5C 241.577,269.303 240.577,269.47 239.5,269C 235.898,264.138 236.898,262.305 242.5,263.5 Z"/></g>
<g><path style="opacity:0.898" fill="#7a7a7a" d="M 307.5,265.5 C 307.715,267.179 307.048,268.179 305.5,268.5C 305.526,267.184 305.193,265.684 304.5,264C 306.506,261.952 307.506,262.452 307.5,265.5 Z"/></g>
<g><path style="opacity:0.343" fill="#b3b3b3" d="M 375.5,263.5 C 375.5,265.167 375.5,266.833 375.5,268.5C 374.292,269.234 372.959,269.567 371.5,269.5C 371.5,267.167 371.5,264.833 371.5,262.5C 372.959,262.433 374.292,262.766 375.5,263.5 Z"/></g>
<g><path style="opacity:0.388" fill="#b5b5b5" d="M 453.5,262.5 C 456.5,262.5 459.5,262.5 462.5,262.5C 462.756,264.792 462.423,266.959 461.5,269C 458.854,269.497 456.187,269.664 453.5,269.5C 454.546,267.118 454.546,264.785 453.5,262.5 Z"/></g>
<g><path style="opacity:0.741" fill="#a1a1a1" d="M 470.5,262.5 C 472.939,263.053 475.273,263.053 477.5,262.5C 479.146,264.392 479.48,266.392 478.5,268.5C 476.031,268.82 473.364,268.986 470.5,269C 471.598,266.885 471.598,264.718 470.5,262.5 Z"/></g>
<g><path style="opacity:0.863" fill="#949494" d="M 489.5,262.5 C 490.881,264.274 490.548,265.774 488.5,267C 490.749,267.863 492.582,267.363 494,265.5C 494.483,266.448 494.649,267.448 494.5,268.5C 492.052,269.473 489.385,269.806 486.5,269.5C 486.297,267.61 486.963,266.11 488.5,265C 485.949,263.484 486.282,262.651 489.5,262.5 Z"/></g>
<g><path style="opacity:0.004" fill="#fefffe" d="M 36.5,264.5 C 37.8333,265.167 37.8333,265.167 36.5,264.5 Z"/></g>
<g><path style="opacity:0.014" fill="#bebebe" d="M 43.5,262.5 C 44.8333,262.5 46.1667,262.5 47.5,262.5C 47.5,264.833 47.5,267.167 47.5,269.5C 44.4183,268.87 41.4183,267.87 38.5,266.5C 40.0777,265.702 41.7444,265.202 43.5,265C 42.4019,264.23 42.4019,263.397 43.5,262.5 Z"/></g>
<g><path style="opacity:0.442" fill="#9e9e9e" d="M 92.5,262.5 C 93.552,262.351 94.552,262.517 95.5,263C 94.917,264.619 94.917,266.452 95.5,268.5C 94.675,269.386 93.675,269.719 92.5,269.5C 92.1501,266.959 92.1501,264.626 92.5,262.5 Z"/></g>
<g><path style="opacity:0.733" fill="#b5b5b5" d="M 191.5,261.5 C 193.948,261.085 195.281,262.085 195.5,264.5C 193.219,271.272 191.553,271.105 190.5,264C 190.743,263.098 191.077,262.265 191.5,261.5 Z"/></g>
<g><path style="opacity:0.009" fill="#e5e5e5" d="M 295.5,268.5 C 295.66,266.801 295.494,265.134 295,263.5C 293.312,264.325 293.145,265.325 294.5,266.5C 293.675,267.386 292.675,267.719 291.5,267.5C 291.5,266.833 291.167,266.5 290.5,266.5C 290.5,265.833 290.5,265.167 290.5,264.5C 292.114,262.925 294.114,262.259 296.5,262.5C 296.795,264.735 296.461,266.735 295.5,268.5 Z"/></g>
<g><path style="opacity:0.725" fill="#aaaaaa" d="M 305.5,268.5 C 307.048,268.179 307.715,267.179 307.5,265.5C 311.608,261.319 313.441,262.319 313,268.5C 310.452,268.714 307.952,268.714 305.5,268.5 Z"/></g>
<g><path style="opacity:0.69" fill="#bebebe" d="M 321.5,268.5 C 322.492,268.672 323.158,268.338 323.5,267.5C 324.224,265.782 324.891,263.948 325.5,262C 327.201,261.655 328.534,262.322 329.5,264C 329.201,265.32 329.034,266.82 329,268.5C 326.395,269.814 323.895,269.814 321.5,268.5 Z"/></g>
<g><path style="opacity:0.969" fill="#9b9b9b" d="M 403.5,262.5 C 406.5,263.833 409.5,263.833 412.5,262.5C 412.756,264.792 412.423,266.959 411.5,269C 409.039,269.029 406.372,269.196 403.5,269.5C 403.297,267.61 403.963,266.11 405.5,265C 404.244,264.583 403.577,263.75 403.5,262.5 Z"/></g>
<g><path style="opacity:0.722" fill="#c5c5c5" d="M 494.5,268.5 C 494.649,267.448 494.483,266.448 494,265.5C 492.582,267.363 490.749,267.863 488.5,267C 490.548,265.774 490.881,264.274 489.5,262.5C 494.716,261.388 496.383,263.388 494.5,268.5 Z"/></g>
<g><path style="opacity:0.097" fill="#c1c1c1" d="M 526.5,258.5 C 526.5,262.167 526.5,265.833 526.5,269.5C 524.147,269.777 521.814,269.277 519.5,268C 521.645,266.182 521.645,264.682 519.5,263.5C 520.912,262.194 522.579,261.36 524.5,261C 523.944,260.617 523.611,260.117 523.5,259.5C 524.391,258.89 525.391,258.557 526.5,258.5 Z"/></g>
<g><path style="opacity:0.051" fill="#e7e7e7" d="M 27.5,262.5 C 28.0668,264.03 28.7334,265.53 29.5,267C 27.0375,266.389 24.7042,266.555 22.5,267.5C 21.9569,267.44 21.6236,267.107 21.5,266.5C 23.0777,265.702 24.7444,265.202 26.5,265C 25.434,263.841 25.7673,263.008 27.5,262.5 Z"/></g>
<g><path style="opacity:0.853" fill="#a9a9a9" d="M 174.5,261.5 C 176.716,261.275 178.383,262.108 179.5,264C 179.55,266.056 178.55,267.889 176.5,269.5C 173.338,267.519 172.671,264.852 174.5,261.5 Z"/></g>
<g><path style="opacity:0.757" fill="#6f6f6f" d="M 14.5,263.5 C 14.9662,265.201 14.9662,266.701 14.5,268C 11.8428,268.175 9.17609,268.008 6.5,267.5C 8.26465,266.539 10.2646,266.205 12.5,266.5C 12.2852,264.821 12.9519,263.821 14.5,263.5 Z"/></g>
<g><path style="opacity:0.702" fill="#a6a6a6" d="M 60.5,267.5 C 58.712,267.785 57.0453,267.452 55.5,266.5C 56.3333,266.167 57.1667,265.833 58,265.5C 59.3756,265.684 60.2089,266.351 60.5,267.5 Z"/></g>
<g><path style="opacity:0.408" fill="#c0c0c0" d="M 65.5,258.5 C 68.6741,258.998 72.0075,258.998 75.5,258.5C 75.5,259.833 75.5,261.167 75.5,262.5C 75.5,263.167 75.5,263.833 75.5,264.5C 74.8333,265.833 74.1667,267.167 73.5,268.5C 73.7038,265.482 74.0371,262.482 74.5,259.5C 72.5992,259.433 70.7659,259.767 69,260.5C 67.5405,260.192 66.3739,259.525 65.5,258.5 Z"/></g>
<g><path style="opacity:0.729" fill="#a7a7a7" d="M 107.5,262.5 C 109.144,262.286 110.644,262.62 112,263.5C 111.547,265.454 111.38,267.287 111.5,269C 110.216,269.684 109.049,269.517 108,268.5C 108.793,266.5 108.626,264.5 107.5,262.5 Z"/></g>
<g><path style="opacity:0.918" fill="#a0a0a0" d="M 208.5,261.5 C 210.89,261.685 211.89,263.018 211.5,265.5C 211.631,269.166 210.131,270.166 207,268.5C 206.167,265.829 206.667,263.496 208.5,261.5 Z"/></g>
<g><path style="opacity:0.855" fill="#555555" d="M 224.5,263.5 C 225.222,263.918 225.722,264.584 226,265.5C 226.333,264.833 226.667,264.167 227,263.5C 227.667,264.833 227.667,266.167 227,267.5C 225.294,266.692 224.461,265.359 224.5,263.5 Z"/></g>
<g><path style="opacity:0.875" fill="#8e8e8e" d="M 242.5,268.5 C 242.5,266.833 242.5,265.167 242.5,263.5C 243.568,262.566 244.901,262.232 246.5,262.5C 246.662,264.527 246.495,266.527 246,268.5C 244.855,269.684 243.688,269.684 242.5,268.5 Z"/></g>
<g><path style="opacity:0.741" fill="#9d9d9d" d="M 387.5,262.5 C 390.062,263.18 392.729,263.347 395.5,263C 396.683,265.155 396.35,267.155 394.5,269C 392.154,268.208 389.821,268.375 387.5,269.5C 387.5,267.167 387.5,264.833 387.5,262.5 Z"/></g>
<g><path style="opacity:0.745" fill="#ababab" d="M 420.5,262.5 C 423.272,263.371 425.938,263.371 428.5,262.5C 428.784,264.877 428.784,267.044 428.5,269C 425.939,268.599 423.272,268.765 420.5,269.5C 421.546,267.118 421.546,264.785 420.5,262.5 Z"/></g>
<g><path style="opacity:0.647" fill="#8f8f8f" d="M 27.5,262.5 C 28.5,262.5 29.5,262.5 30.5,262.5C 31.8916,265.025 31.5582,267.192 29.5,269C 27.4183,268.068 25.085,267.568 22.5,267.5C 24.7042,266.555 27.0375,266.389 29.5,267C 28.7334,265.53 28.0668,264.03 27.5,262.5 Z"/></g>
<g><path style="opacity:0.808" fill="#8c8c8c" d="M 60.5,267.5 C 61.7053,266.328 61.7053,264.995 60.5,263.5C 61.325,262.614 62.325,262.281 63.5,262.5C 63.2606,264.467 63.5939,266.301 64.5,268C 62.8759,270.019 61.5426,269.852 60.5,267.5 Z"/></g>
<g><path style="opacity:0.651" fill="#b3b3b3" d="M 125.5,261.5 C 127.196,261.685 128.529,262.519 129.5,264C 128.576,264.85 128.576,265.85 129.5,267C 127.905,269.833 126.239,270 124.5,267.5C 124.465,265.557 124.798,263.557 125.5,261.5 Z"/></g>
<g><path style="opacity:0.639" fill="#a1a1a1" d="M 290.5,264.5 C 290.5,265.167 290.5,265.833 290.5,266.5C 291.167,266.5 291.5,266.833 291.5,267.5C 292.675,267.719 293.675,267.386 294.5,266.5C 293.145,265.325 293.312,264.325 295,263.5C 295.494,265.134 295.66,266.801 295.5,268.5C 293.372,269.629 291.039,269.796 288.5,269C 288.507,267.417 288.174,265.751 287.5,264C 289.053,261.86 290.053,262.027 290.5,264.5 Z"/></g>
<g><path style="opacity:0.702" fill="#7d7d7d" d="M 323.5,267.5 C 323.158,268.338 322.492,268.672 321.5,268.5C 321.456,266.768 321.456,264.935 321.5,263C 321.833,262.833 322.167,262.667 322.5,262.5C 323.452,264.045 323.785,265.712 323.5,267.5 Z"/></g>
<g><path style="opacity:0.776" fill="#6e6e6e" d="M 338.5,268.5 C 338.074,267.472 338.074,266.139 338.5,264.5C 338.56,263.957 338.893,263.624 339.5,263.5C 339.833,264.333 340.167,265.167 340.5,266C 340.316,267.376 339.649,268.209 338.5,268.5 Z"/></g>
<g><path style="opacity:0.655" fill="#898989" d="M 345.5,265.5 C 346.573,266.251 346.74,267.251 346,268.5C 344.708,269.791 343.542,269.791 342.5,268.5C 341.045,266.69 341.212,265.023 343,263.5C 343.333,264.833 343.667,266.167 344,267.5C 344.278,266.584 344.778,265.918 345.5,265.5 Z"/></g>
<g><path style="opacity:0.765" fill="#8d8d8d" d="M 375.5,268.5 C 375.5,266.833 375.5,265.167 375.5,263.5C 376.568,262.566 377.901,262.232 379.5,262.5C 379.662,264.527 379.495,266.527 379,268.5C 377.708,269.791 376.542,269.791 375.5,268.5 Z"/></g>
<g><path style="opacity:0.031" fill="#c2c2c2" d="M 260.5,262.5 C 259.925,264.342 260.091,266.342 261,268.5C 261.495,266.527 261.662,264.527 261.5,262.5C 262.468,264.607 262.802,266.941 262.5,269.5C 260.167,269.5 257.833,269.5 255.5,269.5C 255.739,267.533 255.406,265.699 254.5,264C 256.219,262.943 258.053,262.11 260,261.5C 260.399,261.728 260.565,262.062 260.5,262.5 Z"/></g>
<g><path style="opacity:0.867" fill="#555555" d="M 260.5,262.5 C 260.833,262.5 261.167,262.5 261.5,262.5C 261.662,264.527 261.495,266.527 261,268.5C 260.091,266.342 259.925,264.342 260.5,262.5 Z"/></g>
<g><path style="opacity:0.071" fill="#c4c4c4" d="M 276.5,261.5 C 279.099,263.386 280.099,266.052 279.5,269.5C 276.833,269.5 274.167,269.5 271.5,269.5C 271.739,267.533 271.406,265.699 270.5,264C 272.502,262.981 274.502,262.148 276.5,261.5 Z"/></g>
<g><path style="opacity:0.804" fill="#757575" d="M 277.5,263.5 C 278.148,264.979 278.481,266.479 278.5,268C 277.365,268.749 276.365,268.583 275.5,267.5C 276.63,266.378 277.297,265.044 277.5,263.5 Z"/></g>
<g><path style="opacity:0.145" fill="#c9c9c9" d="M 436.5,262.5 C 439.5,262.5 442.5,262.5 445.5,262.5C 445.5,264.833 445.5,267.167 445.5,269.5C 442.5,269.5 439.5,269.5 436.5,269.5C 437.546,267.118 437.546,264.785 436.5,262.5 Z"/></g>
<g><path style="opacity:0.78" fill="#717171" d="M 443.5,263.5 C 444.148,264.979 444.481,266.479 444.5,268C 443.365,268.749 442.365,268.583 441.5,267.5C 442.63,266.378 443.297,265.044 443.5,263.5 Z"/></g>
<g><path style="opacity:0.11" fill="#a4a4a4" d="M 511.5,268.5 C 509.055,268.565 506.389,268.731 503.5,269C 502.226,268.023 502.226,267.189 503.5,266.5C 505.048,266.179 505.715,265.179 505.5,263.5C 506.833,263.5 508.167,263.5 509.5,263.5C 509.343,264.873 509.51,266.207 510,267.5C 511.087,265.068 511.587,265.402 511.5,268.5 Z"/></g>
<g><path style="opacity:0.004" fill="#fefffe" d="M 18.5,273.5 C 19.8333,274.167 19.8333,274.167 18.5,273.5 Z"/></g>
<g><path style="opacity:0.194" fill="#cfcfcf" d="M 76.5,291.5 C 77.1428,302.552 76.4762,313.219 74.5,323.5C 75.8943,312.818 75.7276,302.152 74,291.5C 72.7939,297.599 71.6272,303.599 70.5,309.5C 70.5,308.167 70.5,306.833 70.5,305.5C 70.7708,299.25 71.7708,293.25 73.5,287.5C 73.1936,284.615 73.5269,281.948 74.5,279.5C 75.3714,284.139 75.3714,283.806 74.5,278.5C 74.5642,274.78 75.0642,271.114 76,267.5C 76.4383,275.801 76.6049,283.801 76.5,291.5 Z"/></g>
<g><path style="opacity:0.004" fill="#fefffe" d="M 355.5,277.5 C 356.833,278.167 356.833,278.167 355.5,277.5 Z"/></g>
<g><path style="opacity:0.004" fill="#fefffe" d="M 428.5,284.5 C 429.833,285.167 429.833,285.167 428.5,284.5 Z"/></g>
<g><path style="opacity:0.004" fill="#fefffe" d="M 37.5,289.5 C 38.8333,290.167 38.8333,290.167 37.5,289.5 Z"/></g>
<g><path style="opacity:0.498" fill="#cbcbcb" d="M 72.5,275.5 C 71.6459,283.521 70.6459,291.521 69.5,299.5C 68.6967,305.196 67.6967,310.863 66.5,316.5C 66.6179,309.939 67.2846,303.439 68.5,297C 67.4112,294.376 65.4112,292.876 62.5,292.5C 65.6879,292.144 67.8545,290.477 69,287.5C 69.8549,283.285 71.0215,279.285 72.5,275.5 Z"/></g>
<g><path style="opacity:0.004" fill="#fefffe" d="M 295.5,292.5 C 296.833,293.167 296.833,293.167 295.5,292.5 Z"/></g>
<g><path style="opacity:0.979" fill="#0b0b0b" d="M 76.5,291.5 C 77.8333,313.167 77.8333,334.833 76.5,356.5C 77.1428,345.448 76.4762,334.781 74.5,324.5C 74.5,324.167 74.5,323.833 74.5,323.5C 76.4762,313.219 77.1428,302.552 76.5,291.5 Z"/></g>
<g><path style="opacity:0.004" fill="#fefffe" d="M 345.5,306.5 C 346.833,307.167 346.833,307.167 345.5,306.5 Z"/></g>
<g><path style="opacity:0.004" fill="#fefffe" d="M 28.5,316.5 C 29.8333,317.167 29.8333,317.167 28.5,316.5 Z"/></g>
<g><path style="opacity:0.004" fill="#fefffe" d="M 397.5,316.5 C 398.833,317.167 398.833,317.167 397.5,316.5 Z"/></g>
<g><path style="opacity:0.022" fill="#fdfdfd" d="M 66.5,317.5 C 66.5,319.833 66.5,322.167 66.5,324.5C 65.8333,324.5 65.1667,324.5 64.5,324.5C 65.0654,322.048 65.7321,319.715 66.5,317.5 Z"/></g>
<g><path style="opacity:0.988" fill="#acacac" d="M 70.5,309.5 C 70.1192,314.817 70.7858,319.983 72.5,325C 71.7297,326.775 70.563,328.275 69,329.5C 68.8213,333.025 68.3213,336.359 67.5,339.5C 67.4913,329.258 68.4913,319.258 70.5,309.5 Z"/></g>
<g><path style="opacity:1" fill="#2e2e2e" d="M 69.5,299.5 C 69.2053,301.735 69.5386,303.735 70.5,305.5C 70.5,306.833 70.5,308.167 70.5,309.5C 68.4913,319.258 67.4913,329.258 67.5,339.5C 66.704,345.35 66.0374,351.35 65.5,357.5C 65.5,357.833 65.5,358.167 65.5,358.5C 64.7403,364.804 64.407,371.137 64.5,377.5C 63.5206,380.625 63.1872,383.958 63.5,387.5C 62.5128,392.305 62.1795,397.305 62.5,402.5C 61.5151,398.366 61.1818,394.032 61.5,389.5C 63.2056,367.839 64.8723,346.172 66.5,324.5C 66.5,322.167 66.5,319.833 66.5,317.5C 66.5,317.167 66.5,316.833 66.5,316.5C 67.6967,310.863 68.6967,305.196 69.5,299.5 Z"/></g>
<g><path style="opacity:0.912" fill="#2b2b2b" d="M 78.5,258.5 C 78.5,330.167 78.5,401.833 78.5,473.5C 78.1667,473.5 77.8333,473.5 77.5,473.5C 77.8319,434.996 77.4985,396.663 76.5,358.5C 76.1583,357.662 75.4916,357.328 74.5,357.5C 74.5,357.167 74.5,356.833 74.5,356.5C 75.1667,356.5 75.8333,356.5 76.5,356.5C 77.8333,334.833 77.8333,313.167 76.5,291.5C 76.6049,283.801 76.4383,275.801 76,267.5C 75.0642,271.114 74.5642,274.78 74.5,278.5C 74.5,278.833 74.5,279.167 74.5,279.5C 73.5269,281.948 73.1936,284.615 73.5,287.5C 71.7708,293.25 70.7708,299.25 70.5,305.5C 69.5386,303.735 69.2053,301.735 69.5,299.5C 70.6459,291.521 71.6459,283.521 72.5,275.5C 72.1984,272.941 72.5318,270.607 73.5,268.5C 74.1667,267.167 74.8333,265.833 75.5,264.5C 75.3691,265.376 75.7025,266.043 76.5,266.5C 77.1676,263.694 77.8343,261.028 78.5,258.5 Z"/></g>
<g><path style="opacity:0.265" fill="#d7d7d7" d="M 74.5,324.5 C 76.4762,334.781 77.1428,345.448 76.5,356.5C 75.8333,356.5 75.1667,356.5 74.5,356.5C 74.9606,345.791 74.9606,335.125 74.5,324.5 Z"/></g>
<g><path style="opacity:0.004" fill="#fefffe" d="M 83.5,329.5 C 84.8333,330.167 84.8333,330.167 83.5,329.5 Z"/></g>
<g><path style="opacity:0.004" fill="#fefffe" d="M 465.5,336.5 C 466.833,337.167 466.833,337.167 465.5,336.5 Z"/></g>
<g><path style="opacity:0.004" fill="#fefffe" d="M 432.5,339.5 C 433.833,340.167 433.833,340.167 432.5,339.5 Z"/></g>
<g><path style="opacity:0.05" fill="#e7e7e7" d="M 67.5,339.5 C 67.5,344.167 67.5,348.833 67.5,353.5C 68.791,353.263 69.791,353.596 70.5,354.5C 68.6458,355.241 66.9791,356.241 65.5,357.5C 66.0374,351.35 66.704,345.35 67.5,339.5 Z"/></g>
<g><path style="opacity:0.839" fill="#7e7e7e" d="M 70.5,354.5 C 71.4511,355.919 71.7845,357.585 71.5,359.5C 70.7784,359.082 70.2784,358.416 70,357.5C 69.6667,358.167 69.3333,358.833 69,359.5C 67.9887,358.663 66.8221,358.33 65.5,358.5C 65.5,358.167 65.5,357.833 65.5,357.5C 66.9791,356.241 68.6458,355.241 70.5,354.5 Z"/></g>
<g><path style="opacity:0.004" fill="#fefffe" d="M 354.5,357.5 C 355.833,358.167 355.833,358.167 354.5,357.5 Z"/></g>
<g><path style="opacity:0.236" fill="#cbcbcb" d="M 74.5,357.5 C 75.4916,357.328 76.1583,357.662 76.5,358.5C 77.1419,369.221 76.4753,379.554 74.5,389.5C 75.8333,378.833 75.8333,368.167 74.5,357.5 Z"/></g>
<g><path style="opacity:0.537" fill="#c6c6c6" d="M 64.5,324.5 C 65.1667,324.5 65.8333,324.5 66.5,324.5C 64.8723,346.172 63.2056,367.839 61.5,389.5C 61.1667,389.5 60.8333,389.5 60.5,389.5C 61.7119,367.569 63.0452,345.903 64.5,324.5 Z"/></g>
<g><path style="opacity:0.004" fill="#fefffe" d="M 95.5,362.5 C 96.8333,363.167 96.8333,363.167 95.5,362.5 Z"/></g>
<g><path style="opacity:0.09" fill="#d7d7d7" d="M 71.5,359.5 C 70.1155,360.801 68.6155,360.801 67,359.5C 66.355,365.673 65.5217,371.673 64.5,377.5C 64.407,371.137 64.7403,364.804 65.5,358.5C 66.8221,358.33 67.9887,358.663 69,359.5C 69.3333,358.833 69.6667,358.167 70,357.5C 70.2784,358.416 70.7784,359.082 71.5,359.5 Z"/></g>
<g><path style="opacity:0.004" fill="#fefffe" d="M 140.5,374.5 C 141.833,375.167 141.833,375.167 140.5,374.5 Z"/></g>
<g><path style="opacity:0.004" fill="#fefffe" d="M 257.5,374.5 C 258.833,375.167 258.833,375.167 257.5,374.5 Z"/></g>
<g><path style="opacity:0.004" fill="#fefffe" d="M 450.5,381.5 C 451.833,382.167 451.833,382.167 450.5,381.5 Z"/></g>
<g><path style="opacity:0.122" fill="#d3d3d3" d="M 64.5,377.5 C 64.1744,381.884 64.5078,386.217 65.5,390.5C 66.1835,390.137 66.8501,389.804 67.5,389.5C 66.8166,391.176 65.4832,391.843 63.5,391.5C 63.5,390.167 63.5,388.833 63.5,387.5C 63.1872,383.958 63.5206,380.625 64.5,377.5 Z"/></g>
<g><path style="opacity:0.004" fill="#fefffe" d="M 144.5,387.5 C 145.833,388.167 145.833,388.167 144.5,387.5 Z"/></g>
<g><path style="opacity:0.859" fill="#9d9d9d" d="M 62.5,404.5 C 62.5,403.833 62.5,403.167 62.5,402.5C 62.1795,397.305 62.5128,392.305 63.5,387.5C 63.5,388.833 63.5,390.167 63.5,391.5C 65.4832,391.843 66.8166,391.176 67.5,389.5C 69.788,385.504 71.4546,386.004 72.5,391C 72.3122,392.882 71.3122,394.048 69.5,394.5C 67.5896,393.452 65.7562,393.452 64,394.5C 63.8213,398.025 63.3213,401.359 62.5,404.5 Z"/></g>
<g><path style="opacity:0.004" fill="#fefffe" d="M 221.5,392.5 C 222.833,393.167 222.833,393.167 221.5,392.5 Z"/></g>
<g><path style="opacity:0.004" fill="#fefffe" d="M 130.5,394.5 C 131.833,395.167 131.833,395.167 130.5,394.5 Z"/></g>
<g><path style="opacity:0.373" fill="#bfbfbf" d="M 78.5,258.5 C 78.8333,258.5 79.1667,258.5 79.5,258.5C 79.3058,330.156 79.6391,401.822 80.5,473.5C 79.8333,473.5 79.1667,473.5 78.5,473.5C 78.5,401.833 78.5,330.167 78.5,258.5 Z"/></g>
<g><path style="opacity:0.004" fill="#fefffe" d="M 402.5,396.5 C 403.833,397.167 403.833,397.167 402.5,396.5 Z"/></g>
<g><path style="opacity:0.004" fill="#fefffe" d="M 278.5,401.5 C 279.833,402.167 279.833,402.167 278.5,401.5 Z"/></g>
<g><path style="opacity:0.757" fill="#565656" d="M 60.5,389.5 C 60.8333,389.5 61.1667,389.5 61.5,389.5C 61.1818,394.032 61.5151,398.366 62.5,402.5C 62.5,403.167 62.5,403.833 62.5,404.5C 62.5,408.167 62.5,411.833 62.5,415.5C 62.1667,415.5 61.8333,415.5 61.5,415.5C 61.8064,412.615 61.4731,409.948 60.5,407.5C 60.5,402.833 60.5,398.167 60.5,393.5C 60.5,392.167 60.5,390.833 60.5,389.5 Z"/></g>
<g><path style="opacity:0.004" fill="#fefffe" d="M 263.5,404.5 C 264.833,405.167 264.833,405.167 263.5,404.5 Z"/></g>
<g><path style="opacity:0.439" fill="#e0e0e0" d="M 60.5,393.5 C 60.5,398.167 60.5,402.833 60.5,407.5C 59.669,414.131 59.3357,420.798 59.5,427.5C 59.1667,427.5 58.8333,427.5 58.5,427.5C 58.3087,415.964 58.9754,404.631 60.5,393.5 Z"/></g>
<g><path style="opacity:0.224" fill="#f2f2f2" d="M 66.5,420.5 C 67.1667,420.5 67.8333,420.5 68.5,420.5C 67.1667,422.5 67.1667,424.5 68.5,426.5C 67.8333,426.5 67.1667,426.5 66.5,426.5C 66.5,424.5 66.5,422.5 66.5,420.5 Z"/></g>
<g><path style="opacity:0.004" fill="#fefffe" d="M 317.5,422.5 C 318.833,423.167 318.833,423.167 317.5,422.5 Z"/></g>
<g><path style="opacity:0.004" fill="#fefffe" d="M 333.5,423.5 C 334.833,424.167 334.833,424.167 333.5,423.5 Z"/></g>
<g><path style="opacity:0.957" fill="#212121" d="M 60.5,407.5 C 61.4731,409.948 61.8064,412.615 61.5,415.5C 60.8929,424.487 60.5596,433.487 60.5,442.5C 59.5128,437.695 59.1795,432.695 59.5,427.5C 59.3357,420.798 59.669,414.131 60.5,407.5 Z"/></g>
<g><path style="opacity:0.875" fill="#6a6a6a" d="M 64.5,420.5 C 65.1667,420.5 65.8333,420.5 66.5,420.5C 66.5,422.5 66.5,424.5 66.5,426.5C 64.6921,425.082 64.0254,423.082 64.5,420.5 Z"/></g>
<g><path style="opacity:0.788" fill="#8c8c8c" d="M 68.5,420.5 C 72.6852,421.556 73.3519,423.723 70.5,427C 69.5632,427.692 68.8966,427.525 68.5,426.5C 67.1667,424.5 67.1667,422.5 68.5,420.5 Z"/></g>
<g><path style="opacity:0.328" fill="#d6d6d6" d="M 74.5,390.5 C 75.8286,395.624 76.4952,401.124 76.5,407C 76.4898,429.169 76.4898,451.336 76.5,473.5C 75.8333,473.5 75.1667,473.5 74.5,473.5C 75.1352,445.511 75.1352,417.844 74.5,390.5 Z"/></g>
<g><path style="opacity:1" fill="#0a0a0a" d="M 76.5,358.5 C 77.4985,396.663 77.8319,434.996 77.5,473.5C 77.1667,473.5 76.8333,473.5 76.5,473.5C 76.4898,451.336 76.4898,429.169 76.5,407C 76.4952,401.124 75.8286,395.624 74.5,390.5C 74.5,390.167 74.5,389.833 74.5,389.5C 76.4753,379.554 77.1419,369.221 76.5,358.5 Z"/></g>
<g><path style="opacity:0.004" fill="#fefffe" d="M 119.5,434.5 C 120.833,435.167 120.833,435.167 119.5,434.5 Z"/></g>
<g><path style="opacity:0.004" fill="#fefffe" d="M 132.5,435.5 C 133.833,436.167 133.833,436.167 132.5,435.5 Z"/></g>
<g><path style="opacity:0.004" fill="#fefffe" d="M 402.5,435.5 C 403.833,436.167 403.833,436.167 402.5,435.5 Z"/></g>
<g><path style="opacity:0.004" fill="#fefffe" d="M 213.5,441.5 C 214.833,442.167 214.833,442.167 213.5,441.5 Z"/></g>
<g><path style="opacity:0.876" fill="#5d5d5d" d="M 58.5,427.5 C 58.8333,427.5 59.1667,427.5 59.5,427.5C 59.1795,432.695 59.5128,437.695 60.5,442.5C 60.5,447.5 60.5,452.5 60.5,457.5C 62.4008,457.246 63.0674,457.58 62.5,458.5C 62.1667,458.5 61.8333,458.5 61.5,458.5C 60.8333,458.5 60.1667,458.5 59.5,458.5C 59.8195,453.637 59.4861,448.97 58.5,444.5C 58.5,439.167 58.5,433.833 58.5,428.5C 58.5,428.167 58.5,427.833 58.5,427.5 Z"/></g>
<g><path style="opacity:0.004" fill="#fefffe" d="M 421.5,445.5 C 422.833,446.167 422.833,446.167 421.5,445.5 Z"/></g>
<g><path style="opacity:0.004" fill="#fefffe" d="M 111.5,450.5 C 112.833,451.167 112.833,451.167 111.5,450.5 Z"/></g>
<g><path style="opacity:0.741" fill="#8c8c8c" d="M 68.5,453.5 C 72.1946,454.187 73.1946,456.187 71.5,459.5C 70.1266,459.657 68.7932,459.49 67.5,459C 69.6348,457.444 69.9681,455.611 68.5,453.5 Z"/></g>
<g><path style="opacity:0.729" fill="#c9c9c9" d="M 58.5,428.5 C 58.5,433.833 58.5,439.167 58.5,444.5C 58.2913,454.172 57.958,463.839 57.5,473.5C 57.1667,473.5 56.8333,473.5 56.5,473.5C 56.3736,458.309 57.0403,443.309 58.5,428.5 Z"/></g>
<g><path style="opacity:0.069" fill="#e9e9e9" d="M 61.5,415.5 C 61.8333,415.5 62.1667,415.5 62.5,415.5C 62.0773,417.781 62.744,419.448 64.5,420.5C 64.0254,423.082 64.6921,425.082 66.5,426.5C 65.4583,427.791 64.2917,427.791 63,426.5C 61.3346,436.472 61.1679,446.472 62.5,456.5C 63.1757,455.398 63.8423,454.398 64.5,453.5C 65.1667,461.5 65.8333,461.5 66.5,453.5C 67.1667,453.5 67.8333,453.5 68.5,453.5C 69.9681,455.611 69.6348,457.444 67.5,459C 68.7932,459.49 70.1266,459.657 71.5,459.5C 69.0336,460.634 66.367,460.801 63.5,460C 62.944,459.617 62.6107,459.117 62.5,458.5C 63.0674,457.58 62.4008,457.246 60.5,457.5C 60.5,452.5 60.5,447.5 60.5,442.5C 60.5596,433.487 60.8929,424.487 61.5,415.5 Z"/></g>
<g><path style="opacity:0.805" fill="#7a7a7a" d="M 64.5,453.5 C 65.1667,453.5 65.8333,453.5 66.5,453.5C 65.8333,461.5 65.1667,461.5 64.5,453.5 Z"/></g>
<g><path style="opacity:0.004" fill="#fefffe" d="M 216.5,456.5 C 217.833,457.167 217.833,457.167 216.5,456.5 Z"/></g>
<g><path style="opacity:0.004" fill="#fefffe" d="M 249.5,459.5 C 250.833,460.167 250.833,460.167 249.5,459.5 Z"/></g>
<g><path style="opacity:0.004" fill="#fefffe" d="M 298.5,463.5 C 299.833,464.167 299.833,464.167 298.5,463.5 Z"/></g>
<g><path style="opacity:0.094" fill="#e1e1e1" d="M 59.5,458.5 C 60.1667,458.5 60.8333,458.5 61.5,458.5C 60.5546,463.405 60.2213,468.405 60.5,473.5C 60.1667,473.5 59.8333,473.5 59.5,473.5C 59.5,468.5 59.5,463.5 59.5,458.5 Z"/></g>
<g><path style="opacity:0.004" fill="#fefffe" d="M 319.5,466.5 C 320.833,467.167 320.833,467.167 319.5,466.5 Z"/></g>
<g><path style="opacity:0.004" fill="#fefffe" d="M 140.5,467.5 C 141.833,468.167 141.833,468.167 140.5,467.5 Z"/></g>
<g><path style="opacity:0.004" fill="#fefffe" d="M 158.5,467.5 C 159.833,468.167 159.833,468.167 158.5,467.5 Z"/></g>
<g><path style="opacity:0.824" fill="#292929" d="M 58.5,444.5 C 59.4861,448.97 59.8195,453.637 59.5,458.5C 59.5,463.5 59.5,468.5 59.5,473.5C 58.8333,473.5 58.1667,473.5 57.5,473.5C 57.958,463.839 58.2913,454.172 58.5,444.5 Z"/></g>
</svg>
